<svg width="578" height="575" viewBox="0 0 578 575" fill="none" xmlns="http://www.w3.org/2000/svg">
<path fill-rule="evenodd" clip-rule="evenodd" d="M344.075 195.828C418.094 242.767 397.384 345.882 411.242 427.356C422.11 491.247 442.129 555.709 414.851 611.935C385.888 671.635 333.289 724.997 263.226 732.453C197.009 739.5 142.201 683.386 83.4754 647.2C27.859 612.929 -32.2701 585.767 -64.2248 530.679C-105.316 459.84 -151.449 373.125 -114.139 306.523C-76.7296 239.744 25.0573 250.816 103.116 231.959C184.496 212.299 269.922 148.805 344.075 195.828Z" fill="black"/>
<path fill-rule="evenodd" clip-rule="evenodd" d="M328.075 206.828C402.094 253.767 381.384 356.882 395.242 438.356C406.11 502.247 426.129 566.709 398.851 622.935C369.888 682.635 317.289 735.997 247.226 743.453C181.009 750.5 126.201 694.386 67.4754 658.2C11.859 623.929 -48.2701 596.767 -80.2248 541.679C-121.316 470.84 -167.449 384.125 -130.139 317.523C-92.7296 250.744 9.0573 261.816 87.1155 242.959C168.496 223.299 253.922 159.805 328.075 206.828Z" fill="url(#paint0_linear_19_11)"/>
<path d="M26.9318 19V16.4432C26.9318 15.6667 27.0691 14.8428 27.3438 13.9716C27.6278 13.0909 28.035 12.2434 28.5653 11.429C29.1051 10.6051 29.7538 9.89015 30.5114 9.28409L32.3295 10.7614C31.733 11.6136 31.2121 12.5038 30.767 13.4318C30.3314 14.3504 30.1136 15.3352 30.1136 16.3864V19H26.9318ZM34.2045 19V16.4432C34.2045 15.6667 34.3419 14.8428 34.6165 13.9716C34.9006 13.0909 35.3078 12.2434 35.8381 11.429C36.3778 10.6051 37.0265 9.89015 37.7841 9.28409L39.6023 10.7614C39.0057 11.6136 38.4848 12.5038 38.0398 13.4318C37.6042 14.3504 37.3864 15.3352 37.3864 16.3864V19H34.2045ZM43.7571 39V9.90909H61.2003V13.0341H47.2798V22.8636H59.8935V25.9886H47.2798V39H43.7571ZM66.7791 39V17.1818H70.1314V39H66.7791ZM68.4837 13.5455C67.8303 13.5455 67.2668 13.3229 66.7933 12.8778C66.3293 12.4328 66.0973 11.8977 66.0973 11.2727C66.0973 10.6477 66.3293 10.1127 66.7933 9.66761C67.2668 9.22254 67.8303 9 68.4837 9C69.1371 9 69.6958 9.22254 70.1598 9.66761C70.6333 10.1127 70.87 10.6477 70.87 11.2727C70.87 11.8977 70.6333 12.4328 70.1598 12.8778C69.6958 13.3229 69.1371 13.5455 68.4837 13.5455ZM79.6236 25.875V39H76.2713V17.1818H79.5099V20.5909H79.794C80.3054 19.483 81.0819 18.5928 82.1236 17.9205C83.1652 17.2386 84.5099 16.8977 86.1577 16.8977C87.6349 16.8977 88.9276 17.2008 90.0355 17.8068C91.1435 18.4034 92.0052 19.3125 92.6207 20.5341C93.2363 21.7462 93.544 23.2803 93.544 25.1364V39H90.1918V25.3636C90.1918 23.6496 89.7467 22.3144 88.8565 21.358C87.9664 20.392 86.7448 19.9091 85.1918 19.9091C84.1217 19.9091 83.1652 20.1411 82.3224 20.6051C81.4891 21.0691 80.831 21.7462 80.348 22.6364C79.8651 23.5265 79.6236 24.6061 79.6236 25.875ZM106.09 39.5114C104.708 39.5114 103.453 39.2509 102.326 38.7301C101.199 38.1998 100.304 37.4375 99.6413 36.4432C98.9785 35.4394 98.647 34.2273 98.647 32.8068C98.647 31.5568 98.8932 30.5436 99.3857 29.767C99.8781 28.9811 100.536 28.3655 101.36 27.9205C102.184 27.4754 103.093 27.1439 104.087 26.9261C105.091 26.6989 106.1 26.5189 107.113 26.3864C108.439 26.2159 109.513 26.0881 110.337 26.0028C111.171 25.9081 111.777 25.7519 112.156 25.5341C112.544 25.3163 112.738 24.9375 112.738 24.3977V24.2841C112.738 22.8826 112.354 21.7936 111.587 21.017C110.83 20.2405 109.679 19.8523 108.136 19.8523C106.535 19.8523 105.281 20.2027 104.371 20.9034C103.462 21.6042 102.823 22.3523 102.454 23.1477L99.272 22.0114C99.8402 20.6856 100.598 19.6534 101.545 18.9148C102.501 18.1667 103.543 17.6458 104.67 17.3523C105.806 17.0492 106.924 16.8977 108.022 16.8977C108.723 16.8977 109.528 16.983 110.437 17.1534C111.355 17.3144 112.241 17.6506 113.093 18.1619C113.955 18.6733 114.67 19.4451 115.238 20.4773C115.806 21.5095 116.09 22.892 116.09 24.625V39H112.738V36.0455H112.567C112.34 36.5189 111.961 37.0256 111.431 37.5653C110.901 38.1051 110.195 38.5644 109.315 38.9432C108.434 39.322 107.359 39.5114 106.09 39.5114ZM106.602 36.5C107.927 36.5 109.045 36.2396 109.954 35.7188C110.872 35.1979 111.564 34.5256 112.028 33.7017C112.501 32.8778 112.738 32.0114 112.738 31.1023V28.0341C112.596 28.2045 112.283 28.3608 111.8 28.5028C111.327 28.6354 110.778 28.7538 110.153 28.858C109.537 28.9527 108.936 29.0379 108.349 29.1136C107.771 29.1799 107.302 29.2367 106.942 29.2841C106.071 29.3977 105.257 29.5824 104.499 29.8381C103.751 30.0843 103.145 30.4583 102.681 30.9602C102.227 31.4527 101.999 32.125 101.999 32.9773C101.999 34.142 102.43 35.0227 103.292 35.6193C104.163 36.2064 105.266 36.5 106.602 36.5ZM125.561 9.90909V39H122.209V9.90909H125.561ZM135.053 9.90909V39H131.701V9.90909H135.053ZM143.352 47.1818C142.784 47.1818 142.277 47.1345 141.832 47.0398C141.387 46.9545 141.08 46.8693 140.909 46.7841L141.761 43.8295C142.576 44.0379 143.295 44.1136 143.92 44.0568C144.545 44 145.099 43.7206 145.582 43.2188C146.075 42.7263 146.525 41.9261 146.932 40.8182L147.557 39.1136L139.489 17.1818H143.125L149.148 34.5682H149.375L155.398 17.1818H159.034L149.773 42.1818C149.356 43.3087 148.84 44.2415 148.224 44.9801C147.609 45.7282 146.894 46.2822 146.08 46.642C145.275 47.0019 144.366 47.1818 143.352 47.1818ZM181.129 39.5114C179.747 39.5114 178.492 39.2509 177.365 38.7301C176.238 38.1998 175.343 37.4375 174.68 36.4432C174.018 35.4394 173.686 34.2273 173.686 32.8068C173.686 31.5568 173.932 30.5436 174.425 29.767C174.917 28.9811 175.575 28.3655 176.399 27.9205C177.223 27.4754 178.132 27.1439 179.126 26.9261C180.13 26.6989 181.139 26.5189 182.152 26.3864C183.478 26.2159 184.553 26.0881 185.376 26.0028C186.21 25.9081 186.816 25.7519 187.195 25.5341C187.583 25.3163 187.777 24.9375 187.777 24.3977V24.2841C187.777 22.8826 187.393 21.7936 186.626 21.017C185.869 20.2405 184.718 19.8523 183.175 19.8523C181.574 19.8523 180.32 20.2027 179.411 20.9034C178.501 21.6042 177.862 22.3523 177.493 23.1477L174.311 22.0114C174.879 20.6856 175.637 19.6534 176.584 18.9148C177.54 18.1667 178.582 17.6458 179.709 17.3523C180.845 17.0492 181.963 16.8977 183.061 16.8977C183.762 16.8977 184.567 16.983 185.476 17.1534C186.394 17.3144 187.28 17.6506 188.132 18.1619C188.994 18.6733 189.709 19.4451 190.277 20.4773C190.845 21.5095 191.129 22.892 191.129 24.625V39H187.777V36.0455H187.607C187.379 36.5189 187 37.0256 186.47 37.5653C185.94 38.1051 185.234 38.5644 184.354 38.9432C183.473 39.322 182.398 39.5114 181.129 39.5114ZM181.641 36.5C182.966 36.5 184.084 36.2396 184.993 35.7188C185.911 35.1979 186.603 34.5256 187.067 33.7017C187.54 32.8778 187.777 32.0114 187.777 31.1023V28.0341C187.635 28.2045 187.322 28.3608 186.839 28.5028C186.366 28.6354 185.817 28.7538 185.192 28.858C184.576 28.9527 183.975 29.0379 183.388 29.1136C182.81 29.1799 182.341 29.2367 181.982 29.2841C181.11 29.3977 180.296 29.5824 179.538 29.8381C178.79 30.0843 178.184 30.4583 177.72 30.9602C177.266 31.4527 177.038 32.125 177.038 32.9773C177.038 34.142 177.469 35.0227 178.331 35.6193C179.202 36.2064 180.305 36.5 181.641 36.5ZM200.6 25.875V39H197.248V17.1818H200.487V20.5909H200.771C201.282 19.483 202.058 18.5928 203.1 17.9205C204.142 17.2386 205.487 16.8977 207.134 16.8977C208.612 16.8977 209.904 17.2008 211.012 17.8068C212.12 18.4034 212.982 19.3125 213.597 20.5341C214.213 21.7462 214.521 23.2803 214.521 25.1364V39H211.168V25.3636C211.168 23.6496 210.723 22.3144 209.833 21.358C208.943 20.392 207.721 19.9091 206.168 19.9091C205.098 19.9091 204.142 20.1411 203.299 20.6051C202.466 21.0691 201.808 21.7462 201.325 22.6364C200.842 23.5265 200.6 24.6061 200.6 25.875ZM341.619 17.1818V20.0227H330.312V17.1818H341.619ZM333.608 11.9545H336.96V32.75C336.96 33.697 337.098 34.4072 337.372 34.8807C337.656 35.3447 338.016 35.6572 338.452 35.8182C338.897 35.9697 339.366 36.0455 339.858 36.0455C340.227 36.0455 340.53 36.0265 340.767 35.9886C341.004 35.9413 341.193 35.9034 341.335 35.875L342.017 38.8864C341.79 38.9716 341.473 39.0568 341.065 39.142C340.658 39.2367 340.142 39.2841 339.517 39.2841C338.57 39.2841 337.642 39.0805 336.733 38.6733C335.833 38.2661 335.085 37.6458 334.489 36.8125C333.902 35.9792 333.608 34.928 333.608 33.6591V11.9545ZM355.291 39.4545C353.321 39.4545 351.593 38.9858 350.107 38.0483C348.629 37.1108 347.474 35.7992 346.641 34.1136C345.817 32.428 345.405 30.4583 345.405 28.2045C345.405 25.9318 345.817 23.9479 346.641 22.2528C347.474 20.5578 348.629 19.2415 350.107 18.304C351.593 17.3665 353.321 16.8977 355.291 16.8977C357.261 16.8977 358.984 17.3665 360.462 18.304C361.948 19.2415 363.104 20.5578 363.928 22.2528C364.761 23.9479 365.178 25.9318 365.178 28.2045C365.178 30.4583 364.761 32.428 363.928 34.1136C363.104 35.7992 361.948 37.1108 360.462 38.0483C358.984 38.9858 357.261 39.4545 355.291 39.4545ZM355.291 36.4432C356.787 36.4432 358.018 36.0597 358.984 35.2926C359.95 34.5256 360.665 33.517 361.129 32.267C361.593 31.017 361.825 29.6629 361.825 28.2045C361.825 26.7462 361.593 25.3873 361.129 24.1278C360.665 22.8684 359.95 21.8504 358.984 21.0739C358.018 20.2973 356.787 19.9091 355.291 19.9091C353.795 19.9091 352.564 20.2973 351.598 21.0739C350.632 21.8504 349.917 22.8684 349.453 24.1278C348.989 25.3873 348.757 26.7462 348.757 28.2045C348.757 29.6629 348.989 31.017 349.453 32.267C349.917 33.517 350.632 34.5256 351.598 35.2926C352.564 36.0597 353.795 36.4432 355.291 36.4432ZM41.8182 78.0795V65.1818H45.1705V87H41.8182V83.3068H41.5909C41.0795 84.4148 40.2841 85.357 39.2045 86.1335C38.125 86.9006 36.7614 87.2841 35.1136 87.2841C33.75 87.2841 32.5379 86.9858 31.4773 86.3892C30.4167 85.7831 29.5833 84.8741 28.9773 83.6619C28.3712 82.4403 28.0682 80.9015 28.0682 79.0455V65.1818H31.4205V78.8182C31.4205 80.4091 31.8655 81.678 32.7557 82.625C33.6553 83.572 34.8011 84.0455 36.1932 84.0455C37.0265 84.0455 37.8741 83.8324 38.7358 83.4062C39.607 82.9801 40.3362 82.3267 40.9233 81.446C41.5199 80.5653 41.8182 79.4432 41.8182 78.0795ZM66.7649 70.0682L63.7536 70.9205C63.5642 70.4186 63.2848 69.9309 62.9155 69.4574C62.5556 68.9744 62.0632 68.5767 61.4382 68.2642C60.8132 67.9517 60.013 67.7955 59.0376 67.7955C57.7024 67.7955 56.5897 68.1032 55.6996 68.7188C54.8189 69.3248 54.3786 70.0966 54.3786 71.0341C54.3786 71.8674 54.6816 72.5256 55.2876 73.0085C55.8937 73.4915 56.8407 73.8939 58.1286 74.2159L61.3672 75.0114C63.3179 75.4848 64.7715 76.2093 65.728 77.1847C66.6844 78.1506 67.1626 79.3958 67.1626 80.9205C67.1626 82.1705 66.8028 83.2879 66.0831 84.2727C65.3729 85.2576 64.3786 86.0341 63.1001 86.6023C61.8217 87.1705 60.335 87.4545 58.6399 87.4545C56.4145 87.4545 54.5727 86.9716 53.1143 86.0057C51.656 85.0398 50.7327 83.6288 50.3445 81.7727L53.5263 80.9773C53.8293 82.1515 54.4022 83.0322 55.245 83.6193C56.0973 84.2064 57.21 84.5 58.5831 84.5C60.1456 84.5 61.3861 84.1686 62.3047 83.5057C63.2327 82.8333 63.6967 82.0284 63.6967 81.0909C63.6967 80.3333 63.4316 79.6989 62.9013 79.1875C62.371 78.6667 61.5566 78.2784 60.4581 78.0227L56.8217 77.1705C54.8236 76.697 53.3558 75.9631 52.4183 74.9688C51.4903 73.965 51.0263 72.7102 51.0263 71.2045C51.0263 69.9735 51.3719 68.8845 52.0632 67.9375C52.764 66.9905 53.7157 66.2472 54.9183 65.7074C56.1304 65.1676 57.5036 64.8977 59.0376 64.8977C61.1967 64.8977 62.8918 65.3712 64.1229 66.3182C65.3634 67.2652 66.2441 68.5152 66.7649 70.0682ZM81.3565 87.4545C79.2543 87.4545 77.4408 86.9905 75.9162 86.0625C74.401 85.125 73.2315 83.8182 72.4077 82.142C71.5933 80.4564 71.1861 78.4962 71.1861 76.2614C71.1861 74.0265 71.5933 72.0568 72.4077 70.3523C73.2315 68.6383 74.3774 67.303 75.8452 66.3466C77.3224 65.3807 79.0459 64.8977 81.0156 64.8977C82.152 64.8977 83.2741 65.0871 84.3821 65.4659C85.4901 65.8447 86.4986 66.4602 87.4077 67.3125C88.3168 68.1553 89.0412 69.2727 89.581 70.6648C90.1207 72.0568 90.3906 73.7708 90.3906 75.8068V77.2273H73.5724V74.3295H86.9815C86.9815 73.0985 86.7353 72 86.2429 71.0341C85.7599 70.0682 85.0687 69.3059 84.169 68.7472C83.2789 68.1884 82.2277 67.9091 81.0156 67.9091C79.6804 67.9091 78.5251 68.2405 77.5497 68.9034C76.5838 69.5568 75.8404 70.4091 75.3196 71.4602C74.7988 72.5114 74.5384 73.6383 74.5384 74.8409V76.7727C74.5384 78.4205 74.8224 79.8172 75.3906 80.9631C75.9683 82.0994 76.7685 82.9659 77.7912 83.5625C78.8139 84.1496 80.0024 84.4432 81.3565 84.4432C82.2372 84.4432 83.0327 84.3201 83.7429 84.0739C84.4626 83.8182 85.0829 83.4394 85.6037 82.9375C86.1245 82.4261 86.527 81.7917 86.8111 81.0341L90.0497 81.9432C89.7088 83.0417 89.1359 84.0076 88.331 84.8409C87.526 85.6648 86.5317 86.3087 85.348 86.7727C84.1643 87.2273 82.8338 87.4545 81.3565 87.4545ZM113.161 87.5114C111.778 87.5114 110.523 87.2509 109.396 86.7301C108.269 86.1998 107.375 85.4375 106.712 84.4432C106.049 83.4394 105.717 82.2273 105.717 80.8068C105.717 79.5568 105.964 78.5436 106.456 77.767C106.948 76.9811 107.607 76.3655 108.43 75.9205C109.254 75.4754 110.163 75.1439 111.158 74.9261C112.161 74.6989 113.17 74.5189 114.183 74.3864C115.509 74.2159 116.584 74.0881 117.408 74.0028C118.241 73.9081 118.847 73.7519 119.226 73.5341C119.614 73.3163 119.808 72.9375 119.808 72.3977V72.2841C119.808 70.8826 119.425 69.7936 118.658 69.017C117.9 68.2405 116.75 67.8523 115.206 67.8523C113.606 67.8523 112.351 68.2027 111.442 68.9034C110.533 69.6042 109.893 70.3523 109.524 71.1477L106.342 70.0114C106.911 68.6856 107.668 67.6534 108.615 66.9148C109.571 66.1667 110.613 65.6458 111.74 65.3523C112.876 65.0492 113.994 64.8977 115.092 64.8977C115.793 64.8977 116.598 64.983 117.507 65.1534C118.426 65.3144 119.311 65.6506 120.163 66.1619C121.025 66.6733 121.74 67.4451 122.308 68.4773C122.876 69.5095 123.161 70.892 123.161 72.625V87H119.808V84.0455H119.638C119.411 84.5189 119.032 85.0256 118.501 85.5653C117.971 86.1051 117.266 86.5644 116.385 86.9432C115.504 87.322 114.429 87.5114 113.161 87.5114ZM113.672 84.5C114.998 84.5 116.115 84.2396 117.024 83.7188C117.943 83.1979 118.634 82.5256 119.098 81.7017C119.571 80.8778 119.808 80.0114 119.808 79.1023V76.0341C119.666 76.2045 119.354 76.3608 118.871 76.5028C118.397 76.6354 117.848 76.7538 117.223 76.858C116.607 76.9527 116.006 77.0379 115.419 77.1136C114.841 77.1799 114.373 77.2367 114.013 77.2841C113.142 77.3977 112.327 77.5824 111.57 77.8381C110.821 78.0843 110.215 78.4583 109.751 78.9602C109.297 79.4527 109.07 80.125 109.07 80.9773C109.07 82.142 109.5 83.0227 110.362 83.6193C111.233 84.2064 112.337 84.5 113.672 84.5ZM132.631 73.875V87H129.279V65.1818H132.518V68.5909H132.802C133.313 67.483 134.09 66.5928 135.131 65.9205C136.173 65.2386 137.518 64.8977 139.165 64.8977C140.643 64.8977 141.935 65.2008 143.043 65.8068C144.151 66.4034 145.013 67.3125 145.629 68.5341C146.244 69.7462 146.552 71.2803 146.552 73.1364V87H143.2V73.3636C143.2 71.6496 142.754 70.3144 141.864 69.358C140.974 68.392 139.753 67.9091 138.2 67.9091C137.129 67.9091 136.173 68.1411 135.33 68.6051C134.497 69.0691 133.839 69.7462 133.356 70.6364C132.873 71.5265 132.631 72.6061 132.631 73.875ZM160.916 87.4545C159.098 87.4545 157.493 86.9953 156.101 86.0767C154.709 85.1487 153.62 83.8419 152.834 82.1562C152.048 80.4612 151.655 78.4583 151.655 76.1477C151.655 73.8561 152.048 71.8674 152.834 70.1818C153.62 68.4962 154.714 67.1941 156.115 66.2756C157.517 65.357 159.136 64.8977 160.973 64.8977C162.393 64.8977 163.516 65.1345 164.339 65.608C165.173 66.072 165.807 66.6023 166.243 67.1989C166.688 67.786 167.034 68.2689 167.28 68.6477H167.564V57.9091H170.916V87H167.678V83.6477H167.28C167.034 84.0455 166.683 84.5473 166.229 85.1534C165.774 85.75 165.125 86.285 164.283 86.7585C163.44 87.2225 162.318 87.4545 160.916 87.4545ZM161.371 84.4432C162.715 84.4432 163.852 84.0928 164.78 83.392C165.708 82.6818 166.413 81.7017 166.896 80.4517C167.379 79.1922 167.621 77.7386 167.621 76.0909C167.621 74.4621 167.384 73.0369 166.911 71.8153C166.437 70.5843 165.736 69.6278 164.808 68.946C163.88 68.2547 162.734 67.9091 161.371 67.9091C159.95 67.9091 158.767 68.2737 157.82 69.0028C156.882 69.7225 156.177 70.7027 155.703 71.9432C155.239 73.1742 155.007 74.5568 155.007 76.0909C155.007 77.6439 155.244 79.0549 155.717 80.3239C156.2 81.5833 156.911 82.5871 157.848 83.3352C158.795 84.0739 159.969 84.4432 161.371 84.4432ZM188.771 87V65.1818H192.124V87H188.771ZM190.476 61.5455C189.822 61.5455 189.259 61.3229 188.786 60.8778C188.321 60.4328 188.089 59.8977 188.089 59.2727C188.089 58.6477 188.321 58.1127 188.786 57.6676C189.259 57.2225 189.822 57 190.476 57C191.129 57 191.688 57.2225 192.152 57.6676C192.625 58.1127 192.862 58.6477 192.862 59.2727C192.862 59.8977 192.625 60.4328 192.152 60.8778C191.688 61.3229 191.129 61.5455 190.476 61.5455ZM201.616 73.875V87H198.263V65.1818H201.502V68.5909H201.786C202.298 67.483 203.074 66.5928 204.116 65.9205C205.157 65.2386 206.502 64.8977 208.15 64.8977C209.627 64.8977 210.92 65.2008 212.028 65.8068C213.136 66.4034 213.997 67.3125 214.613 68.5341C215.228 69.7462 215.536 71.2803 215.536 73.1364V87H212.184V73.3636C212.184 71.6496 211.739 70.3144 210.849 69.358C209.959 68.392 208.737 67.9091 207.184 67.9091C206.114 67.9091 205.157 68.1411 204.315 68.6051C203.481 69.0691 202.823 69.7462 202.34 70.6364C201.857 71.5265 201.616 72.6061 201.616 73.875ZM231.151 65.1818V68.0227H219.844V65.1818H231.151ZM223.139 59.9545H226.491V80.75C226.491 81.697 226.629 82.4072 226.903 82.8807C227.188 83.3447 227.547 83.6572 227.983 83.8182C228.428 83.9697 228.897 84.0455 229.389 84.0455C229.759 84.0455 230.062 84.0265 230.298 83.9886C230.535 83.9413 230.724 83.9034 230.866 83.875L231.548 86.8864C231.321 86.9716 231.004 87.0568 230.597 87.142C230.189 87.2367 229.673 87.2841 229.048 87.2841C228.101 87.2841 227.173 87.0805 226.264 86.6733C225.365 86.2661 224.616 85.6458 224.02 84.8125C223.433 83.9792 223.139 82.928 223.139 81.6591V59.9545ZM249.943 78.0795V65.1818H253.295V87H249.943V83.3068H249.716C249.205 84.4148 248.409 85.357 247.33 86.1335C246.25 86.9006 244.886 87.2841 243.239 87.2841C241.875 87.2841 240.663 86.9858 239.602 86.3892C238.542 85.7831 237.708 84.8741 237.102 83.6619C236.496 82.4403 236.193 80.9015 236.193 79.0455V65.1818H239.545V78.8182C239.545 80.4091 239.991 81.678 240.881 82.625C241.78 83.572 242.926 84.0455 244.318 84.0455C245.152 84.0455 245.999 83.8324 246.861 83.4062C247.732 82.9801 248.461 82.3267 249.048 81.446C249.645 80.5653 249.943 79.4432 249.943 78.0795ZM259.435 87V65.1818H262.788V87H259.435ZM261.14 61.5455C260.487 61.5455 259.923 61.3229 259.45 60.8778C258.986 60.4328 258.754 59.8977 258.754 59.2727C258.754 58.6477 258.986 58.1127 259.45 57.6676C259.923 57.2225 260.487 57 261.14 57C261.793 57 262.352 57.2225 262.816 57.6676C263.29 58.1127 263.526 58.6477 263.526 59.2727C263.526 59.8977 263.29 60.4328 262.816 60.8778C262.352 61.3229 261.793 61.5455 261.14 61.5455ZM278.416 65.1818V68.0227H267.109V65.1818H278.416ZM270.405 59.9545H273.757V80.75C273.757 81.697 273.894 82.4072 274.169 82.8807C274.453 83.3447 274.813 83.6572 275.249 83.8182C275.694 83.9697 276.162 84.0455 276.655 84.0455C277.024 84.0455 277.327 84.0265 277.564 83.9886C277.801 83.9413 277.99 83.9034 278.132 83.875L278.814 86.8864C278.587 86.9716 278.269 87.0568 277.862 87.142C277.455 87.2367 276.939 87.2841 276.314 87.2841C275.367 87.2841 274.439 87.0805 273.53 86.6733C272.63 86.2661 271.882 85.6458 271.286 84.8125C270.698 83.9792 270.405 82.928 270.405 81.6591V59.9545ZM283.459 87V65.1818H286.811V87H283.459ZM285.163 61.5455C284.51 61.5455 283.946 61.3229 283.473 60.8778C283.009 60.4328 282.777 59.8977 282.777 59.2727C282.777 58.6477 283.009 58.1127 283.473 57.6676C283.946 57.2225 284.51 57 285.163 57C285.817 57 286.375 57.2225 286.839 57.6676C287.313 58.1127 287.55 58.6477 287.55 59.2727C287.55 59.8977 287.313 60.4328 286.839 60.8778C286.375 61.3229 285.817 61.5455 285.163 61.5455ZM310.792 65.1818L302.724 87H299.315L291.246 65.1818H294.883L300.906 82.5682H301.133L307.156 65.1818H310.792ZM323.583 87.4545C321.481 87.4545 319.667 86.9905 318.143 86.0625C316.628 85.125 315.458 83.8182 314.634 82.142C313.82 80.4564 313.413 78.4962 313.413 76.2614C313.413 74.0265 313.82 72.0568 314.634 70.3523C315.458 68.6383 316.604 67.303 318.072 66.3466C319.549 65.3807 321.272 64.8977 323.242 64.8977C324.379 64.8977 325.501 65.0871 326.609 65.4659C327.717 65.8447 328.725 66.4602 329.634 67.3125C330.543 68.1553 331.268 69.2727 331.808 70.6648C332.347 72.0568 332.617 73.7708 332.617 75.8068V77.2273H315.799V74.3295H329.208C329.208 73.0985 328.962 72 328.469 71.0341C327.987 70.0682 327.295 69.3059 326.396 68.7472C325.505 68.1884 324.454 67.9091 323.242 67.9091C321.907 67.9091 320.752 68.2405 319.776 68.9034C318.81 69.5568 318.067 70.4091 317.546 71.4602C317.025 72.5114 316.765 73.6383 316.765 74.8409V76.7727C316.765 78.4205 317.049 79.8172 317.617 80.9631C318.195 82.0994 318.995 82.9659 320.018 83.5625C321.04 84.1496 322.229 84.4432 323.583 84.4432C324.464 84.4432 325.259 84.3201 325.969 84.0739C326.689 83.8182 327.309 83.4394 327.83 82.9375C328.351 82.4261 328.754 81.7917 329.038 81.0341L332.276 81.9432C331.935 83.0417 331.362 84.0076 330.558 84.8409C329.753 85.6648 328.758 86.3087 327.575 86.7727C326.391 87.2273 325.06 87.4545 323.583 87.4545ZM45.9091 113.182L37.8409 135H34.4318L26.3636 113.182H30L36.0227 130.568H36.25L42.2727 113.182H45.9091ZM50.3338 135V113.182H53.6861V135H50.3338ZM52.0384 109.545C51.3849 109.545 50.8215 109.323 50.348 108.878C49.884 108.433 49.652 107.898 49.652 107.273C49.652 106.648 49.884 106.113 50.348 105.668C50.8215 105.223 51.3849 105 52.0384 105C52.6918 105 53.2505 105.223 53.7145 105.668C54.188 106.113 54.4247 106.648 54.4247 107.273C54.4247 107.898 54.188 108.433 53.7145 108.878C53.2505 109.323 52.6918 109.545 52.0384 109.545ZM68.0646 135.455C66.2464 135.455 64.6413 134.995 63.2493 134.077C61.8572 133.149 60.7682 131.842 59.9822 130.156C59.1963 128.461 58.8033 126.458 58.8033 124.148C58.8033 121.856 59.1963 119.867 59.9822 118.182C60.7682 116.496 61.862 115.194 63.2635 114.276C64.665 113.357 66.2843 112.898 68.1214 112.898C69.5419 112.898 70.6641 113.134 71.4879 113.608C72.3213 114.072 72.9557 114.602 73.3913 115.199C73.8364 115.786 74.1821 116.269 74.4283 116.648H74.7124V105.909H78.0646V135H74.826V131.648H74.4283C74.1821 132.045 73.8317 132.547 73.3771 133.153C72.9226 133.75 72.2739 134.285 71.4311 134.759C70.5883 135.223 69.4661 135.455 68.0646 135.455ZM68.5192 132.443C69.8639 132.443 71.0002 132.093 71.9283 131.392C72.8563 130.682 73.5618 129.702 74.0447 128.452C74.5277 127.192 74.7692 125.739 74.7692 124.091C74.7692 122.462 74.5324 121.037 74.0589 119.815C73.5855 118.584 72.8847 117.628 71.9567 116.946C71.0286 116.255 69.8828 115.909 68.5192 115.909C67.0987 115.909 65.915 116.274 64.968 117.003C64.0305 117.723 63.325 118.703 62.8516 119.943C62.3875 121.174 62.1555 122.557 62.1555 124.091C62.1555 125.644 62.3923 127.055 62.8658 128.324C63.3487 129.583 64.0589 130.587 64.9964 131.335C65.9434 132.074 67.1177 132.443 68.5192 132.443ZM93.8175 135.455C91.7152 135.455 89.9018 134.991 88.3771 134.062C86.862 133.125 85.6925 131.818 84.8686 130.142C84.0542 128.456 83.647 126.496 83.647 124.261C83.647 122.027 84.0542 120.057 84.8686 118.352C85.6925 116.638 86.8383 115.303 88.3061 114.347C89.7834 113.381 91.5069 112.898 93.4766 112.898C94.6129 112.898 95.7351 113.087 96.843 113.466C97.951 113.845 98.9595 114.46 99.8686 115.312C100.778 116.155 101.502 117.273 102.042 118.665C102.582 120.057 102.852 121.771 102.852 123.807V125.227H86.0334V122.33H99.4425C99.4425 121.098 99.1963 120 98.7038 119.034C98.2209 118.068 97.5296 117.306 96.63 116.747C95.7398 116.188 94.6887 115.909 93.4766 115.909C92.1413 115.909 90.986 116.241 90.0107 116.903C89.0447 117.557 88.3014 118.409 87.7805 119.46C87.2597 120.511 86.9993 121.638 86.9993 122.841V124.773C86.9993 126.42 87.2834 127.817 87.8516 128.963C88.4292 130.099 89.2294 130.966 90.2521 131.562C91.2749 132.15 92.4633 132.443 93.8175 132.443C94.6982 132.443 95.4936 132.32 96.2038 132.074C96.9235 131.818 97.5438 131.439 98.0646 130.938C98.5855 130.426 98.9879 129.792 99.272 129.034L102.511 129.943C102.17 131.042 101.597 132.008 100.792 132.841C99.987 133.665 98.9927 134.309 97.8089 134.773C96.6252 135.227 95.2947 135.455 93.8175 135.455ZM116.815 135.455C114.845 135.455 113.117 134.986 111.63 134.048C110.153 133.111 108.997 131.799 108.164 130.114C107.34 128.428 106.928 126.458 106.928 124.205C106.928 121.932 107.34 119.948 108.164 118.253C108.997 116.558 110.153 115.241 111.63 114.304C113.117 113.366 114.845 112.898 116.815 112.898C118.784 112.898 120.508 113.366 121.985 114.304C123.472 115.241 124.627 116.558 125.451 118.253C126.284 119.948 126.701 121.932 126.701 124.205C126.701 126.458 126.284 128.428 125.451 130.114C124.627 131.799 123.472 133.111 121.985 134.048C120.508 134.986 118.784 135.455 116.815 135.455ZM116.815 132.443C118.311 132.443 119.542 132.06 120.508 131.293C121.474 130.526 122.189 129.517 122.653 128.267C123.117 127.017 123.349 125.663 123.349 124.205C123.349 122.746 123.117 121.387 122.653 120.128C122.189 118.868 121.474 117.85 120.508 117.074C119.542 116.297 118.311 115.909 116.815 115.909C115.318 115.909 114.087 116.297 113.121 117.074C112.156 117.85 111.441 118.868 110.977 120.128C110.513 121.387 110.281 122.746 110.281 124.205C110.281 125.663 110.513 127.017 110.977 128.267C111.441 129.517 112.156 130.526 113.121 131.293C114.087 132.06 115.318 132.443 116.815 132.443ZM151.932 135.455C149.886 135.455 148.125 134.972 146.648 134.006C145.17 133.04 144.034 131.709 143.239 130.014C142.443 128.319 142.045 126.383 142.045 124.205C142.045 121.989 142.453 120.033 143.267 118.338C144.091 116.634 145.237 115.303 146.705 114.347C148.182 113.381 149.905 112.898 151.875 112.898C153.409 112.898 154.792 113.182 156.023 113.75C157.254 114.318 158.262 115.114 159.048 116.136C159.834 117.159 160.322 118.352 160.511 119.716H157.159C156.903 118.722 156.335 117.841 155.455 117.074C154.583 116.297 153.409 115.909 151.932 115.909C150.625 115.909 149.479 116.25 148.494 116.932C147.519 117.604 146.757 118.556 146.207 119.787C145.668 121.009 145.398 122.443 145.398 124.091C145.398 125.777 145.663 127.244 146.193 128.494C146.733 129.744 147.491 130.715 148.466 131.406C149.451 132.098 150.606 132.443 151.932 132.443C152.803 132.443 153.594 132.292 154.304 131.989C155.014 131.686 155.616 131.25 156.108 130.682C156.6 130.114 156.951 129.432 157.159 128.636H160.511C160.322 129.924 159.853 131.084 159.105 132.116C158.366 133.139 157.386 133.954 156.165 134.56C154.953 135.156 153.542 135.455 151.932 135.455ZM174.276 135.455C172.306 135.455 170.578 134.986 169.091 134.048C167.614 133.111 166.458 131.799 165.625 130.114C164.801 128.428 164.389 126.458 164.389 124.205C164.389 121.932 164.801 119.948 165.625 118.253C166.458 116.558 167.614 115.241 169.091 114.304C170.578 113.366 172.306 112.898 174.276 112.898C176.245 112.898 177.969 113.366 179.446 114.304C180.933 115.241 182.088 116.558 182.912 118.253C183.745 119.948 184.162 121.932 184.162 124.205C184.162 126.458 183.745 128.428 182.912 130.114C182.088 131.799 180.933 133.111 179.446 134.048C177.969 134.986 176.245 135.455 174.276 135.455ZM174.276 132.443C175.772 132.443 177.003 132.06 177.969 131.293C178.935 130.526 179.65 129.517 180.114 128.267C180.578 127.017 180.81 125.663 180.81 124.205C180.81 122.746 180.578 121.387 180.114 120.128C179.65 118.868 178.935 117.85 177.969 117.074C177.003 116.297 175.772 115.909 174.276 115.909C172.779 115.909 171.548 116.297 170.582 117.074C169.616 117.85 168.902 118.868 168.438 120.128C167.973 121.387 167.741 122.746 167.741 124.205C167.741 125.663 167.973 127.017 168.438 128.267C168.902 129.517 169.616 130.526 170.582 131.293C171.548 132.06 172.779 132.443 174.276 132.443ZM192.631 121.875V135H189.279V113.182H192.518V116.591H192.802C193.313 115.483 194.09 114.593 195.131 113.92C196.173 113.239 197.518 112.898 199.165 112.898C200.643 112.898 201.935 113.201 203.043 113.807C204.151 114.403 205.013 115.312 205.629 116.534C206.244 117.746 206.552 119.28 206.552 121.136V135H203.2V121.364C203.2 119.65 202.754 118.314 201.864 117.358C200.974 116.392 199.753 115.909 198.2 115.909C197.129 115.909 196.173 116.141 195.33 116.605C194.497 117.069 193.839 117.746 193.356 118.636C192.873 119.527 192.631 120.606 192.631 121.875ZM222.393 113.182V116.023H210.632V113.182H222.393ZM214.155 135V110.17C214.155 108.92 214.448 107.879 215.036 107.045C215.623 106.212 216.385 105.587 217.322 105.17C218.26 104.754 219.25 104.545 220.291 104.545C221.115 104.545 221.787 104.612 222.308 104.744C222.829 104.877 223.217 105 223.473 105.114L222.507 108.011C222.337 107.955 222.1 107.884 221.797 107.798C221.503 107.713 221.115 107.67 220.632 107.67C219.524 107.67 218.724 107.95 218.232 108.509C217.749 109.067 217.507 109.886 217.507 110.966V135H214.155ZM235.341 135.455C233.239 135.455 231.425 134.991 229.901 134.062C228.385 133.125 227.216 131.818 226.392 130.142C225.578 128.456 225.17 126.496 225.17 124.261C225.17 122.027 225.578 120.057 226.392 118.352C227.216 116.638 228.362 115.303 229.83 114.347C231.307 113.381 233.03 112.898 235 112.898C236.136 112.898 237.259 113.087 238.366 113.466C239.474 113.845 240.483 114.46 241.392 115.312C242.301 116.155 243.026 117.273 243.565 118.665C244.105 120.057 244.375 121.771 244.375 123.807V125.227H227.557V122.33H240.966C240.966 121.098 240.72 120 240.227 119.034C239.744 118.068 239.053 117.306 238.153 116.747C237.263 116.188 236.212 115.909 235 115.909C233.665 115.909 232.509 116.241 231.534 116.903C230.568 117.557 229.825 118.409 229.304 119.46C228.783 120.511 228.523 121.638 228.523 122.841V124.773C228.523 126.42 228.807 127.817 229.375 128.963C229.953 130.099 230.753 130.966 231.776 131.562C232.798 132.15 233.987 132.443 235.341 132.443C236.222 132.443 237.017 132.32 237.727 132.074C238.447 131.818 239.067 131.439 239.588 130.938C240.109 130.426 240.511 129.792 240.795 129.034L244.034 129.943C243.693 131.042 243.12 132.008 242.315 132.841C241.51 133.665 240.516 134.309 239.332 134.773C238.149 135.227 236.818 135.455 235.341 135.455ZM249.474 135V113.182H252.713V116.477H252.94C253.338 115.398 254.058 114.522 255.099 113.849C256.141 113.177 257.315 112.841 258.622 112.841C258.868 112.841 259.176 112.846 259.545 112.855C259.915 112.865 260.194 112.879 260.384 112.898V116.307C260.27 116.278 260.009 116.236 259.602 116.179C259.205 116.113 258.783 116.08 258.338 116.08C257.277 116.08 256.33 116.302 255.497 116.747C254.673 117.183 254.02 117.789 253.537 118.565C253.063 119.332 252.827 120.208 252.827 121.193V135H249.474ZM272.841 135.455C270.739 135.455 268.925 134.991 267.401 134.062C265.885 133.125 264.716 131.818 263.892 130.142C263.078 128.456 262.67 126.496 262.67 124.261C262.67 122.027 263.078 120.057 263.892 118.352C264.716 116.638 265.862 115.303 267.33 114.347C268.807 113.381 270.53 112.898 272.5 112.898C273.636 112.898 274.759 113.087 275.866 113.466C276.974 113.845 277.983 114.46 278.892 115.312C279.801 116.155 280.526 117.273 281.065 118.665C281.605 120.057 281.875 121.771 281.875 123.807V125.227H265.057V122.33H278.466C278.466 121.098 278.22 120 277.727 119.034C277.244 118.068 276.553 117.306 275.653 116.747C274.763 116.188 273.712 115.909 272.5 115.909C271.165 115.909 270.009 116.241 269.034 116.903C268.068 117.557 267.325 118.409 266.804 119.46C266.283 120.511 266.023 121.638 266.023 122.841V124.773C266.023 126.42 266.307 127.817 266.875 128.963C267.453 130.099 268.253 130.966 269.276 131.562C270.298 132.15 271.487 132.443 272.841 132.443C273.722 132.443 274.517 132.32 275.227 132.074C275.947 131.818 276.567 131.439 277.088 130.938C277.609 130.426 278.011 129.792 278.295 129.034L281.534 129.943C281.193 131.042 280.62 132.008 279.815 132.841C279.01 133.665 278.016 134.309 276.832 134.773C275.649 135.227 274.318 135.455 272.841 135.455ZM290.327 121.875V135H286.974V113.182H290.213V116.591H290.497C291.009 115.483 291.785 114.593 292.827 113.92C293.868 113.239 295.213 112.898 296.861 112.898C298.338 112.898 299.631 113.201 300.739 113.807C301.847 114.403 302.708 115.312 303.324 116.534C303.939 117.746 304.247 119.28 304.247 121.136V135H300.895V121.364C300.895 119.65 300.45 118.314 299.56 117.358C298.67 116.392 297.448 115.909 295.895 115.909C294.825 115.909 293.868 116.141 293.026 116.605C292.192 117.069 291.534 117.746 291.051 118.636C290.568 119.527 290.327 120.606 290.327 121.875ZM319.237 135.455C317.191 135.455 315.43 134.972 313.952 134.006C312.475 133.04 311.339 131.709 310.543 130.014C309.748 128.319 309.35 126.383 309.35 124.205C309.35 121.989 309.757 120.033 310.572 118.338C311.396 116.634 312.541 115.303 314.009 114.347C315.487 113.381 317.21 112.898 319.18 112.898C320.714 112.898 322.096 113.182 323.327 113.75C324.558 114.318 325.567 115.114 326.353 116.136C327.139 117.159 327.627 118.352 327.816 119.716H324.464C324.208 118.722 323.64 117.841 322.759 117.074C321.888 116.297 320.714 115.909 319.237 115.909C317.93 115.909 316.784 116.25 315.799 116.932C314.824 117.604 314.061 118.556 313.512 119.787C312.972 121.009 312.702 122.443 312.702 124.091C312.702 125.777 312.968 127.244 313.498 128.494C314.038 129.744 314.795 130.715 315.771 131.406C316.755 132.098 317.911 132.443 319.237 132.443C320.108 132.443 320.898 132.292 321.609 131.989C322.319 131.686 322.92 131.25 323.413 130.682C323.905 130.114 324.255 129.432 324.464 128.636H327.816C327.627 129.924 327.158 131.084 326.41 132.116C325.671 133.139 324.691 133.954 323.469 134.56C322.257 135.156 320.846 135.455 319.237 135.455ZM332.717 135V113.182H336.069V135H332.717ZM334.421 109.545C333.768 109.545 333.204 109.323 332.731 108.878C332.267 108.433 332.035 107.898 332.035 107.273C332.035 106.648 332.267 106.113 332.731 105.668C333.204 105.223 333.768 105 334.421 105C335.075 105 335.633 105.223 336.097 105.668C336.571 106.113 336.808 106.648 336.808 107.273C336.808 107.898 336.571 108.433 336.097 108.878C335.633 109.323 335.075 109.545 334.421 109.545ZM345.561 121.875V135H342.209V113.182H345.447V116.591H345.732C346.243 115.483 347.019 114.593 348.061 113.92C349.103 113.239 350.447 112.898 352.095 112.898C353.572 112.898 354.865 113.201 355.973 113.807C357.081 114.403 357.943 115.312 358.558 116.534C359.174 117.746 359.482 119.28 359.482 121.136V135H356.129V121.364C356.129 119.65 355.684 118.314 354.794 117.358C353.904 116.392 352.682 115.909 351.129 115.909C350.059 115.909 349.103 116.141 348.26 116.605C347.427 117.069 346.768 117.746 346.286 118.636C345.803 119.527 345.561 120.606 345.561 121.875ZM374.414 143.636C372.795 143.636 371.403 143.428 370.238 143.011C369.073 142.604 368.103 142.064 367.326 141.392C366.559 140.729 365.948 140.019 365.494 139.261L368.164 137.386C368.467 137.784 368.851 138.239 369.315 138.75C369.779 139.271 370.413 139.721 371.218 140.099C372.032 140.488 373.098 140.682 374.414 140.682C376.175 140.682 377.629 140.256 378.775 139.403C379.921 138.551 380.494 137.216 380.494 135.398V130.966H380.21C379.963 131.364 379.613 131.856 379.158 132.443C378.713 133.021 378.069 133.537 377.227 133.991C376.393 134.437 375.266 134.659 373.846 134.659C372.085 134.659 370.503 134.242 369.102 133.409C367.71 132.576 366.606 131.364 365.792 129.773C364.987 128.182 364.585 126.25 364.585 123.977C364.585 121.742 364.978 119.796 365.763 118.139C366.549 116.473 367.643 115.185 369.045 114.276C370.446 113.357 372.066 112.898 373.903 112.898C375.323 112.898 376.45 113.134 377.283 113.608C378.126 114.072 378.77 114.602 379.215 115.199C379.67 115.786 380.02 116.269 380.266 116.648H380.607V113.182H383.846V135.625C383.846 137.5 383.42 139.025 382.567 140.199C381.725 141.383 380.588 142.249 379.158 142.798C377.738 143.357 376.156 143.636 374.414 143.636ZM374.3 131.648C375.645 131.648 376.781 131.34 377.71 130.724C378.638 130.109 379.343 129.223 379.826 128.068C380.309 126.913 380.55 125.53 380.55 123.92C380.55 122.348 380.314 120.961 379.84 119.759C379.367 118.556 378.666 117.614 377.738 116.932C376.81 116.25 375.664 115.909 374.3 115.909C372.88 115.909 371.696 116.269 370.749 116.989C369.812 117.708 369.106 118.674 368.633 119.886C368.169 121.098 367.937 122.443 367.937 123.92C367.937 125.436 368.174 126.776 368.647 127.94C369.13 129.096 369.84 130.005 370.778 130.668C371.725 131.321 372.899 131.648 374.3 131.648ZM43.5227 166.068L40.5114 166.92C40.322 166.419 40.0426 165.931 39.6733 165.457C39.3134 164.974 38.821 164.577 38.196 164.264C37.571 163.952 36.7708 163.795 35.7955 163.795C34.4602 163.795 33.3475 164.103 32.4574 164.719C31.5767 165.325 31.1364 166.097 31.1364 167.034C31.1364 167.867 31.4394 168.526 32.0455 169.009C32.6515 169.491 33.5985 169.894 34.8864 170.216L38.125 171.011C40.0758 171.485 41.5294 172.209 42.4858 173.185C43.4422 174.151 43.9205 175.396 43.9205 176.92C43.9205 178.17 43.5606 179.288 42.8409 180.273C42.1307 181.258 41.1364 182.034 39.858 182.602C38.5795 183.17 37.0928 183.455 35.3977 183.455C33.1723 183.455 31.3305 182.972 29.8722 182.006C28.4138 181.04 27.4905 179.629 27.1023 177.773L30.2841 176.977C30.5871 178.152 31.16 179.032 32.0028 179.619C32.8551 180.206 33.9678 180.5 35.3409 180.5C36.9034 180.5 38.1439 180.169 39.0625 179.506C39.9905 178.833 40.4545 178.028 40.4545 177.091C40.4545 176.333 40.1894 175.699 39.6591 175.188C39.1288 174.667 38.3144 174.278 37.2159 174.023L33.5795 173.17C31.5814 172.697 30.1136 171.963 29.1761 170.969C28.2481 169.965 27.7841 168.71 27.7841 167.205C27.7841 165.973 28.1297 164.884 28.821 163.938C29.5218 162.991 30.4735 162.247 31.6761 161.707C32.8883 161.168 34.2614 160.898 35.7955 160.898C37.9545 160.898 39.6496 161.371 40.8807 162.318C42.1212 163.265 43.0019 164.515 43.5227 166.068ZM51.1257 191.182C50.5575 191.182 50.0509 191.134 49.6058 191.04C49.1607 190.955 48.853 190.869 48.6825 190.784L49.5348 187.83C50.3492 188.038 51.0689 188.114 51.6939 188.057C52.3189 188 52.8729 187.721 53.3558 187.219C53.8482 186.726 54.2981 185.926 54.7053 184.818L55.3303 183.114L47.2621 161.182H50.8984L56.9212 178.568H57.1484L63.1712 161.182H66.8075L57.5462 186.182C57.1295 187.309 56.6134 188.241 55.9979 188.98C55.3823 189.728 54.6674 190.282 53.853 190.642C53.0481 191.002 52.139 191.182 51.1257 191.182ZM86.6868 166.068L83.6754 166.92C83.486 166.419 83.2067 165.931 82.8374 165.457C82.4775 164.974 81.9851 164.577 81.3601 164.264C80.7351 163.952 79.9349 163.795 78.9595 163.795C77.6243 163.795 76.5116 164.103 75.6214 164.719C74.7408 165.325 74.3004 166.097 74.3004 167.034C74.3004 167.867 74.6035 168.526 75.2095 169.009C75.8156 169.491 76.7625 169.894 78.0504 170.216L81.2891 171.011C83.2398 171.485 84.6934 172.209 85.6499 173.185C86.6063 174.151 87.0845 175.396 87.0845 176.92C87.0845 178.17 86.7247 179.288 86.005 180.273C85.2947 181.258 84.3004 182.034 83.022 182.602C81.7436 183.17 80.2569 183.455 78.5618 183.455C76.3364 183.455 74.4946 182.972 73.0362 182.006C71.5779 181.04 70.6546 179.629 70.2663 177.773L73.4482 176.977C73.7512 178.152 74.3241 179.032 75.1669 179.619C76.0192 180.206 77.1319 180.5 78.505 180.5C80.0675 180.5 81.308 180.169 82.2266 179.506C83.1546 178.833 83.6186 178.028 83.6186 177.091C83.6186 176.333 83.3535 175.699 82.8232 175.188C82.2929 174.667 81.4785 174.278 80.38 174.023L76.7436 173.17C74.7455 172.697 73.2777 171.963 72.3402 170.969C71.4122 169.965 70.9482 168.71 70.9482 167.205C70.9482 165.973 71.2938 164.884 71.9851 163.938C72.6858 162.991 73.6375 162.247 74.8402 161.707C76.0523 161.168 77.4254 160.898 78.9595 160.898C81.1186 160.898 82.8137 161.371 84.0447 162.318C85.2853 163.265 86.166 164.515 86.6868 166.068ZM101.619 161.182V164.023H90.3125V161.182H101.619ZM93.608 155.955H96.9602V176.75C96.9602 177.697 97.0975 178.407 97.3722 178.881C97.6563 179.345 98.0161 179.657 98.4517 179.818C98.8968 179.97 99.3655 180.045 99.858 180.045C100.227 180.045 100.53 180.027 100.767 179.989C101.004 179.941 101.193 179.903 101.335 179.875L102.017 182.886C101.79 182.972 101.473 183.057 101.065 183.142C100.658 183.237 100.142 183.284 99.517 183.284C98.5701 183.284 97.642 183.08 96.733 182.673C95.8333 182.266 95.0852 181.646 94.4886 180.812C93.9015 179.979 93.608 178.928 93.608 177.659V155.955ZM115.575 183.455C113.473 183.455 111.66 182.991 110.135 182.062C108.62 181.125 107.45 179.818 106.626 178.142C105.812 176.456 105.405 174.496 105.405 172.261C105.405 170.027 105.812 168.057 106.626 166.352C107.45 164.638 108.596 163.303 110.064 162.347C111.541 161.381 113.265 160.898 115.234 160.898C116.371 160.898 117.493 161.087 118.601 161.466C119.709 161.845 120.717 162.46 121.626 163.312C122.536 164.155 123.26 165.273 123.8 166.665C124.339 168.057 124.609 169.771 124.609 171.807V173.227H107.791V170.33H121.2C121.2 169.098 120.954 168 120.462 167.034C119.979 166.068 119.287 165.306 118.388 164.747C117.498 164.188 116.446 163.909 115.234 163.909C113.899 163.909 112.744 164.241 111.768 164.903C110.803 165.557 110.059 166.409 109.538 167.46C109.018 168.511 108.757 169.638 108.757 170.841V172.773C108.757 174.42 109.041 175.817 109.609 176.963C110.187 178.099 110.987 178.966 112.01 179.562C113.033 180.15 114.221 180.443 115.575 180.443C116.456 180.443 117.251 180.32 117.962 180.074C118.681 179.818 119.302 179.439 119.822 178.938C120.343 178.426 120.746 177.792 121.03 177.034L124.268 177.943C123.928 179.042 123.355 180.008 122.55 180.841C121.745 181.665 120.75 182.309 119.567 182.773C118.383 183.227 117.053 183.455 115.575 183.455ZM129.709 183V161.182H132.947V164.591H133.232C133.686 163.426 134.42 162.522 135.433 161.878C136.446 161.224 137.663 160.898 139.084 160.898C140.523 160.898 141.721 161.224 142.678 161.878C143.643 162.522 144.396 163.426 144.936 164.591H145.163C145.722 163.464 146.56 162.569 147.678 161.906C148.795 161.234 150.135 160.898 151.697 160.898C153.648 160.898 155.244 161.509 156.484 162.73C157.725 163.942 158.345 165.831 158.345 168.398V183H154.993V168.398C154.993 166.788 154.553 165.637 153.672 164.946C152.791 164.255 151.754 163.909 150.561 163.909C149.027 163.909 147.839 164.373 146.996 165.301C146.153 166.22 145.732 167.384 145.732 168.795V183H142.322V168.057C142.322 166.816 141.92 165.817 141.115 165.06C140.31 164.293 139.273 163.909 138.004 163.909C137.133 163.909 136.319 164.141 135.561 164.605C134.813 165.069 134.207 165.713 133.743 166.537C133.288 167.351 133.061 168.294 133.061 169.364V183H129.709ZM167.429 153.909V156.466C167.429 157.242 167.287 158.071 167.003 158.952C166.728 159.823 166.321 160.67 165.781 161.494C165.251 162.309 164.607 163.019 163.849 163.625L162.031 162.148C162.628 161.295 163.144 160.41 163.58 159.491C164.025 158.563 164.247 157.574 164.247 156.523V153.909H167.429ZM174.702 153.909V156.466C174.702 157.242 174.56 158.071 174.276 158.952C174.001 159.823 173.594 160.67 173.054 161.494C172.524 162.309 171.88 163.019 171.122 163.625L169.304 162.148C169.901 161.295 170.417 160.41 170.852 159.491C171.297 158.563 171.52 157.574 171.52 156.523V153.909H174.702Z" fill="black"/>
<path d="M241.044 39.4545C238.942 39.4545 237.128 38.9905 235.604 38.0625C234.089 37.125 232.919 35.8182 232.095 34.142C231.281 32.4564 230.874 30.4962 230.874 28.2614C230.874 26.0265 231.281 24.0568 232.095 22.3523C232.919 20.6383 234.065 19.303 235.533 18.3466C237.01 17.3807 238.733 16.8977 240.703 16.8977C241.839 16.8977 242.962 17.0871 244.07 17.4659C245.178 17.8447 246.186 18.4602 247.095 19.3125C248.004 20.1553 248.729 21.2727 249.268 22.6648C249.808 24.0568 250.078 25.7708 250.078 27.8068V29.2273H233.26V26.3295H246.669C246.669 25.0985 246.423 24 245.93 23.0341C245.447 22.0682 244.756 21.3059 243.857 20.7472C242.966 20.1884 241.915 19.9091 240.703 19.9091C239.368 19.9091 238.213 20.2405 237.237 20.9034C236.271 21.5568 235.528 22.4091 235.007 23.4602C234.486 24.5114 234.226 25.6383 234.226 26.8409V28.7727C234.226 30.4205 234.51 31.8172 235.078 32.9631C235.656 34.0994 236.456 34.9659 237.479 35.5625C238.501 36.1496 239.69 36.4432 241.044 36.4432C241.925 36.4432 242.72 36.3201 243.43 36.0739C244.15 35.8182 244.77 35.4394 245.291 34.9375C245.812 34.4261 246.214 33.7917 246.499 33.0341L249.737 33.9432C249.396 35.0417 248.823 36.0076 248.018 36.8409C247.214 37.6648 246.219 38.3087 245.036 38.7727C243.852 39.2273 242.521 39.4545 241.044 39.4545ZM261.598 39.5114C260.215 39.5114 258.961 39.2509 257.834 38.7301C256.707 38.1998 255.812 37.4375 255.149 36.4432C254.486 35.4394 254.155 34.2273 254.155 32.8068C254.155 31.5568 254.401 30.5436 254.893 29.767C255.386 28.9811 256.044 28.3655 256.868 27.9205C257.692 27.4754 258.601 27.1439 259.595 26.9261C260.599 26.6989 261.607 26.5189 262.621 26.3864C263.946 26.2159 265.021 26.0881 265.845 26.0028C266.679 25.9081 267.285 25.7519 267.663 25.5341C268.052 25.3163 268.246 24.9375 268.246 24.3977V24.2841C268.246 22.8826 267.862 21.7936 267.095 21.017C266.338 20.2405 265.187 19.8523 263.643 19.8523C262.043 19.8523 260.788 20.2027 259.879 20.9034C258.97 21.6042 258.331 22.3523 257.962 23.1477L254.78 22.0114C255.348 20.6856 256.106 19.6534 257.053 18.9148C258.009 18.1667 259.051 17.6458 260.178 17.3523C261.314 17.0492 262.431 16.8977 263.53 16.8977C264.231 16.8977 265.036 16.983 265.945 17.1534C266.863 17.3144 267.749 17.6506 268.601 18.1619C269.463 18.6733 270.178 19.4451 270.746 20.4773C271.314 21.5095 271.598 22.892 271.598 24.625V39H268.246V36.0455H268.075C267.848 36.5189 267.469 37.0256 266.939 37.5653C266.409 38.1051 265.703 38.5644 264.822 38.9432C263.942 39.322 262.867 39.5114 261.598 39.5114ZM262.109 36.5C263.435 36.5 264.553 36.2396 265.462 35.7188C266.38 35.1979 267.071 34.5256 267.536 33.7017C268.009 32.8778 268.246 32.0114 268.246 31.1023V28.0341C268.104 28.2045 267.791 28.3608 267.308 28.5028C266.835 28.6354 266.286 28.7538 265.661 28.858C265.045 28.9527 264.444 29.0379 263.857 29.1136C263.279 29.1799 262.81 29.2367 262.45 29.2841C261.579 29.3977 260.765 29.5824 260.007 29.8381C259.259 30.0843 258.653 30.4583 258.189 30.9602C257.734 31.4527 257.507 32.125 257.507 32.9773C257.507 34.142 257.938 35.0227 258.8 35.6193C259.671 36.2064 260.774 36.5 262.109 36.5ZM293.171 22.0682L290.16 22.9205C289.97 22.4186 289.691 21.9309 289.322 21.4574C288.962 20.9744 288.469 20.5767 287.844 20.2642C287.219 19.9517 286.419 19.7955 285.444 19.7955C284.109 19.7955 282.996 20.1032 282.106 20.7188C281.225 21.3248 280.785 22.0966 280.785 23.0341C280.785 23.8674 281.088 24.5256 281.694 25.0085C282.3 25.4915 283.247 25.8939 284.535 26.2159L287.773 27.0114C289.724 27.4848 291.178 28.2093 292.134 29.1847C293.091 30.1506 293.569 31.3958 293.569 32.9205C293.569 34.1705 293.209 35.2879 292.489 36.2727C291.779 37.2576 290.785 38.0341 289.506 38.6023C288.228 39.1705 286.741 39.4545 285.046 39.4545C282.821 39.4545 280.979 38.9716 279.521 38.0057C278.062 37.0398 277.139 35.6288 276.751 33.7727L279.933 32.9773C280.236 34.1515 280.808 35.0322 281.651 35.6193C282.504 36.2064 283.616 36.5 284.989 36.5C286.552 36.5 287.792 36.1686 288.711 35.5057C289.639 34.8333 290.103 34.0284 290.103 33.0909C290.103 32.3333 289.838 31.6989 289.308 31.1875C288.777 30.6667 287.963 30.2784 286.864 30.0227L283.228 29.1705C281.23 28.697 279.762 27.9631 278.825 26.9688C277.897 25.965 277.433 24.7102 277.433 23.2045C277.433 21.9735 277.778 20.8845 278.469 19.9375C279.17 18.9905 280.122 18.2472 281.325 17.7074C282.537 17.1676 283.91 16.8977 285.444 16.8977C287.603 16.8977 289.298 17.3712 290.529 18.3182C291.77 19.2652 292.65 20.5152 293.171 22.0682ZM300.774 47.1818C300.206 47.1818 299.699 47.1345 299.254 47.0398C298.809 46.9545 298.501 46.8693 298.331 46.7841L299.183 43.8295C299.998 44.0379 300.717 44.1136 301.342 44.0568C301.967 44 302.521 43.7206 303.004 43.2188C303.497 42.7263 303.946 41.9261 304.354 40.8182L304.979 39.1136L296.911 17.1818H300.547L306.57 34.5682H306.797L312.82 17.1818H316.456L307.195 42.1818C306.778 43.3087 306.262 44.2415 305.646 44.9801C305.031 45.7282 304.316 46.2822 303.501 46.642C302.696 47.0019 301.787 47.1818 300.774 47.1818Z" fill="#FFC6E5"/>
<defs>
<linearGradient id="paint0_linear_19_11" x1="297.194" y1="188.885" x2="32.8044" y2="646.821" gradientUnits="userSpaceOnUse">
<stop stop-color="#C49DF2"/>
<stop offset="1" stop-color="#FFC6E5"/>
</linearGradient>
</defs>
</svg>
