<svg width="654" height="418" viewBox="0 0 654 418" fill="none" xmlns="http://www.w3.org/2000/svg">
<rect x="228.728" y="526.633" width="743.741" height="368.298" transform="rotate(-45 228.728 526.633)" fill="black"/>
<path d="M10.1443 567.117C4.75508 561.728 4.75507 552.991 10.1443 547.601L430.496 127.25C435.885 121.861 444.623 121.861 450.012 127.25L510.601 187.839C515.99 193.228 515.99 201.965 510.601 207.355L90.2492 627.706C84.86 633.095 76.1223 633.095 70.7331 627.706L10.1443 567.117Z" fill="black"/>
<path d="M43.4853 540.68C38.799 535.993 38.799 528.395 43.4853 523.709L431.709 135.486C436.395 130.799 443.993 130.799 448.679 135.486L501.365 188.171C506.052 192.858 506.052 200.456 501.365 205.142L113.142 593.366C108.455 598.052 100.857 598.052 96.1712 593.365L43.4853 540.68Z" fill="#284333"/>
<rect x="207" y="559.905" width="743.741" height="366.499" transform="rotate(-45 207 559.905)" fill="#284333"/>
</svg>
