<svg width="1345" height="117" viewBox="0 0 1345 117" fill="none" xmlns="http://www.w3.org/2000/svg">
<rect x="2.5" y="7.5" width="293" height="107" rx="47.5" fill="#C49DF2" stroke="url(#paint0_linear_107_4)" stroke-width="5"/>
<rect x="351.5" y="7.5" width="293" height="107" rx="47.5" fill="#C49DF2" stroke="url(#paint1_linear_107_4)" stroke-width="5"/>
<path d="M432.216 37.5795H427.966C427.845 36.8826 427.621 36.2652 427.295 35.7273C426.97 35.1818 426.564 34.7197 426.08 34.3409C425.595 33.9621 425.042 33.678 424.42 33.4886C423.807 33.2917 423.144 33.1932 422.432 33.1932C421.167 33.1932 420.045 33.5114 419.068 34.1477C418.091 34.7765 417.326 35.7008 416.773 36.9205C416.22 38.1326 415.943 39.6136 415.943 41.3636C415.943 43.1439 416.22 44.6439 416.773 45.8636C417.333 47.0758 418.098 47.9924 419.068 48.6136C420.045 49.2273 421.163 49.5341 422.42 49.5341C423.117 49.5341 423.769 49.4432 424.375 49.2614C424.989 49.072 425.538 48.7955 426.023 48.4318C426.515 48.0682 426.928 47.6212 427.261 47.0909C427.602 46.5606 427.837 45.9545 427.966 45.2727L432.216 45.2955C432.057 46.4015 431.712 47.4394 431.182 48.4091C430.659 49.3788 429.973 50.2348 429.125 50.9773C428.277 51.7121 427.284 52.2879 426.148 52.7045C425.011 53.1136 423.75 53.3182 422.364 53.3182C420.318 53.3182 418.492 52.8447 416.886 51.8977C415.28 50.9508 414.015 49.5833 413.091 47.7955C412.167 46.0076 411.705 43.8636 411.705 41.3636C411.705 38.8561 412.17 36.7121 413.102 34.9318C414.034 33.1439 415.303 31.7765 416.909 30.8295C418.515 29.8826 420.333 29.4091 422.364 29.4091C423.659 29.4091 424.864 29.5909 425.977 29.9545C427.091 30.3182 428.083 30.8523 428.955 31.5568C429.826 32.2538 430.542 33.1098 431.102 34.125C431.67 35.1326 432.042 36.2841 432.216 37.5795ZM443.509 53.3409C441.804 53.3409 440.327 52.9659 439.077 52.2159C437.827 51.4659 436.857 50.4167 436.168 49.0682C435.486 47.7197 435.145 46.1439 435.145 44.3409C435.145 42.5379 435.486 40.9583 436.168 39.6023C436.857 38.2462 437.827 37.1932 439.077 36.4432C440.327 35.6932 441.804 35.3182 443.509 35.3182C445.213 35.3182 446.69 35.6932 447.94 36.4432C449.19 37.1932 450.156 38.2462 450.838 39.6023C451.527 40.9583 451.872 42.5379 451.872 44.3409C451.872 46.1439 451.527 47.7197 450.838 49.0682C450.156 50.4167 449.19 51.4659 447.94 52.2159C446.69 52.9659 445.213 53.3409 443.509 53.3409ZM443.531 50.0455C444.455 50.0455 445.228 49.7917 445.849 49.2841C446.471 48.7689 446.933 48.0795 447.236 47.2159C447.546 46.3523 447.702 45.3902 447.702 44.3295C447.702 43.2614 447.546 42.2955 447.236 41.4318C446.933 40.5606 446.471 39.8674 445.849 39.3523C445.228 38.8371 444.455 38.5795 443.531 38.5795C442.584 38.5795 441.796 38.8371 441.168 39.3523C440.546 39.8674 440.08 40.5606 439.77 41.4318C439.467 42.2955 439.315 43.2614 439.315 44.3295C439.315 45.3902 439.467 46.3523 439.77 47.2159C440.08 48.0795 440.546 48.7689 441.168 49.2841C441.796 49.7917 442.584 50.0455 443.531 50.0455ZM455.364 53V35.5455H459.295V38.5114H459.5C459.864 37.5114 460.466 36.7311 461.307 36.1705C462.148 35.6023 463.152 35.3182 464.318 35.3182C465.5 35.3182 466.496 35.6061 467.307 36.1818C468.125 36.75 468.701 37.5265 469.034 38.5114H469.216C469.602 37.5417 470.254 36.7689 471.17 36.1932C472.095 35.6098 473.189 35.3182 474.455 35.3182C476.061 35.3182 477.371 35.8258 478.386 36.8409C479.402 37.8561 479.909 39.3371 479.909 41.2841V53H475.784V41.9205C475.784 40.8371 475.496 40.0455 474.92 39.5455C474.345 39.0379 473.64 38.7841 472.807 38.7841C471.814 38.7841 471.038 39.0947 470.477 39.7159C469.924 40.3295 469.648 41.1288 469.648 42.1136V53H465.614V41.75C465.614 40.8485 465.341 40.1288 464.795 39.5909C464.258 39.053 463.553 38.7841 462.682 38.7841C462.091 38.7841 461.553 38.9356 461.068 39.2386C460.583 39.5341 460.197 39.9545 459.909 40.5C459.621 41.0379 459.477 41.6667 459.477 42.3864V53H455.364ZM484.082 59.5455V35.5455H488.128V38.4318H488.366C488.579 38.0076 488.878 37.5568 489.264 37.0795C489.651 36.5947 490.173 36.1818 490.832 35.8409C491.491 35.4924 492.332 35.3182 493.355 35.3182C494.704 35.3182 495.92 35.6629 497.003 36.3523C498.094 37.0341 498.957 38.0455 499.594 39.3864C500.238 40.7197 500.56 42.3561 500.56 44.2955C500.56 46.2121 500.245 47.8409 499.616 49.1818C498.988 50.5227 498.132 51.5455 497.048 52.25C495.965 52.9545 494.738 53.3068 493.366 53.3068C492.366 53.3068 491.537 53.1402 490.878 52.8068C490.219 52.4735 489.688 52.072 489.287 51.6023C488.893 51.125 488.586 50.6742 488.366 50.25H488.196V59.5455H484.082ZM488.116 44.2727C488.116 45.4015 488.276 46.3902 488.594 47.2386C488.92 48.0871 489.385 48.75 489.991 49.2273C490.605 49.697 491.348 49.9318 492.219 49.9318C493.128 49.9318 493.889 49.6894 494.503 49.2045C495.116 48.7121 495.579 48.0417 495.889 47.1932C496.207 46.3371 496.366 45.3636 496.366 44.2727C496.366 43.1894 496.211 42.2273 495.901 41.3864C495.59 40.5455 495.128 39.8864 494.514 39.4091C493.901 38.9318 493.135 38.6932 492.219 38.6932C491.34 38.6932 490.594 38.9242 489.98 39.3864C489.366 39.8485 488.901 40.4962 488.582 41.3295C488.272 42.1629 488.116 43.1439 488.116 44.2727ZM508.196 29.7273V53H504.082V29.7273H508.196ZM520.153 53.3409C518.403 53.3409 516.892 52.9773 515.619 52.25C514.354 51.5152 513.381 50.4773 512.699 49.1364C512.017 47.7879 511.676 46.2008 511.676 44.375C511.676 42.5795 512.017 41.0038 512.699 39.6477C513.388 38.2841 514.35 37.2235 515.585 36.4659C516.82 35.7008 518.271 35.3182 519.938 35.3182C521.013 35.3182 522.028 35.4924 522.983 35.8409C523.945 36.1818 524.794 36.7121 525.528 37.4318C526.271 38.1515 526.854 39.0682 527.278 40.1818C527.703 41.2879 527.915 42.6061 527.915 44.1364V45.3977H513.608V42.625H523.972C523.964 41.8371 523.794 41.1364 523.46 40.5227C523.127 39.9015 522.661 39.4129 522.062 39.0568C521.472 38.7008 520.782 38.5227 519.994 38.5227C519.153 38.5227 518.415 38.7273 517.778 39.1364C517.142 39.5379 516.646 40.0682 516.29 40.7273C515.941 41.3788 515.763 42.0947 515.756 42.875V45.2955C515.756 46.3106 515.941 47.1818 516.312 47.9091C516.684 48.6288 517.203 49.1818 517.869 49.5682C518.536 49.947 519.316 50.1364 520.21 50.1364C520.809 50.1364 521.35 50.053 521.835 49.8864C522.32 49.7121 522.741 49.4583 523.097 49.125C523.453 48.7917 523.722 48.3788 523.903 47.8864L527.744 48.3182C527.502 49.3333 527.04 50.2197 526.358 50.9773C525.684 51.7273 524.82 52.3106 523.767 52.7273C522.714 53.1364 521.509 53.3409 520.153 53.3409ZM540.111 35.5455V38.7273H530.077V35.5455H540.111ZM532.554 31.3636H536.668V47.75C536.668 48.303 536.751 48.7273 536.918 49.0227C537.092 49.3106 537.319 49.5076 537.599 49.6136C537.88 49.7197 538.19 49.7727 538.531 49.7727C538.789 49.7727 539.024 49.7538 539.236 49.7159C539.455 49.678 539.622 49.6439 539.736 49.6136L540.429 52.8295C540.209 52.9053 539.895 52.9886 539.486 53.0795C539.084 53.1705 538.592 53.2235 538.009 53.2386C536.978 53.2689 536.05 53.1136 535.224 52.7727C534.399 52.4242 533.743 51.8864 533.259 51.1591C532.781 50.4318 532.546 49.5227 532.554 48.4318V31.3636ZM551.091 53.3409C549.341 53.3409 547.83 52.9773 546.557 52.25C545.292 51.5152 544.318 50.4773 543.636 49.1364C542.955 47.7879 542.614 46.2008 542.614 44.375C542.614 42.5795 542.955 41.0038 543.636 39.6477C544.326 38.2841 545.288 37.2235 546.523 36.4659C547.758 35.7008 549.208 35.3182 550.875 35.3182C551.951 35.3182 552.966 35.4924 553.92 35.8409C554.883 36.1818 555.731 36.7121 556.466 37.4318C557.208 38.1515 557.792 39.0682 558.216 40.1818C558.64 41.2879 558.852 42.6061 558.852 44.1364V45.3977H544.545V42.625H554.909C554.902 41.8371 554.731 41.1364 554.398 40.5227C554.064 39.9015 553.598 39.4129 553 39.0568C552.409 38.7008 551.72 38.5227 550.932 38.5227C550.091 38.5227 549.352 38.7273 548.716 39.1364C548.08 39.5379 547.583 40.0682 547.227 40.7273C546.879 41.3788 546.701 42.0947 546.693 42.875V45.2955C546.693 46.3106 546.879 47.1818 547.25 47.9091C547.621 48.6288 548.14 49.1818 548.807 49.5682C549.473 49.947 550.254 50.1364 551.148 50.1364C551.746 50.1364 552.288 50.053 552.773 49.8864C553.258 49.7121 553.678 49.4583 554.034 49.125C554.39 48.7917 554.659 48.3788 554.841 47.8864L558.682 48.3182C558.439 49.3333 557.977 50.2197 557.295 50.9773C556.621 51.7273 555.758 52.3106 554.705 52.7273C553.652 53.1364 552.447 53.3409 551.091 53.3409ZM566.446 29.7273V53H562.332V29.7273H566.446ZM573.233 59.5455C572.672 59.5455 572.153 59.5 571.676 59.4091C571.206 59.3258 570.831 59.2273 570.551 59.1136L571.506 55.9091C572.104 56.0833 572.638 56.1667 573.108 56.1591C573.578 56.1515 573.991 56.0038 574.347 55.7159C574.71 55.4356 575.017 54.9659 575.267 54.3068L575.619 53.3636L569.29 35.5455H573.653L577.676 48.7273H577.858L581.892 35.5455H586.267L579.278 55.1136C578.953 56.0379 578.521 56.8295 577.983 57.4886C577.445 58.1553 576.786 58.6629 576.006 59.0114C575.233 59.3674 574.309 59.5455 573.233 59.5455ZM417.95 80.3636C417.95 82.8712 417.481 85.0189 416.541 86.8068C415.609 88.5871 414.337 89.9508 412.723 90.8977C411.117 91.8447 409.295 92.3182 407.257 92.3182C405.219 92.3182 403.393 91.8447 401.78 90.8977C400.174 89.9432 398.901 88.5758 397.962 86.7955C397.03 85.0076 396.564 82.8636 396.564 80.3636C396.564 77.8561 397.03 75.7121 397.962 73.9318C398.901 72.1439 400.174 70.7765 401.78 69.8295C403.393 68.8826 405.219 68.4091 407.257 68.4091C409.295 68.4091 411.117 68.8826 412.723 69.8295C414.337 70.7765 415.609 72.1439 416.541 73.9318C417.481 75.7121 417.95 77.8561 417.95 80.3636ZM413.712 80.3636C413.712 78.5985 413.435 77.1098 412.882 75.8977C412.337 74.678 411.579 73.7576 410.609 73.1364C409.64 72.5076 408.522 72.1932 407.257 72.1932C405.992 72.1932 404.875 72.5076 403.905 73.1364C402.935 73.7576 402.174 74.678 401.621 75.8977C401.075 77.1098 400.803 78.5985 400.803 80.3636C400.803 82.1288 401.075 83.6212 401.621 84.8409C402.174 86.053 402.935 86.9735 403.905 87.6023C404.875 88.2235 405.992 88.5341 407.257 88.5341C408.522 88.5341 409.64 88.2235 410.609 87.6023C411.579 86.9735 412.337 86.053 412.882 84.8409C413.435 83.6212 413.712 82.1288 413.712 80.3636ZM421.754 98.5455V74.5455H425.8V77.4318H426.038C426.25 77.0076 426.55 76.5568 426.936 76.0795C427.322 75.5947 427.845 75.1818 428.504 74.8409C429.163 74.4924 430.004 74.3182 431.027 74.3182C432.375 74.3182 433.591 74.6629 434.675 75.3523C435.766 76.0341 436.629 77.0455 437.266 78.3864C437.91 79.7197 438.232 81.3561 438.232 83.2955C438.232 85.2121 437.917 86.8409 437.288 88.1818C436.66 89.5227 435.804 90.5455 434.72 91.25C433.637 91.9545 432.41 92.3068 431.038 92.3068C430.038 92.3068 429.209 92.1402 428.55 91.8068C427.891 91.4735 427.36 91.072 426.959 90.6023C426.565 90.125 426.258 89.6742 426.038 89.25H425.868V98.5455H421.754ZM425.788 83.2727C425.788 84.4015 425.947 85.3902 426.266 86.2386C426.591 87.0871 427.057 87.75 427.663 88.2273C428.277 88.697 429.019 88.9318 429.891 88.9318C430.8 88.9318 431.561 88.6894 432.175 88.2045C432.788 87.7121 433.25 87.0417 433.561 86.1932C433.879 85.3371 434.038 84.3636 434.038 83.2727C434.038 82.1894 433.883 81.2273 433.572 80.3864C433.262 79.5455 432.8 78.8864 432.186 78.4091C431.572 77.9318 430.807 77.6932 429.891 77.6932C429.012 77.6932 428.266 77.9242 427.652 78.3864C427.038 78.8485 426.572 79.4962 426.254 80.3295C425.944 81.1629 425.788 82.1439 425.788 83.2727ZM449.482 92.3409C447.732 92.3409 446.22 91.9773 444.947 91.25C443.682 90.5152 442.709 89.4773 442.027 88.1364C441.345 86.7879 441.004 85.2008 441.004 83.375C441.004 81.5795 441.345 80.0038 442.027 78.6477C442.716 77.2841 443.679 76.2235 444.913 75.4659C446.148 74.7008 447.599 74.3182 449.266 74.3182C450.341 74.3182 451.357 74.4924 452.311 74.8409C453.273 75.1818 454.122 75.7121 454.857 76.4318C455.599 77.1515 456.182 78.0682 456.607 79.1818C457.031 80.2879 457.243 81.6061 457.243 83.1364V84.3977H442.936V81.625H453.3C453.292 80.8371 453.122 80.1364 452.788 79.5227C452.455 78.9015 451.989 78.4129 451.391 78.0568C450.8 77.7008 450.11 77.5227 449.322 77.5227C448.482 77.5227 447.743 77.7273 447.107 78.1364C446.47 78.5379 445.974 79.0682 445.618 79.7273C445.269 80.3788 445.091 81.0947 445.084 81.875V84.2955C445.084 85.3106 445.269 86.1818 445.641 86.9091C446.012 87.6288 446.531 88.1818 447.197 88.5682C447.864 88.947 448.644 89.1364 449.538 89.1364C450.137 89.1364 450.679 89.053 451.163 88.8864C451.648 88.7121 452.069 88.4583 452.425 88.125C452.781 87.7917 453.05 87.3788 453.232 86.8864L457.072 87.3182C456.83 88.3333 456.368 89.2197 455.686 89.9773C455.012 90.7273 454.148 91.3106 453.095 91.7273C452.042 92.1364 450.838 92.3409 449.482 92.3409ZM464.837 81.7727V92H460.723V74.5455H464.655V77.5114H464.859C465.261 76.5341 465.901 75.7576 466.78 75.1818C467.666 74.6061 468.761 74.3182 470.064 74.3182C471.268 74.3182 472.318 74.5758 473.212 75.0909C474.113 75.6061 474.81 76.3523 475.303 77.3295C475.803 78.3068 476.049 79.4924 476.041 80.8864V92H471.928V81.5227C471.928 80.3561 471.625 79.4432 471.018 78.7841C470.42 78.125 469.59 77.7955 468.53 77.7955C467.81 77.7955 467.17 77.9545 466.609 78.2727C466.056 78.5833 465.621 79.0341 465.303 79.625C464.992 80.2159 464.837 80.9318 464.837 81.7727ZM490.803 80.6136V84H480.325V80.6136H490.803ZM507.959 75.125C507.853 74.1326 507.406 73.3598 506.618 72.8068C505.838 72.2538 504.822 71.9773 503.572 71.9773C502.694 71.9773 501.94 72.1098 501.311 72.375C500.682 72.6402 500.201 73 499.868 73.4545C499.535 73.9091 499.364 74.428 499.357 75.0114C499.357 75.4962 499.466 75.9167 499.686 76.2727C499.913 76.6288 500.22 76.9318 500.607 77.1818C500.993 77.4242 501.421 77.6288 501.891 77.7955C502.36 77.9621 502.834 78.1023 503.311 78.2159L505.493 78.7614C506.372 78.9659 507.216 79.2424 508.027 79.5909C508.845 79.9394 509.576 80.3788 510.22 80.9091C510.872 81.4394 511.387 82.0795 511.766 82.8295C512.144 83.5795 512.334 84.4583 512.334 85.4659C512.334 86.8295 511.985 88.0303 511.288 89.0682C510.591 90.0985 509.584 90.9053 508.266 91.4886C506.955 92.0644 505.368 92.3523 503.504 92.3523C501.694 92.3523 500.122 92.072 498.788 91.5114C497.463 90.9508 496.425 90.1326 495.675 89.0568C494.932 87.9811 494.531 86.6705 494.47 85.125H498.618C498.679 85.9356 498.929 86.6098 499.368 87.1477C499.807 87.6856 500.379 88.0871 501.084 88.3523C501.796 88.6174 502.591 88.75 503.47 88.75C504.387 88.75 505.19 88.6136 505.879 88.3409C506.576 88.0606 507.122 87.6742 507.516 87.1818C507.91 86.6818 508.11 86.0985 508.118 85.4318C508.11 84.8258 507.932 84.3258 507.584 83.9318C507.235 83.5303 506.747 83.197 506.118 82.9318C505.497 82.6591 504.769 82.4167 503.936 82.2045L501.288 81.5227C499.372 81.0303 497.857 80.2841 496.743 79.2841C495.637 78.2765 495.084 76.9394 495.084 75.2727C495.084 73.9015 495.455 72.7008 496.197 71.6705C496.947 70.6402 497.966 69.8409 499.254 69.2727C500.542 68.697 502 68.4091 503.629 68.4091C505.281 68.4091 506.728 68.697 507.97 69.2727C509.22 69.8409 510.201 70.6326 510.913 71.6477C511.625 72.6553 511.993 73.8144 512.016 75.125H507.959ZM523.524 92.3409C521.82 92.3409 520.342 91.9659 519.092 91.2159C517.842 90.4659 516.873 89.4167 516.183 88.0682C515.501 86.7197 515.161 85.1439 515.161 83.3409C515.161 81.5379 515.501 79.9583 516.183 78.6023C516.873 77.2462 517.842 76.1932 519.092 75.4432C520.342 74.6932 521.82 74.3182 523.524 74.3182C525.229 74.3182 526.706 74.6932 527.956 75.4432C529.206 76.1932 530.172 77.2462 530.854 78.6023C531.543 79.9583 531.888 81.5379 531.888 83.3409C531.888 85.1439 531.543 86.7197 530.854 88.0682C530.172 89.4167 529.206 90.4659 527.956 91.2159C526.706 91.9659 525.229 92.3409 523.524 92.3409ZM523.547 89.0455C524.471 89.0455 525.244 88.7917 525.865 88.2841C526.486 87.7689 526.948 87.0795 527.251 86.2159C527.562 85.3523 527.717 84.3902 527.717 83.3295C527.717 82.2614 527.562 81.2955 527.251 80.4318C526.948 79.5606 526.486 78.8674 525.865 78.3523C525.244 77.8371 524.471 77.5795 523.547 77.5795C522.6 77.5795 521.812 77.8371 521.183 78.3523C520.562 78.8674 520.096 79.5606 519.786 80.4318C519.482 81.2955 519.331 82.2614 519.331 83.3295C519.331 84.3902 519.482 85.3523 519.786 86.2159C520.096 87.0795 520.562 87.7689 521.183 88.2841C521.812 88.7917 522.6 89.0455 523.547 89.0455ZM546.504 84.6591V74.5455H550.618V92H546.629V88.8977H546.447C546.054 89.875 545.406 90.6742 544.504 91.2955C543.61 91.9167 542.508 92.2273 541.197 92.2273C540.054 92.2273 539.042 91.9735 538.163 91.4659C537.292 90.9508 536.61 90.2045 536.118 89.2273C535.625 88.2424 535.379 87.053 535.379 85.6591V74.5455H539.493V85.0227C539.493 86.1288 539.796 87.0076 540.402 87.6591C541.008 88.3106 541.804 88.6364 542.788 88.6364C543.394 88.6364 543.982 88.4886 544.55 88.1932C545.118 87.8977 545.584 87.4583 545.947 86.875C546.319 86.2841 546.504 85.5455 546.504 84.6591ZM554.848 92V74.5455H558.837V77.4545H559.018C559.337 76.447 559.882 75.6705 560.655 75.125C561.435 74.572 562.325 74.2955 563.325 74.2955C563.553 74.2955 563.806 74.3068 564.087 74.3295C564.375 74.3447 564.613 74.3712 564.803 74.4091V78.1932C564.628 78.1326 564.352 78.0795 563.973 78.0341C563.602 77.9811 563.242 77.9545 562.893 77.9545C562.143 77.9545 561.469 78.1174 560.871 78.4432C560.28 78.7614 559.814 79.2045 559.473 79.7727C559.132 80.3409 558.962 80.9962 558.962 81.7386V92H554.848ZM574.43 92.3409C572.688 92.3409 571.192 91.9583 569.942 91.1932C568.699 90.428 567.741 89.3712 567.067 88.0227C566.4 86.6667 566.067 85.1061 566.067 83.3409C566.067 81.5682 566.408 80.0038 567.089 78.6477C567.771 77.2841 568.733 76.2235 569.976 75.4659C571.226 74.7008 572.703 74.3182 574.408 74.3182C575.824 74.3182 577.078 74.5795 578.169 75.1023C579.268 75.6174 580.143 76.3485 580.794 77.2955C581.446 78.2348 581.817 79.3333 581.908 80.5909H577.976C577.817 79.75 577.438 79.0492 576.839 78.4886C576.249 77.9205 575.457 77.6364 574.464 77.6364C573.624 77.6364 572.885 77.8636 572.249 78.3182C571.612 78.7652 571.116 79.4091 570.76 80.25C570.411 81.0909 570.237 82.0985 570.237 83.2727C570.237 84.4621 570.411 85.4848 570.76 86.3409C571.108 87.1894 571.597 87.8447 572.226 88.3068C572.862 88.7614 573.608 88.9886 574.464 88.9886C575.071 88.9886 575.612 88.875 576.089 88.6477C576.574 88.4129 576.98 88.0758 577.305 87.6364C577.631 87.197 577.855 86.6629 577.976 86.0341H581.908C581.809 87.2689 581.446 88.3636 580.817 89.3182C580.188 90.2652 579.332 91.0076 578.249 91.5455C577.165 92.0758 575.893 92.3409 574.43 92.3409ZM593.013 92.3409C591.263 92.3409 589.751 91.9773 588.479 91.25C587.214 90.5152 586.24 89.4773 585.558 88.1364C584.876 86.7879 584.536 85.2008 584.536 83.375C584.536 81.5795 584.876 80.0038 585.558 78.6477C586.248 77.2841 587.21 76.2235 588.445 75.4659C589.679 74.7008 591.13 74.3182 592.797 74.3182C593.873 74.3182 594.888 74.4924 595.842 74.8409C596.804 75.1818 597.653 75.7121 598.388 76.4318C599.13 77.1515 599.714 78.0682 600.138 79.1818C600.562 80.2879 600.774 81.6061 600.774 83.1364V84.3977H586.467V81.625H596.831C596.823 80.8371 596.653 80.1364 596.32 79.5227C595.986 78.9015 595.52 78.4129 594.922 78.0568C594.331 77.7008 593.642 77.5227 592.854 77.5227C592.013 77.5227 591.274 77.7273 590.638 78.1364C590.001 78.5379 589.505 79.0682 589.149 79.7273C588.801 80.3788 588.623 81.0947 588.615 81.875V84.2955C588.615 85.3106 588.801 86.1818 589.172 86.9091C589.543 87.6288 590.062 88.1818 590.729 88.5682C591.395 88.947 592.176 89.1364 593.07 89.1364C593.668 89.1364 594.21 89.053 594.695 88.8864C595.179 88.7121 595.6 88.4583 595.956 88.125C596.312 87.7917 596.581 87.3788 596.763 86.8864L600.604 87.3182C600.361 88.3333 599.899 89.2197 599.217 89.9773C598.543 90.7273 597.679 91.3106 596.626 91.7273C595.573 92.1364 594.369 92.3409 593.013 92.3409Z" fill="#424045"/>
<rect x="700.5" y="7.5" width="293" height="107" rx="47.5" fill="#C49DF2" stroke="url(#paint2_linear_107_4)" stroke-width="5"/>
<rect x="1049.5" y="7.5" width="293" height="107" rx="47.5" fill="#C49DF2" stroke="url(#paint3_linear_107_4)" stroke-width="5"/>
<path d="M59.5966 48.7273V72H55.3807V52.8295H55.2443L49.8011 56.3068V52.4432L55.5852 48.7273H59.5966ZM74.108 72.4432C72.2367 72.4432 70.6307 71.9697 69.2898 71.0227C67.9564 70.0682 66.9299 68.6932 66.2102 66.8977C65.4981 65.0947 65.142 62.9242 65.142 60.3864C65.1496 57.8485 65.5095 55.6894 66.2216 53.9091C66.9413 52.1212 67.9678 50.7576 69.3011 49.8182C70.642 48.8788 72.2443 48.4091 74.108 48.4091C75.9716 48.4091 77.5739 48.8788 78.9148 49.8182C80.2557 50.7576 81.2822 52.1212 81.9943 53.9091C82.714 55.697 83.0739 57.8561 83.0739 60.3864C83.0739 62.9318 82.714 65.1061 81.9943 66.9091C81.2822 68.7045 80.2557 70.0758 78.9148 71.0227C77.5814 71.9697 75.9792 72.4432 74.108 72.4432ZM74.108 68.8864C75.5625 68.8864 76.7102 68.1705 77.5511 66.7386C78.3996 65.2992 78.8239 63.1818 78.8239 60.3864C78.8239 58.5379 78.6307 56.9848 78.2443 55.7273C77.858 54.4697 77.3125 53.5227 76.608 52.8864C75.9034 52.2424 75.0701 51.9205 74.108 51.9205C72.661 51.9205 71.517 52.6402 70.6761 54.0795C69.8352 55.5114 69.411 57.6136 69.4034 60.3864C69.3958 62.2424 69.5814 63.803 69.9602 65.0682C70.3466 66.3333 70.892 67.2879 71.5966 67.9318C72.3011 68.5682 73.1383 68.8864 74.108 68.8864ZM95.4517 72.4432C93.5805 72.4432 91.9744 71.9697 90.6335 71.0227C89.3002 70.0682 88.2737 68.6932 87.554 66.8977C86.8419 65.0947 86.4858 62.9242 86.4858 60.3864C86.4934 57.8485 86.8532 55.6894 87.5653 53.9091C88.285 52.1212 89.3116 50.7576 90.6449 49.8182C91.9858 48.8788 93.5881 48.4091 95.4517 48.4091C97.3153 48.4091 98.9176 48.8788 100.259 49.8182C101.599 50.7576 102.626 52.1212 103.338 53.9091C104.058 55.697 104.418 57.8561 104.418 60.3864C104.418 62.9318 104.058 65.1061 103.338 66.9091C102.626 68.7045 101.599 70.0758 100.259 71.0227C98.9252 71.9697 97.3229 72.4432 95.4517 72.4432ZM95.4517 68.8864C96.9063 68.8864 98.054 68.1705 98.8949 66.7386C99.7434 65.2992 100.168 63.1818 100.168 60.3864C100.168 58.5379 99.9744 56.9848 99.5881 55.7273C99.2017 54.4697 98.6563 53.5227 97.9517 52.8864C97.2472 52.2424 96.4138 51.9205 95.4517 51.9205C94.0047 51.9205 92.8608 52.6402 92.0199 54.0795C91.179 55.5114 90.7547 57.6136 90.7472 60.3864C90.7396 62.2424 90.9252 63.803 91.304 65.0682C91.6903 66.3333 92.2358 67.2879 92.9403 67.9318C93.6449 68.5682 94.482 68.8864 95.4517 68.8864ZM120.636 67.6364V66.4091C120.636 65.5076 120.826 64.678 121.205 63.9205C121.591 63.1629 122.152 62.553 122.886 62.0909C123.621 61.6288 124.511 61.3977 125.557 61.3977C126.633 61.3977 127.534 61.6288 128.261 62.0909C128.989 62.5455 129.538 63.1515 129.909 63.9091C130.288 64.6667 130.477 65.5 130.477 66.4091V67.6364C130.477 68.5379 130.288 69.3674 129.909 70.125C129.53 70.8826 128.973 71.4924 128.239 71.9545C127.511 72.4167 126.617 72.6477 125.557 72.6477C124.496 72.6477 123.598 72.4167 122.864 71.9545C122.129 71.4924 121.572 70.8826 121.193 70.125C120.822 69.3674 120.636 68.5379 120.636 67.6364ZM123.602 66.4091V67.6364C123.602 68.2348 123.746 68.7841 124.034 69.2841C124.322 69.7841 124.83 70.0341 125.557 70.0341C126.292 70.0341 126.795 69.7879 127.068 69.2955C127.348 68.7955 127.489 68.2424 127.489 67.6364V66.4091C127.489 65.803 127.356 65.25 127.091 64.75C126.826 64.2424 126.314 63.9886 125.557 63.9886C124.845 63.9886 124.341 64.2424 124.045 64.75C123.75 65.25 123.602 65.803 123.602 66.4091ZM108.807 54.3182V53.0909C108.807 52.1818 109 51.3485 109.386 50.5909C109.773 49.8333 110.333 49.2273 111.068 48.7727C111.803 48.3106 112.693 48.0795 113.739 48.0795C114.807 48.0795 115.705 48.3106 116.432 48.7727C117.167 49.2273 117.72 49.8333 118.091 50.5909C118.462 51.3485 118.648 52.1818 118.648 53.0909V54.3182C118.648 55.2273 118.458 56.0606 118.08 56.8182C117.708 57.5682 117.155 58.1705 116.42 58.625C115.686 59.0795 114.792 59.3068 113.739 59.3068C112.67 59.3068 111.769 59.0795 111.034 58.625C110.307 58.1705 109.754 57.5644 109.375 56.8068C108.996 56.0492 108.807 55.2197 108.807 54.3182ZM111.795 53.0909V54.3182C111.795 54.9242 111.936 55.4773 112.216 55.9773C112.504 56.4697 113.011 56.7159 113.739 56.7159C114.466 56.7159 114.966 56.4697 115.239 55.9773C115.519 55.4773 115.659 54.9242 115.659 54.3182V53.0909C115.659 52.4848 115.527 51.9318 115.261 51.4318C114.996 50.9242 114.489 50.6705 113.739 50.6705C113.019 50.6705 112.515 50.9242 112.227 51.4318C111.939 51.9394 111.795 52.4924 111.795 53.0909ZM110.102 72L126.102 48.7273H128.943L112.943 72H110.102ZM143.358 72V48.7273H152.085C153.873 48.7273 155.373 49.0606 156.585 49.7273C157.805 50.3939 158.725 51.3106 159.347 52.4773C159.975 53.6364 160.29 54.9545 160.29 56.4318C160.29 57.9242 159.975 59.25 159.347 60.4091C158.718 61.5682 157.79 62.4811 156.562 63.1477C155.335 63.8068 153.824 64.1364 152.028 64.1364H146.244V60.6705H151.46C152.506 60.6705 153.362 60.4886 154.028 60.125C154.695 59.7614 155.188 59.2614 155.506 58.625C155.831 57.9886 155.994 57.2576 155.994 56.4318C155.994 55.6061 155.831 54.8788 155.506 54.25C155.188 53.6212 154.691 53.1326 154.017 52.7841C153.35 52.428 152.491 52.25 151.438 52.25H147.574V72H143.358ZM163.77 72V54.5455H167.759V57.4545H167.94C168.259 56.447 168.804 55.6705 169.577 55.125C170.357 54.572 171.247 54.2955 172.247 54.2955C172.474 54.2955 172.728 54.3068 173.009 54.3295C173.296 54.3447 173.535 54.3712 173.724 54.4091V58.1932C173.55 58.1326 173.274 58.0795 172.895 58.0341C172.524 57.9811 172.164 57.9545 171.815 57.9545C171.065 57.9545 170.391 58.1174 169.793 58.4432C169.202 58.7614 168.736 59.2045 168.395 59.7727C168.054 60.3409 167.884 60.9962 167.884 61.7386V72H163.77ZM176.457 72V54.5455H180.571V72H176.457ZM178.526 52.0682C177.874 52.0682 177.313 51.8523 176.844 51.4205C176.374 50.9811 176.139 50.4545 176.139 49.8409C176.139 49.2197 176.374 48.6932 176.844 48.2614C177.313 47.822 177.874 47.6023 178.526 47.6023C179.185 47.6023 179.745 47.822 180.207 48.2614C180.677 48.6932 180.912 49.2197 180.912 49.8409C180.912 50.4545 180.677 50.9811 180.207 51.4205C179.745 51.8523 179.185 52.0682 178.526 52.0682ZM200.392 54.5455L194.176 72H189.631L183.415 54.5455H187.801L191.812 67.5114H191.994L196.017 54.5455H200.392ZM207.761 72.3523C206.655 72.3523 205.659 72.1553 204.773 71.7614C203.894 71.3598 203.197 70.7689 202.682 69.9886C202.174 69.2083 201.92 68.2462 201.92 67.1023C201.92 66.1174 202.102 65.303 202.466 64.6591C202.83 64.0152 203.326 63.5 203.955 63.1136C204.583 62.7273 205.292 62.4356 206.08 62.2386C206.875 62.0341 207.697 61.8864 208.545 61.7955C209.568 61.6894 210.398 61.5947 211.034 61.5114C211.67 61.4205 212.133 61.2841 212.42 61.1023C212.716 60.9129 212.864 60.6212 212.864 60.2273V60.1591C212.864 59.303 212.61 58.6402 212.102 58.1705C211.595 57.7008 210.864 57.4659 209.909 57.4659C208.902 57.4659 208.102 57.6856 207.511 58.125C206.928 58.5644 206.534 59.0833 206.33 59.6818L202.489 59.1364C202.792 58.0758 203.292 57.1894 203.989 56.4773C204.686 55.7576 205.538 55.2197 206.545 54.8636C207.553 54.5 208.667 54.3182 209.886 54.3182C210.727 54.3182 211.564 54.4167 212.398 54.6136C213.231 54.8106 213.992 55.1364 214.682 55.5909C215.371 56.0379 215.924 56.6477 216.341 57.4205C216.765 58.1932 216.977 59.1591 216.977 60.3182V72H213.023V69.6023H212.886C212.636 70.0871 212.284 70.5417 211.83 70.9659C211.383 71.3826 210.818 71.7197 210.136 71.9773C209.462 72.2273 208.67 72.3523 207.761 72.3523ZM208.83 69.3295C209.655 69.3295 210.371 69.1667 210.977 68.8409C211.583 68.5076 212.049 68.0682 212.375 67.5227C212.708 66.9773 212.875 66.3826 212.875 65.7386V63.6818C212.746 63.7879 212.527 63.8864 212.216 63.9773C211.913 64.0682 211.572 64.1477 211.193 64.2159C210.814 64.2841 210.439 64.3447 210.068 64.3977C209.697 64.4508 209.375 64.4962 209.102 64.5341C208.489 64.6174 207.939 64.7538 207.455 64.9432C206.97 65.1326 206.587 65.3977 206.307 65.7386C206.027 66.072 205.886 66.5038 205.886 67.0341C205.886 67.7917 206.163 68.3636 206.716 68.75C207.269 69.1364 207.973 69.3295 208.83 69.3295ZM229.83 54.5455V57.7273H219.795V54.5455H229.83ZM222.273 50.3636H226.386V66.75C226.386 67.303 226.47 67.7273 226.636 68.0227C226.811 68.3106 227.038 68.5076 227.318 68.6136C227.598 68.7197 227.909 68.7727 228.25 68.7727C228.508 68.7727 228.742 68.7538 228.955 68.7159C229.174 68.678 229.341 68.6439 229.455 68.6136L230.148 71.8295C229.928 71.9053 229.614 71.9886 229.205 72.0795C228.803 72.1705 228.311 72.2235 227.727 72.2386C226.697 72.2689 225.769 72.1136 224.943 71.7727C224.117 71.4242 223.462 70.8864 222.977 70.1591C222.5 69.4318 222.265 68.5227 222.273 67.4318V50.3636ZM240.81 72.3409C239.06 72.3409 237.548 71.9773 236.276 71.25C235.01 70.5152 234.037 69.4773 233.355 68.1364C232.673 66.7879 232.332 65.2008 232.332 63.375C232.332 61.5795 232.673 60.0038 233.355 58.6477C234.045 57.2841 235.007 56.2235 236.241 55.4659C237.476 54.7008 238.927 54.3182 240.594 54.3182C241.67 54.3182 242.685 54.4924 243.639 54.8409C244.601 55.1818 245.45 55.7121 246.185 56.4318C246.927 57.1515 247.51 58.0682 247.935 59.1818C248.359 60.2879 248.571 61.6061 248.571 63.1364V64.3977H234.264V61.625H244.628C244.62 60.8371 244.45 60.1364 244.116 59.5227C243.783 58.9015 243.317 58.4129 242.719 58.0568C242.128 57.7008 241.438 57.5227 240.651 57.5227C239.81 57.5227 239.071 57.7273 238.435 58.1364C237.798 58.5379 237.302 59.0682 236.946 59.7273C236.598 60.3788 236.42 61.0947 236.412 61.875V64.2955C236.412 65.3106 236.598 66.1818 236.969 66.9091C237.34 67.6288 237.859 68.1818 238.526 68.5682C239.192 68.947 239.973 69.1364 240.866 69.1364C241.465 69.1364 242.007 69.053 242.491 68.8864C242.976 68.7121 243.397 68.4583 243.753 68.125C244.109 67.7917 244.378 67.3788 244.56 66.8864L248.401 67.3182C248.158 68.3333 247.696 69.2197 247.014 69.9773C246.34 70.7273 245.476 71.3106 244.423 71.7273C243.37 72.1364 242.166 72.3409 240.81 72.3409Z" fill="#424045"/>
<path d="M799.514 53V29.7273H803.73V39.5795H814.514V29.7273H818.741V53H814.514V43.1136H803.73V53H799.514ZM823.145 53V35.5455H827.259V53H823.145ZM825.213 33.0682C824.562 33.0682 824.001 32.8523 823.531 32.4205C823.062 31.9811 822.827 31.4545 822.827 30.8409C822.827 30.2197 823.062 29.6932 823.531 29.2614C824.001 28.822 824.562 28.6023 825.213 28.6023C825.872 28.6023 826.433 28.822 826.895 29.2614C827.365 29.6932 827.599 30.2197 827.599 30.8409C827.599 31.4545 827.365 31.9811 826.895 32.4205C826.433 32.8523 825.872 33.0682 825.213 33.0682ZM839.08 59.9091C837.602 59.9091 836.333 59.7083 835.273 59.3068C834.212 58.9129 833.36 58.3826 832.716 57.7159C832.072 57.0492 831.625 56.3106 831.375 55.5L835.08 54.6023C835.246 54.9432 835.489 55.2803 835.807 55.6136C836.125 55.9545 836.553 56.2348 837.091 56.4545C837.636 56.6818 838.322 56.7955 839.148 56.7955C840.314 56.7955 841.28 56.5114 842.045 55.9432C842.811 55.3826 843.193 54.4583 843.193 53.1705V49.8636H842.989C842.777 50.2879 842.466 50.7235 842.057 51.1705C841.655 51.6174 841.121 51.9924 840.455 52.2955C839.795 52.5985 838.966 52.75 837.966 52.75C836.625 52.75 835.409 52.4356 834.318 51.8068C833.235 51.1705 832.371 50.2235 831.727 48.9659C831.091 47.7008 830.773 46.1174 830.773 44.2159C830.773 42.2992 831.091 40.6818 831.727 39.3636C832.371 38.0379 833.239 37.0341 834.33 36.3523C835.42 35.6629 836.636 35.3182 837.977 35.3182C839 35.3182 839.841 35.4924 840.5 35.8409C841.167 36.1818 841.697 36.5947 842.091 37.0795C842.485 37.5568 842.784 38.0076 842.989 38.4318H843.216V35.5455H847.273V53.2841C847.273 54.7765 846.917 56.0114 846.205 56.9886C845.492 57.9659 844.519 58.697 843.284 59.1818C842.049 59.6667 840.648 59.9091 839.08 59.9091ZM839.114 49.5227C839.985 49.5227 840.727 49.3106 841.341 48.8864C841.955 48.4621 842.42 47.8523 842.739 47.0568C843.057 46.2614 843.216 45.3068 843.216 44.1932C843.216 43.0947 843.057 42.1326 842.739 41.3068C842.428 40.4811 841.966 39.8409 841.352 39.3864C840.746 38.9242 840 38.6932 839.114 38.6932C838.197 38.6932 837.432 38.9318 836.818 39.4091C836.205 39.8864 835.742 40.5417 835.432 41.375C835.121 42.2008 834.966 43.1402 834.966 44.1932C834.966 45.2614 835.121 46.197 835.432 47C835.75 47.7955 836.216 48.4167 836.83 48.8636C837.451 49.303 838.212 49.5227 839.114 49.5227ZM855.602 42.7727V53H851.489V29.7273H855.511V38.5114H855.716C856.125 37.5265 856.758 36.75 857.614 36.1818C858.477 35.6061 859.576 35.3182 860.909 35.3182C862.121 35.3182 863.178 35.572 864.08 36.0795C864.981 36.5871 865.678 37.3295 866.17 38.3068C866.67 39.2841 866.92 40.4773 866.92 41.8864V53H862.807V42.5227C862.807 41.3485 862.504 40.4356 861.898 39.7841C861.299 39.125 860.458 38.7955 859.375 38.7955C858.648 38.7955 857.996 38.9545 857.42 39.2727C856.852 39.5833 856.405 40.0341 856.08 40.625C855.761 41.2159 855.602 41.9318 855.602 42.7727ZM875.227 29.7273V53H871.114V29.7273H875.227ZM882.014 59.5455C881.454 59.5455 880.935 59.5 880.457 59.4091C879.988 59.3258 879.613 59.2273 879.332 59.1136L880.287 55.9091C880.885 56.0833 881.42 56.1667 881.889 56.1591C882.359 56.1515 882.772 56.0038 883.128 55.7159C883.491 55.4356 883.798 54.9659 884.048 54.3068L884.401 53.3636L878.071 35.5455H882.435L886.457 48.7273H886.639L890.673 35.5455H895.048L888.06 55.1136C887.734 56.0379 887.302 56.8295 886.764 57.4886C886.226 58.1553 885.567 58.6629 884.787 59.0114C884.014 59.3674 883.09 59.5455 882.014 59.5455ZM752.524 92.3409C750.782 92.3409 749.286 91.9583 748.036 91.1932C746.793 90.428 745.835 89.3712 745.161 88.0227C744.494 86.6667 744.161 85.1061 744.161 83.3409C744.161 81.5682 744.501 80.0038 745.183 78.6477C745.865 77.2841 746.827 76.2235 748.07 75.4659C749.32 74.7008 750.797 74.3182 752.501 74.3182C753.918 74.3182 755.172 74.5795 756.263 75.1023C757.361 75.6174 758.236 76.3485 758.888 77.2955C759.539 78.2348 759.911 79.3333 760.001 80.5909H756.07C755.911 79.75 755.532 79.0492 754.933 78.4886C754.342 77.9205 753.551 77.6364 752.558 77.6364C751.717 77.6364 750.979 77.8636 750.342 78.3182C749.706 78.7652 749.21 79.4091 748.854 80.25C748.505 81.0909 748.331 82.0985 748.331 83.2727C748.331 84.4621 748.505 85.4848 748.854 86.3409C749.202 87.1894 749.691 87.8447 750.32 88.3068C750.956 88.7614 751.702 88.9886 752.558 88.9886C753.164 88.9886 753.706 88.875 754.183 88.6477C754.668 88.4129 755.073 88.0758 755.399 87.6364C755.725 87.197 755.948 86.6629 756.07 86.0341H760.001C759.903 87.2689 759.539 88.3636 758.911 89.3182C758.282 90.2652 757.426 91.0076 756.342 91.5455C755.259 92.0758 753.986 92.3409 752.524 92.3409ZM774.504 84.6591V74.5455H778.618V92H774.629V88.8977H774.447C774.054 89.875 773.406 90.6742 772.504 91.2955C771.61 91.9167 770.508 92.2273 769.197 92.2273C768.054 92.2273 767.042 91.9735 766.163 91.4659C765.292 90.9508 764.61 90.2045 764.118 89.2273C763.625 88.2424 763.379 87.053 763.379 85.6591V74.5455H767.493V85.0227C767.493 86.1288 767.796 87.0076 768.402 87.6591C769.008 88.3106 769.804 88.6364 770.788 88.6364C771.394 88.6364 771.982 88.4886 772.55 88.1932C773.118 87.8977 773.584 87.4583 773.947 86.875C774.319 86.2841 774.504 85.5455 774.504 84.6591ZM796.643 79.1591L792.893 79.5682C792.787 79.1894 792.602 78.8333 792.337 78.5C792.079 78.1667 791.731 77.8977 791.291 77.6932C790.852 77.4886 790.314 77.3864 789.678 77.3864C788.821 77.3864 788.102 77.572 787.518 77.9432C786.943 78.3144 786.659 78.7955 786.666 79.3864C786.659 79.8939 786.844 80.3068 787.223 80.625C787.609 80.9432 788.246 81.2045 789.132 81.4091L792.109 82.0455C793.761 82.4015 794.988 82.9659 795.791 83.7386C796.602 84.5114 797.011 85.5227 797.018 86.7727C797.011 87.8712 796.689 88.8409 796.053 89.6818C795.424 90.5152 794.549 91.1667 793.428 91.6364C792.306 92.1061 791.018 92.3409 789.564 92.3409C787.428 92.3409 785.708 91.8939 784.405 91C783.102 90.0985 782.325 88.8447 782.075 87.2386L786.087 86.8523C786.268 87.6402 786.655 88.2348 787.246 88.6364C787.837 89.0379 788.606 89.2386 789.553 89.2386C790.53 89.2386 791.314 89.0379 791.905 88.6364C792.503 88.2348 792.803 87.7386 792.803 87.1477C792.803 86.6477 792.609 86.2348 792.223 85.9091C791.844 85.5833 791.253 85.3333 790.45 85.1591L787.473 84.5341C785.799 84.1856 784.56 83.5985 783.757 82.7727C782.954 81.9394 782.556 80.8864 782.564 79.6136C782.556 78.5379 782.848 77.6061 783.439 76.8182C784.037 76.0227 784.867 75.4091 785.928 74.9773C786.996 74.5379 788.227 74.3182 789.621 74.3182C791.666 74.3182 793.276 74.7538 794.45 75.625C795.632 76.4962 796.363 77.6742 796.643 79.1591ZM809.126 74.5455V77.7273H799.092V74.5455H809.126ZM801.57 70.3636H805.683V86.75C805.683 87.303 805.767 87.7273 805.933 88.0227C806.107 88.3106 806.335 88.5076 806.615 88.6136C806.895 88.7197 807.206 88.7727 807.547 88.7727C807.804 88.7727 808.039 88.7538 808.251 88.7159C808.471 88.678 808.638 88.6439 808.751 88.6136L809.445 91.8295C809.225 91.9053 808.911 91.9886 808.501 92.0795C808.1 92.1705 807.607 92.2235 807.024 92.2386C805.994 92.2689 805.066 92.1136 804.24 91.7727C803.414 91.4242 802.759 90.8864 802.274 90.1591C801.797 89.4318 801.562 88.5227 801.57 87.4318V70.3636ZM819.993 92.3409C818.288 92.3409 816.811 91.9659 815.561 91.2159C814.311 90.4659 813.341 89.4167 812.652 88.0682C811.97 86.7197 811.629 85.1439 811.629 83.3409C811.629 81.5379 811.97 79.9583 812.652 78.6023C813.341 77.2462 814.311 76.1932 815.561 75.4432C816.811 74.6932 818.288 74.3182 819.993 74.3182C821.697 74.3182 823.175 74.6932 824.425 75.4432C825.675 76.1932 826.641 77.2462 827.322 78.6023C828.012 79.9583 828.357 81.5379 828.357 83.3409C828.357 85.1439 828.012 86.7197 827.322 88.0682C826.641 89.4167 825.675 90.4659 824.425 91.2159C823.175 91.9659 821.697 92.3409 819.993 92.3409ZM820.016 89.0455C820.94 89.0455 821.713 88.7917 822.334 88.2841C822.955 87.7689 823.417 87.0795 823.72 86.2159C824.031 85.3523 824.186 84.3902 824.186 83.3295C824.186 82.2614 824.031 81.2955 823.72 80.4318C823.417 79.5606 822.955 78.8674 822.334 78.3523C821.713 77.8371 820.94 77.5795 820.016 77.5795C819.069 77.5795 818.281 77.8371 817.652 78.3523C817.031 78.8674 816.565 79.5606 816.254 80.4318C815.951 81.2955 815.8 82.2614 815.8 83.3295C815.8 84.3902 815.951 85.3523 816.254 86.2159C816.565 87.0795 817.031 87.7689 817.652 88.2841C818.281 88.7917 819.069 89.0455 820.016 89.0455ZM831.848 92V74.5455H835.78V77.5114H835.984C836.348 76.5114 836.95 75.7311 837.791 75.1705C838.632 74.6023 839.636 74.3182 840.803 74.3182C841.984 74.3182 842.981 74.6061 843.791 75.1818C844.609 75.75 845.185 76.5265 845.518 77.5114H845.7C846.087 76.5417 846.738 75.7689 847.655 75.1932C848.579 74.6098 849.674 74.3182 850.939 74.3182C852.545 74.3182 853.856 74.8258 854.871 75.8409C855.886 76.8561 856.393 78.3371 856.393 80.2841V92H852.268V80.9205C852.268 79.8371 851.981 79.0455 851.405 78.5455C850.829 78.0379 850.125 77.7841 849.291 77.7841C848.299 77.7841 847.522 78.0947 846.962 78.7159C846.409 79.3295 846.132 80.1288 846.132 81.1136V92H842.098V80.75C842.098 79.8485 841.825 79.1288 841.28 78.5909C840.742 78.053 840.037 77.7841 839.166 77.7841C838.575 77.7841 838.037 77.9356 837.553 78.2386C837.068 78.5341 836.681 78.9545 836.393 79.5C836.106 80.0379 835.962 80.6667 835.962 81.3864V92H831.848ZM860.567 92V74.5455H864.68V92H860.567ZM862.635 72.0682C861.983 72.0682 861.423 71.8523 860.953 71.4205C860.483 70.9811 860.249 70.4545 860.249 69.8409C860.249 69.2197 860.483 68.6932 860.953 68.2614C861.423 67.822 861.983 67.6023 862.635 67.6023C863.294 67.6023 863.855 67.822 864.317 68.2614C864.786 68.6932 865.021 69.2197 865.021 69.8409C865.021 70.4545 864.786 70.9811 864.317 71.4205C863.855 71.8523 863.294 72.0682 862.635 72.0682ZM882.706 79.1591L878.956 79.5682C878.85 79.1894 878.664 78.8333 878.399 78.5C878.142 78.1667 877.793 77.8977 877.354 77.6932C876.914 77.4886 876.376 77.3864 875.74 77.3864C874.884 77.3864 874.164 77.572 873.581 77.9432C873.005 78.3144 872.721 78.7955 872.729 79.3864C872.721 79.8939 872.907 80.3068 873.286 80.625C873.672 80.9432 874.308 81.2045 875.195 81.4091L878.172 82.0455C879.823 82.4015 881.051 82.9659 881.854 83.7386C882.664 84.5114 883.073 85.5227 883.081 86.7727C883.073 87.8712 882.751 88.8409 882.115 89.6818C881.486 90.5152 880.611 91.1667 879.49 91.6364C878.369 92.1061 877.081 92.3409 875.626 92.3409C873.49 92.3409 871.77 91.8939 870.467 91C869.164 90.0985 868.388 88.8447 868.138 87.2386L872.149 86.8523C872.331 87.6402 872.717 88.2348 873.308 88.6364C873.899 89.0379 874.668 89.2386 875.615 89.2386C876.592 89.2386 877.376 89.0379 877.967 88.6364C878.566 88.2348 878.865 87.7386 878.865 87.1477C878.865 86.6477 878.672 86.2348 878.286 85.9091C877.907 85.5833 877.316 85.3333 876.513 85.1591L873.536 84.5341C871.861 84.1856 870.623 83.5985 869.82 82.7727C869.017 81.9394 868.619 80.8864 868.626 79.6136C868.619 78.5379 868.911 77.6061 869.501 76.8182C870.1 76.0227 870.929 75.4091 871.99 74.9773C873.058 74.5379 874.289 74.3182 875.683 74.3182C877.729 74.3182 879.339 74.7538 880.513 75.625C881.695 76.4962 882.426 77.6742 882.706 79.1591ZM891.496 92.3523C890.39 92.3523 889.393 92.1553 888.507 91.7614C887.628 91.3598 886.931 90.7689 886.416 89.9886C885.909 89.2083 885.655 88.2462 885.655 87.1023C885.655 86.1174 885.837 85.303 886.2 84.6591C886.564 84.0152 887.06 83.5 887.689 83.1136C888.318 82.7273 889.026 82.4356 889.814 82.2386C890.609 82.0341 891.431 81.8864 892.28 81.7955C893.303 81.6894 894.132 81.5947 894.768 81.5114C895.405 81.4205 895.867 81.2841 896.155 81.1023C896.45 80.9129 896.598 80.6212 896.598 80.2273V80.1591C896.598 79.303 896.344 78.6402 895.837 78.1705C895.329 77.7008 894.598 77.4659 893.643 77.4659C892.636 77.4659 891.837 77.6856 891.246 78.125C890.662 78.5644 890.268 79.0833 890.064 79.6818L886.223 79.1364C886.526 78.0758 887.026 77.1894 887.723 76.4773C888.42 75.7576 889.272 75.2197 890.28 74.8636C891.287 74.5 892.401 74.3182 893.621 74.3182C894.462 74.3182 895.299 74.4167 896.132 74.6136C896.965 74.8106 897.727 75.1364 898.416 75.5909C899.106 76.0379 899.659 76.6477 900.075 77.4205C900.5 78.1932 900.712 79.1591 900.712 80.3182V92H896.757V89.6023H896.621C896.371 90.0871 896.018 90.5417 895.564 90.9659C895.117 91.3826 894.553 91.7197 893.871 91.9773C893.196 92.2273 892.405 92.3523 891.496 92.3523ZM892.564 89.3295C893.39 89.3295 894.106 89.1667 894.712 88.8409C895.318 88.5076 895.784 88.0682 896.109 87.5227C896.443 86.9773 896.609 86.3826 896.609 85.7386V83.6818C896.481 83.7879 896.261 83.8864 895.95 83.9773C895.647 84.0682 895.306 84.1477 894.928 84.2159C894.549 84.2841 894.174 84.3447 893.803 84.3977C893.431 84.4508 893.109 84.4962 892.837 84.5341C892.223 84.6174 891.674 84.7538 891.189 84.9432C890.704 85.1326 890.321 85.3977 890.041 85.7386C889.761 86.072 889.621 86.5038 889.621 87.0341C889.621 87.7917 889.897 88.3636 890.45 88.75C891.003 89.1364 891.708 89.3295 892.564 89.3295ZM905.03 92V68.7273H909.143V77.4318H909.314C909.526 77.0076 909.825 76.5568 910.212 76.0795C910.598 75.5947 911.121 75.1818 911.78 74.8409C912.439 74.4924 913.28 74.3182 914.303 74.3182C915.651 74.3182 916.867 74.6629 917.95 75.3523C919.041 76.0341 919.905 77.0455 920.541 78.3864C921.185 79.7197 921.507 81.3561 921.507 83.2955C921.507 85.2121 921.193 86.8409 920.564 88.1818C919.935 89.5227 919.079 90.5455 917.996 91.25C916.912 91.9545 915.685 92.3068 914.314 92.3068C913.314 92.3068 912.484 92.1402 911.825 91.8068C911.166 91.4735 910.636 91.072 910.234 90.6023C909.84 90.125 909.534 89.6742 909.314 89.25H909.075V92H905.03ZM909.064 83.2727C909.064 84.4015 909.223 85.3902 909.541 86.2386C909.867 87.0871 910.333 87.75 910.939 88.2273C911.553 88.697 912.295 88.9318 913.166 88.9318C914.075 88.9318 914.837 88.6894 915.45 88.2045C916.064 87.7121 916.526 87.0417 916.837 86.1932C917.155 85.3371 917.314 84.3636 917.314 83.2727C917.314 82.1894 917.159 81.2273 916.848 80.3864C916.537 79.5455 916.075 78.8864 915.462 78.4091C914.848 77.9318 914.083 77.6932 913.166 77.6932C912.287 77.6932 911.541 77.9242 910.928 78.3864C910.314 78.8485 909.848 79.4962 909.53 80.3295C909.219 81.1629 909.064 82.1439 909.064 83.2727ZM929.118 68.7273V92H925.004V68.7273H929.118ZM941.075 92.3409C939.325 92.3409 937.814 91.9773 936.541 91.25C935.276 90.5152 934.303 89.4773 933.621 88.1364C932.939 86.7879 932.598 85.2008 932.598 83.375C932.598 81.5795 932.939 80.0038 933.621 78.6477C934.31 77.2841 935.272 76.2235 936.507 75.4659C937.742 74.7008 939.193 74.3182 940.859 74.3182C941.935 74.3182 942.95 74.4924 943.905 74.8409C944.867 75.1818 945.715 75.7121 946.45 76.4318C947.193 77.1515 947.776 78.0682 948.2 79.1818C948.625 80.2879 948.837 81.6061 948.837 83.1364V84.3977H934.53V81.625H944.893C944.886 80.8371 944.715 80.1364 944.382 79.5227C944.049 78.9015 943.583 78.4129 942.984 78.0568C942.393 77.7008 941.704 77.5227 940.916 77.5227C940.075 77.5227 939.337 77.7273 938.7 78.1364C938.064 78.5379 937.568 79.0682 937.212 79.7273C936.863 80.3788 936.685 81.0947 936.678 81.875V84.2955C936.678 85.3106 936.863 86.1818 937.234 86.9091C937.606 87.6288 938.125 88.1818 938.791 88.5682C939.458 88.947 940.238 89.1364 941.132 89.1364C941.731 89.1364 942.272 89.053 942.757 88.8864C943.242 88.7121 943.662 88.4583 944.018 88.125C944.375 87.7917 944.643 87.3788 944.825 86.8864L948.666 87.3182C948.424 88.3333 947.962 89.2197 947.28 89.9773C946.606 90.7273 945.742 91.3106 944.689 91.7273C943.636 92.1364 942.431 92.3409 941.075 92.3409Z" fill="#424045"/>
<path d="M1148.06 13.5455H1151.93L1157.11 26.1932H1157.31L1162.5 13.5455H1166.36V31H1163.33V19.0085H1163.17L1158.34 30.9489H1156.08L1151.25 18.983H1151.09V31H1148.06V13.5455ZM1173.44 31.2642C1172.61 31.2642 1171.86 31.1165 1171.2 30.821C1170.54 30.5199 1170.01 30.0767 1169.63 29.4915C1169.25 28.9062 1169.06 28.1847 1169.06 27.3267C1169.06 26.5881 1169.19 25.9773 1169.47 25.4943C1169.74 25.0114 1170.11 24.625 1170.58 24.3352C1171.05 24.0455 1171.59 23.8267 1172.18 23.679C1172.77 23.5256 1173.39 23.4148 1174.03 23.3466C1174.79 23.267 1175.42 23.196 1175.89 23.1335C1176.37 23.0653 1176.72 22.9631 1176.93 22.8267C1177.15 22.6847 1177.26 22.4659 1177.26 22.1705V22.1193C1177.26 21.4773 1177.07 20.9801 1176.69 20.6278C1176.31 20.2756 1175.76 20.0994 1175.05 20.0994C1174.29 20.0994 1173.69 20.2642 1173.25 20.5938C1172.81 20.9233 1172.52 21.3125 1172.36 21.7614L1169.48 21.3523C1169.71 20.5568 1170.09 19.892 1170.61 19.358C1171.13 18.8182 1171.77 18.4148 1172.53 18.1477C1173.28 17.875 1174.12 17.7386 1175.03 17.7386C1175.66 17.7386 1176.29 17.8125 1176.92 17.9602C1177.54 18.108 1178.11 18.3523 1178.63 18.6932C1179.15 19.0284 1179.56 19.4858 1179.87 20.0653C1180.19 20.6449 1180.35 21.3693 1180.35 22.2386V31H1177.38V29.2017H1177.28C1177.09 29.5653 1176.83 29.9062 1176.49 30.2244C1176.15 30.5369 1175.73 30.7898 1175.22 30.983C1174.71 31.1705 1174.12 31.2642 1173.44 31.2642ZM1174.24 28.9972C1174.86 28.9972 1175.4 28.875 1175.85 28.6307C1176.3 28.3807 1176.65 28.0511 1176.9 27.642C1177.15 27.233 1177.27 26.7869 1177.27 26.304V24.7614C1177.18 24.8409 1177.01 24.9148 1176.78 24.983C1176.55 25.0511 1176.3 25.1108 1176.01 25.1619C1175.73 25.2131 1175.45 25.2585 1175.17 25.2983C1174.89 25.3381 1174.65 25.3722 1174.44 25.4006C1173.98 25.4631 1173.57 25.5653 1173.21 25.7074C1172.84 25.8494 1172.56 26.0483 1172.35 26.304C1172.14 26.554 1172.03 26.8778 1172.03 27.2756C1172.03 27.8438 1172.24 28.2727 1172.65 28.5625C1173.07 28.8523 1173.6 28.9972 1174.24 28.9972ZM1188.31 31.2301C1187.28 31.2301 1186.36 30.9659 1185.55 30.4375C1184.74 29.9091 1184.09 29.142 1183.62 28.1364C1183.15 27.1307 1182.92 25.9091 1182.92 24.4716C1182.92 23.017 1183.15 21.7898 1183.63 20.7898C1184.11 19.7841 1184.76 19.0256 1185.58 18.5142C1186.4 17.9972 1187.31 17.7386 1188.32 17.7386C1189.09 17.7386 1189.72 17.8693 1190.21 18.1307C1190.71 18.3864 1191.1 18.696 1191.39 19.0597C1191.68 19.4176 1191.9 19.7557 1192.06 20.0739H1192.19V13.5455H1195.28V31H1192.25V28.9375H1192.06C1191.9 29.2557 1191.67 29.5937 1191.37 29.9517C1191.07 30.304 1190.67 30.6051 1190.18 30.8551C1189.68 31.1051 1189.06 31.2301 1188.31 31.2301ZM1189.17 28.6989C1189.82 28.6989 1190.38 28.5227 1190.84 28.1705C1191.3 27.8125 1191.65 27.3153 1191.89 26.679C1192.13 26.0426 1192.25 25.3011 1192.25 24.4545C1192.25 23.608 1192.13 22.8722 1191.89 22.2472C1191.66 21.6222 1191.31 21.1364 1190.85 20.7898C1190.4 20.4432 1189.84 20.2699 1189.17 20.2699C1188.48 20.2699 1187.91 20.4489 1187.45 20.8068C1186.99 21.1648 1186.64 21.6591 1186.41 22.2898C1186.18 22.9205 1186.06 23.642 1186.06 24.4545C1186.06 25.2727 1186.18 26.0028 1186.41 26.6449C1186.65 27.2812 1187 27.7841 1187.46 28.1534C1187.92 28.517 1188.5 28.6989 1189.17 28.6989ZM1204.37 31.2557C1203.05 31.2557 1201.92 30.983 1200.96 30.4375C1200.02 29.8864 1199.29 29.108 1198.77 28.1023C1198.26 27.0909 1198.01 25.9006 1198.01 24.5312C1198.01 23.1847 1198.26 22.0028 1198.77 20.9858C1199.29 19.9631 1200.01 19.1676 1200.94 18.5994C1201.87 18.0256 1202.95 17.7386 1204.2 17.7386C1205.01 17.7386 1205.77 17.8693 1206.49 18.1307C1207.21 18.3864 1207.85 18.7841 1208.4 19.3239C1208.95 19.8636 1209.39 20.5511 1209.71 21.3864C1210.03 22.2159 1210.19 23.2045 1210.19 24.3523V25.2983H1199.46V23.2188H1207.23C1207.22 22.6278 1207.1 22.1023 1206.85 21.642C1206.6 21.1761 1206.25 20.8097 1205.8 20.5426C1205.35 20.2756 1204.84 20.142 1204.25 20.142C1203.62 20.142 1203.06 20.2955 1202.58 20.6023C1202.11 20.9034 1201.73 21.3011 1201.47 21.7955C1201.21 22.2841 1201.07 22.821 1201.07 23.4062V25.2216C1201.07 25.983 1201.21 26.6364 1201.48 27.1818C1201.76 27.7216 1202.15 28.1364 1202.65 28.4261C1203.15 28.7102 1203.74 28.8523 1204.41 28.8523C1204.86 28.8523 1205.26 28.7898 1205.63 28.6648C1205.99 28.5341 1206.31 28.3438 1206.57 28.0938C1206.84 27.8438 1207.04 27.5341 1207.18 27.1648L1210.06 27.4886C1209.88 28.25 1209.53 28.9148 1209.02 29.483C1208.51 30.0455 1207.87 30.483 1207.08 30.7955C1206.29 31.1023 1205.38 31.2557 1204.37 31.2557ZM1218.89 31V13.5455H1221.97V20.0739H1222.1C1222.26 19.7557 1222.48 19.4176 1222.77 19.0597C1223.06 18.696 1223.45 18.3864 1223.95 18.1307C1224.44 17.8693 1225.07 17.7386 1225.84 17.7386C1226.85 17.7386 1227.76 17.9972 1228.58 18.5142C1229.39 19.0256 1230.04 19.7841 1230.52 20.7898C1231 21.7898 1231.24 23.017 1231.24 24.4716C1231.24 25.9091 1231.01 27.1307 1230.54 28.1364C1230.06 29.142 1229.42 29.9091 1228.61 30.4375C1227.8 30.9659 1226.88 31.2301 1225.85 31.2301C1225.1 31.2301 1224.48 31.1051 1223.98 30.8551C1223.49 30.6051 1223.09 30.304 1222.79 29.9517C1222.49 29.5937 1222.26 29.2557 1222.1 28.9375H1221.92V31H1218.89ZM1221.91 24.4545C1221.91 25.3011 1222.03 26.0426 1222.27 26.679C1222.51 27.3153 1222.86 27.8125 1223.32 28.1705C1223.78 28.5227 1224.33 28.6989 1224.99 28.6989C1225.67 28.6989 1226.24 28.517 1226.7 28.1534C1227.16 27.7841 1227.51 27.2812 1227.74 26.6449C1227.98 26.0028 1228.1 25.2727 1228.1 24.4545C1228.1 23.642 1227.98 22.9205 1227.75 22.2898C1227.52 21.6591 1227.17 21.1648 1226.71 20.8068C1226.25 20.4489 1225.68 20.2699 1224.99 20.2699C1224.33 20.2699 1223.77 20.4432 1223.31 20.7898C1222.85 21.1364 1222.5 21.6222 1222.26 22.2472C1222.03 22.8722 1221.91 23.608 1221.91 24.4545ZM1235.34 35.9091C1234.92 35.9091 1234.53 35.875 1234.17 35.8068C1233.82 35.7443 1233.54 35.6705 1233.33 35.5852L1234.04 33.1818C1234.49 33.3125 1234.89 33.375 1235.25 33.3693C1235.6 33.3636 1235.91 33.2528 1236.17 33.0369C1236.45 32.8267 1236.68 32.4744 1236.86 31.9801L1237.13 31.2727L1232.38 17.9091H1235.65L1238.67 27.7955H1238.81L1241.83 17.9091H1245.11L1239.87 32.5852C1239.63 33.2784 1239.3 33.8722 1238.9 34.3665C1238.5 34.8665 1238 35.2472 1237.42 35.5085C1236.84 35.7756 1236.15 35.9091 1235.34 35.9091ZM1134.82 46.7273H1139V63.0909C1139 64.5909 1138.68 65.8826 1138.05 66.9659C1137.42 68.0417 1136.54 68.8712 1135.41 69.4545C1134.29 70.0303 1132.98 70.3182 1131.49 70.3182C1130.13 70.3182 1128.9 70.0758 1127.81 69.5909C1126.73 69.0985 1125.87 68.3712 1125.23 67.4091C1124.59 66.447 1124.28 65.25 1124.28 63.8182H1128.47C1128.48 64.447 1128.61 64.9886 1128.88 65.4432C1129.15 65.8977 1129.53 66.2462 1130 66.4886C1130.48 66.7311 1131.03 66.8523 1131.65 66.8523C1132.32 66.8523 1132.9 66.7121 1133.37 66.4318C1133.84 66.1439 1134.19 65.7197 1134.43 65.1591C1134.68 64.5985 1134.81 63.9091 1134.82 63.0909V46.7273ZM1151.01 70.3409C1149.3 70.3409 1147.83 69.9659 1146.58 69.2159C1145.33 68.4659 1144.36 67.4167 1143.67 66.0682C1142.99 64.7197 1142.64 63.1439 1142.64 61.3409C1142.64 59.5379 1142.99 57.9583 1143.67 56.6023C1144.36 55.2462 1145.33 54.1932 1146.58 53.4432C1147.83 52.6932 1149.3 52.3182 1151.01 52.3182C1152.71 52.3182 1154.19 52.6932 1155.44 53.4432C1156.69 54.1932 1157.66 55.2462 1158.34 56.6023C1159.03 57.9583 1159.37 59.5379 1159.37 61.3409C1159.37 63.1439 1159.03 64.7197 1158.34 66.0682C1157.66 67.4167 1156.69 68.4659 1155.44 69.2159C1154.19 69.9659 1152.71 70.3409 1151.01 70.3409ZM1151.03 67.0455C1151.96 67.0455 1152.73 66.7917 1153.35 66.2841C1153.97 65.7689 1154.43 65.0795 1154.74 64.2159C1155.05 63.3523 1155.2 62.3902 1155.2 61.3295C1155.2 60.2614 1155.05 59.2955 1154.74 58.4318C1154.43 57.5606 1153.97 56.8674 1153.35 56.3523C1152.73 55.8371 1151.96 55.5795 1151.03 55.5795C1150.08 55.5795 1149.3 55.8371 1148.67 56.3523C1148.05 56.8674 1147.58 57.5606 1147.27 58.4318C1146.97 59.2955 1146.82 60.2614 1146.82 61.3295C1146.82 62.3902 1146.97 63.3523 1147.27 64.2159C1147.58 65.0795 1148.05 65.7689 1148.67 66.2841C1149.3 66.7917 1150.08 67.0455 1151.03 67.0455ZM1166.98 59.7727V70H1162.86V52.5455H1166.8V55.5114H1167C1167.4 54.5341 1168.04 53.7576 1168.92 53.1818C1169.81 52.6061 1170.9 52.3182 1172.2 52.3182C1173.41 52.3182 1174.46 52.5758 1175.35 53.0909C1176.25 53.6061 1176.95 54.3523 1177.44 55.3295C1177.94 56.3068 1178.19 57.4924 1178.18 58.8864V70H1174.07V59.5227C1174.07 58.3561 1173.77 57.4432 1173.16 56.7841C1172.56 56.125 1171.73 55.7955 1170.67 55.7955C1169.95 55.7955 1169.31 55.9545 1168.75 56.2727C1168.2 56.5833 1167.76 57.0341 1167.44 57.625C1167.13 58.2159 1166.98 58.9318 1166.98 59.7727ZM1187.39 70.3523C1186.28 70.3523 1185.28 70.1553 1184.4 69.7614C1183.52 69.3598 1182.82 68.7689 1182.31 67.9886C1181.8 67.2083 1181.55 66.2462 1181.55 65.1023C1181.55 64.1174 1181.73 63.303 1182.09 62.6591C1182.45 62.0152 1182.95 61.5 1183.58 61.1136C1184.21 60.7273 1184.92 60.4356 1185.7 60.2386C1186.5 60.0341 1187.32 59.8864 1188.17 59.7955C1189.19 59.6894 1190.02 59.5947 1190.66 59.5114C1191.3 59.4205 1191.76 59.2841 1192.05 59.1023C1192.34 58.9129 1192.49 58.6212 1192.49 58.2273V58.1591C1192.49 57.303 1192.23 56.6402 1191.73 56.1705C1191.22 55.7008 1190.49 55.4659 1189.53 55.4659C1188.53 55.4659 1187.73 55.6856 1187.14 56.125C1186.55 56.5644 1186.16 57.0833 1185.95 57.6818L1182.11 57.1364C1182.42 56.0758 1182.92 55.1894 1183.61 54.4773C1184.31 53.7576 1185.16 53.2197 1186.17 52.8636C1187.18 52.5 1188.29 52.3182 1189.51 52.3182C1190.35 52.3182 1191.19 52.4167 1192.02 52.6136C1192.86 52.8106 1193.62 53.1364 1194.31 53.5909C1195 54.0379 1195.55 54.6477 1195.97 55.4205C1196.39 56.1932 1196.6 57.1591 1196.6 58.3182V70H1192.65V67.6023H1192.51C1192.26 68.0871 1191.91 68.5417 1191.45 68.9659C1191.01 69.3826 1190.44 69.7197 1189.76 69.9773C1189.09 70.2273 1188.3 70.3523 1187.39 70.3523ZM1188.45 67.3295C1189.28 67.3295 1190 67.1667 1190.6 66.8409C1191.21 66.5076 1191.67 66.0682 1192 65.5227C1192.33 64.9773 1192.5 64.3826 1192.5 63.7386V61.6818C1192.37 61.7879 1192.15 61.8864 1191.84 61.9773C1191.54 62.0682 1191.2 62.1477 1190.82 62.2159C1190.44 62.2841 1190.06 62.3447 1189.69 62.3977C1189.32 62.4508 1189 62.4962 1188.73 62.5341C1188.11 62.6174 1187.56 62.7538 1187.08 62.9432C1186.59 63.1326 1186.21 63.3977 1185.93 63.7386C1185.65 64.072 1185.51 64.5038 1185.51 65.0341C1185.51 65.7917 1185.79 66.3636 1186.34 66.75C1186.89 67.1364 1187.6 67.3295 1188.45 67.3295ZM1209.45 52.5455V55.7273H1199.42V52.5455H1209.45ZM1201.9 48.3636H1206.01V64.75C1206.01 65.303 1206.09 65.7273 1206.26 66.0227C1206.44 66.3106 1206.66 66.5076 1206.94 66.6136C1207.22 66.7197 1207.53 66.7727 1207.88 66.7727C1208.13 66.7727 1208.37 66.7538 1208.58 66.7159C1208.8 66.678 1208.97 66.6439 1209.08 66.6136L1209.77 69.8295C1209.55 69.9053 1209.24 69.9886 1208.83 70.0795C1208.43 70.1705 1207.94 70.2235 1207.35 70.2386C1206.32 70.2689 1205.39 70.1136 1204.57 69.7727C1203.74 69.4242 1203.09 68.8864 1202.6 68.1591C1202.13 67.4318 1201.89 66.5227 1201.9 65.4318V48.3636ZM1217.38 59.7727V70H1213.27V46.7273H1217.29V55.5114H1217.5C1217.91 54.5265 1218.54 53.75 1219.39 53.1818C1220.26 52.6061 1221.36 52.3182 1222.69 52.3182C1223.9 52.3182 1224.96 52.572 1225.86 53.0795C1226.76 53.5871 1227.46 54.3295 1227.95 55.3068C1228.45 56.2841 1228.7 57.4773 1228.7 58.8864V70H1224.59V59.5227C1224.59 58.3485 1224.29 57.4356 1223.68 56.7841C1223.08 56.125 1222.24 55.7955 1221.16 55.7955C1220.43 55.7955 1219.78 55.9545 1219.2 56.2727C1218.63 56.5833 1218.19 57.0341 1217.86 57.625C1217.54 58.2159 1217.38 58.9318 1217.38 59.7727ZM1237.92 70.3523C1236.81 70.3523 1235.82 70.1553 1234.93 69.7614C1234.05 69.3598 1233.35 68.7689 1232.84 67.9886C1232.33 67.2083 1232.08 66.2462 1232.08 65.1023C1232.08 64.1174 1232.26 63.303 1232.62 62.6591C1232.99 62.0152 1233.48 61.5 1234.11 61.1136C1234.74 60.7273 1235.45 60.4356 1236.24 60.2386C1237.03 60.0341 1237.85 59.8864 1238.7 59.7955C1239.72 59.6894 1240.55 59.5947 1241.19 59.5114C1241.83 59.4205 1242.29 59.2841 1242.58 59.1023C1242.87 58.9129 1243.02 58.6212 1243.02 58.2273V58.1591C1243.02 57.303 1242.77 56.6402 1242.26 56.1705C1241.75 55.7008 1241.02 55.4659 1240.07 55.4659C1239.06 55.4659 1238.26 55.6856 1237.67 56.125C1237.08 56.5644 1236.69 57.0833 1236.49 57.6818L1232.64 57.1364C1232.95 56.0758 1233.45 55.1894 1234.14 54.4773C1234.84 53.7576 1235.69 53.2197 1236.7 52.8636C1237.71 52.5 1238.82 52.3182 1240.04 52.3182C1240.88 52.3182 1241.72 52.4167 1242.55 52.6136C1243.39 52.8106 1244.15 53.1364 1244.84 53.5909C1245.53 54.0379 1246.08 54.6477 1246.5 55.4205C1246.92 56.1932 1247.13 57.1591 1247.13 58.3182V70H1243.18V67.6023H1243.04C1242.79 68.0871 1242.44 68.5417 1241.99 68.9659C1241.54 69.3826 1240.97 69.7197 1240.29 69.9773C1239.62 70.2273 1238.83 70.3523 1237.92 70.3523ZM1238.99 67.3295C1239.81 67.3295 1240.53 67.1667 1241.13 66.8409C1241.74 66.5076 1242.21 66.0682 1242.53 65.5227C1242.86 64.9773 1243.03 64.3826 1243.03 63.7386V61.6818C1242.9 61.7879 1242.68 61.8864 1242.37 61.9773C1242.07 62.0682 1241.73 62.1477 1241.35 62.2159C1240.97 62.2841 1240.6 62.3447 1240.22 62.3977C1239.85 62.4508 1239.53 62.4962 1239.26 62.5341C1238.64 62.6174 1238.1 62.7538 1237.61 62.9432C1237.13 63.1326 1236.74 63.3977 1236.46 63.7386C1236.18 64.072 1236.04 64.5038 1236.04 65.0341C1236.04 65.7917 1236.32 66.3636 1236.87 66.75C1237.43 67.1364 1238.13 67.3295 1238.99 67.3295ZM1255.38 59.7727V70H1251.27V52.5455H1255.2V55.5114H1255.41C1255.81 54.5341 1256.45 53.7576 1257.33 53.1818C1258.21 52.6061 1259.31 52.3182 1260.61 52.3182C1261.82 52.3182 1262.86 52.5758 1263.76 53.0909C1264.66 53.6061 1265.36 54.3523 1265.85 55.3295C1266.35 56.3068 1266.6 57.4924 1266.59 58.8864V70H1262.47V59.5227C1262.47 58.3561 1262.17 57.4432 1261.57 56.7841C1260.97 56.125 1260.14 55.7955 1259.08 55.7955C1258.36 55.7955 1257.72 55.9545 1257.16 56.2727C1256.6 56.5833 1256.17 57.0341 1255.85 57.625C1255.54 58.2159 1255.38 58.9318 1255.38 59.7727ZM1130.28 109V85.7273H1134.5V96.4205H1134.78L1143.86 85.7273H1149.01L1140.01 96.1705L1149.09 109H1144.02L1137.08 99.0227L1134.5 102.068V109H1130.28ZM1156.78 109.352C1155.67 109.352 1154.67 109.155 1153.79 108.761C1152.91 108.36 1152.21 107.769 1151.7 106.989C1151.19 106.208 1150.94 105.246 1150.94 104.102C1150.94 103.117 1151.12 102.303 1151.48 101.659C1151.85 101.015 1152.34 100.5 1152.97 100.114C1153.6 99.7273 1154.31 99.4356 1155.1 99.2386C1155.89 99.0341 1156.71 98.8864 1157.56 98.7955C1158.58 98.6894 1159.41 98.5947 1160.05 98.5114C1160.69 98.4205 1161.15 98.2841 1161.44 98.1023C1161.73 97.9129 1161.88 97.6212 1161.88 97.2273V97.1591C1161.88 96.303 1161.63 95.6402 1161.12 95.1705C1160.61 94.7008 1159.88 94.4659 1158.92 94.4659C1157.92 94.4659 1157.12 94.6856 1156.53 95.125C1155.94 95.5644 1155.55 96.0833 1155.35 96.6818L1151.5 96.1364C1151.81 95.0758 1152.31 94.1894 1153 93.4773C1153.7 92.7576 1154.55 92.2197 1155.56 91.8636C1156.57 91.5 1157.68 91.3182 1158.9 91.3182C1159.74 91.3182 1160.58 91.4167 1161.41 91.6136C1162.25 91.8106 1163.01 92.1364 1163.7 92.5909C1164.39 93.0379 1164.94 93.6477 1165.36 94.4205C1165.78 95.1932 1165.99 96.1591 1165.99 97.3182V109H1162.04V106.602H1161.9C1161.65 107.087 1161.3 107.542 1160.85 107.966C1160.4 108.383 1159.83 108.72 1159.15 108.977C1158.48 109.227 1157.69 109.352 1156.78 109.352ZM1157.85 106.33C1158.67 106.33 1159.39 106.167 1159.99 105.841C1160.6 105.508 1161.06 105.068 1161.39 104.523C1161.72 103.977 1161.89 103.383 1161.89 102.739V100.682C1161.76 100.788 1161.54 100.886 1161.23 100.977C1160.93 101.068 1160.59 101.148 1160.21 101.216C1159.83 101.284 1159.46 101.345 1159.08 101.398C1158.71 101.451 1158.39 101.496 1158.12 101.534C1157.5 101.617 1156.96 101.754 1156.47 101.943C1155.99 102.133 1155.6 102.398 1155.32 102.739C1155.04 103.072 1154.9 103.504 1154.9 104.034C1154.9 104.792 1155.18 105.364 1155.73 105.75C1156.28 106.136 1156.99 106.33 1157.85 106.33ZM1183.92 96.1591L1180.17 96.5682C1180.07 96.1894 1179.88 95.8333 1179.62 95.5C1179.36 95.1667 1179.01 94.8977 1178.57 94.6932C1178.13 94.4886 1177.6 94.3864 1176.96 94.3864C1176.1 94.3864 1175.38 94.572 1174.8 94.9432C1174.22 95.3144 1173.94 95.7955 1173.95 96.3864C1173.94 96.8939 1174.13 97.3068 1174.5 97.625C1174.89 97.9432 1175.53 98.2045 1176.41 98.4091L1179.39 99.0455C1181.04 99.4015 1182.27 99.9659 1183.07 100.739C1183.88 101.511 1184.29 102.523 1184.3 103.773C1184.29 104.871 1183.97 105.841 1183.33 106.682C1182.71 107.515 1181.83 108.167 1180.71 108.636C1179.59 109.106 1178.3 109.341 1176.85 109.341C1174.71 109.341 1172.99 108.894 1171.69 108C1170.38 107.098 1169.61 105.845 1169.36 104.239L1173.37 103.852C1173.55 104.64 1173.94 105.235 1174.53 105.636C1175.12 106.038 1175.89 106.239 1176.83 106.239C1177.81 106.239 1178.6 106.038 1179.19 105.636C1179.78 105.235 1180.08 104.739 1180.08 104.148C1180.08 103.648 1179.89 103.235 1179.5 102.909C1179.13 102.583 1178.53 102.333 1177.73 102.159L1174.75 101.534C1173.08 101.186 1171.84 100.598 1171.04 99.7727C1170.24 98.9394 1169.84 97.8864 1169.85 96.6136C1169.84 95.5379 1170.13 94.6061 1170.72 93.8182C1171.32 93.0227 1172.15 92.4091 1173.21 91.9773C1174.28 91.5379 1175.51 91.3182 1176.9 91.3182C1178.95 91.3182 1180.56 91.7538 1181.73 92.625C1182.91 93.4962 1183.64 94.6742 1183.92 96.1591ZM1195.31 109.341C1193.6 109.341 1192.12 108.966 1190.87 108.216C1189.62 107.466 1188.65 106.417 1187.96 105.068C1187.28 103.72 1186.94 102.144 1186.94 100.341C1186.94 98.5379 1187.28 96.9583 1187.96 95.6023C1188.65 94.2462 1189.62 93.1932 1190.87 92.4432C1192.12 91.6932 1193.6 91.3182 1195.31 91.3182C1197.01 91.3182 1198.49 91.6932 1199.74 92.4432C1200.99 93.1932 1201.95 94.2462 1202.63 95.6023C1203.32 96.9583 1203.67 98.5379 1203.67 100.341C1203.67 102.144 1203.32 103.72 1202.63 105.068C1201.95 106.417 1200.99 107.466 1199.74 108.216C1198.49 108.966 1197.01 109.341 1195.31 109.341ZM1195.33 106.045C1196.25 106.045 1197.03 105.792 1197.65 105.284C1198.27 104.769 1198.73 104.08 1199.03 103.216C1199.34 102.352 1199.5 101.39 1199.5 100.33C1199.5 99.2614 1199.34 98.2955 1199.03 97.4318C1198.73 96.5606 1198.27 95.8674 1197.65 95.3523C1197.03 94.8371 1196.25 94.5795 1195.33 94.5795C1194.38 94.5795 1193.59 94.8371 1192.96 95.3523C1192.34 95.8674 1191.88 96.5606 1191.57 97.4318C1191.26 98.2955 1191.11 99.2614 1191.11 100.33C1191.11 101.39 1191.26 102.352 1191.57 103.216C1191.88 104.08 1192.34 104.769 1192.96 105.284C1193.59 105.792 1194.38 106.045 1195.33 106.045ZM1211.27 98.7727V109H1207.16V91.5455H1211.09V94.5114H1211.3C1211.7 93.5341 1212.34 92.7576 1213.22 92.1818C1214.1 91.6061 1215.2 91.3182 1216.5 91.3182C1217.71 91.3182 1218.76 91.5758 1219.65 92.0909C1220.55 92.6061 1221.25 93.3523 1221.74 94.3295C1222.24 95.3068 1222.49 96.4924 1222.48 97.8864V109H1218.37V98.5227C1218.37 97.3561 1218.06 96.4432 1217.46 95.7841C1216.86 95.125 1216.03 94.7955 1214.97 94.7955C1214.25 94.7955 1213.61 94.9545 1213.05 95.2727C1212.49 95.5833 1212.06 96.0341 1211.74 96.625C1211.43 97.2159 1211.27 97.9318 1211.27 98.7727ZM1234.25 115.909C1232.77 115.909 1231.51 115.708 1230.44 115.307C1229.38 114.913 1228.53 114.383 1227.89 113.716C1227.24 113.049 1226.8 112.311 1226.55 111.5L1230.25 110.602C1230.42 110.943 1230.66 111.28 1230.98 111.614C1231.3 111.955 1231.72 112.235 1232.26 112.455C1232.81 112.682 1233.49 112.795 1234.32 112.795C1235.49 112.795 1236.45 112.511 1237.22 111.943C1237.98 111.383 1238.37 110.458 1238.37 109.17V105.864H1238.16C1237.95 106.288 1237.64 106.723 1237.23 107.17C1236.83 107.617 1236.29 107.992 1235.63 108.295C1234.97 108.598 1234.14 108.75 1233.14 108.75C1231.8 108.75 1230.58 108.436 1229.49 107.807C1228.41 107.17 1227.54 106.223 1226.9 104.966C1226.26 103.701 1225.94 102.117 1225.94 100.216C1225.94 98.2992 1226.26 96.6818 1226.9 95.3636C1227.54 94.0379 1228.41 93.0341 1229.5 92.3523C1230.59 91.6629 1231.81 91.3182 1233.15 91.3182C1234.17 91.3182 1235.01 91.4924 1235.67 91.8409C1236.34 92.1818 1236.87 92.5947 1237.26 93.0795C1237.66 93.5568 1237.96 94.0076 1238.16 94.4318H1238.39V91.5455H1242.44V109.284C1242.44 110.777 1242.09 112.011 1241.38 112.989C1240.66 113.966 1239.69 114.697 1238.46 115.182C1237.22 115.667 1235.82 115.909 1234.25 115.909ZM1234.29 105.523C1235.16 105.523 1235.9 105.311 1236.51 104.886C1237.13 104.462 1237.59 103.852 1237.91 103.057C1238.23 102.261 1238.39 101.307 1238.39 100.193C1238.39 99.0947 1238.23 98.1326 1237.91 97.3068C1237.6 96.4811 1237.14 95.8409 1236.52 95.3864C1235.92 94.9242 1235.17 94.6932 1234.29 94.6932C1233.37 94.6932 1232.6 94.9318 1231.99 95.4091C1231.38 95.8864 1230.91 96.5417 1230.6 97.375C1230.29 98.2008 1230.14 99.1402 1230.14 100.193C1230.14 101.261 1230.29 102.197 1230.6 103C1230.92 103.795 1231.39 104.417 1232 104.864C1232.62 105.303 1233.38 105.523 1234.29 105.523ZM1254.27 109.341C1252.57 109.341 1251.09 108.966 1249.84 108.216C1248.59 107.466 1247.62 106.417 1246.93 105.068C1246.25 103.72 1245.91 102.144 1245.91 100.341C1245.91 98.5379 1246.25 96.9583 1246.93 95.6023C1247.62 94.2462 1248.59 93.1932 1249.84 92.4432C1251.09 91.6932 1252.57 91.3182 1254.27 91.3182C1255.98 91.3182 1257.46 91.6932 1258.71 92.4432C1259.96 93.1932 1260.92 94.2462 1261.6 95.6023C1262.29 96.9583 1262.64 98.5379 1262.64 100.341C1262.64 102.144 1262.29 103.72 1261.6 105.068C1260.92 106.417 1259.96 107.466 1258.71 108.216C1257.46 108.966 1255.98 109.341 1254.27 109.341ZM1254.3 106.045C1255.22 106.045 1255.99 105.792 1256.62 105.284C1257.24 104.769 1257.7 104.08 1258 103.216C1258.31 102.352 1258.47 101.39 1258.47 100.33C1258.47 99.2614 1258.31 98.2955 1258 97.4318C1257.7 96.5606 1257.24 95.8674 1256.62 95.3523C1255.99 94.8371 1255.22 94.5795 1254.3 94.5795C1253.35 94.5795 1252.56 94.8371 1251.93 95.3523C1251.31 95.8674 1250.85 96.5606 1250.54 97.4318C1250.23 98.2955 1250.08 99.2614 1250.08 100.33C1250.08 101.39 1250.23 102.352 1250.54 103.216C1250.85 104.08 1251.31 104.769 1251.93 105.284C1252.56 105.792 1253.35 106.045 1254.3 106.045Z" fill="#424045"/>
<defs>
<linearGradient id="paint0_linear_107_4" x1="298" y1="61" x2="0" y2="61" gradientUnits="userSpaceOnUse">
<stop stop-color="#FFFFB6"/>
<stop offset="1" stop-color="#F9AAD0"/>
</linearGradient>
<linearGradient id="paint1_linear_107_4" x1="647" y1="61" x2="349" y2="61" gradientUnits="userSpaceOnUse">
<stop stop-color="#8589D6"/>
<stop offset="1" stop-color="#E39797"/>
</linearGradient>
<linearGradient id="paint2_linear_107_4" x1="996" y1="61" x2="698" y2="61" gradientUnits="userSpaceOnUse">
<stop stop-color="#FFC6E5"/>
<stop offset="1" stop-color="#A9E0FB"/>
</linearGradient>
<linearGradient id="paint3_linear_107_4" x1="1196" y1="5" x2="1196" y2="117" gradientUnits="userSpaceOnUse">
<stop stop-color="#89E2B1"/>
<stop offset="1" stop-color="#B98DEE"/>
</linearGradient>
</defs>
</svg>
