<svg width="150" height="31" viewBox="0 0 150 31" fill="none" xmlns="http://www.w3.org/2000/svg">
<path d="M26.0298 10.3693H21.598C21.4276 9.42235 21.1103 8.58901 20.6463 7.86932C20.1823 7.14962 19.6141 6.53883 18.9418 6.03693C18.2694 5.53504 17.5166 5.15625 16.6832 4.90057C15.8594 4.64489 14.9834 4.51705 14.0554 4.51705C12.3793 4.51705 10.8783 4.93845 9.55256 5.78125C8.23627 6.62405 7.1946 7.85985 6.42756 9.48864C5.66998 11.1174 5.29119 13.1061 5.29119 15.4545C5.29119 17.822 5.66998 19.8201 6.42756 21.4489C7.1946 23.0777 8.241 24.3087 9.56676 25.142C10.8925 25.9754 12.384 26.392 14.0412 26.392C14.9598 26.392 15.831 26.2689 16.6548 26.0227C17.4882 25.767 18.241 25.393 18.9134 24.9006C19.5857 24.4081 20.1539 23.8068 20.6179 23.0966C21.0914 22.3769 21.4181 21.553 21.598 20.625L26.0298 20.6392C25.7931 22.0691 25.3338 23.3854 24.652 24.5881C23.9796 25.7812 23.1132 26.8134 22.0526 27.6847C21.0014 28.5464 19.7988 29.214 18.4446 29.6875C17.0904 30.161 15.6132 30.3977 14.0128 30.3977C11.4938 30.3977 9.24953 29.8011 7.27983 28.608C5.31013 27.4053 3.7571 25.6866 2.62074 23.4517C1.49384 21.2169 0.930398 18.5511 0.930398 15.4545C0.930398 12.3485 1.49858 9.68276 2.63494 7.45739C3.77131 5.22254 5.32434 3.50852 7.29403 2.31534C9.26373 1.11269 11.5033 0.511363 14.0128 0.511363C15.5563 0.511363 16.9957 0.733901 18.331 1.17898C19.6757 1.61458 20.883 2.25852 21.9531 3.1108C23.0232 3.9536 23.9086 4.9858 24.6094 6.20739C25.3101 7.41951 25.7836 8.80682 26.0298 10.3693ZM40.1314 30.4403C38.0859 30.4403 36.3009 29.9716 34.7763 29.0341C33.2517 28.0966 32.0679 26.785 31.2251 25.0994C30.3823 23.4138 29.9609 21.4441 29.9609 19.1903C29.9609 16.9271 30.3823 14.9479 31.2251 13.2528C32.0679 11.5578 33.2517 10.2415 34.7763 9.30398C36.3009 8.36648 38.0859 7.89773 40.1314 7.89773C42.1768 7.89773 43.9619 8.36648 45.4865 9.30398C47.0111 10.2415 48.1948 11.5578 49.0376 13.2528C49.8804 14.9479 50.3018 16.9271 50.3018 19.1903C50.3018 21.4441 49.8804 23.4138 49.0376 25.0994C48.1948 26.785 47.0111 28.0966 45.4865 29.0341C43.9619 29.9716 42.1768 30.4403 40.1314 30.4403ZM40.1456 26.875C41.4714 26.875 42.5698 26.5246 43.4411 25.8239C44.3123 25.1231 44.9562 24.1903 45.3729 23.0256C45.799 21.8608 46.0121 20.5777 46.0121 19.1761C46.0121 17.7841 45.799 16.5057 45.3729 15.3409C44.9562 14.1667 44.3123 13.2244 43.4411 12.5142C42.5698 11.804 41.4714 11.4489 40.1456 11.4489C38.8104 11.4489 37.7024 11.804 36.8217 12.5142C35.9505 13.2244 35.3018 14.1667 34.8757 15.3409C34.459 16.5057 34.2507 17.7841 34.2507 19.1761C34.2507 20.5777 34.459 21.8608 34.8757 23.0256C35.3018 24.1903 35.9505 25.1231 36.8217 25.8239C37.7024 26.5246 38.8104 26.875 40.1456 26.875ZM59.2898 17.0455V30H55.0426V8.18182H59.1193V11.733H59.3892C59.8911 10.5777 60.6771 9.64962 61.7472 8.94886C62.8267 8.24811 64.1856 7.89773 65.8239 7.89773C67.3106 7.89773 68.6127 8.21023 69.7301 8.83523C70.8475 9.45076 71.714 10.3693 72.3295 11.5909C72.9451 12.8125 73.2528 14.3229 73.2528 16.1222V30H69.0057V16.6335C69.0057 15.0521 68.5938 13.8163 67.7699 12.9261C66.946 12.0265 65.8144 11.5767 64.375 11.5767C63.3902 11.5767 62.5142 11.7898 61.7472 12.2159C60.9896 12.642 60.3883 13.267 59.9432 14.0909C59.5076 14.9053 59.2898 15.8902 59.2898 17.0455ZM89.1335 8.18182V11.5909H77.2159V8.18182H89.1335ZM80.4119 2.95455H84.6591V23.5938C84.6591 24.4176 84.7822 25.0379 85.0284 25.4545C85.2746 25.8617 85.5919 26.1411 85.9801 26.2926C86.3778 26.4347 86.8087 26.5057 87.2727 26.5057C87.6136 26.5057 87.9119 26.482 88.1676 26.4347C88.4233 26.3873 88.6222 26.3494 88.7642 26.321L89.5312 29.8295C89.285 29.9242 88.9347 30.0189 88.4801 30.1136C88.0256 30.2178 87.4574 30.2746 86.7756 30.2841C85.6581 30.303 84.6165 30.1042 83.6506 29.6875C82.6847 29.2708 81.9034 28.6269 81.3068 27.7557C80.7102 26.8845 80.4119 25.7907 80.4119 24.4744V2.95455ZM100.181 30.483C98.7985 30.483 97.5485 30.2273 96.4311 29.7159C95.3137 29.1951 94.4283 28.4422 93.7749 27.4574C93.1309 26.4725 92.8089 25.2652 92.8089 23.8352C92.8089 22.6042 93.0457 21.5909 93.5192 20.7955C93.9927 20 94.6319 19.3703 95.4368 18.9062C96.2417 18.4422 97.1413 18.0919 98.1357 17.8551C99.13 17.6184 100.143 17.4384 101.175 17.3153C102.482 17.1638 103.543 17.0407 104.357 16.946C105.172 16.8419 105.763 16.6761 106.133 16.4489C106.502 16.2216 106.687 15.8523 106.687 15.3409V15.2415C106.687 14.0009 106.336 13.0398 105.636 12.358C104.944 11.6761 103.912 11.3352 102.539 11.3352C101.109 11.3352 99.9822 11.6525 99.1584 12.2869C98.344 12.9119 97.7805 13.608 97.468 14.375L93.4766 13.4659C93.95 12.1402 94.6413 11.0701 95.5504 10.2557C96.469 9.43182 97.5249 8.83523 98.718 8.46591C99.9112 8.08712 101.166 7.89773 102.482 7.89773C103.353 7.89773 104.277 8.00189 105.252 8.21023C106.237 8.40909 107.156 8.77841 108.008 9.31818C108.87 9.85795 109.575 10.6297 110.124 11.6335C110.674 12.6278 110.948 13.9205 110.948 15.5114V30H106.8V27.017H106.63C106.355 27.5663 105.943 28.1061 105.394 28.6364C104.845 29.1667 104.139 29.607 103.278 29.9574C102.416 30.3078 101.384 30.483 100.181 30.483ZM101.104 27.0739C102.279 27.0739 103.282 26.8419 104.116 26.3778C104.959 25.9138 105.598 25.3078 106.033 24.5597C106.478 23.8021 106.701 22.9924 106.701 22.1307V19.3182C106.549 19.4697 106.256 19.6117 105.82 19.7443C105.394 19.8674 104.906 19.9763 104.357 20.071C103.808 20.1562 103.273 20.2367 102.752 20.3125C102.231 20.3788 101.796 20.4356 101.445 20.483C100.621 20.5871 99.8686 20.7623 99.1868 21.0085C98.5144 21.2547 97.9747 21.6098 97.5675 22.0739C97.1697 22.5284 96.9709 23.1345 96.9709 23.892C96.9709 24.9432 97.3591 25.7386 98.1357 26.2784C98.9122 26.8087 99.9018 27.0739 101.104 27.0739ZM125.795 30.4403C123.684 30.4403 121.866 29.9621 120.341 29.0057C118.826 28.0398 117.661 26.7093 116.847 25.0142C116.032 23.3191 115.625 21.3778 115.625 19.1903C115.625 16.9744 116.042 15.0189 116.875 13.3239C117.708 11.6193 118.883 10.2888 120.398 9.33239C121.913 8.37595 123.698 7.89773 125.753 7.89773C127.41 7.89773 128.887 8.20549 130.185 8.82102C131.482 9.42708 132.528 10.2794 133.324 11.3778C134.129 12.4763 134.607 13.7595 134.759 15.2273H130.625C130.398 14.2045 129.877 13.3239 129.062 12.5852C128.258 11.8466 127.178 11.4773 125.824 11.4773C124.64 11.4773 123.603 11.7898 122.713 12.4148C121.832 13.0303 121.146 13.911 120.653 15.0568C120.161 16.1932 119.915 17.5379 119.915 19.0909C119.915 20.6818 120.156 22.0549 120.639 23.2102C121.122 24.3655 121.804 25.2604 122.685 25.8949C123.575 26.5294 124.621 26.8466 125.824 26.8466C126.629 26.8466 127.358 26.6998 128.011 26.4062C128.674 26.1032 129.228 25.6723 129.673 25.1136C130.128 24.5549 130.445 23.8826 130.625 23.0966H134.759C134.607 24.5076 134.148 25.767 133.381 26.875C132.614 27.983 131.586 28.8542 130.298 29.4886C129.02 30.1231 127.519 30.4403 125.795 30.4403ZM149.485 8.18182V11.5909H137.567V8.18182H149.485ZM140.763 2.95455H145.011V23.5938C145.011 24.4176 145.134 25.0379 145.38 25.4545C145.626 25.8617 145.943 26.1411 146.332 26.2926C146.729 26.4347 147.16 26.5057 147.624 26.5057C147.965 26.5057 148.263 26.482 148.519 26.4347C148.775 26.3873 148.974 26.3494 149.116 26.321L149.883 29.8295C149.637 29.9242 149.286 30.0189 148.832 30.1136C148.377 30.2178 147.809 30.2746 147.127 30.2841C146.01 30.303 144.968 30.1042 144.002 29.6875C143.036 29.2708 142.255 28.6269 141.658 27.7557C141.062 26.8845 140.763 25.7907 140.763 24.4744V2.95455Z" fill="#C49DF2"/>
</svg>
