<svg width="375" height="50" viewBox="0 0 375 50" fill="none" xmlns="http://www.w3.org/2000/svg">
<path d="M0 19.2C0 12.4794 0 9.11905 1.30792 6.55211C2.4584 4.29417 4.29417 2.4584 6.55211 1.30792C9.11905 0 12.4794 0 19.2 0H355.8C362.521 0 365.881 0 368.448 1.30792C370.706 2.4584 372.542 4.29417 373.692 6.55211C375 9.11905 375 12.4794 375 19.2V30.8C375 37.5206 375 40.8809 373.692 43.4479C372.542 45.7058 370.706 47.5416 368.448 48.6921C365.881 50 362.521 50 355.8 50H19.2C12.4794 50 9.11905 50 6.55211 48.6921C4.29417 47.5416 2.4584 45.7058 1.30792 43.4479C0 40.8809 0 37.5206 0 30.8V19.2Z" fill="#322E2E"/>
<path d="M145.383 38V11.8182H161.184V14.6307H148.553V23.4773H160.366V26.2898H148.553V35.1875H161.388V38H145.383ZM166.589 38V18.3636H169.504V21.4318H169.76C170.169 20.3835 170.829 19.5696 171.741 18.9901C172.653 18.402 173.748 18.108 175.027 18.108C176.322 18.108 177.4 18.402 178.261 18.9901C179.13 19.5696 179.808 20.3835 180.294 21.4318H180.498C181.001 20.4176 181.755 19.6122 182.761 19.0156C183.767 18.4105 184.973 18.108 186.379 18.108C188.135 18.108 189.571 18.6577 190.687 19.7571C191.804 20.848 192.362 22.5483 192.362 24.858V38H189.345V24.858C189.345 23.4091 188.948 22.3736 188.156 21.7514C187.363 21.1293 186.43 20.8182 185.356 20.8182C183.975 20.8182 182.906 21.2358 182.147 22.071C181.389 22.8977 181.01 23.946 181.01 25.2159V38H177.941V24.5511C177.941 23.4347 177.579 22.5355 176.855 21.8537C176.13 21.1634 175.197 20.8182 174.055 20.8182C173.271 20.8182 172.538 21.027 171.856 21.4446C171.183 21.8622 170.637 22.4418 170.22 23.1832C169.811 23.9162 169.606 24.7642 169.606 25.7273V38H166.589ZM203.757 38.4602C202.512 38.4602 201.383 38.2259 200.369 37.7571C199.355 37.2798 198.549 36.5938 197.953 35.6989C197.356 34.7955 197.058 33.7045 197.058 32.4261C197.058 31.3011 197.279 30.3892 197.722 29.6903C198.166 28.983 198.758 28.429 199.499 28.0284C200.241 27.6278 201.059 27.3295 201.954 27.1335C202.857 26.929 203.765 26.767 204.677 26.6477C205.87 26.4943 206.838 26.3793 207.579 26.3026C208.329 26.2173 208.874 26.0767 209.215 25.8807C209.565 25.6847 209.74 25.3437 209.74 24.858V24.7557C209.74 23.4943 209.394 22.5142 208.704 21.8153C208.022 21.1165 206.987 20.767 205.597 20.767C204.157 20.767 203.028 21.0824 202.21 21.7131C201.392 22.3437 200.816 23.017 200.484 23.733L197.62 22.7102C198.132 21.517 198.813 20.5881 199.666 19.9233C200.526 19.25 201.464 18.7812 202.478 18.517C203.501 18.2443 204.507 18.108 205.495 18.108C206.126 18.108 206.85 18.1847 207.669 18.3381C208.495 18.483 209.292 18.7855 210.059 19.2457C210.835 19.706 211.478 20.4006 211.99 21.3295C212.501 22.2585 212.757 23.5028 212.757 25.0625V38H209.74V35.3409H209.586C209.382 35.767 209.041 36.223 208.563 36.7088C208.086 37.1946 207.451 37.608 206.659 37.9489C205.866 38.2898 204.899 38.4602 203.757 38.4602ZM204.217 35.75C205.41 35.75 206.416 35.5156 207.234 35.0469C208.061 34.5781 208.683 33.973 209.1 33.2315C209.526 32.4901 209.74 31.7102 209.74 30.892V28.1307C209.612 28.2841 209.33 28.4247 208.896 28.5526C208.47 28.6719 207.975 28.7784 207.413 28.8722C206.859 28.9574 206.318 29.0341 205.789 29.1023C205.269 29.1619 204.847 29.2131 204.524 29.2557C203.74 29.358 203.007 29.5241 202.325 29.7543C201.651 29.9759 201.106 30.3125 200.688 30.7642C200.279 31.2074 200.075 31.8125 200.075 32.5795C200.075 33.6278 200.463 34.4205 201.238 34.9574C202.022 35.4858 203.015 35.75 204.217 35.75ZM218.363 38V18.3636H221.38V38H218.363ZM219.897 15.0909C219.309 15.0909 218.802 14.8906 218.376 14.4901C217.958 14.0895 217.75 13.608 217.75 13.0455C217.75 12.483 217.958 12.0014 218.376 11.6009C218.802 11.2003 219.309 11 219.897 11C220.485 11 220.988 11.2003 221.406 11.6009C221.832 12.0014 222.045 12.483 222.045 13.0455C222.045 13.608 221.832 14.0895 221.406 14.4901C220.988 14.8906 220.485 15.0909 219.897 15.0909ZM230.023 11.8182V38H227.006V11.8182H230.023Z" fill="#AA9494"/>
</svg>
