<?xml version="1.0" encoding="UTF-8"?>
<svg xmlns="http://www.w3.org/2000/svg" xmlns:xlink="http://www.w3.org/1999/xlink" width="1011px" height="183px" viewBox="0 0 254 46" version="1.1">
<defs>
<linearGradient id="linear0" gradientUnits="userSpaceOnUse" x1="1011" y1="66.5" x2="0" y2="66.5" gradientTransform="matrix(0.251106,0,0,0.251366,0.0655399,0)">
<stop offset="0" style="stop-color:rgb(72.54902%,55.294118%,93.333333%);stop-opacity:1;"/>
<stop offset="1" style="stop-color:rgb(100%,77.647059%,89.803922%);stop-opacity:1;"/>
</linearGradient>
</defs>
<g id="surface1">
<path style=" stroke:none;fill-rule:nonzero;fill:url(#linear0);" d="M 4.757812 5.828125 L 8.996094 19.160156 L 9.160156 19.160156 L 13.402344 5.828125 L 17.511719 5.828125 L 11.46875 23.378906 L 6.691406 23.378906 L 0.640625 5.828125 Z M 19.550781 23.378906 L 19.550781 10.214844 L 23.203125 10.214844 L 23.203125 23.378906 Z M 21.386719 8.519531 C 20.84375 8.519531 20.378906 8.339844 19.988281 7.976562 C 19.605469 7.613281 19.414062 7.175781 19.414062 6.667969 C 19.414062 6.164062 19.605469 5.734375 19.988281 5.371094 C 20.378906 5.007812 20.84375 4.824219 21.386719 4.824219 C 21.929688 4.824219 22.390625 5.007812 22.773438 5.371094 C 23.160156 5.734375 23.355469 6.164062 23.355469 6.667969 C 23.355469 7.175781 23.160156 7.613281 22.773438 7.976562 C 22.390625 8.339844 21.929688 8.519531 21.386719 8.519531 Z M 30.96875 23.589844 C 29.96875 23.589844 29.0625 23.335938 28.253906 22.820312 C 27.449219 22.300781 26.808594 21.539062 26.335938 20.53125 C 25.867188 19.519531 25.632812 18.28125 25.632812 16.8125 C 25.632812 15.304688 25.875 14.050781 26.359375 13.050781 C 26.84375 12.046875 27.492188 11.292969 28.296875 10.796875 C 29.105469 10.292969 29.996094 10.042969 30.960938 10.042969 C 31.695312 10.042969 32.308594 10.167969 32.796875 10.421875 C 33.292969 10.664062 33.691406 10.972656 33.996094 11.347656 C 34.304688 11.710938 34.539062 12.070312 34.699219 12.425781 L 34.808594 12.425781 L 34.808594 5.828125 L 38.449219 5.828125 L 38.449219 23.378906 L 34.851562 23.378906 L 34.851562 21.269531 L 34.699219 21.269531 C 34.527344 21.632812 34.285156 21.996094 33.96875 22.355469 C 33.660156 22.710938 33.257812 23.003906 32.761719 23.238281 C 32.273438 23.472656 31.675781 23.589844 30.96875 23.589844 Z M 32.125 20.6875 C 32.707031 20.6875 33.203125 20.527344 33.609375 20.207031 C 34.023438 19.878906 34.335938 19.425781 34.550781 18.84375 C 34.773438 18.261719 34.886719 17.578125 34.886719 16.796875 C 34.886719 16.011719 34.777344 15.332031 34.5625 14.757812 C 34.34375 14.179688 34.03125 13.734375 33.617188 13.417969 C 33.207031 13.105469 32.707031 12.949219 32.125 12.949219 C 31.523438 12.949219 31.019531 13.109375 30.609375 13.4375 C 30.195312 13.761719 29.886719 14.214844 29.675781 14.789062 C 29.464844 15.367188 29.359375 16.035156 29.359375 16.796875 C 29.359375 17.5625 29.464844 18.238281 29.675781 18.828125 C 29.890625 19.410156 30.203125 19.867188 30.609375 20.199219 C 31.019531 20.523438 31.523438 20.6875 32.125 20.6875 Z M 47.441406 23.632812 C 46.085938 23.632812 44.921875 23.359375 43.945312 22.8125 C 42.976562 22.257812 42.226562 21.476562 41.703125 20.464844 C 41.175781 19.445312 40.914062 18.242188 40.914062 16.855469 C 40.914062 15.5 41.175781 14.3125 41.703125 13.289062 C 42.226562 12.269531 42.96875 11.472656 43.921875 10.898438 C 44.878906 10.328125 46.003906 10.042969 47.296875 10.042969 C 48.160156 10.042969 48.96875 10.183594 49.714844 10.464844 C 50.46875 10.738281 51.125 11.152344 51.683594 11.707031 C 52.25 12.261719 52.691406 12.957031 53.003906 13.796875 C 53.316406 14.628906 53.476562 15.609375 53.476562 16.726562 L 53.476562 17.730469 L 42.371094 17.730469 L 42.371094 15.46875 L 50.039062 15.46875 C 50.039062 14.941406 49.925781 14.476562 49.699219 14.070312 C 49.46875 13.664062 49.152344 13.347656 48.746094 13.121094 C 48.347656 12.886719 47.882812 12.769531 47.355469 12.769531 C 46.800781 12.769531 46.308594 12.898438 45.882812 13.152344 C 45.460938 13.40625 45.128906 13.746094 44.886719 14.171875 C 44.648438 14.597656 44.527344 15.066406 44.519531 15.585938 L 44.519531 17.738281 C 44.519531 18.390625 44.640625 18.953125 44.878906 19.425781 C 45.125 19.902344 45.472656 20.265625 45.917969 20.523438 C 46.363281 20.78125 46.890625 20.910156 47.5 20.910156 C 47.902344 20.910156 48.273438 20.851562 48.609375 20.738281 C 48.945312 20.625 49.234375 20.453125 49.476562 20.222656 C 49.714844 19.996094 49.898438 19.714844 50.023438 19.382812 L 53.398438 19.605469 C 53.226562 20.417969 52.875 21.125 52.34375 21.730469 C 51.820312 22.332031 51.140625 22.800781 50.304688 23.136719 C 49.476562 23.46875 48.523438 23.632812 47.441406 23.632812 Z M 61.796875 23.632812 C 60.464844 23.632812 59.316406 23.351562 58.34375 22.785156 C 57.378906 22.214844 56.632812 21.421875 56.109375 20.402344 C 55.585938 19.382812 55.320312 18.195312 55.320312 16.847656 C 55.320312 15.488281 55.585938 14.300781 56.109375 13.28125 C 56.632812 12.261719 57.378906 11.464844 58.34375 10.898438 C 59.316406 10.328125 60.464844 10.042969 61.796875 10.042969 C 63.121094 10.042969 64.269531 10.328125 65.234375 10.898438 C 66.207031 11.464844 66.953125 12.261719 67.480469 13.28125 C 68.003906 14.300781 68.265625 15.488281 68.265625 16.847656 C 68.265625 18.195312 68.003906 19.382812 67.480469 20.402344 C 66.953125 21.421875 66.207031 22.214844 65.234375 22.785156 C 64.269531 23.351562 63.121094 23.632812 61.796875 23.632812 Z M 61.8125 20.804688 C 62.417969 20.804688 62.921875 20.636719 63.324219 20.292969 C 63.730469 19.945312 64.035156 19.46875 64.242188 18.871094 C 64.453125 18.269531 64.558594 17.585938 64.558594 16.820312 C 64.558594 16.054688 64.453125 15.375 64.242188 14.773438 C 64.035156 14.171875 63.730469 13.699219 63.324219 13.351562 C 62.921875 13.003906 62.417969 12.828125 61.8125 12.828125 C 61.203125 12.828125 60.6875 13.003906 60.273438 13.351562 C 59.859375 13.699219 59.550781 14.171875 59.339844 14.773438 C 59.132812 15.375 59.03125 16.054688 59.03125 16.820312 C 59.03125 17.585938 59.132812 18.269531 59.339844 18.871094 C 59.550781 19.46875 59.859375 19.945312 60.273438 20.292969 C 60.6875 20.636719 61.203125 20.804688 61.8125 20.804688 Z M 82.160156 23.632812 C 80.8125 23.632812 79.652344 23.347656 78.679688 22.777344 C 77.71875 22.199219 76.976562 21.402344 76.457031 20.378906 C 75.945312 19.355469 75.6875 18.179688 75.6875 16.847656 C 75.6875 15.5 75.945312 14.316406 76.464844 13.300781 C 76.992188 12.277344 77.738281 11.480469 78.699219 10.910156 C 79.664062 10.332031 80.8125 10.042969 82.140625 10.042969 C 83.289062 10.042969 84.292969 10.25 85.15625 10.667969 C 86.015625 11.085938 86.695312 11.671875 87.199219 12.425781 C 87.703125 13.179688 87.980469 14.066406 88.03125 15.082031 L 84.589844 15.082031 C 84.492188 14.425781 84.238281 13.898438 83.820312 13.496094 C 83.410156 13.089844 82.871094 12.886719 82.203125 12.886719 C 81.636719 12.886719 81.140625 13.042969 80.71875 13.351562 C 80.304688 13.652344 79.976562 14.097656 79.742188 14.679688 C 79.507812 15.261719 79.390625 15.96875 79.390625 16.796875 C 79.390625 17.636719 79.507812 18.351562 79.734375 18.9375 C 79.96875 19.527344 80.296875 19.976562 80.71875 20.285156 C 81.140625 20.59375 81.636719 20.746094 82.203125 20.746094 C 82.617188 20.746094 82.992188 20.660156 83.324219 20.488281 C 83.660156 20.316406 83.9375 20.070312 84.152344 19.742188 C 84.375 19.414062 84.523438 19.015625 84.589844 18.550781 L 88.03125 18.550781 C 87.972656 19.558594 87.699219 20.445312 87.207031 21.210938 C 86.722656 21.96875 86.050781 22.5625 85.199219 22.992188 C 84.34375 23.417969 83.328125 23.632812 82.160156 23.632812 Z M 96.304688 23.632812 C 94.976562 23.632812 93.824219 23.351562 92.859375 22.785156 C 91.894531 22.214844 91.148438 21.421875 90.625 20.402344 C 90.097656 19.382812 89.835938 18.195312 89.835938 16.847656 C 89.835938 15.488281 90.097656 14.300781 90.625 13.28125 C 91.148438 12.261719 91.894531 11.464844 92.859375 10.898438 C 93.824219 10.328125 94.976562 10.042969 96.304688 10.042969 C 97.636719 10.042969 98.785156 10.328125 99.75 10.898438 C 100.714844 11.464844 101.464844 12.261719 101.988281 13.28125 C 102.515625 14.300781 102.777344 15.488281 102.777344 16.847656 C 102.777344 18.195312 102.515625 19.382812 101.988281 20.402344 C 101.464844 21.421875 100.714844 22.214844 99.75 22.785156 C 98.785156 23.351562 97.636719 23.632812 96.304688 23.632812 Z M 96.324219 20.804688 C 96.929688 20.804688 97.433594 20.636719 97.839844 20.292969 C 98.246094 19.945312 98.550781 19.46875 98.753906 18.871094 C 98.96875 18.269531 99.074219 17.585938 99.074219 16.820312 C 99.074219 16.054688 98.96875 15.375 98.753906 14.773438 C 98.550781 14.171875 98.246094 13.699219 97.839844 13.351562 C 97.433594 13.003906 96.929688 12.828125 96.324219 12.828125 C 95.710938 12.828125 95.199219 13.003906 94.78125 13.351562 C 94.371094 13.699219 94.058594 14.171875 93.847656 14.773438 C 93.644531 15.375 93.539062 16.054688 93.539062 16.820312 C 93.539062 17.585938 93.644531 18.269531 93.847656 18.871094 C 94.058594 19.46875 94.371094 19.945312 94.78125 20.292969 C 95.199219 20.636719 95.710938 20.804688 96.324219 20.804688 Z M 108.792969 15.765625 L 108.792969 23.378906 L 105.148438 23.378906 L 105.148438 10.214844 L 108.625 10.214844 L 108.625 12.535156 L 108.777344 12.535156 C 109.070312 11.769531 109.558594 11.164062 110.242188 10.71875 C 110.925781 10.269531 111.757812 10.042969 112.734375 10.042969 C 113.648438 10.042969 114.445312 10.242188 115.125 10.644531 C 115.800781 11.042969 116.328125 11.613281 116.703125 12.355469 C 117.082031 13.09375 117.269531 13.972656 117.269531 14.996094 L 117.269531 23.378906 L 113.625 23.378906 L 113.625 15.648438 C 113.632812 14.84375 113.425781 14.214844 113.007812 13.761719 C 112.589844 13.304688 112.019531 13.078125 111.285156 13.078125 C 110.796875 13.078125 110.363281 13.183594 109.984375 13.394531 C 109.613281 13.605469 109.324219 13.914062 109.113281 14.320312 C 108.90625 14.71875 108.800781 15.203125 108.792969 15.765625 Z M 127.214844 10.214844 L 127.214844 12.957031 L 119.101562 12.957031 L 119.101562 10.214844 Z M 120.960938 23.378906 L 120.960938 9.261719 C 120.960938 8.308594 121.144531 7.519531 121.515625 6.890625 C 121.894531 6.261719 122.40625 5.789062 123.058594 5.476562 C 123.703125 5.160156 124.445312 5.003906 125.273438 5.003906 C 125.832031 5.003906 126.34375 5.046875 126.804688 5.132812 C 127.273438 5.21875 127.621094 5.296875 127.851562 5.363281 L 127.199219 8.105469 C 127.054688 8.0625 126.878906 8.019531 126.667969 7.976562 C 126.460938 7.9375 126.25 7.917969 126.035156 7.917969 C 125.496094 7.917969 125.125 8.042969 124.914062 8.296875 C 124.699219 8.539062 124.59375 8.886719 124.59375 9.332031 L 124.59375 23.378906 Z M 134.964844 23.632812 C 133.613281 23.632812 132.449219 23.359375 131.472656 22.8125 C 130.503906 22.257812 129.757812 21.476562 129.230469 20.464844 C 128.707031 19.445312 128.441406 18.242188 128.441406 16.855469 C 128.441406 15.5 128.707031 14.3125 129.230469 13.289062 C 129.757812 12.269531 130.496094 11.472656 131.445312 10.898438 C 132.40625 10.328125 133.53125 10.042969 134.820312 10.042969 C 135.6875 10.042969 136.496094 10.183594 137.242188 10.464844 C 137.996094 10.738281 138.648438 11.152344 139.210938 11.707031 C 139.773438 12.261719 140.214844 12.957031 140.527344 13.796875 C 140.84375 14.628906 141 15.609375 141 16.726562 L 141 17.730469 L 129.898438 17.730469 L 129.898438 15.46875 L 137.570312 15.46875 C 137.570312 14.941406 137.457031 14.476562 137.226562 14.070312 C 137 13.664062 136.679688 13.347656 136.277344 13.121094 C 135.875 12.886719 135.410156 12.769531 134.878906 12.769531 C 134.324219 12.769531 133.835938 12.898438 133.40625 13.152344 C 132.984375 13.40625 132.652344 13.746094 132.414062 14.171875 C 132.171875 14.597656 132.050781 15.066406 132.046875 15.585938 L 132.046875 17.738281 C 132.046875 18.390625 132.164062 18.953125 132.40625 19.425781 C 132.652344 19.902344 132.996094 20.265625 133.441406 20.523438 C 133.886719 20.78125 134.414062 20.910156 135.027344 20.910156 C 135.429688 20.910156 135.800781 20.851562 136.140625 20.738281 C 136.476562 20.625 136.765625 20.453125 137.003906 20.222656 C 137.242188 19.996094 137.425781 19.714844 137.550781 19.382812 L 140.921875 19.605469 C 140.75 20.417969 140.402344 21.125 139.871094 21.730469 C 139.34375 22.332031 138.664062 22.800781 137.835938 23.136719 C 137.007812 23.46875 136.050781 23.632812 134.964844 23.632812 Z M 143.382812 23.378906 L 143.382812 10.214844 L 146.914062 10.214844 L 146.914062 12.511719 L 147.050781 12.511719 C 147.292969 11.695312 147.695312 11.078125 148.257812 10.660156 C 148.824219 10.238281 149.476562 10.027344 150.210938 10.027344 C 150.394531 10.027344 150.589844 10.039062 150.804688 10.058594 C 151.015625 10.082031 151.199219 10.113281 151.359375 10.15625 L 151.359375 13.394531 C 151.1875 13.34375 150.953125 13.296875 150.648438 13.257812 C 150.347656 13.214844 150.070312 13.195312 149.816406 13.195312 C 149.28125 13.195312 148.800781 13.3125 148.378906 13.546875 C 147.960938 13.777344 147.632812 14.097656 147.386719 14.507812 C 147.144531 14.917969 147.027344 15.394531 147.027344 15.929688 L 147.027344 23.378906 Z M 158.625 23.632812 C 157.273438 23.632812 156.105469 23.359375 155.128906 22.8125 C 154.160156 22.257812 153.414062 21.476562 152.890625 20.464844 C 152.367188 19.445312 152.101562 18.242188 152.101562 16.855469 C 152.101562 15.5 152.367188 14.3125 152.890625 13.289062 C 153.414062 12.269531 154.152344 11.472656 155.105469 10.898438 C 156.0625 10.328125 157.1875 10.042969 158.480469 10.042969 C 159.347656 10.042969 160.15625 10.183594 160.902344 10.464844 C 161.652344 10.738281 162.308594 11.152344 162.871094 11.707031 C 163.433594 12.261719 163.875 12.957031 164.1875 13.796875 C 164.503906 14.628906 164.660156 15.609375 164.660156 16.726562 L 164.660156 17.730469 L 153.554688 17.730469 L 153.554688 15.46875 L 161.226562 15.46875 C 161.226562 14.941406 161.109375 14.476562 160.886719 14.070312 C 160.65625 13.664062 160.339844 13.347656 159.933594 13.121094 C 159.535156 12.886719 159.070312 12.769531 158.539062 12.769531 C 157.984375 12.769531 157.496094 12.898438 157.066406 13.152344 C 156.644531 13.40625 156.3125 13.746094 156.074219 14.171875 C 155.832031 14.597656 155.710938 15.066406 155.703125 15.585938 L 155.703125 17.738281 C 155.703125 18.390625 155.824219 18.953125 156.0625 19.425781 C 156.308594 19.902344 156.65625 20.265625 157.101562 20.523438 C 157.546875 20.78125 158.074219 20.910156 158.683594 20.910156 C 159.089844 20.910156 159.460938 20.851562 159.796875 20.738281 C 160.136719 20.625 160.421875 20.453125 160.664062 20.222656 C 160.902344 19.996094 161.082031 19.714844 161.207031 19.382812 L 164.582031 19.605469 C 164.410156 20.417969 164.058594 21.125 163.527344 21.730469 C 163.003906 22.332031 162.324219 22.800781 161.492188 23.136719 C 160.667969 23.46875 159.710938 23.632812 158.625 23.632812 Z M 170.683594 15.765625 L 170.683594 23.378906 L 167.039062 23.378906 L 167.039062 10.214844 L 170.515625 10.214844 L 170.515625 12.535156 L 170.667969 12.535156 C 170.960938 11.769531 171.449219 11.164062 172.132812 10.71875 C 172.816406 10.269531 173.648438 10.042969 174.625 10.042969 C 175.539062 10.042969 176.332031 10.242188 177.011719 10.644531 C 177.691406 11.042969 178.21875 11.613281 178.59375 12.355469 C 178.972656 13.09375 179.160156 13.972656 179.160156 14.996094 L 179.160156 23.378906 L 175.515625 23.378906 L 175.515625 15.648438 C 175.519531 14.84375 175.316406 14.214844 174.898438 13.761719 C 174.480469 13.304688 173.910156 13.078125 173.175781 13.078125 C 172.6875 13.078125 172.253906 13.183594 171.875 13.394531 C 171.503906 13.605469 171.214844 13.914062 171.003906 14.320312 C 170.796875 14.71875 170.691406 15.203125 170.683594 15.765625 Z M 187.976562 23.632812 C 186.628906 23.632812 185.46875 23.347656 184.5 22.777344 C 183.539062 22.199219 182.796875 21.402344 182.277344 20.378906 C 181.761719 19.355469 181.503906 18.179688 181.503906 16.847656 C 181.503906 15.5 181.765625 14.316406 182.285156 13.300781 C 182.808594 12.277344 183.554688 11.480469 184.515625 10.910156 C 185.480469 10.332031 186.628906 10.042969 187.960938 10.042969 C 189.105469 10.042969 190.113281 10.25 190.972656 10.667969 C 191.832031 11.085938 192.515625 11.671875 193.015625 12.425781 C 193.519531 13.179688 193.796875 14.066406 193.847656 15.082031 L 190.410156 15.082031 C 190.3125 14.425781 190.054688 13.898438 189.636719 13.496094 C 189.226562 13.089844 188.6875 12.886719 188.019531 12.886719 C 187.453125 12.886719 186.960938 13.042969 186.539062 13.351562 C 186.121094 13.652344 185.796875 14.097656 185.5625 14.679688 C 185.328125 15.261719 185.210938 15.96875 185.210938 16.796875 C 185.210938 17.636719 185.324219 18.351562 185.550781 18.9375 C 185.785156 19.527344 186.113281 19.976562 186.539062 20.285156 C 186.960938 20.59375 187.453125 20.746094 188.019531 20.746094 C 188.4375 20.746094 188.808594 20.660156 189.140625 20.488281 C 189.476562 20.316406 189.753906 20.070312 189.972656 19.742188 C 190.195312 19.414062 190.339844 19.015625 190.410156 18.550781 L 193.847656 18.550781 C 193.789062 19.558594 193.515625 20.445312 193.027344 21.210938 C 192.539062 21.96875 191.871094 22.5625 191.015625 22.992188 C 190.160156 23.417969 189.148438 23.632812 187.976562 23.632812 Z M 196.183594 23.378906 L 196.183594 10.214844 L 199.828125 10.214844 L 199.828125 23.378906 Z M 198.015625 8.519531 C 197.472656 8.519531 197.007812 8.339844 196.621094 7.976562 C 196.238281 7.613281 196.046875 7.175781 196.046875 6.667969 C 196.046875 6.164062 196.238281 5.734375 196.621094 5.371094 C 197.007812 5.007812 197.472656 4.824219 198.015625 4.824219 C 198.558594 4.824219 199.019531 5.007812 199.402344 5.371094 C 199.789062 5.734375 199.984375 6.164062 199.984375 6.667969 C 199.984375 7.175781 199.789062 7.613281 199.402344 7.976562 C 199.019531 8.339844 198.558594 8.519531 198.015625 8.519531 Z M 206.398438 15.765625 L 206.398438 23.378906 L 202.75 23.378906 L 202.75 10.214844 L 206.230469 10.214844 L 206.230469 12.535156 L 206.382812 12.535156 C 206.671875 11.769531 207.160156 11.164062 207.84375 10.71875 C 208.527344 10.269531 209.359375 10.042969 210.335938 10.042969 C 211.25 10.042969 212.046875 10.242188 212.726562 10.644531 C 213.40625 11.042969 213.933594 11.613281 214.304688 12.355469 C 214.683594 13.09375 214.871094 13.972656 214.871094 14.996094 L 214.871094 23.378906 L 211.226562 23.378906 L 211.226562 15.648438 C 211.234375 14.84375 211.027344 14.214844 210.609375 13.761719 C 210.195312 13.304688 209.621094 13.078125 208.890625 13.078125 C 208.398438 13.078125 207.964844 13.183594 207.585938 13.394531 C 207.214844 13.605469 206.925781 13.914062 206.714844 14.320312 C 206.507812 14.71875 206.40625 15.203125 206.398438 15.765625 Z M 223.671875 28.585938 C 222.488281 28.585938 221.480469 28.425781 220.632812 28.097656 C 219.792969 27.777344 219.125 27.34375 218.628906 26.789062 C 218.132812 26.234375 217.808594 25.609375 217.660156 24.917969 L 221.035156 24.464844 C 221.140625 24.726562 221.300781 24.972656 221.523438 25.203125 C 221.742188 25.429688 222.039062 25.613281 222.402344 25.75 C 222.773438 25.894531 223.226562 25.964844 223.757812 25.964844 C 224.550781 25.964844 225.203125 25.769531 225.71875 25.382812 C 226.238281 25 226.496094 24.355469 226.496094 23.453125 L 226.496094 21.046875 L 226.34375 21.046875 C 226.183594 21.410156 225.941406 21.757812 225.625 22.082031 C 225.304688 22.410156 224.890625 22.675781 224.390625 22.878906 C 223.886719 23.085938 223.289062 23.1875 222.589844 23.1875 C 221.601562 23.1875 220.707031 22.960938 219.898438 22.503906 C 219.09375 22.039062 218.449219 21.335938 217.96875 20.386719 C 217.496094 19.433594 217.257812 18.226562 217.257812 16.769531 C 217.257812 15.277344 217.5 14.035156 217.988281 13.035156 C 218.472656 12.035156 219.117188 11.285156 219.921875 10.789062 C 220.734375 10.292969 221.617188 10.042969 222.582031 10.042969 C 223.320312 10.042969 223.9375 10.167969 224.433594 10.421875 C 224.929688 10.664062 225.328125 10.972656 225.632812 11.347656 C 225.941406 11.710938 226.175781 12.070312 226.34375 12.425781 L 226.480469 12.425781 L 226.480469 10.214844 L 230.097656 10.214844 L 230.097656 23.503906 C 230.097656 24.625 229.824219 25.5625 229.277344 26.316406 C 228.730469 27.070312 227.972656 27.636719 227 28.011719 C 226.035156 28.394531 224.925781 28.585938 223.671875 28.585938 Z M 223.746094 20.445312 C 224.335938 20.445312 224.832031 20.300781 225.238281 20.007812 C 225.648438 19.710938 225.960938 19.289062 226.179688 18.742188 C 226.402344 18.1875 226.515625 17.523438 226.515625 16.753906 C 226.515625 15.980469 226.40625 15.3125 226.1875 14.746094 C 225.972656 14.175781 225.65625 13.734375 225.246094 13.417969 C 224.835938 13.105469 224.335938 12.949219 223.746094 12.949219 C 223.148438 12.949219 222.640625 13.109375 222.230469 13.4375 C 221.820312 13.757812 221.511719 14.203125 221.300781 14.773438 C 221.089844 15.34375 220.984375 16.003906 220.984375 16.753906 C 220.984375 17.511719 221.089844 18.167969 221.300781 18.722656 C 221.519531 19.273438 221.824219 19.699219 222.230469 20 C 222.640625 20.296875 223.148438 20.445312 223.746094 20.445312 Z M 235.132812 23.601562 C 234.570312 23.601562 234.085938 23.398438 233.679688 23 C 233.277344 22.59375 233.078125 22.109375 233.078125 21.542969 C 233.078125 20.984375 233.277344 20.503906 233.679688 20.105469 C 234.085938 19.703125 234.570312 19.503906 235.132812 19.503906 C 235.683594 19.503906 236.164062 19.703125 236.574219 20.105469 C 236.980469 20.503906 237.1875 20.984375 237.1875 21.542969 C 237.1875 21.921875 237.089844 22.265625 236.894531 22.582031 C 236.707031 22.886719 236.460938 23.136719 236.152344 23.324219 C 235.84375 23.507812 235.503906 23.601562 235.132812 23.601562 Z M 242.316406 23.601562 C 241.75 23.601562 241.265625 23.398438 240.859375 23 C 240.457031 22.59375 240.257812 22.109375 240.257812 21.542969 C 240.257812 20.984375 240.457031 20.503906 240.859375 20.105469 C 241.265625 19.703125 241.75 19.503906 242.316406 19.503906 C 242.863281 19.503906 243.34375 19.703125 243.753906 20.105469 C 244.164062 20.503906 244.367188 20.984375 244.367188 21.542969 C 244.367188 21.921875 244.269531 22.265625 244.078125 22.582031 C 243.890625 22.886719 243.640625 23.136719 243.332031 23.324219 C 243.027344 23.507812 242.6875 23.601562 242.316406 23.601562 Z M 249.496094 23.601562 C 248.929688 23.601562 248.445312 23.398438 248.039062 23 C 247.640625 22.59375 247.4375 22.109375 247.4375 21.542969 C 247.4375 20.984375 247.640625 20.503906 248.039062 20.105469 C 248.445312 19.703125 248.929688 19.503906 249.496094 19.503906 C 250.042969 19.503906 250.523438 19.703125 250.933594 20.105469 C 251.34375 20.503906 251.550781 20.984375 251.550781 21.542969 C 251.550781 21.921875 251.453125 22.265625 251.257812 22.582031 C 251.070312 22.886719 250.820312 23.136719 250.511719 23.324219 C 250.207031 23.507812 249.867188 23.601562 249.496094 23.601562 Z M 249.496094 23.601562 "/>
<path style=" stroke:none;fill-rule:nonzero;fill:rgb(72.549021%,55.29412%,93.333334%);fill-opacity:1;" d="M 50.332031 34.414062 L 50.332031 41.726562 L 49.265625 41.726562 L 49.265625 34.414062 Z M 51.769531 41.726562 L 51.769531 36.242188 L 52.835938 36.242188 L 52.835938 41.726562 Z M 52.308594 35.394531 C 52.121094 35.394531 51.964844 35.335938 51.828125 35.210938 C 51.699219 35.085938 51.632812 34.933594 51.632812 34.761719 C 51.632812 34.585938 51.699219 34.433594 51.828125 34.3125 C 51.964844 34.183594 52.121094 34.121094 52.308594 34.121094 C 52.492188 34.121094 52.652344 34.183594 52.78125 34.3125 C 52.914062 34.433594 52.980469 34.585938 52.980469 34.761719 C 52.980469 34.933594 52.914062 35.085938 52.78125 35.210938 C 52.652344 35.335938 52.492188 35.394531 52.308594 35.394531 Z M 55.25 39.867188 L 55.242188 38.5625 L 55.425781 38.5625 L 57.613281 36.242188 L 58.890625 36.242188 L 56.398438 38.882812 L 56.230469 38.882812 Z M 54.273438 41.726562 L 54.273438 34.414062 L 55.335938 34.414062 L 55.335938 41.726562 Z M 57.730469 41.726562 L 55.765625 39.121094 L 56.5 38.375 L 59.039062 41.726562 Z M 62 41.835938 C 61.457031 41.835938 60.992188 41.722656 60.601562 41.492188 C 60.214844 41.257812 59.914062 40.929688 59.703125 40.507812 C 59.496094 40.085938 59.390625 39.589844 59.390625 39.019531 C 59.390625 38.457031 59.496094 37.964844 59.703125 37.535156 C 59.914062 37.105469 60.210938 36.773438 60.589844 36.53125 C 60.96875 36.292969 61.414062 36.171875 61.921875 36.171875 C 62.234375 36.171875 62.53125 36.222656 62.820312 36.324219 C 63.109375 36.425781 63.371094 36.585938 63.601562 36.804688 C 63.832031 37.027344 64.011719 37.308594 64.148438 37.660156 C 64.28125 38.007812 64.347656 38.429688 64.347656 38.925781 L 64.347656 39.304688 L 59.992188 39.304688 L 59.992188 38.507812 L 63.300781 38.507812 C 63.300781 38.226562 63.242188 37.976562 63.128906 37.761719 C 63.015625 37.542969 62.855469 37.367188 62.652344 37.242188 C 62.445312 37.117188 62.207031 37.054688 61.929688 37.054688 C 61.628906 37.054688 61.371094 37.125 61.144531 37.273438 C 60.925781 37.417969 60.753906 37.609375 60.632812 37.84375 C 60.511719 38.078125 60.453125 38.332031 60.453125 38.605469 L 60.453125 39.230469 C 60.453125 39.597656 60.515625 39.910156 60.644531 40.167969 C 60.777344 40.421875 60.957031 40.621094 61.191406 40.753906 C 61.425781 40.890625 61.699219 40.957031 62.007812 40.957031 C 62.210938 40.957031 62.394531 40.925781 62.5625 40.871094 C 62.726562 40.808594 62.867188 40.722656 62.988281 40.605469 C 63.113281 40.488281 63.203125 40.34375 63.269531 40.171875 L 64.277344 40.355469 C 64.199219 40.652344 64.050781 40.914062 63.84375 41.136719 C 63.636719 41.359375 63.375 41.53125 63.0625 41.65625 C 62.75 41.777344 62.398438 41.835938 62 41.835938 Z M 68.863281 43.785156 C 68.703125 43.785156 68.558594 43.769531 68.429688 43.746094 C 68.296875 43.71875 68.199219 43.695312 68.136719 43.664062 L 68.394531 42.789062 C 68.589844 42.84375 68.761719 42.867188 68.914062 42.859375 C 69.066406 42.851562 69.199219 42.792969 69.316406 42.6875 C 69.4375 42.582031 69.542969 42.40625 69.632812 42.164062 L 69.761719 41.796875 L 67.757812 36.242188 L 68.898438 36.242188 L 70.285156 40.5 L 70.339844 40.5 L 71.730469 36.242188 L 72.875 36.242188 L 70.617188 42.457031 C 70.511719 42.746094 70.378906 42.984375 70.21875 43.183594 C 70.058594 43.382812 69.867188 43.535156 69.640625 43.632812 C 69.417969 43.734375 69.160156 43.785156 68.863281 43.785156 Z M 76 41.835938 C 75.488281 41.835938 75.039062 41.71875 74.65625 41.484375 C 74.273438 41.25 73.972656 40.917969 73.761719 40.496094 C 73.550781 40.070312 73.445312 39.574219 73.445312 39.007812 C 73.445312 38.441406 73.550781 37.941406 73.761719 37.515625 C 73.972656 37.089844 74.273438 36.761719 74.65625 36.523438 C 75.039062 36.289062 75.488281 36.171875 76 36.171875 C 76.515625 36.171875 76.960938 36.289062 77.347656 36.523438 C 77.730469 36.761719 78.023438 37.089844 78.234375 37.515625 C 78.445312 37.941406 78.550781 38.441406 78.550781 39.007812 C 78.550781 39.574219 78.445312 40.070312 78.234375 40.496094 C 78.023438 40.917969 77.730469 41.25 77.347656 41.484375 C 76.960938 41.71875 76.515625 41.835938 76 41.835938 Z M 76.003906 40.941406 C 76.335938 40.941406 76.613281 40.851562 76.832031 40.675781 C 77.050781 40.5 77.210938 40.265625 77.316406 39.972656 C 77.425781 39.679688 77.476562 39.359375 77.476562 39.007812 C 77.476562 38.65625 77.425781 38.335938 77.316406 38.042969 C 77.210938 37.746094 77.050781 37.511719 76.832031 37.332031 C 76.613281 37.152344 76.335938 37.0625 76.003906 37.0625 C 75.667969 37.0625 75.390625 37.152344 75.167969 37.332031 C 74.949219 37.511719 74.785156 37.746094 74.679688 38.042969 C 74.574219 38.335938 74.523438 38.65625 74.523438 39.007812 C 74.523438 39.359375 74.574219 39.679688 74.679688 39.972656 C 74.785156 40.265625 74.949219 40.5 75.167969 40.675781 C 75.390625 40.851562 75.667969 40.941406 76.003906 40.941406 Z M 83.214844 39.453125 L 83.214844 36.242188 L 84.285156 36.242188 L 84.285156 41.726562 L 83.238281 41.726562 L 83.238281 40.777344 L 83.179688 40.777344 C 83.054688 41.070312 82.851562 41.3125 82.574219 41.507812 C 82.296875 41.703125 81.953125 41.796875 81.542969 41.796875 C 81.1875 41.796875 80.878906 41.722656 80.605469 41.566406 C 80.335938 41.410156 80.125 41.175781 79.972656 40.871094 C 79.820312 40.5625 79.742188 40.183594 79.742188 39.730469 L 79.742188 36.242188 L 80.808594 36.242188 L 80.808594 39.601562 C 80.808594 39.976562 80.914062 40.273438 81.121094 40.496094 C 81.328125 40.714844 81.597656 40.828125 81.925781 40.828125 C 82.125 40.828125 82.324219 40.777344 82.523438 40.675781 C 82.722656 40.578125 82.886719 40.425781 83.019531 40.222656 C 83.152344 40.019531 83.21875 39.765625 83.214844 39.453125 Z M 86.78125 34.414062 L 86.78125 35.101562 C 86.78125 35.300781 86.742188 35.515625 86.664062 35.738281 C 86.59375 35.960938 86.488281 36.171875 86.351562 36.378906 C 86.214844 36.582031 86.058594 36.757812 85.875 36.90625 L 85.347656 36.527344 C 85.484375 36.324219 85.605469 36.105469 85.710938 35.875 C 85.8125 35.644531 85.867188 35.390625 85.867188 35.109375 L 85.867188 34.414062 Z M 92.730469 36.242188 L 90.742188 41.726562 L 89.601562 41.726562 L 87.609375 36.242188 L 88.753906 36.242188 L 90.144531 40.464844 L 90.199219 40.464844 L 91.585938 36.242188 Z M 95.90625 41.835938 C 95.367188 41.835938 94.898438 41.722656 94.511719 41.492188 C 94.121094 41.257812 93.824219 40.929688 93.609375 40.507812 C 93.402344 40.085938 93.296875 39.589844 93.296875 39.019531 C 93.296875 38.457031 93.402344 37.964844 93.609375 37.535156 C 93.824219 37.105469 94.117188 36.773438 94.496094 36.53125 C 94.875 36.292969 95.320312 36.171875 95.832031 36.171875 C 96.140625 36.171875 96.441406 36.222656 96.730469 36.324219 C 97.019531 36.425781 97.28125 36.585938 97.511719 36.804688 C 97.742188 37.027344 97.925781 37.308594 98.058594 37.660156 C 98.191406 38.007812 98.257812 38.429688 98.257812 38.925781 L 98.257812 39.304688 L 93.898438 39.304688 L 93.898438 38.507812 L 97.210938 38.507812 C 97.210938 38.226562 97.15625 37.976562 97.039062 37.761719 C 96.925781 37.542969 96.765625 37.367188 96.558594 37.242188 C 96.355469 37.117188 96.113281 37.054688 95.839844 37.054688 C 95.539062 37.054688 95.277344 37.125 95.054688 37.273438 C 94.832031 37.417969 94.660156 37.609375 94.539062 37.84375 C 94.421875 38.078125 94.359375 38.332031 94.359375 38.605469 L 94.359375 39.230469 C 94.359375 39.597656 94.425781 39.910156 94.554688 40.167969 C 94.683594 40.421875 94.867188 40.621094 95.097656 40.753906 C 95.332031 40.890625 95.605469 40.957031 95.917969 40.957031 C 96.117188 40.957031 96.304688 40.925781 96.46875 40.871094 C 96.636719 40.808594 96.78125 40.722656 96.902344 40.605469 C 97.023438 40.488281 97.117188 40.34375 97.179688 40.171875 L 98.191406 40.355469 C 98.109375 40.652344 97.964844 40.914062 97.753906 41.136719 C 97.546875 41.359375 97.285156 41.53125 96.972656 41.65625 C 96.660156 41.777344 96.304688 41.835938 95.90625 41.835938 Z M 135.914062 37.582031 L 134.949219 37.753906 C 134.90625 37.628906 134.84375 37.511719 134.753906 37.398438 C 134.667969 37.289062 134.554688 37.195312 134.40625 37.125 C 134.257812 37.054688 134.074219 37.015625 133.851562 37.015625 C 133.550781 37.015625 133.296875 37.085938 133.097656 37.222656 C 132.894531 37.355469 132.792969 37.527344 132.792969 37.738281 C 132.792969 37.921875 132.859375 38.070312 132.996094 38.179688 C 133.132812 38.292969 133.351562 38.386719 133.652344 38.457031 L 134.523438 38.65625 C 135.027344 38.773438 135.402344 38.953125 135.652344 39.195312 C 135.898438 39.4375 136.023438 39.753906 136.023438 40.140625 C 136.023438 40.46875 135.925781 40.761719 135.738281 41.019531 C 135.550781 41.273438 135.285156 41.472656 134.949219 41.621094 C 134.613281 41.765625 134.222656 41.835938 133.78125 41.835938 C 133.167969 41.835938 132.667969 41.707031 132.277344 41.445312 C 131.890625 41.179688 131.652344 40.804688 131.566406 40.320312 L 132.597656 40.164062 C 132.660156 40.433594 132.792969 40.636719 132.992188 40.773438 C 133.191406 40.910156 133.453125 40.976562 133.773438 40.976562 C 134.125 40.976562 134.402344 40.90625 134.613281 40.757812 C 134.820312 40.613281 134.925781 40.433594 134.925781 40.21875 C 134.925781 40.046875 134.863281 39.90625 134.734375 39.789062 C 134.609375 39.671875 134.414062 39.582031 134.152344 39.523438 L 133.222656 39.320312 C 132.714844 39.203125 132.335938 39.019531 132.089844 38.761719 C 131.847656 38.507812 131.726562 38.1875 131.726562 37.796875 C 131.726562 37.472656 131.816406 37.1875 131.996094 36.945312 C 132.175781 36.703125 132.425781 36.515625 132.746094 36.378906 C 133.066406 36.238281 133.429688 36.171875 133.839844 36.171875 C 134.433594 36.171875 134.902344 36.300781 135.242188 36.558594 C 135.582031 36.8125 135.804688 37.152344 135.914062 37.582031 Z M 139.554688 41.835938 C 139.015625 41.835938 138.550781 41.722656 138.164062 41.492188 C 137.773438 41.257812 137.476562 40.929688 137.261719 40.507812 C 137.054688 40.085938 136.949219 39.589844 136.949219 39.019531 C 136.949219 38.457031 137.054688 37.964844 137.261719 37.535156 C 137.476562 37.105469 137.769531 36.773438 138.148438 36.53125 C 138.523438 36.292969 138.96875 36.171875 139.480469 36.171875 C 139.789062 36.171875 140.089844 36.222656 140.378906 36.324219 C 140.667969 36.425781 140.929688 36.585938 141.160156 36.804688 C 141.390625 37.027344 141.574219 37.308594 141.707031 37.660156 C 141.839844 38.007812 141.90625 38.429688 141.90625 38.925781 L 141.90625 39.304688 L 137.550781 39.304688 L 137.550781 38.507812 L 140.859375 38.507812 C 140.859375 38.226562 140.804688 37.976562 140.6875 37.761719 C 140.574219 37.542969 140.414062 37.367188 140.207031 37.242188 C 140.003906 37.117188 139.761719 37.054688 139.488281 37.054688 C 139.1875 37.054688 138.925781 37.125 138.703125 37.273438 C 138.480469 37.417969 138.3125 37.609375 138.191406 37.84375 C 138.074219 38.078125 138.011719 38.332031 138.011719 38.605469 L 138.011719 39.230469 C 138.011719 39.597656 138.078125 39.910156 138.207031 40.167969 C 138.335938 40.421875 138.515625 40.621094 138.746094 40.753906 C 138.980469 40.890625 139.253906 40.957031 139.566406 40.957031 C 139.765625 40.957031 139.953125 40.925781 140.117188 40.871094 C 140.285156 40.808594 140.429688 40.722656 140.550781 40.605469 C 140.671875 40.488281 140.765625 40.34375 140.828125 40.171875 L 141.839844 40.355469 C 141.757812 40.652344 141.613281 40.914062 141.402344 41.136719 C 141.195312 41.359375 140.933594 41.53125 140.621094 41.65625 C 140.308594 41.777344 139.953125 41.835938 139.554688 41.835938 Z M 145.453125 41.835938 C 144.914062 41.835938 144.445312 41.722656 144.058594 41.492188 C 143.667969 41.257812 143.371094 40.929688 143.15625 40.507812 C 142.949219 40.085938 142.84375 39.589844 142.84375 39.019531 C 142.84375 38.457031 142.949219 37.964844 143.15625 37.535156 C 143.371094 37.105469 143.664062 36.773438 144.042969 36.53125 C 144.421875 36.292969 144.867188 36.171875 145.378906 36.171875 C 145.6875 36.171875 145.984375 36.222656 146.273438 36.324219 C 146.5625 36.425781 146.824219 36.585938 147.054688 36.804688 C 147.285156 37.027344 147.46875 37.308594 147.601562 37.660156 C 147.734375 38.007812 147.800781 38.429688 147.800781 38.925781 L 147.800781 39.304688 L 143.445312 39.304688 L 143.445312 38.507812 L 146.753906 38.507812 C 146.753906 38.226562 146.699219 37.976562 146.582031 37.761719 C 146.46875 37.542969 146.308594 37.367188 146.101562 37.242188 C 145.902344 37.117188 145.660156 37.054688 145.382812 37.054688 C 145.085938 37.054688 144.824219 37.125 144.597656 37.273438 C 144.378906 37.417969 144.207031 37.609375 144.085938 37.84375 C 143.964844 38.078125 143.90625 38.332031 143.90625 38.605469 L 143.90625 39.230469 C 143.90625 39.597656 143.972656 39.910156 144.101562 40.167969 C 144.230469 40.421875 144.414062 40.621094 144.644531 40.753906 C 144.878906 40.890625 145.152344 40.957031 145.464844 40.957031 C 145.664062 40.957031 145.851562 40.925781 146.011719 40.871094 C 146.179688 40.808594 146.324219 40.722656 146.445312 40.605469 C 146.566406 40.488281 146.65625 40.34375 146.722656 40.171875 L 147.730469 40.355469 C 147.652344 40.652344 147.507812 40.914062 147.296875 41.136719 C 147.089844 41.359375 146.828125 41.53125 146.515625 41.65625 C 146.203125 41.777344 145.851562 41.835938 145.453125 41.835938 Z M 150.050781 38.46875 L 150.050781 41.726562 L 148.984375 41.726562 L 148.984375 36.242188 L 150.007812 36.242188 L 150.007812 37.136719 L 150.074219 37.136719 C 150.203125 36.84375 150.398438 36.613281 150.667969 36.433594 C 150.941406 36.257812 151.28125 36.171875 151.691406 36.171875 C 152.066406 36.171875 152.394531 36.25 152.675781 36.40625 C 152.953125 36.5625 153.171875 36.792969 153.328125 37.097656 C 153.480469 37.40625 153.554688 37.785156 153.554688 38.238281 L 153.554688 41.726562 L 152.492188 41.726562 L 152.492188 38.367188 C 152.492188 37.96875 152.386719 37.660156 152.183594 37.433594 C 151.976562 37.207031 151.691406 37.097656 151.328125 37.097656 C 151.082031 37.097656 150.859375 37.148438 150.667969 37.257812 C 150.476562 37.363281 150.328125 37.519531 150.214844 37.726562 C 150.105469 37.933594 150.050781 38.179688 150.050781 38.46875 Z M 157.644531 41.726562 L 157.644531 36.242188 L 158.714844 36.242188 L 158.714844 41.726562 Z M 158.183594 35.394531 C 158 35.394531 157.839844 35.335938 157.707031 35.210938 C 157.574219 35.085938 157.511719 34.933594 157.511719 34.761719 C 157.511719 34.585938 157.574219 34.433594 157.707031 34.3125 C 157.839844 34.183594 158 34.121094 158.183594 34.121094 C 158.371094 34.121094 158.527344 34.183594 158.660156 34.3125 C 158.792969 34.433594 158.859375 34.585938 158.859375 34.761719 C 158.859375 34.933594 158.792969 35.085938 158.660156 35.210938 C 158.527344 35.335938 158.371094 35.394531 158.183594 35.394531 Z M 162.703125 36.242188 L 162.703125 37.097656 L 159.714844 37.097656 L 159.714844 36.242188 Z M 160.515625 34.929688 L 161.578125 34.929688 L 161.578125 40.117188 C 161.578125 40.324219 161.609375 40.480469 161.671875 40.585938 C 161.734375 40.6875 161.8125 40.757812 161.910156 40.796875 C 162.011719 40.832031 162.121094 40.847656 162.234375 40.847656 C 162.320312 40.847656 162.394531 40.84375 162.460938 40.832031 C 162.523438 40.820312 162.574219 40.808594 162.609375 40.800781 L 162.804688 41.683594 C 162.742188 41.707031 162.652344 41.730469 162.539062 41.753906 C 162.425781 41.78125 162.28125 41.796875 162.109375 41.796875 C 161.832031 41.804688 161.570312 41.753906 161.324219 41.648438 C 161.082031 41.542969 160.890625 41.382812 160.742188 41.164062 C 160.589844 40.945312 160.515625 40.667969 160.515625 40.335938 Z M 166.628906 41.726562 L 166.628906 34.414062 L 167.695312 34.414062 L 167.695312 37.132812 L 167.761719 37.132812 C 167.820312 37.015625 167.910156 36.886719 168.027344 36.734375 C 168.144531 36.585938 168.304688 36.453125 168.511719 36.34375 C 168.714844 36.226562 168.988281 36.171875 169.328125 36.171875 C 169.773438 36.171875 170.167969 36.28125 170.515625 36.507812 C 170.863281 36.730469 171.132812 37.054688 171.332031 37.472656 C 171.53125 37.894531 171.632812 38.402344 171.632812 38.996094 C 171.632812 39.589844 171.53125 40.097656 171.335938 40.519531 C 171.136719 40.941406 170.867188 41.265625 170.523438 41.496094 C 170.175781 41.722656 169.785156 41.832031 169.339844 41.832031 C 169.007812 41.832031 168.734375 41.777344 168.527344 41.667969 C 168.316406 41.554688 168.152344 41.421875 168.035156 41.273438 C 167.914062 41.125 167.824219 40.988281 167.761719 40.875 L 167.671875 40.875 L 167.671875 41.726562 Z M 167.675781 38.984375 C 167.675781 39.371094 167.730469 39.707031 167.84375 40 C 167.953125 40.289062 168.117188 40.515625 168.328125 40.679688 C 168.539062 40.84375 168.792969 40.921875 169.101562 40.921875 C 169.421875 40.921875 169.6875 40.839844 169.902344 40.667969 C 170.113281 40.5 170.277344 40.265625 170.386719 39.972656 C 170.5 39.679688 170.554688 39.351562 170.554688 38.984375 C 170.554688 38.621094 170.5 38.296875 170.390625 38.011719 C 170.28125 37.722656 170.121094 37.496094 169.90625 37.328125 C 169.691406 37.160156 169.421875 37.078125 169.101562 37.078125 C 168.792969 37.078125 168.535156 37.15625 168.320312 37.316406 C 168.109375 37.476562 167.949219 37.699219 167.839844 37.984375 C 167.730469 38.269531 167.675781 38.605469 167.675781 38.984375 Z M 175.191406 41.835938 C 174.652344 41.835938 174.1875 41.722656 173.796875 41.492188 C 173.410156 41.257812 173.109375 40.929688 172.898438 40.507812 C 172.6875 40.085938 172.582031 39.589844 172.582031 39.019531 C 172.582031 38.457031 172.6875 37.964844 172.898438 37.535156 C 173.109375 37.105469 173.40625 36.773438 173.78125 36.53125 C 174.164062 36.292969 174.609375 36.171875 175.117188 36.171875 C 175.425781 36.171875 175.726562 36.222656 176.015625 36.324219 C 176.304688 36.425781 176.5625 36.585938 176.792969 36.804688 C 177.023438 37.027344 177.207031 37.308594 177.339844 37.660156 C 177.472656 38.007812 177.539062 38.429688 177.539062 38.925781 L 177.539062 39.304688 L 173.1875 39.304688 L 173.1875 38.507812 L 176.496094 38.507812 C 176.496094 38.226562 176.4375 37.976562 176.324219 37.761719 C 176.210938 37.542969 176.050781 37.367188 175.84375 37.242188 C 175.640625 37.117188 175.402344 37.054688 175.125 37.054688 C 174.824219 37.054688 174.5625 37.125 174.339844 37.273438 C 174.117188 37.417969 173.945312 37.609375 173.824219 37.84375 C 173.707031 38.078125 173.648438 38.332031 173.648438 38.605469 L 173.648438 39.230469 C 173.648438 39.597656 173.710938 39.910156 173.839844 40.167969 C 173.972656 40.421875 174.152344 40.621094 174.386719 40.753906 C 174.617188 40.890625 174.890625 40.957031 175.203125 40.957031 C 175.40625 40.957031 175.589844 40.925781 175.757812 40.871094 C 175.921875 40.808594 176.066406 40.722656 176.183594 40.605469 C 176.304688 40.488281 176.398438 40.34375 176.460938 40.171875 L 177.472656 40.355469 C 177.390625 40.652344 177.246094 40.914062 177.039062 41.136719 C 176.832031 41.359375 176.570312 41.53125 176.253906 41.65625 C 175.949219 41.777344 175.59375 41.835938 175.191406 41.835938 Z M 181.332031 36.242188 L 181.332031 37.097656 L 178.234375 37.097656 L 178.234375 36.242188 Z M 179.085938 41.726562 L 179.085938 35.605469 C 179.085938 35.265625 179.160156 34.980469 179.308594 34.753906 C 179.460938 34.523438 179.65625 34.355469 179.90625 34.242188 C 180.152344 34.128906 180.421875 34.070312 180.710938 34.070312 C 180.925781 34.070312 181.109375 34.089844 181.261719 34.125 C 181.414062 34.160156 181.527344 34.1875 181.601562 34.21875 L 181.351562 35.082031 C 181.300781 35.066406 181.238281 35.050781 181.15625 35.03125 C 181.078125 35.011719 180.984375 35 180.871094 35 C 180.613281 35 180.425781 35.0625 180.316406 35.191406 C 180.207031 35.320312 180.152344 35.507812 180.152344 35.75 L 180.152344 41.726562 Z M 184.523438 41.835938 C 184.007812 41.835938 183.566406 41.71875 183.179688 41.484375 C 182.796875 41.25 182.5 40.917969 182.289062 40.496094 C 182.078125 40.070312 181.972656 39.574219 181.972656 39.007812 C 181.972656 38.441406 182.078125 37.941406 182.289062 37.515625 C 182.5 37.089844 182.796875 36.761719 183.179688 36.523438 C 183.566406 36.289062 184.007812 36.171875 184.523438 36.171875 C 185.035156 36.171875 185.484375 36.289062 185.867188 36.523438 C 186.25 36.761719 186.550781 37.089844 186.761719 37.515625 C 186.972656 37.941406 187.078125 38.441406 187.078125 39.007812 C 187.078125 39.574219 186.972656 40.070312 186.761719 40.496094 C 186.550781 40.917969 186.25 41.25 185.867188 41.484375 C 185.484375 41.71875 185.035156 41.835938 184.523438 41.835938 Z M 184.527344 40.941406 C 184.859375 40.941406 185.136719 40.851562 185.355469 40.675781 C 185.574219 40.5 185.734375 40.265625 185.839844 39.972656 C 185.945312 39.679688 186 39.359375 186 39.007812 C 186 38.65625 185.945312 38.335938 185.839844 38.042969 C 185.734375 37.746094 185.574219 37.511719 185.355469 37.332031 C 185.136719 37.152344 184.859375 37.0625 184.527344 37.0625 C 184.191406 37.0625 183.914062 37.152344 183.695312 37.332031 C 183.476562 37.511719 183.3125 37.746094 183.207031 38.042969 C 183.101562 38.335938 183.050781 38.65625 183.050781 39.007812 C 183.050781 39.359375 183.101562 39.679688 183.207031 39.972656 C 183.3125 40.265625 183.476562 40.5 183.695312 40.675781 C 183.914062 40.851562 184.191406 40.941406 184.527344 40.941406 Z M 188.269531 41.726562 L 188.269531 36.242188 L 189.300781 36.242188 L 189.300781 37.113281 L 189.359375 37.113281 C 189.457031 36.816406 189.632812 36.585938 189.886719 36.417969 C 190.140625 36.246094 190.429688 36.160156 190.75 36.160156 C 190.816406 36.160156 190.894531 36.164062 190.984375 36.167969 C 191.078125 36.171875 191.148438 36.179688 191.203125 36.183594 L 191.203125 37.207031 C 191.160156 37.195312 191.082031 37.179688 190.972656 37.167969 C 190.863281 37.152344 190.753906 37.140625 190.644531 37.140625 C 190.394531 37.140625 190.167969 37.195312 189.972656 37.304688 C 189.777344 37.40625 189.621094 37.554688 189.507812 37.742188 C 189.394531 37.925781 189.335938 38.140625 189.335938 38.378906 L 189.335938 41.726562 Z M 194.289062 41.835938 C 193.75 41.835938 193.285156 41.722656 192.894531 41.492188 C 192.503906 41.257812 192.207031 40.929688 191.992188 40.507812 C 191.785156 40.085938 191.679688 39.589844 191.679688 39.019531 C 191.679688 38.457031 191.785156 37.964844 191.992188 37.535156 C 192.207031 37.105469 192.5 36.773438 192.878906 36.53125 C 193.257812 36.292969 193.703125 36.171875 194.214844 36.171875 C 194.523438 36.171875 194.824219 36.222656 195.113281 36.324219 C 195.402344 36.425781 195.664062 36.585938 195.894531 36.804688 C 196.125 37.027344 196.308594 37.308594 196.441406 37.660156 C 196.574219 38.007812 196.640625 38.429688 196.640625 38.925781 L 196.640625 39.304688 L 192.28125 39.304688 L 192.28125 38.507812 L 195.59375 38.507812 C 195.59375 38.226562 195.539062 37.976562 195.421875 37.761719 C 195.308594 37.542969 195.148438 37.367188 194.941406 37.242188 C 194.738281 37.117188 194.496094 37.054688 194.21875 37.054688 C 193.921875 37.054688 193.660156 37.125 193.433594 37.273438 C 193.214844 37.417969 193.042969 37.609375 192.921875 37.84375 C 192.800781 38.078125 192.742188 38.332031 192.742188 38.605469 L 192.742188 39.230469 C 192.742188 39.597656 192.808594 39.910156 192.9375 40.167969 C 193.066406 40.421875 193.25 40.621094 193.480469 40.753906 C 193.714844 40.890625 193.988281 40.957031 194.300781 40.957031 C 194.5 40.957031 194.6875 40.925781 194.851562 40.871094 C 195.019531 40.808594 195.164062 40.722656 195.285156 40.605469 C 195.40625 40.488281 195.5 40.34375 195.5625 40.171875 L 196.574219 40.355469 C 196.492188 40.652344 196.347656 40.914062 196.136719 41.136719 C 195.929688 41.359375 195.667969 41.53125 195.355469 41.65625 C 195.042969 41.777344 194.6875 41.835938 194.289062 41.835938 Z M 198.527344 41.792969 C 198.332031 41.792969 198.164062 41.726562 198.023438 41.585938 C 197.882812 41.445312 197.8125 41.277344 197.8125 41.082031 C 197.8125 40.886719 197.882812 40.71875 198.023438 40.582031 C 198.164062 40.441406 198.332031 40.371094 198.527344 40.371094 C 198.722656 40.371094 198.886719 40.441406 199.027344 40.582031 C 199.167969 40.71875 199.238281 40.886719 199.238281 41.082031 C 199.238281 41.210938 199.203125 41.332031 199.136719 41.441406 C 199.074219 41.546875 198.988281 41.632812 198.878906 41.699219 C 198.777344 41.761719 198.65625 41.792969 198.527344 41.792969 Z M 198.527344 41.792969 "/>
<path style=" stroke:none;fill-rule:nonzero;fill:rgb(100%,77.64706%,89.803922%);fill-opacity:1;" d="M 103.246094 38.46875 L 102.710938 41.726562 L 101.644531 41.726562 L 102.558594 36.242188 L 103.582031 36.242188 L 103.433594 37.136719 L 103.5 37.136719 C 103.671875 36.84375 103.910156 36.609375 104.210938 36.433594 C 104.511719 36.257812 104.867188 36.171875 105.28125 36.171875 C 105.652344 36.171875 105.964844 36.25 106.214844 36.40625 C 106.46875 36.5625 106.648438 36.792969 106.753906 37.097656 C 106.859375 37.40625 106.878906 37.785156 106.804688 38.238281 L 106.21875 41.726562 L 105.152344 41.726562 L 105.710938 38.367188 C 105.777344 37.96875 105.722656 37.660156 105.554688 37.433594 C 105.386719 37.207031 105.125 37.097656 104.757812 37.097656 C 104.511719 37.097656 104.28125 37.148438 104.070312 37.257812 C 103.859375 37.363281 103.683594 37.519531 103.539062 37.726562 C 103.394531 37.933594 103.296875 38.179688 103.246094 38.46875 Z M 109.992188 41.835938 C 109.453125 41.835938 109.007812 41.722656 108.65625 41.492188 C 108.304688 41.257812 108.066406 40.929688 107.925781 40.507812 C 107.785156 40.085938 107.761719 39.589844 107.855469 39.019531 C 107.949219 38.457031 108.132812 37.964844 108.414062 37.535156 C 108.695312 37.105469 109.042969 36.773438 109.460938 36.53125 C 109.882812 36.292969 110.347656 36.171875 110.859375 36.171875 C 111.167969 36.171875 111.457031 36.222656 111.730469 36.324219 C 112.007812 36.425781 112.242188 36.585938 112.433594 36.804688 C 112.628906 37.027344 112.761719 37.308594 112.835938 37.660156 C 112.910156 38.007812 112.910156 38.429688 112.828125 38.925781 L 112.765625 39.304688 L 108.40625 39.304688 L 108.53125 38.507812 L 111.84375 38.507812 C 111.894531 38.226562 111.878906 37.976562 111.804688 37.761719 C 111.726562 37.542969 111.597656 37.367188 111.410156 37.242188 C 111.226562 37.117188 110.996094 37.054688 110.71875 37.054688 C 110.433594 37.054688 110.167969 37.128906 109.917969 37.277344 C 109.671875 37.429688 109.464844 37.621094 109.296875 37.851562 C 109.132812 38.082031 109.03125 38.320312 108.988281 38.566406 L 108.863281 39.300781 C 108.800781 39.699219 108.8125 40.019531 108.894531 40.261719 C 108.980469 40.503906 109.128906 40.683594 109.34375 40.792969 C 109.558594 40.902344 109.828125 40.957031 110.148438 40.957031 C 110.355469 40.957031 110.546875 40.925781 110.722656 40.871094 C 110.902344 40.808594 111.058594 40.722656 111.195312 40.609375 C 111.335938 40.492188 111.449219 40.347656 111.542969 40.171875 L 112.519531 40.355469 C 112.390625 40.652344 112.203125 40.914062 111.957031 41.136719 C 111.710938 41.359375 111.421875 41.53125 111.089844 41.65625 C 110.757812 41.777344 110.394531 41.835938 109.992188 41.835938 Z M 119.003906 36.242188 L 116.101562 41.726562 L 114.960938 41.726562 L 113.886719 36.242188 L 114.988281 36.242188 L 115.667969 40.464844 L 115.726562 40.464844 L 117.8125 36.242188 Z M 121.253906 41.835938 C 120.714844 41.835938 120.269531 41.722656 119.917969 41.492188 C 119.570312 41.257812 119.324219 40.929688 119.183594 40.507812 C 119.042969 40.085938 119.019531 39.589844 119.117188 39.019531 C 119.207031 38.457031 119.394531 37.964844 119.675781 37.535156 C 119.957031 37.105469 120.304688 36.773438 120.726562 36.53125 C 121.144531 36.292969 121.609375 36.171875 122.121094 36.171875 C 122.429688 36.171875 122.722656 36.222656 122.996094 36.324219 C 123.265625 36.425781 123.5 36.585938 123.695312 36.804688 C 123.886719 37.027344 124.019531 37.308594 124.09375 37.660156 C 124.167969 38.007812 124.167969 38.429688 124.085938 38.925781 L 124.027344 39.304688 L 119.667969 39.304688 L 119.792969 38.507812 L 123.105469 38.507812 C 123.15625 38.226562 123.140625 37.976562 123.066406 37.761719 C 122.988281 37.542969 122.859375 37.367188 122.671875 37.242188 C 122.488281 37.117188 122.257812 37.054688 121.980469 37.054688 C 121.695312 37.054688 121.429688 37.128906 121.183594 37.277344 C 120.933594 37.429688 120.726562 37.621094 120.5625 37.851562 C 120.398438 38.082031 120.292969 38.320312 120.25 38.566406 L 120.125 39.300781 C 120.0625 39.699219 120.074219 40.019531 120.15625 40.261719 C 120.242188 40.503906 120.394531 40.683594 120.605469 40.792969 C 120.820312 40.902344 121.089844 40.957031 121.410156 40.957031 C 121.617188 40.957031 121.808594 40.925781 121.984375 40.871094 C 122.164062 40.808594 122.320312 40.722656 122.460938 40.609375 C 122.597656 40.492188 122.710938 40.347656 122.804688 40.171875 L 123.78125 40.355469 C 123.648438 40.652344 123.460938 40.914062 123.21875 41.136719 C 122.972656 41.359375 122.683594 41.53125 122.351562 41.65625 C 122.023438 41.777344 121.65625 41.835938 121.253906 41.835938 Z M 124.820312 41.726562 L 125.730469 36.242188 L 126.761719 36.242188 L 126.617188 37.113281 L 126.675781 37.113281 C 126.820312 36.816406 127.039062 36.585938 127.320312 36.417969 C 127.601562 36.246094 127.90625 36.160156 128.226562 36.160156 C 128.296875 36.160156 128.375 36.164062 128.460938 36.167969 C 128.550781 36.167969 128.621094 36.175781 128.675781 36.183594 L 128.503906 37.207031 C 128.464844 37.195312 128.390625 37.179688 128.285156 37.167969 C 128.175781 37.152344 128.066406 37.140625 127.953125 37.140625 C 127.703125 37.140625 127.46875 37.195312 127.257812 37.304688 C 127.042969 37.40625 126.863281 37.554688 126.71875 37.742188 C 126.570312 37.925781 126.476562 38.140625 126.433594 38.378906 L 125.886719 41.726562 Z M 124.820312 41.726562 "/>
</g>
</svg>
