<svg width="701" height="339" viewBox="0 0 701 339" fill="none" xmlns="http://www.w3.org/2000/svg">
<path d="M13.7727 23.1818L33.2045 80.0455H33.9886L53.4205 23.1818H64.8068L39.6818 93H27.5114L2.38636 23.1818H13.7727ZM74.071 93V40.6364H84.2642V93H74.071ZM79.2188 32.5568C77.446 32.5568 75.9233 31.9659 74.6506 30.7841C73.4006 29.5795 72.7756 28.1477 72.7756 26.4886C72.7756 24.8068 73.4006 23.375 74.6506 22.1932C75.9233 20.9886 77.446 20.3864 79.2188 20.3864C80.9915 20.3864 82.5028 20.9886 83.7528 22.1932C85.0256 23.375 85.6619 24.8068 85.6619 26.4886C85.6619 28.1477 85.0256 29.5795 83.7528 30.7841C82.5028 31.9659 80.9915 32.5568 79.2188 32.5568ZM117.58 94.0227C113.352 94.0227 109.58 92.9432 106.261 90.7841C102.966 88.6023 100.375 85.5 98.4886 81.4773C96.625 77.4318 95.6932 72.5795 95.6932 66.9205C95.6932 61.2614 96.6364 56.4205 98.5227 52.3977C100.432 48.375 103.045 45.2955 106.364 43.1591C109.682 41.0227 113.443 39.9545 117.648 39.9545C120.898 39.9545 123.511 40.5 125.489 41.5909C127.489 42.6591 129.034 43.9091 130.125 45.3409C131.239 46.7727 132.102 48.0341 132.716 49.125H133.33V23.1818H143.523V93H133.568V84.8523H132.716C132.102 85.9659 131.216 87.2386 130.057 88.6705C128.92 90.1023 127.352 91.3523 125.352 92.4205C123.352 93.4886 120.761 94.0227 117.58 94.0227ZM119.83 85.3295C122.761 85.3295 125.239 84.5568 127.261 83.0114C129.307 81.4432 130.852 79.2727 131.898 76.5C132.966 73.7273 133.5 70.5 133.5 66.8182C133.5 63.1818 132.977 60 131.932 57.2727C130.886 54.5455 129.352 52.4205 127.33 50.8977C125.307 49.375 122.807 48.6136 119.83 48.6136C116.761 48.6136 114.205 49.4091 112.159 51C110.114 52.5909 108.568 54.7614 107.523 57.5114C106.5 60.2614 105.989 63.3636 105.989 66.8182C105.989 70.3182 106.511 73.4659 107.557 76.2614C108.602 79.0568 110.148 81.2727 112.193 82.9091C114.261 84.5227 116.807 85.3295 119.83 85.3295ZM180.639 94.0568C175.48 94.0568 171.037 92.9545 167.31 90.75C163.605 88.5227 160.741 85.3977 158.719 81.375C156.719 77.3295 155.719 72.5909 155.719 67.1591C155.719 61.7955 156.719 57.0682 158.719 52.9773C160.741 48.8864 163.56 45.6932 167.173 43.3977C170.81 41.1023 175.06 39.9545 179.923 39.9545C182.878 39.9545 185.741 40.4432 188.514 41.4205C191.287 42.3977 193.776 43.9318 195.98 46.0227C198.185 48.1136 199.923 50.8295 201.196 54.1705C202.469 57.4886 203.105 61.5227 203.105 66.2727V69.8864H161.48V62.25H193.116C193.116 59.5682 192.571 57.1932 191.48 55.125C190.389 53.0341 188.855 51.3864 186.878 50.1818C184.923 48.9773 182.628 48.375 179.991 48.375C177.128 48.375 174.628 49.0795 172.491 50.4886C170.378 51.875 168.741 53.6932 167.582 55.9432C166.446 58.1705 165.878 60.5909 165.878 63.2045V69.1705C165.878 72.6705 166.491 75.6477 167.719 78.1023C168.969 80.5568 170.707 82.4318 172.935 83.7273C175.162 85 177.764 85.6364 180.741 85.6364C182.673 85.6364 184.435 85.3636 186.026 84.8182C187.616 84.25 188.991 83.4091 190.151 82.2955C191.31 81.1818 192.196 79.8068 192.81 78.1705L202.457 79.9091C201.685 82.75 200.298 85.2386 198.298 87.375C196.321 89.4886 193.832 91.1364 190.832 92.3182C187.855 93.4773 184.457 94.0568 180.639 94.0568ZM236.472 94.0568C231.563 94.0568 227.278 92.9318 223.619 90.6818C219.96 88.4318 217.119 85.2841 215.097 81.2386C213.074 77.1932 212.062 72.4659 212.062 67.0568C212.062 61.625 213.074 56.875 215.097 52.8068C217.119 48.7386 219.96 45.5795 223.619 43.3295C227.278 41.0795 231.563 39.9545 236.472 39.9545C241.381 39.9545 245.665 41.0795 249.324 43.3295C252.983 45.5795 255.824 48.7386 257.847 52.8068C259.869 56.875 260.881 61.625 260.881 67.0568C260.881 72.4659 259.869 77.1932 257.847 81.2386C255.824 85.2841 252.983 88.4318 249.324 90.6818C245.665 92.9318 241.381 94.0568 236.472 94.0568ZM236.506 85.5C239.688 85.5 242.324 84.6591 244.415 82.9773C246.506 81.2955 248.051 79.0568 249.051 76.2614C250.074 73.4659 250.585 70.3864 250.585 67.0227C250.585 63.6818 250.074 60.6136 249.051 57.8182C248.051 55 246.506 52.7386 244.415 51.0341C242.324 49.3295 239.688 48.4773 236.506 48.4773C233.301 48.4773 230.642 49.3295 228.528 51.0341C226.438 52.7386 224.881 55 223.858 57.8182C222.858 60.6136 222.358 63.6818 222.358 67.0227C222.358 70.3864 222.858 73.4659 223.858 76.2614C224.881 79.0568 226.438 81.2955 228.528 82.9773C230.642 84.6591 233.301 85.5 236.506 85.5ZM28.9091 210.057C23.8409 210.057 19.4773 208.909 15.8182 206.614C12.1818 204.295 9.38636 201.102 7.43182 197.034C5.47727 192.966 4.5 188.307 4.5 183.057C4.5 177.739 5.5 173.045 7.5 168.977C9.5 164.886 12.3182 161.693 15.9545 159.398C19.5909 157.102 23.875 155.955 28.8068 155.955C32.7841 155.955 36.3295 156.693 39.4432 158.17C42.5568 159.625 45.0682 161.67 46.9773 164.307C48.9091 166.943 50.0568 170.023 50.4205 173.545H40.5C39.9545 171.091 38.7045 168.977 36.75 167.205C34.8182 165.432 32.2273 164.545 28.9773 164.545C26.1364 164.545 23.6477 165.295 21.5114 166.795C19.3977 168.273 17.75 170.386 16.5682 173.136C15.3864 175.864 14.7955 179.091 14.7955 182.818C14.7955 186.636 15.375 189.932 16.5341 192.705C17.6932 195.477 19.3295 197.625 21.4432 199.148C23.5795 200.67 26.0909 201.432 28.9773 201.432C30.9091 201.432 32.6591 201.08 34.2273 200.375C35.8182 199.648 37.1477 198.614 38.2159 197.273C39.3068 195.932 40.0682 194.318 40.5 192.432H50.4205C50.0568 195.818 48.9545 198.841 47.1136 201.5C45.2727 204.159 42.8068 206.25 39.7159 207.773C36.6477 209.295 33.0455 210.057 28.9091 210.057ZM83.3778 210.057C78.4688 210.057 74.1847 208.932 70.5256 206.682C66.8665 204.432 64.0256 201.284 62.0028 197.239C59.9801 193.193 58.9688 188.466 58.9688 183.057C58.9688 177.625 59.9801 172.875 62.0028 168.807C64.0256 164.739 66.8665 161.58 70.5256 159.33C74.1847 157.08 78.4688 155.955 83.3778 155.955C88.2869 155.955 92.571 157.08 96.2301 159.33C99.8892 161.58 102.73 164.739 104.753 168.807C106.776 172.875 107.787 177.625 107.787 183.057C107.787 188.466 106.776 193.193 104.753 197.239C102.73 201.284 99.8892 204.432 96.2301 206.682C92.571 208.932 88.2869 210.057 83.3778 210.057ZM83.4119 201.5C86.5938 201.5 89.2301 200.659 91.321 198.977C93.4119 197.295 94.9574 195.057 95.9574 192.261C96.9801 189.466 97.4915 186.386 97.4915 183.023C97.4915 179.682 96.9801 176.614 95.9574 173.818C94.9574 171 93.4119 168.739 91.321 167.034C89.2301 165.33 86.5938 164.477 83.4119 164.477C80.2074 164.477 77.5483 165.33 75.4347 167.034C73.3438 168.739 71.7869 171 70.7642 173.818C69.7642 176.614 69.2642 179.682 69.2642 183.023C69.2642 186.386 69.7642 189.466 70.7642 192.261C71.7869 195.057 73.3438 197.295 75.4347 198.977C77.5483 200.659 80.2074 201.5 83.4119 201.5ZM129.358 177.909V209H119.165V156.636H128.949V165.159H129.597C130.801 162.386 132.688 160.159 135.256 158.477C137.847 156.795 141.108 155.955 145.04 155.955C148.608 155.955 151.733 156.705 154.415 158.205C157.097 159.682 159.176 161.886 160.653 164.818C162.131 167.75 162.869 171.375 162.869 175.693V209H152.676V176.92C152.676 173.125 151.688 170.159 149.71 168.023C147.733 165.864 145.017 164.784 141.562 164.784C139.199 164.784 137.097 165.295 135.256 166.318C133.438 167.341 131.994 168.841 130.926 170.818C129.881 172.773 129.358 175.136 129.358 177.909ZM201.46 156.636V164.818H171.869V156.636H201.46ZM179.983 209V150.568C179.983 147.295 180.699 144.58 182.131 142.42C183.563 140.239 185.46 138.614 187.824 137.545C190.188 136.455 192.756 135.909 195.528 135.909C197.574 135.909 199.324 136.08 200.778 136.42C202.233 136.739 203.312 137.034 204.017 137.307L201.631 145.557C201.153 145.42 200.54 145.261 199.79 145.08C199.04 144.875 198.131 144.773 197.062 144.773C194.585 144.773 192.813 145.386 191.744 146.614C190.699 147.841 190.176 149.614 190.176 151.932V209H179.983ZM232.483 210.057C227.324 210.057 222.881 208.955 219.153 206.75C215.449 204.523 212.585 201.398 210.562 197.375C208.562 193.33 207.562 188.591 207.562 183.159C207.562 177.795 208.562 173.068 210.562 168.977C212.585 164.886 215.403 161.693 219.017 159.398C222.653 157.102 226.903 155.955 231.767 155.955C234.722 155.955 237.585 156.443 240.358 157.42C243.131 158.398 245.619 159.932 247.824 162.023C250.028 164.114 251.767 166.83 253.04 170.17C254.313 173.489 254.949 177.523 254.949 182.273V185.886H213.324V178.25H244.96C244.96 175.568 244.415 173.193 243.324 171.125C242.233 169.034 240.699 167.386 238.722 166.182C236.767 164.977 234.472 164.375 231.835 164.375C228.972 164.375 226.472 165.08 224.335 166.489C222.222 167.875 220.585 169.693 219.426 171.943C218.29 174.17 217.722 176.591 217.722 179.205V185.17C217.722 188.67 218.335 191.648 219.562 194.102C220.812 196.557 222.551 198.432 224.778 199.727C227.006 201 229.608 201.636 232.585 201.636C234.517 201.636 236.278 201.364 237.869 200.818C239.46 200.25 240.835 199.409 241.994 198.295C243.153 197.182 244.04 195.807 244.653 194.17L254.301 195.909C253.528 198.75 252.142 201.239 250.142 203.375C248.165 205.489 245.676 207.136 242.676 208.318C239.699 209.477 236.301 210.057 232.483 210.057ZM266.259 209V156.636H276.111V164.955H276.656C277.611 162.136 279.293 159.92 281.702 158.307C284.134 156.67 286.884 155.852 289.952 155.852C290.588 155.852 291.338 155.875 292.202 155.92C293.088 155.966 293.781 156.023 294.281 156.091V165.841C293.872 165.727 293.145 165.602 292.099 165.466C291.054 165.307 290.009 165.227 288.963 165.227C286.554 165.227 284.406 165.739 282.52 166.761C280.656 167.761 279.179 169.159 278.088 170.955C276.997 172.727 276.452 174.75 276.452 177.023V209H266.259ZM323.795 210.057C318.636 210.057 314.193 208.955 310.466 206.75C306.761 204.523 303.898 201.398 301.875 197.375C299.875 193.33 298.875 188.591 298.875 183.159C298.875 177.795 299.875 173.068 301.875 168.977C303.898 164.886 306.716 161.693 310.33 159.398C313.966 157.102 318.216 155.955 323.08 155.955C326.034 155.955 328.898 156.443 331.67 157.42C334.443 158.398 336.932 159.932 339.136 162.023C341.341 164.114 343.08 166.83 344.352 170.17C345.625 173.489 346.261 177.523 346.261 182.273V185.886H304.636V178.25H336.273C336.273 175.568 335.727 173.193 334.636 171.125C333.545 169.034 332.011 167.386 330.034 166.182C328.08 164.977 325.784 164.375 323.148 164.375C320.284 164.375 317.784 165.08 315.648 166.489C313.534 167.875 311.898 169.693 310.739 171.943C309.602 174.17 309.034 176.591 309.034 179.205V185.17C309.034 188.67 309.648 191.648 310.875 194.102C312.125 196.557 313.864 198.432 316.091 199.727C318.318 201 320.92 201.636 323.898 201.636C325.83 201.636 327.591 201.364 329.182 200.818C330.773 200.25 332.148 199.409 333.307 198.295C334.466 197.182 335.352 195.807 335.966 194.17L345.614 195.909C344.841 198.75 343.455 201.239 341.455 203.375C339.477 205.489 336.989 207.136 333.989 208.318C331.011 209.477 327.614 210.057 323.795 210.057ZM367.764 177.909V209H357.571V156.636H367.355V165.159H368.003C369.207 162.386 371.094 160.159 373.662 158.477C376.253 156.795 379.514 155.955 383.446 155.955C387.014 155.955 390.139 156.705 392.821 158.205C395.503 159.682 397.582 161.886 399.06 164.818C400.537 167.75 401.276 171.375 401.276 175.693V209H391.082V176.92C391.082 173.125 390.094 170.159 388.116 168.023C386.139 165.864 383.423 164.784 379.969 164.784C377.605 164.784 375.503 165.295 373.662 166.318C371.844 167.341 370.401 168.841 369.332 170.818C368.287 172.773 367.764 175.136 367.764 177.909ZM437.003 210.057C431.935 210.057 427.571 208.909 423.912 206.614C420.276 204.295 417.48 201.102 415.526 197.034C413.571 192.966 412.594 188.307 412.594 183.057C412.594 177.739 413.594 173.045 415.594 168.977C417.594 164.886 420.412 161.693 424.048 159.398C427.685 157.102 431.969 155.955 436.901 155.955C440.878 155.955 444.423 156.693 447.537 158.17C450.651 159.625 453.162 161.67 455.071 164.307C457.003 166.943 458.151 170.023 458.514 173.545H448.594C448.048 171.091 446.798 168.977 444.844 167.205C442.912 165.432 440.321 164.545 437.071 164.545C434.23 164.545 431.741 165.295 429.605 166.795C427.491 168.273 425.844 170.386 424.662 173.136C423.48 175.864 422.889 179.091 422.889 182.818C422.889 186.636 423.469 189.932 424.628 192.705C425.787 195.477 427.423 197.625 429.537 199.148C431.673 200.67 434.185 201.432 437.071 201.432C439.003 201.432 440.753 201.08 442.321 200.375C443.912 199.648 445.241 198.614 446.31 197.273C447.401 195.932 448.162 194.318 448.594 192.432H458.514C458.151 195.818 457.048 198.841 455.207 201.5C453.366 204.159 450.901 206.25 447.81 207.773C444.741 209.295 441.139 210.057 437.003 210.057ZM469.415 209V156.636H479.608V209H469.415ZM474.562 148.557C472.79 148.557 471.267 147.966 469.994 146.784C468.744 145.58 468.119 144.148 468.119 142.489C468.119 140.807 468.744 139.375 469.994 138.193C471.267 136.989 472.79 136.386 474.562 136.386C476.335 136.386 477.847 136.989 479.097 138.193C480.369 139.375 481.006 140.807 481.006 142.489C481.006 144.148 480.369 145.58 479.097 146.784C477.847 147.966 476.335 148.557 474.562 148.557ZM503.514 177.909V209H493.321V156.636H503.105V165.159H503.753C504.957 162.386 506.844 160.159 509.412 158.477C512.003 156.795 515.264 155.955 519.196 155.955C522.764 155.955 525.889 156.705 528.571 158.205C531.253 159.682 533.332 161.886 534.81 164.818C536.287 167.75 537.026 171.375 537.026 175.693V209H526.832V176.92C526.832 173.125 525.844 170.159 523.866 168.023C521.889 165.864 519.173 164.784 515.719 164.784C513.355 164.784 511.253 165.295 509.412 166.318C507.594 167.341 506.151 168.841 505.082 170.818C504.037 172.773 503.514 175.136 503.514 177.909ZM572.651 229.727C568.491 229.727 564.912 229.182 561.912 228.091C558.935 227 556.503 225.557 554.616 223.761C552.73 221.966 551.321 220 550.389 217.864L559.151 214.25C559.764 215.25 560.582 216.307 561.605 217.42C562.651 218.557 564.06 219.523 565.832 220.318C567.628 221.114 569.935 221.511 572.753 221.511C576.616 221.511 579.81 220.568 582.332 218.682C584.855 216.818 586.116 213.841 586.116 209.75V199.455H585.469C584.855 200.568 583.969 201.807 582.81 203.17C581.673 204.534 580.105 205.716 578.105 206.716C576.105 207.716 573.503 208.216 570.298 208.216C566.162 208.216 562.435 207.25 559.116 205.318C555.821 203.364 553.207 200.489 551.276 196.693C549.366 192.875 548.412 188.182 548.412 182.614C548.412 177.045 549.355 172.273 551.241 168.295C553.151 164.318 555.764 161.273 559.082 159.159C562.401 157.023 566.162 155.955 570.366 155.955C573.616 155.955 576.241 156.5 578.241 157.591C580.241 158.659 581.798 159.909 582.912 161.341C584.048 162.773 584.923 164.034 585.537 165.125H586.287V156.636H596.276V210.159C596.276 214.659 595.23 218.352 593.139 221.239C591.048 224.125 588.219 226.261 584.651 227.648C581.105 229.034 577.105 229.727 572.651 229.727ZM572.548 199.761C575.48 199.761 577.957 199.08 579.98 197.716C582.026 196.33 583.571 194.352 584.616 191.784C585.685 189.193 586.219 186.091 586.219 182.477C586.219 178.955 585.696 175.852 584.651 173.17C583.605 170.489 582.071 168.398 580.048 166.898C578.026 165.375 575.526 164.614 572.548 164.614C569.48 164.614 566.923 165.409 564.878 167C562.832 168.568 561.287 170.705 560.241 173.409C559.219 176.114 558.707 179.136 558.707 182.477C558.707 185.909 559.23 188.92 560.276 191.511C561.321 194.102 562.866 196.125 564.912 197.58C566.98 199.034 569.526 199.761 572.548 199.761ZM616.662 209.648C614.798 209.648 613.196 208.989 611.855 207.67C610.514 206.33 609.844 204.716 609.844 202.83C609.844 200.966 610.514 199.375 611.855 198.057C613.196 196.716 614.798 196.045 616.662 196.045C618.526 196.045 620.128 196.716 621.469 198.057C622.81 199.375 623.48 200.966 623.48 202.83C623.48 204.08 623.162 205.227 622.526 206.273C621.912 207.295 621.094 208.114 620.071 208.727C619.048 209.341 617.912 209.648 616.662 209.648ZM643.849 209.648C641.986 209.648 640.384 208.989 639.043 207.67C637.702 206.33 637.031 204.716 637.031 202.83C637.031 200.966 637.702 199.375 639.043 198.057C640.384 196.716 641.986 196.045 643.849 196.045C645.713 196.045 647.315 196.716 648.656 198.057C649.997 199.375 650.668 200.966 650.668 202.83C650.668 204.08 650.349 205.227 649.713 206.273C649.099 207.295 648.281 208.114 647.259 208.727C646.236 209.341 645.099 209.648 643.849 209.648ZM671.037 209.648C669.173 209.648 667.571 208.989 666.23 207.67C664.889 206.33 664.219 204.716 664.219 202.83C664.219 200.966 664.889 199.375 666.23 198.057C667.571 196.716 669.173 196.045 671.037 196.045C672.901 196.045 674.503 196.716 675.844 198.057C677.185 199.375 677.855 200.966 677.855 202.83C677.855 204.08 677.537 205.227 676.901 206.273C676.287 207.295 675.469 208.114 674.446 208.727C673.423 209.341 672.287 209.648 671.037 209.648Z" fill="url(#paint0_linear_3_4)"/>
<path d="M56.1023 247.909V277H51.8551V247.909H56.1023ZM61.8161 277V255.182H66.0632V277H61.8161ZM63.9609 251.815C63.2223 251.815 62.5878 251.569 62.0575 251.077C61.5367 250.575 61.2763 249.978 61.2763 249.287C61.2763 248.586 61.5367 247.99 62.0575 247.497C62.5878 246.995 63.2223 246.744 63.9609 246.744C64.6996 246.744 65.3293 246.995 65.8501 247.497C66.3804 247.99 66.6456 248.586 66.6456 249.287C66.6456 249.978 66.3804 250.575 65.8501 251.077C65.3293 251.569 64.6996 251.815 63.9609 251.815ZM75.6832 269.599L75.6548 264.415H76.3935L85.0866 255.182H90.1719L80.2571 265.693H79.5895L75.6832 269.599ZM71.777 277V247.909H76.0241V277H71.777ZM85.5554 277L77.7429 266.631L80.669 263.662L90.7685 277H85.5554ZM102.548 277.44C100.398 277.44 98.5466 276.981 96.9936 276.062C95.45 275.134 94.2569 273.832 93.4141 272.156C92.5807 270.471 92.1641 268.496 92.1641 266.233C92.1641 263.998 92.5807 262.028 93.4141 260.324C94.2569 258.619 95.4311 257.289 96.9368 256.332C98.4519 255.376 100.223 254.898 102.249 254.898C103.48 254.898 104.674 255.101 105.829 255.509C106.984 255.916 108.021 256.555 108.94 257.426C109.858 258.297 110.583 259.429 111.113 260.821C111.643 262.204 111.908 263.884 111.908 265.864V267.369H94.5646V264.188H107.746C107.746 263.07 107.519 262.08 107.065 261.219C106.61 260.348 105.971 259.661 105.147 259.159C104.333 258.657 103.376 258.406 102.278 258.406C101.085 258.406 100.043 258.7 99.1527 259.287C98.272 259.865 97.5902 260.622 97.1072 261.56C96.6338 262.488 96.397 263.496 96.397 264.585V267.071C96.397 268.529 96.6527 269.77 97.1641 270.793C97.6849 271.815 98.4093 272.597 99.3374 273.136C100.265 273.667 101.35 273.932 102.59 273.932C103.395 273.932 104.129 273.818 104.792 273.591C105.455 273.354 106.028 273.004 106.511 272.54C106.994 272.076 107.363 271.503 107.619 270.821L111.638 271.545C111.317 272.729 110.739 273.766 109.906 274.656C109.082 275.537 108.045 276.223 106.795 276.716C105.554 277.199 104.138 277.44 102.548 277.44ZM129.891 285.182C129.257 285.182 128.679 285.13 128.158 285.026C127.638 284.931 127.249 284.827 126.994 284.713L128.016 281.233C128.793 281.441 129.484 281.531 130.09 281.503C130.696 281.474 131.231 281.247 131.695 280.821C132.169 280.395 132.585 279.699 132.945 278.733L133.471 277.284L125.488 255.182H130.033L135.559 272.114H135.786L141.312 255.182H145.871L136.88 279.912C136.463 281.048 135.933 282.009 135.289 282.795C134.645 283.591 133.878 284.188 132.988 284.585C132.098 284.983 131.066 285.182 129.891 285.182ZM158.311 277.44C156.266 277.44 154.481 276.972 152.956 276.034C151.431 275.097 150.248 273.785 149.405 272.099C148.562 270.414 148.141 268.444 148.141 266.19C148.141 263.927 148.562 261.948 149.405 260.253C150.248 258.558 151.431 257.241 152.956 256.304C154.481 255.366 156.266 254.898 158.311 254.898C160.357 254.898 162.142 255.366 163.666 256.304C165.191 257.241 166.375 258.558 167.217 260.253C168.06 261.948 168.482 263.927 168.482 266.19C168.482 268.444 168.06 270.414 167.217 272.099C166.375 273.785 165.191 275.097 163.666 276.034C162.142 276.972 160.357 277.44 158.311 277.44ZM158.325 273.875C159.651 273.875 160.75 273.525 161.621 272.824C162.492 272.123 163.136 271.19 163.553 270.026C163.979 268.861 164.192 267.578 164.192 266.176C164.192 264.784 163.979 263.506 163.553 262.341C163.136 261.167 162.492 260.224 161.621 259.514C160.75 258.804 159.651 258.449 158.325 258.449C156.99 258.449 155.882 258.804 155.001 259.514C154.13 260.224 153.482 261.167 153.055 262.341C152.639 263.506 152.43 264.784 152.43 266.176C152.43 267.578 152.639 268.861 153.055 270.026C153.482 271.19 154.13 272.123 155.001 272.824C155.882 273.525 156.99 273.875 158.325 273.875ZM187.043 267.952V255.182H191.305V277H187.129V273.222H186.901C186.399 274.386 185.594 275.357 184.487 276.134C183.388 276.901 182.02 277.284 180.381 277.284C178.98 277.284 177.739 276.976 176.66 276.361C175.59 275.736 174.747 274.812 174.131 273.591C173.525 272.369 173.222 270.859 173.222 269.06V255.182H177.469V268.548C177.469 270.035 177.881 271.219 178.705 272.099C179.529 272.98 180.599 273.42 181.915 273.42C182.711 273.42 183.502 273.222 184.288 272.824C185.083 272.426 185.741 271.825 186.262 271.02C186.792 270.215 187.053 269.192 187.043 267.952ZM201.248 247.909V250.636C201.248 251.441 201.096 252.289 200.793 253.179C200.5 254.06 200.083 254.907 199.543 255.722C199.004 256.536 198.369 257.237 197.64 257.824L195.538 256.318C196.096 255.504 196.579 254.637 196.987 253.719C197.403 252.8 197.612 251.787 197.612 250.679V247.909H201.248ZM224.934 255.182L217.022 277H212.477L204.55 255.182H209.11L214.636 271.972H214.863L220.374 255.182H224.934ZM237.587 277.44C235.437 277.44 233.586 276.981 232.033 276.062C230.489 275.134 229.296 273.832 228.453 272.156C227.62 270.471 227.203 268.496 227.203 266.233C227.203 263.998 227.62 262.028 228.453 260.324C229.296 258.619 230.47 257.289 231.976 256.332C233.491 255.376 235.262 254.898 237.288 254.898C238.519 254.898 239.713 255.101 240.868 255.509C242.023 255.916 243.06 256.555 243.979 257.426C244.897 258.297 245.622 259.429 246.152 260.821C246.682 262.204 246.947 263.884 246.947 265.864V267.369H229.604V264.188H242.786C242.786 263.07 242.558 262.08 242.104 261.219C241.649 260.348 241.01 259.661 240.186 259.159C239.372 258.657 238.415 258.406 237.317 258.406C236.124 258.406 235.082 258.7 234.192 259.287C233.311 259.865 232.629 260.622 232.146 261.56C231.673 262.488 231.436 263.496 231.436 264.585V267.071C231.436 268.529 231.692 269.77 232.203 270.793C232.724 271.815 233.448 272.597 234.376 273.136C235.304 273.667 236.389 273.932 237.629 273.932C238.434 273.932 239.168 273.818 239.831 273.591C240.494 273.354 241.067 273.004 241.55 272.54C242.033 272.076 242.402 271.503 242.658 270.821L246.678 271.545C246.356 272.729 245.778 273.766 244.945 274.656C244.121 275.537 243.084 276.223 241.834 276.716C240.593 277.199 239.178 277.44 237.587 277.44ZM266.82 264.045L264.689 277H260.442L264.078 255.182H268.155L267.558 258.733H267.828C268.519 257.568 269.462 256.64 270.655 255.949C271.857 255.248 273.278 254.898 274.916 254.898C276.393 254.898 277.634 255.21 278.638 255.835C279.651 256.451 280.366 257.369 280.783 258.591C281.209 259.812 281.275 261.323 280.982 263.122L278.652 277H274.405L276.635 263.634C276.891 262.052 276.682 260.816 276.01 259.926C275.347 259.027 274.291 258.577 272.842 258.577C271.857 258.577 270.944 258.79 270.101 259.216C269.268 259.642 268.562 260.267 267.984 261.091C267.416 261.905 267.028 262.89 266.82 264.045ZM293.68 277.44C291.54 277.44 289.769 276.981 288.368 276.062C286.976 275.134 286 273.832 285.442 272.156C284.883 270.471 284.793 268.496 285.172 266.233C285.541 263.998 286.285 262.028 287.402 260.324C288.519 258.619 289.911 257.289 291.578 256.332C293.254 255.376 295.106 254.898 297.132 254.898C298.363 254.898 299.523 255.101 300.612 255.509C301.711 255.916 302.643 256.555 303.411 257.426C304.178 258.297 304.708 259.429 305.001 260.821C305.304 262.204 305.295 263.884 304.973 265.864L304.732 267.369H287.374L287.871 264.188H301.053C301.251 263.07 301.199 262.08 300.896 261.219C300.593 260.348 300.072 259.661 299.334 259.159C298.605 258.657 297.686 258.406 296.578 258.406C295.442 258.406 294.381 258.705 293.396 259.301C292.411 259.898 291.588 260.66 290.925 261.588C290.271 262.507 289.859 263.454 289.689 264.429L289.192 267.341C288.946 268.932 288.988 270.21 289.32 271.176C289.661 272.142 290.257 272.843 291.109 273.278C291.962 273.714 293.027 273.932 294.305 273.932C295.129 273.932 295.892 273.818 296.592 273.591C297.303 273.354 297.932 273.009 298.482 272.554C299.031 272.09 299.49 271.512 299.859 270.821L303.751 271.545C303.231 272.729 302.482 273.766 301.507 274.656C300.532 275.537 299.381 276.223 298.055 276.716C296.739 277.199 295.281 277.44 293.68 277.44ZM329.565 255.182L318.016 277H313.471L309.181 255.182H313.57L316.298 271.972H316.525L324.835 255.182H329.565ZM338.524 277.44C336.384 277.44 334.613 276.981 333.212 276.062C331.82 275.134 330.844 273.832 330.286 272.156C329.727 270.471 329.637 268.496 330.016 266.233C330.385 263.998 331.128 262.028 332.246 260.324C333.363 258.619 334.755 257.289 336.422 256.332C338.098 255.376 339.949 254.898 341.976 254.898C343.207 254.898 344.367 255.101 345.456 255.509C346.554 255.916 347.487 256.555 348.254 257.426C349.021 258.297 349.552 259.429 349.845 260.821C350.148 262.204 350.139 263.884 349.817 265.864L349.575 267.369H332.217L332.714 264.188H345.896C346.095 263.07 346.043 262.08 345.74 261.219C345.437 260.348 344.916 259.661 344.178 259.159C343.448 258.657 342.53 258.406 341.422 258.406C340.286 258.406 339.225 258.705 338.24 259.301C337.255 259.898 336.431 260.66 335.768 261.588C335.115 262.507 334.703 263.454 334.533 264.429L334.036 267.341C333.789 268.932 333.832 270.21 334.163 271.176C334.504 272.142 335.101 272.843 335.953 273.278C336.805 273.714 337.871 273.932 339.149 273.932C339.973 273.932 340.735 273.818 341.436 273.591C342.146 273.354 342.776 273.009 343.325 272.554C343.875 272.09 344.334 271.512 344.703 270.821L348.595 271.545C348.074 272.729 347.326 273.766 346.351 274.656C345.375 275.537 344.225 276.223 342.899 276.716C341.583 277.199 340.125 277.44 338.524 277.44ZM352.732 277L356.369 255.182H360.474L359.891 258.648H360.119C360.706 257.473 361.563 256.55 362.69 255.878C363.817 255.196 365.019 254.855 366.298 254.855C366.572 254.855 366.885 254.865 367.235 254.884C367.585 254.893 367.87 254.917 368.087 254.955L367.406 259.017C367.245 258.97 366.951 258.918 366.525 258.861C366.099 258.795 365.658 258.761 365.204 258.761C364.21 258.761 363.286 258.974 362.434 259.401C361.582 259.817 360.867 260.4 360.289 261.148C359.711 261.886 359.337 262.729 359.167 263.676L356.979 277H352.732ZM396.915 260.509L393.066 261.19C392.905 260.698 392.649 260.229 392.299 259.784C391.958 259.339 391.494 258.974 390.907 258.69C390.32 258.406 389.586 258.264 388.705 258.264C387.503 258.264 386.499 258.534 385.694 259.074C384.889 259.604 384.487 260.291 384.487 261.134C384.487 261.863 384.756 262.45 385.296 262.895C385.836 263.34 386.707 263.705 387.91 263.989L391.376 264.784C393.383 265.248 394.879 265.963 395.864 266.929C396.849 267.895 397.342 269.15 397.342 270.693C397.342 272 396.963 273.165 396.205 274.188C395.457 275.201 394.411 275.996 393.066 276.574C391.731 277.152 390.183 277.44 388.421 277.44C385.978 277.44 383.985 276.92 382.441 275.878C380.897 274.827 379.951 273.335 379.6 271.403L383.705 270.778C383.961 271.848 384.487 272.658 385.282 273.207C386.077 273.747 387.114 274.017 388.393 274.017C389.785 274.017 390.897 273.728 391.731 273.151C392.564 272.563 392.981 271.848 392.981 271.006C392.981 270.324 392.725 269.751 392.214 269.287C391.712 268.823 390.94 268.473 389.898 268.236L386.205 267.426C384.169 266.962 382.664 266.223 381.688 265.21C380.722 264.197 380.239 262.914 380.239 261.361C380.239 260.073 380.599 258.946 381.319 257.98C382.039 257.014 383.033 256.261 384.302 255.722C385.571 255.172 387.024 254.898 388.663 254.898C391.021 254.898 392.877 255.409 394.231 256.432C395.585 257.445 396.48 258.804 396.915 260.509ZM411.415 277.44C409.265 277.44 407.414 276.981 405.861 276.062C404.317 275.134 403.124 273.832 402.281 272.156C401.448 270.471 401.031 268.496 401.031 266.233C401.031 263.998 401.448 262.028 402.281 260.324C403.124 258.619 404.298 257.289 405.804 256.332C407.319 255.376 409.09 254.898 411.116 254.898C412.348 254.898 413.541 255.101 414.696 255.509C415.851 255.916 416.888 256.555 417.807 257.426C418.725 258.297 419.45 259.429 419.98 260.821C420.51 262.204 420.776 263.884 420.776 265.864V267.369H403.432V264.188H416.614C416.614 263.07 416.386 262.08 415.932 261.219C415.477 260.348 414.838 259.661 414.014 259.159C413.2 258.657 412.243 258.406 411.145 258.406C409.952 258.406 408.91 258.7 408.02 259.287C407.139 259.865 406.457 260.622 405.974 261.56C405.501 262.488 405.264 263.496 405.264 264.585V267.071C405.264 268.529 405.52 269.77 406.031 270.793C406.552 271.815 407.277 272.597 408.205 273.136C409.133 273.667 410.217 273.932 411.457 273.932C412.262 273.932 412.996 273.818 413.659 273.591C414.322 273.354 414.895 273.004 415.378 272.54C415.861 272.076 416.23 271.503 416.486 270.821L420.506 271.545C420.184 272.729 419.606 273.766 418.773 274.656C417.949 275.537 416.912 276.223 415.662 276.716C414.421 277.199 413.006 277.44 411.415 277.44ZM434.891 277.44C432.742 277.44 430.89 276.981 429.337 276.062C427.794 275.134 426.601 273.832 425.758 272.156C424.924 270.471 424.508 268.496 424.508 266.233C424.508 263.998 424.924 262.028 425.758 260.324C426.601 258.619 427.775 257.289 429.281 256.332C430.796 255.376 432.567 254.898 434.593 254.898C435.824 254.898 437.017 255.101 438.173 255.509C439.328 255.916 440.365 256.555 441.283 257.426C442.202 258.297 442.926 259.429 443.457 260.821C443.987 262.204 444.252 263.884 444.252 265.864V267.369H426.908V264.188H440.09C440.09 263.07 439.863 262.08 439.408 261.219C438.954 260.348 438.315 259.661 437.491 259.159C436.676 258.657 435.72 258.406 434.621 258.406C433.428 258.406 432.387 258.7 431.496 259.287C430.616 259.865 429.934 260.622 429.451 261.56C428.978 262.488 428.741 263.496 428.741 264.585V267.071C428.741 268.529 428.996 269.77 429.508 270.793C430.029 271.815 430.753 272.597 431.681 273.136C432.609 273.667 433.693 273.932 434.934 273.932C435.739 273.932 436.473 273.818 437.136 273.591C437.799 273.354 438.371 273.004 438.854 272.54C439.337 272.076 439.707 271.503 439.962 270.821L443.982 271.545C443.66 272.729 443.083 273.766 442.249 274.656C441.425 275.537 440.388 276.223 439.138 276.716C437.898 277.199 436.482 277.44 434.891 277.44ZM453.212 264.045V277H448.964V255.182H453.041V258.733H453.311C453.813 257.578 454.599 256.65 455.669 255.949C456.749 255.248 458.107 254.898 459.746 254.898C461.232 254.898 462.535 255.21 463.652 255.835C464.769 256.451 465.636 257.369 466.251 258.591C466.867 259.812 467.175 261.323 467.175 263.122V277H462.928V263.634C462.928 262.052 462.516 260.816 461.692 259.926C460.868 259.027 459.736 258.577 458.297 258.577C457.312 258.577 456.436 258.79 455.669 259.216C454.911 259.642 454.31 260.267 453.865 261.091C453.429 261.905 453.212 262.89 453.212 264.045ZM483.457 277V255.182H487.704V277H483.457ZM485.602 251.815C484.863 251.815 484.228 251.569 483.698 251.077C483.177 250.575 482.917 249.978 482.917 249.287C482.917 248.586 483.177 247.99 483.698 247.497C484.228 246.995 484.863 246.744 485.602 246.744C486.34 246.744 486.97 246.995 487.491 247.497C488.021 247.99 488.286 248.586 488.286 249.287C488.286 249.978 488.021 250.575 487.491 251.077C486.97 251.569 486.34 251.815 485.602 251.815ZM503.602 255.182V258.591H491.685V255.182H503.602ZM494.881 249.955H499.128V270.594C499.128 271.418 499.251 272.038 499.497 272.455C499.743 272.862 500.061 273.141 500.449 273.293C500.847 273.435 501.277 273.506 501.741 273.506C502.082 273.506 502.381 273.482 502.636 273.435C502.892 273.387 503.091 273.349 503.233 273.321L504 276.83C503.754 276.924 503.403 277.019 502.949 277.114C502.494 277.218 501.926 277.275 501.244 277.284C500.127 277.303 499.085 277.104 498.119 276.688C497.153 276.271 496.372 275.627 495.776 274.756C495.179 273.884 494.881 272.791 494.881 271.474V249.955ZM519.227 277V247.909H523.474V258.719H523.73C523.976 258.264 524.331 257.739 524.795 257.142C525.259 256.545 525.903 256.025 526.727 255.58C527.551 255.125 528.64 254.898 529.994 254.898C531.756 254.898 533.328 255.343 534.71 256.233C536.093 257.123 537.177 258.406 537.963 260.082C538.759 261.759 539.156 263.776 539.156 266.134C539.156 268.491 538.763 270.513 537.977 272.199C537.191 273.875 536.112 275.168 534.739 276.077C533.366 276.976 531.798 277.426 530.037 277.426C528.711 277.426 527.627 277.204 526.784 276.759C525.951 276.313 525.297 275.793 524.824 275.196C524.35 274.599 523.986 274.069 523.73 273.605H523.375V277H519.227ZM523.389 266.091C523.389 267.625 523.612 268.97 524.057 270.125C524.502 271.28 525.146 272.185 525.989 272.838C526.831 273.482 527.864 273.804 529.085 273.804C530.354 273.804 531.415 273.468 532.267 272.795C533.119 272.114 533.763 271.19 534.199 270.026C534.644 268.861 534.866 267.549 534.866 266.091C534.866 264.652 534.649 263.359 534.213 262.213C533.787 261.067 533.143 260.163 532.281 259.5C531.429 258.837 530.364 258.506 529.085 258.506C527.854 258.506 526.812 258.823 525.96 259.457C525.117 260.092 524.478 260.977 524.043 262.114C523.607 263.25 523.389 264.576 523.389 266.091ZM553.329 277.44C551.179 277.44 549.328 276.981 547.775 276.062C546.231 275.134 545.038 273.832 544.195 272.156C543.362 270.471 542.945 268.496 542.945 266.233C542.945 263.998 543.362 262.028 544.195 260.324C545.038 258.619 546.212 257.289 547.718 256.332C549.233 255.376 551.004 254.898 553.031 254.898C554.262 254.898 555.455 255.101 556.61 255.509C557.765 255.916 558.802 256.555 559.721 257.426C560.639 258.297 561.364 259.429 561.894 260.821C562.424 262.204 562.69 263.884 562.69 265.864V267.369H545.346V264.188H558.528C558.528 263.07 558.3 262.08 557.846 261.219C557.391 260.348 556.752 259.661 555.928 259.159C555.114 258.657 554.157 258.406 553.059 258.406C551.866 258.406 550.824 258.7 549.934 259.287C549.053 259.865 548.371 260.622 547.888 261.56C547.415 262.488 547.178 263.496 547.178 264.585V267.071C547.178 268.529 547.434 269.77 547.945 270.793C548.466 271.815 549.191 272.597 550.119 273.136C551.047 273.667 552.131 273.932 553.371 273.932C554.176 273.932 554.91 273.818 555.573 273.591C556.236 273.354 556.809 273.004 557.292 272.54C557.775 272.076 558.144 271.503 558.4 270.821L562.42 271.545C562.098 272.729 561.52 273.766 560.687 274.656C559.863 275.537 558.826 276.223 557.576 276.716C556.335 277.199 554.92 277.44 553.329 277.44ZM577.786 255.182V258.591H565.456V255.182H577.786ZM568.837 277V252.653C568.837 251.29 569.135 250.158 569.732 249.259C570.328 248.349 571.119 247.672 572.104 247.227C573.089 246.773 574.159 246.545 575.314 246.545C576.166 246.545 576.895 246.616 577.501 246.759C578.107 246.891 578.557 247.014 578.851 247.128L577.857 250.565C577.658 250.509 577.402 250.442 577.089 250.366C576.777 250.281 576.398 250.239 575.953 250.239C574.921 250.239 574.182 250.494 573.737 251.006C573.302 251.517 573.084 252.256 573.084 253.222V277H568.837ZM590.499 277.44C588.453 277.44 586.668 276.972 585.143 276.034C583.619 275.097 582.435 273.785 581.592 272.099C580.75 270.414 580.328 268.444 580.328 266.19C580.328 263.927 580.75 261.948 581.592 260.253C582.435 258.558 583.619 257.241 585.143 256.304C586.668 255.366 588.453 254.898 590.499 254.898C592.544 254.898 594.329 255.366 595.854 256.304C597.378 257.241 598.562 258.558 599.405 260.253C600.248 261.948 600.669 263.927 600.669 266.19C600.669 268.444 600.248 270.414 599.405 272.099C598.562 273.785 597.378 275.097 595.854 276.034C594.329 276.972 592.544 277.44 590.499 277.44ZM590.513 273.875C591.839 273.875 592.937 273.525 593.808 272.824C594.679 272.123 595.323 271.19 595.74 270.026C596.166 268.861 596.379 267.578 596.379 266.176C596.379 264.784 596.166 263.506 595.74 262.341C595.323 261.167 594.679 260.224 593.808 259.514C592.937 258.804 591.839 258.449 590.513 258.449C589.178 258.449 588.07 258.804 587.189 259.514C586.318 260.224 585.669 261.167 585.243 262.341C584.826 263.506 584.618 264.784 584.618 266.176C584.618 267.578 584.826 268.861 585.243 270.026C585.669 271.19 586.318 272.123 587.189 272.824C588.07 273.525 589.178 273.875 590.513 273.875ZM605.41 277V255.182H609.515V258.648H609.742C610.14 257.473 610.841 256.55 611.844 255.878C612.858 255.196 614.004 254.855 615.282 254.855C615.547 254.855 615.86 254.865 616.219 254.884C616.589 254.902 616.878 254.926 617.086 254.955V259.017C616.915 258.97 616.612 258.918 616.177 258.861C615.741 258.795 615.306 258.761 614.87 258.761C613.866 258.761 612.971 258.974 612.185 259.401C611.409 259.817 610.793 260.4 610.339 261.148C609.884 261.886 609.657 262.729 609.657 263.676V277H605.41ZM629.384 277.44C627.234 277.44 625.383 276.981 623.83 276.062C622.286 275.134 621.093 273.832 620.25 272.156C619.417 270.471 619 268.496 619 266.233C619 263.998 619.417 262.028 620.25 260.324C621.093 258.619 622.267 257.289 623.773 256.332C625.288 255.376 627.059 254.898 629.085 254.898C630.316 254.898 631.509 255.101 632.665 255.509C633.82 255.916 634.857 256.555 635.776 257.426C636.694 258.297 637.419 259.429 637.949 260.821C638.479 262.204 638.744 263.884 638.744 265.864V267.369H621.401V264.188H634.582C634.582 263.07 634.355 262.08 633.901 261.219C633.446 260.348 632.807 259.661 631.983 259.159C631.169 258.657 630.212 258.406 629.114 258.406C627.92 258.406 626.879 258.7 625.989 259.287C625.108 259.865 624.426 260.622 623.943 261.56C623.47 262.488 623.233 263.496 623.233 264.585V267.071C623.233 268.529 623.489 269.77 624 270.793C624.521 271.815 625.245 272.597 626.173 273.136C627.101 273.667 628.186 273.932 629.426 273.932C630.231 273.932 630.965 273.818 631.628 273.591C632.291 273.354 632.864 273.004 633.347 272.54C633.83 272.076 634.199 271.503 634.455 270.821L638.474 271.545C638.152 272.729 637.575 273.766 636.741 274.656C635.918 275.537 634.881 276.223 633.631 276.716C632.39 277.199 630.974 277.44 629.384 277.44ZM646.255 277.27C645.478 277.27 644.811 276.995 644.252 276.446C643.693 275.887 643.414 275.215 643.414 274.429C643.414 273.652 643.693 272.99 644.252 272.44C644.811 271.882 645.478 271.602 646.255 271.602C647.031 271.602 647.699 271.882 648.258 272.44C648.817 272.99 649.096 273.652 649.096 274.429C649.096 274.95 648.963 275.428 648.698 275.864C648.442 276.29 648.102 276.631 647.675 276.886C647.249 277.142 646.776 277.27 646.255 277.27Z" fill="#61596A"/>
<defs>
<linearGradient id="paint0_linear_3_4" x1="701" y1="119" x2="0" y2="119" gradientUnits="userSpaceOnUse">
<stop stop-color="#C49DF2"/>
<stop offset="1" stop-color="#FFC6E5"/>
</linearGradient>
</defs>
</svg>
