<svg width="359" height="32" viewBox="0 0 359 32" fill="none" xmlns="http://www.w3.org/2000/svg">
<path d="M5.51207 1.90909L13.6087 25.6023H13.9354L22.032 1.90909H26.7763L16.3075 31H11.2365L0.767756 1.90909H5.51207ZM30.6364 31V9.18182H34.8835V31H30.6364ZM32.7812 5.81534C32.0426 5.81534 31.4081 5.56913 30.8778 5.0767C30.357 4.57481 30.0966 3.97822 30.0966 3.28693C30.0966 2.58617 30.357 1.98958 30.8778 1.49716C31.4081 0.995264 32.0426 0.744318 32.7812 0.744318C33.5199 0.744318 34.1496 0.995264 34.6705 1.49716C35.2008 1.98958 35.4659 2.58617 35.4659 3.28693C35.4659 3.97822 35.2008 4.57481 34.6705 5.0767C34.1496 5.56913 33.5199 5.81534 32.7812 5.81534ZM48.7649 31.4261C47.0036 31.4261 45.4316 30.9763 44.049 30.0767C42.6759 29.1676 41.5964 27.875 40.8104 26.1989C40.0339 24.5133 39.6456 22.4915 39.6456 20.1335C39.6456 17.7756 40.0386 15.7585 40.8246 14.0824C41.62 12.4062 42.709 11.1231 44.0916 10.233C45.4742 9.3428 47.0414 8.89773 48.7933 8.89773C50.1475 8.89773 51.2365 9.125 52.0604 9.57955C52.8937 10.0246 53.5376 10.5455 53.9922 11.142C54.4562 11.7386 54.8161 12.2642 55.0717 12.7188H55.3274V1.90909H59.5746V31H55.4268V27.6051H55.0717C54.8161 28.0691 54.4467 28.5994 53.9638 29.196C53.4903 29.7926 52.8369 30.3134 52.0036 30.7585C51.1702 31.2036 50.0907 31.4261 48.7649 31.4261ZM49.7024 27.804C50.924 27.804 51.9562 27.482 52.799 26.8381C53.6513 26.1847 54.2952 25.2803 54.7308 24.125C55.1759 22.9697 55.3984 21.625 55.3984 20.0909C55.3984 18.5758 55.1806 17.25 54.745 16.1136C54.3094 14.9773 53.6702 14.0919 52.8274 13.4574C51.9846 12.8229 50.9429 12.5057 49.7024 12.5057C48.424 12.5057 47.3587 12.8371 46.5064 13.5C45.6541 14.1629 45.0102 15.0672 44.5746 16.2131C44.1484 17.3589 43.9354 18.6515 43.9354 20.0909C43.9354 21.5492 44.1532 22.8608 44.5888 24.0256C45.0244 25.1903 45.6683 26.1136 46.5206 26.7955C47.3823 27.4678 48.4429 27.804 49.7024 27.804ZM75.0398 31.4403C72.8902 31.4403 71.0388 30.9811 69.4858 30.0625C67.9422 29.1345 66.7491 27.8324 65.9062 26.1562C65.0729 24.4706 64.6562 22.4962 64.6562 20.233C64.6562 17.9981 65.0729 16.0284 65.9062 14.3239C66.7491 12.6193 67.9233 11.2888 69.429 10.3324C70.9441 9.37595 72.715 8.89773 74.7415 8.89773C75.9725 8.89773 77.1657 9.10133 78.321 9.50852C79.4763 9.91572 80.5133 10.5549 81.4318 11.4261C82.3504 12.2973 83.0748 13.429 83.6051 14.821C84.1354 16.2036 84.4006 17.8845 84.4006 19.8636V21.3693H67.0568V18.1875H80.2386C80.2386 17.0701 80.0114 16.0805 79.5568 15.2188C79.1023 14.3475 78.4631 13.661 77.6392 13.1591C76.8248 12.6572 75.8684 12.4062 74.7699 12.4062C73.5767 12.4062 72.535 12.6998 71.6449 13.2869C70.7642 13.8646 70.0824 14.6222 69.5994 15.5597C69.1259 16.4877 68.8892 17.4962 68.8892 18.5852V21.071C68.8892 22.5294 69.1449 23.7699 69.6562 24.7926C70.1771 25.8153 70.9015 26.5966 71.8295 27.1364C72.7576 27.6667 73.8419 27.9318 75.0824 27.9318C75.8873 27.9318 76.6212 27.8182 77.2841 27.5909C77.947 27.3542 78.5199 27.0038 79.0028 26.5398C79.4858 26.0758 79.8551 25.5028 80.1108 24.821L84.1307 25.5455C83.8087 26.7292 83.2311 27.7661 82.3977 28.6562C81.5739 29.5369 80.5369 30.2235 79.2869 30.7159C78.0464 31.1989 76.6307 31.4403 75.0398 31.4403ZM98.3033 31.4403C96.2578 31.4403 94.4728 30.9716 92.9482 30.0341C91.4235 29.0966 90.2398 27.785 89.397 26.0994C88.5542 24.4138 88.1328 22.4441 88.1328 20.1903C88.1328 17.9271 88.5542 15.9479 89.397 14.2528C90.2398 12.5578 91.4235 11.2415 92.9482 10.304C94.4728 9.36648 96.2578 8.89773 98.3033 8.89773C100.349 8.89773 102.134 9.36648 103.658 10.304C105.183 11.2415 106.367 12.5578 107.21 14.2528C108.052 15.9479 108.474 17.9271 108.474 20.1903C108.474 22.4441 108.052 24.4138 107.21 26.0994C106.367 27.785 105.183 29.0966 103.658 30.0341C102.134 30.9716 100.349 31.4403 98.3033 31.4403ZM98.3175 27.875C99.6432 27.875 100.742 27.5246 101.613 26.8239C102.484 26.1231 103.128 25.1903 103.545 24.0256C103.971 22.8608 104.184 21.5777 104.184 20.1761C104.184 18.7841 103.971 17.5057 103.545 16.3409C103.128 15.1667 102.484 14.2244 101.613 13.5142C100.742 12.804 99.6432 12.4489 98.3175 12.4489C96.9822 12.4489 95.8743 12.804 94.9936 13.5142C94.1224 14.2244 93.4737 15.1667 93.0476 16.3409C92.6309 17.5057 92.4226 18.7841 92.4226 20.1761C92.4226 21.5777 92.6309 22.8608 93.0476 24.0256C93.4737 25.1903 94.1224 26.1231 94.9936 26.8239C95.8743 27.5246 96.9822 27.875 98.3175 27.875ZM148.303 11.3693H143.871C143.701 10.4223 143.384 9.58901 142.92 8.86932C142.456 8.14962 141.888 7.53883 141.215 7.03693C140.543 6.53504 139.79 6.15625 138.957 5.90057C138.133 5.64489 137.257 5.51705 136.329 5.51705C134.653 5.51705 133.152 5.93845 131.826 6.78125C130.51 7.62405 129.468 8.85985 128.701 10.4886C127.943 12.1174 127.565 14.1061 127.565 16.4545C127.565 18.822 127.943 20.8201 128.701 22.4489C129.468 24.0777 130.514 25.3087 131.84 26.142C133.166 26.9754 134.657 27.392 136.315 27.392C137.233 27.392 138.104 27.2689 138.928 27.0227C139.762 26.767 140.514 26.393 141.187 25.9006C141.859 25.4081 142.427 24.8068 142.891 24.0966C143.365 23.3769 143.692 22.553 143.871 21.625L148.303 21.6392C148.067 23.0691 147.607 24.3854 146.925 25.5881C146.253 26.7812 145.387 27.8134 144.326 28.6847C143.275 29.5464 142.072 30.214 140.718 30.6875C139.364 31.161 137.887 31.3977 136.286 31.3977C133.767 31.3977 131.523 30.8011 129.553 29.608C127.584 28.4053 126.031 26.6866 124.894 24.4517C123.767 22.2169 123.204 19.5511 123.204 16.4545C123.204 13.3485 123.772 10.6828 124.908 8.45739C126.045 6.22254 127.598 4.50852 129.567 3.31534C131.537 2.11269 133.777 1.51136 136.286 1.51136C137.83 1.51136 139.269 1.7339 140.604 2.17898C141.949 2.61458 143.156 3.25852 144.227 4.1108C145.297 4.9536 146.182 5.9858 146.883 7.20739C147.584 8.41951 148.057 9.80682 148.303 11.3693ZM162.405 31.4403C160.359 31.4403 158.574 30.9716 157.05 30.0341C155.525 29.0966 154.341 27.785 153.499 26.0994C152.656 24.4138 152.234 22.4441 152.234 20.1903C152.234 17.9271 152.656 15.9479 153.499 14.2528C154.341 12.5578 155.525 11.2415 157.05 10.304C158.574 9.36648 160.359 8.89773 162.405 8.89773C164.45 8.89773 166.235 9.36648 167.76 10.304C169.285 11.2415 170.468 12.5578 171.311 14.2528C172.154 15.9479 172.575 17.9271 172.575 20.1903C172.575 22.4441 172.154 24.4138 171.311 26.0994C170.468 27.785 169.285 29.0966 167.76 30.0341C166.235 30.9716 164.45 31.4403 162.405 31.4403ZM162.419 27.875C163.745 27.875 164.843 27.5246 165.714 26.8239C166.586 26.1231 167.23 25.1903 167.646 24.0256C168.072 22.8608 168.286 21.5777 168.286 20.1761C168.286 18.7841 168.072 17.5057 167.646 16.3409C167.23 15.1667 166.586 14.2244 165.714 13.5142C164.843 12.804 163.745 12.4489 162.419 12.4489C161.084 12.4489 159.976 12.804 159.095 13.5142C158.224 14.2244 157.575 15.1667 157.149 16.3409C156.732 17.5057 156.524 18.7841 156.524 20.1761C156.524 21.5777 156.732 22.8608 157.149 24.0256C157.575 25.1903 158.224 26.1231 159.095 26.8239C159.976 27.5246 161.084 27.875 162.419 27.875ZM181.563 18.0455V31H177.316V9.18182H181.393V12.733H181.663C182.165 11.5777 182.951 10.6496 184.021 9.94886C185.1 9.24811 186.459 8.89773 188.097 8.89773C189.584 8.89773 190.886 9.21023 192.004 9.83523C193.121 10.4508 193.987 11.3693 194.603 12.5909C195.219 13.8125 195.526 15.3229 195.526 17.1222V31H191.279V17.6335C191.279 16.0521 190.867 14.8163 190.043 13.9261C189.219 13.0265 188.088 12.5767 186.648 12.5767C185.664 12.5767 184.788 12.7898 184.021 13.2159C183.263 13.642 182.662 14.267 182.217 15.0909C181.781 15.9053 181.563 16.8902 181.563 18.0455ZM211.606 9.18182V12.5909H199.276V9.18182H211.606ZM202.657 31V6.65341C202.657 5.28977 202.955 4.15814 203.552 3.25852C204.148 2.34943 204.939 1.67235 205.924 1.22727C206.909 0.772726 207.979 0.545453 209.134 0.545453C209.987 0.545453 210.716 0.616476 211.322 0.758523C211.928 0.891098 212.378 1.0142 212.671 1.12784L211.677 4.56534C211.478 4.50852 211.222 4.44223 210.91 4.36648C210.597 4.28125 210.219 4.23864 209.773 4.23864C208.741 4.23864 208.003 4.49432 207.558 5.00568C207.122 5.51705 206.904 6.25568 206.904 7.22159V31H202.657ZM224.532 31.4403C222.382 31.4403 220.531 30.9811 218.978 30.0625C217.434 29.1345 216.241 27.8324 215.398 26.1562C214.565 24.4706 214.148 22.4962 214.148 20.233C214.148 17.9981 214.565 16.0284 215.398 14.3239C216.241 12.6193 217.415 11.2888 218.921 10.3324C220.436 9.37595 222.207 8.89773 224.234 8.89773C225.465 8.89773 226.658 9.10133 227.813 9.50852C228.969 9.91572 230.005 10.5549 230.924 11.4261C231.843 12.2973 232.567 13.429 233.097 14.821C233.628 16.2036 233.893 17.8845 233.893 19.8636V21.3693H216.549V18.1875H229.731C229.731 17.0701 229.504 16.0805 229.049 15.2188C228.594 14.3475 227.955 13.661 227.131 13.1591C226.317 12.6572 225.361 12.4062 224.262 12.4062C223.069 12.4062 222.027 12.6998 221.137 13.2869C220.256 13.8646 219.575 14.6222 219.092 15.5597C218.618 16.4877 218.381 17.4962 218.381 18.5852V21.071C218.381 22.5294 218.637 23.7699 219.148 24.7926C219.669 25.8153 220.394 26.5966 221.322 27.1364C222.25 27.6667 223.334 27.9318 224.575 27.9318C225.379 27.9318 226.113 27.8182 226.776 27.5909C227.439 27.3542 228.012 27.0038 228.495 26.5398C228.978 26.0758 229.347 25.5028 229.603 24.821L233.623 25.5455C233.301 26.7292 232.723 27.7661 231.89 28.6562C231.066 29.5369 230.029 30.2235 228.779 30.7159C227.539 31.1989 226.123 31.4403 224.532 31.4403ZM238.605 31V9.18182H242.71V12.6477H242.938C243.335 11.4735 244.036 10.5502 245.04 9.87784C246.053 9.19602 247.199 8.85511 248.477 8.85511C248.742 8.85511 249.055 8.86458 249.415 8.88352C249.784 8.90246 250.073 8.92614 250.281 8.95455V13.017C250.111 12.9697 249.808 12.9176 249.372 12.8608C248.937 12.7945 248.501 12.7614 248.065 12.7614C247.062 12.7614 246.167 12.9744 245.381 13.4006C244.604 13.8172 243.989 14.3996 243.534 15.1477C243.08 15.8864 242.852 16.7292 242.852 17.6761V31H238.605ZM262.579 31.4403C260.429 31.4403 258.578 30.9811 257.025 30.0625C255.481 29.1345 254.288 27.8324 253.445 26.1562C252.612 24.4706 252.195 22.4962 252.195 20.233C252.195 17.9981 252.612 16.0284 253.445 14.3239C254.288 12.6193 255.462 11.2888 256.968 10.3324C258.483 9.37595 260.254 8.89773 262.281 8.89773C263.512 8.89773 264.705 9.10133 265.86 9.50852C267.015 9.91572 268.052 10.5549 268.971 11.4261C269.889 12.2973 270.614 13.429 271.144 14.821C271.674 16.2036 271.94 17.8845 271.94 19.8636V21.3693H254.596V18.1875H267.778C267.778 17.0701 267.55 16.0805 267.096 15.2188C266.641 14.3475 266.002 13.661 265.178 13.1591C264.364 12.6572 263.407 12.4062 262.309 12.4062C261.116 12.4062 260.074 12.6998 259.184 13.2869C258.303 13.8646 257.621 14.6222 257.138 15.5597C256.665 16.4877 256.428 17.4962 256.428 18.5852V21.071C256.428 22.5294 256.684 23.7699 257.195 24.7926C257.716 25.8153 258.441 26.5966 259.369 27.1364C260.297 27.6667 261.381 27.9318 262.621 27.9318C263.426 27.9318 264.16 27.8182 264.823 27.5909C265.486 27.3542 266.059 27.0038 266.542 26.5398C267.025 26.0758 267.394 25.5028 267.65 24.821L271.67 25.5455C271.348 26.7292 270.77 27.7661 269.937 28.6562C269.113 29.5369 268.076 30.2235 266.826 30.7159C265.585 31.1989 264.17 31.4403 262.579 31.4403ZM280.899 18.0455V31H276.652V9.18182H280.729V12.733H280.999C281.5 11.5777 282.286 10.6496 283.357 9.94886C284.436 9.24811 285.795 8.89773 287.433 8.89773C288.92 8.89773 290.222 9.21023 291.339 9.83523C292.457 10.4508 293.323 11.3693 293.939 12.5909C294.554 13.8125 294.862 15.3229 294.862 17.1222V31H290.615V17.6335C290.615 16.0521 290.203 14.8163 289.379 13.9261C288.555 13.0265 287.424 12.5767 285.984 12.5767C285 12.5767 284.124 12.7898 283.357 13.2159C282.599 13.642 281.998 14.267 281.553 15.0909C281.117 15.9053 280.899 16.8902 280.899 18.0455ZM309.749 31.4403C307.637 31.4403 305.819 30.9621 304.294 30.0057C302.779 29.0398 301.614 27.7093 300.8 26.0142C299.985 24.3191 299.578 22.3778 299.578 20.1903C299.578 17.9744 299.995 16.0189 300.828 14.3239C301.661 12.6193 302.836 11.2888 304.351 10.3324C305.866 9.37595 307.651 8.89773 309.706 8.89773C311.363 8.89773 312.84 9.20549 314.138 9.82102C315.435 10.4271 316.482 11.2794 317.277 12.3778C318.082 13.4763 318.56 14.7595 318.712 16.2273H314.578C314.351 15.2045 313.83 14.3239 313.016 13.5852C312.211 12.8466 311.131 12.4773 309.777 12.4773C308.593 12.4773 307.556 12.7898 306.666 13.4148C305.786 14.0303 305.099 14.911 304.607 16.0568C304.114 17.1932 303.868 18.5379 303.868 20.0909C303.868 21.6818 304.109 23.0549 304.592 24.2102C305.075 25.3655 305.757 26.2604 306.638 26.8949C307.528 27.5294 308.574 27.8466 309.777 27.8466C310.582 27.8466 311.311 27.6998 311.964 27.4062C312.627 27.1032 313.181 26.6723 313.626 26.1136C314.081 25.5549 314.398 24.8826 314.578 24.0966H318.712C318.56 25.5076 318.101 26.767 317.334 27.875C316.567 28.983 315.539 29.8542 314.251 30.4886C312.973 31.1231 311.472 31.4403 309.749 31.4403ZM332.657 31.4403C330.507 31.4403 328.656 30.9811 327.103 30.0625C325.559 29.1345 324.366 27.8324 323.523 26.1562C322.69 24.4706 322.273 22.4962 322.273 20.233C322.273 17.9981 322.69 16.0284 323.523 14.3239C324.366 12.6193 325.54 11.2888 327.046 10.3324C328.561 9.37595 330.332 8.89773 332.359 8.89773C333.59 8.89773 334.783 9.10133 335.938 9.50852C337.094 9.91572 338.13 10.5549 339.049 11.4261C339.968 12.2973 340.692 13.429 341.222 14.821C341.753 16.2036 342.018 17.8845 342.018 19.8636V21.3693H324.674V18.1875H337.856C337.856 17.0701 337.629 16.0805 337.174 15.2188C336.719 14.3475 336.08 13.661 335.256 13.1591C334.442 12.6572 333.486 12.4062 332.387 12.4062C331.194 12.4062 330.152 12.6998 329.262 13.2869C328.381 13.8646 327.7 14.6222 327.217 15.5597C326.743 16.4877 326.506 17.4962 326.506 18.5852V21.071C326.506 22.5294 326.762 23.7699 327.273 24.7926C327.794 25.8153 328.519 26.5966 329.447 27.1364C330.375 27.6667 331.459 27.9318 332.7 27.9318C333.504 27.9318 334.238 27.8182 334.901 27.5909C335.564 27.3542 336.137 27.0038 336.62 26.5398C337.103 26.0758 337.472 25.5028 337.728 24.821L341.748 25.5455C341.426 26.7292 340.848 27.7661 340.015 28.6562C339.191 29.5369 338.154 30.2235 336.904 30.7159C335.664 31.1989 334.248 31.4403 332.657 31.4403ZM346.73 31V9.18182H350.835V12.6477H351.062C351.46 11.4735 352.161 10.5502 353.165 9.87784C354.178 9.19602 355.324 8.85511 356.602 8.85511C356.867 8.85511 357.18 8.86458 357.54 8.88352C357.909 8.90246 358.198 8.92614 358.406 8.95455V13.017C358.236 12.9697 357.933 12.9176 357.497 12.8608C357.062 12.7945 356.626 12.7614 356.19 12.7614C355.187 12.7614 354.292 12.9744 353.506 13.4006C352.729 13.8172 352.114 14.3996 351.659 15.1477C351.205 15.8864 350.977 16.7292 350.977 17.6761V31H346.73Z" fill="black"/>
</svg>
