<svg width="519" height="135" viewBox="0 0 519 135" fill="none" xmlns="http://www.w3.org/2000/svg">
<path d="M0.931818 10V7.44318C0.931818 6.66667 1.06913 5.8428 1.34375 4.97159C1.62784 4.09091 2.03504 3.24337 2.56534 2.42898C3.10511 1.60511 3.75379 0.89015 4.51136 0.28409L6.32955 1.76136C5.73295 2.61364 5.21212 3.50379 4.76705 4.43182C4.33144 5.35038 4.11364 6.33523 4.11364 7.38636V10H0.931818ZM8.20455 10V7.44318C8.20455 6.66667 8.34186 5.8428 8.61648 4.97159C8.90057 4.09091 9.30777 3.24337 9.83807 2.42898C10.3778 1.60511 11.0265 0.89015 11.7841 0.28409L13.6023 1.76136C13.0057 2.61364 12.4848 3.50379 12.0398 4.43182C11.6042 5.35038 11.3864 6.33523 11.3864 7.38636V10H8.20455ZM17.7571 30V0.90909H35.2003V4.03409H21.2798V13.8636H33.8935V16.9886H21.2798V30H17.7571ZM40.7791 30V8.18182H44.1314V30H40.7791ZM42.4837 4.54545C41.8303 4.54545 41.2668 4.32292 40.7933 3.87784C40.3293 3.43277 40.0973 2.89773 40.0973 2.27273C40.0973 1.64773 40.3293 1.11269 40.7933 0.667613C41.2668 0.222538 41.8303 0 42.4837 0C43.1371 0 43.6958 0.222538 44.1598 0.667613C44.6333 1.11269 44.87 1.64773 44.87 2.27273C44.87 2.89773 44.6333 3.43277 44.1598 3.87784C43.6958 4.32292 43.1371 4.54545 42.4837 4.54545ZM53.6236 16.875V30H50.2713V8.18182H53.5099V11.5909H53.794C54.3054 10.483 55.0819 9.5928 56.1236 8.92045C57.1652 8.23864 58.5099 7.89773 60.1577 7.89773C61.6349 7.89773 62.9276 8.20076 64.0355 8.80682C65.1435 9.40341 66.0052 10.3125 66.6207 11.5341C67.2363 12.7462 67.544 14.2803 67.544 16.1364V30H64.1918V16.3636C64.1918 14.6496 63.7467 13.3144 62.8565 12.358C61.9664 11.392 60.7448 10.9091 59.1918 10.9091C58.1217 10.9091 57.1652 11.1411 56.3224 11.6051C55.4891 12.0691 54.831 12.7462 54.348 13.6364C53.8651 14.5265 53.6236 15.6061 53.6236 16.875ZM80.0902 30.5114C78.7076 30.5114 77.4529 30.2509 76.326 29.7301C75.1991 29.1998 74.3042 28.4375 73.6413 27.4432C72.9785 26.4394 72.647 25.2273 72.647 23.8068C72.647 22.5568 72.8932 21.5436 73.3857 20.767C73.8781 19.9811 74.5362 19.3655 75.3601 18.9205C76.1839 18.4754 77.093 18.1439 78.0874 17.9261C79.0911 17.6989 80.0997 17.5189 81.1129 17.3864C82.4387 17.2159 83.5135 17.0881 84.3374 17.0028C85.1707 16.9081 85.7768 16.7519 86.1555 16.5341C86.5438 16.3163 86.7379 15.9375 86.7379 15.3977V15.2841C86.7379 13.8826 86.3544 12.7936 85.5874 12.017C84.8298 11.2405 83.6792 10.8523 82.1357 10.8523C80.5353 10.8523 79.2805 11.2027 78.3714 11.9034C77.4624 12.6042 76.8232 13.3523 76.4538 14.1477L73.272 13.0114C73.8402 11.6856 74.5978 10.6534 75.5447 9.91477C76.5012 9.16667 77.5429 8.64583 78.6697 8.35227C79.8061 8.04924 80.9235 7.89773 82.022 7.89773C82.7228 7.89773 83.5277 7.98295 84.4368 8.15341C85.3554 8.31439 86.2408 8.65057 87.093 9.16193C87.9548 9.6733 88.6697 10.4451 89.2379 11.4773C89.8061 12.5095 90.0902 13.892 90.0902 15.625V30H86.7379V27.0455H86.5675C86.3402 27.5189 85.9614 28.0256 85.4311 28.5653C84.9008 29.1051 84.1953 29.5644 83.3146 29.9432C82.4339 30.322 81.3591 30.5114 80.0902 30.5114ZM80.6016 27.5C81.9273 27.5 83.0447 27.2396 83.9538 26.7188C84.8724 26.1979 85.5637 25.5256 86.0277 24.7017C86.5012 23.8778 86.7379 23.0114 86.7379 22.1023V19.0341C86.5959 19.2045 86.2834 19.3608 85.8004 19.5028C85.3269 19.6354 84.7777 19.7538 84.1527 19.858C83.5372 19.9527 82.9358 20.0379 82.3487 20.1136C81.7711 20.1799 81.3023 20.2367 80.9425 20.2841C80.0713 20.3977 79.2569 20.5824 78.4993 20.8381C77.7512 21.0843 77.1451 21.4583 76.6811 21.9602C76.2266 22.4527 75.9993 23.125 75.9993 23.9773C75.9993 25.142 76.4302 26.0227 77.2919 26.6193C78.1631 27.2064 79.2663 27.5 80.6016 27.5ZM99.5611 0.90909V30H96.2088V0.90909H99.5611ZM109.053 0.90909V30H105.701V0.90909H109.053ZM117.352 38.1818C116.784 38.1818 116.277 38.1345 115.832 38.0398C115.387 37.9545 115.08 37.8693 114.909 37.7841L115.761 34.8295C116.576 35.0379 117.295 35.1136 117.92 35.0568C118.545 35 119.099 34.7206 119.582 34.2188C120.075 33.7263 120.525 32.9261 120.932 31.8182L121.557 30.1136L113.489 8.18182H117.125L123.148 25.5682H123.375L129.398 8.18182H133.034L123.773 33.1818C123.356 34.3087 122.84 35.2415 122.224 35.9801C121.609 36.7282 120.894 37.2822 120.08 37.642C119.275 38.0019 118.366 38.1818 117.352 38.1818ZM155.129 30.5114C153.747 30.5114 152.492 30.2509 151.365 29.7301C150.238 29.1998 149.343 28.4375 148.68 27.4432C148.018 26.4394 147.686 25.2273 147.686 23.8068C147.686 22.5568 147.932 21.5436 148.425 20.767C148.917 19.9811 149.575 19.3655 150.399 18.9205C151.223 18.4754 152.132 18.1439 153.126 17.9261C154.13 17.6989 155.139 17.5189 156.152 17.3864C157.478 17.2159 158.553 17.0881 159.376 17.0028C160.21 16.9081 160.816 16.7519 161.195 16.5341C161.583 16.3163 161.777 15.9375 161.777 15.3977V15.2841C161.777 13.8826 161.393 12.7936 160.626 12.017C159.869 11.2405 158.718 10.8523 157.175 10.8523C155.574 10.8523 154.32 11.2027 153.411 11.9034C152.501 12.6042 151.862 13.3523 151.493 14.1477L148.311 13.0114C148.879 11.6856 149.637 10.6534 150.584 9.91477C151.54 9.16667 152.582 8.64583 153.709 8.35227C154.845 8.04924 155.963 7.89773 157.061 7.89773C157.762 7.89773 158.567 7.98295 159.476 8.15341C160.394 8.31439 161.28 8.65057 162.132 9.16193C162.994 9.6733 163.709 10.4451 164.277 11.4773C164.845 12.5095 165.129 13.892 165.129 15.625V30H161.777V27.0455H161.607C161.379 27.5189 161 28.0256 160.47 28.5653C159.94 29.1051 159.234 29.5644 158.354 29.9432C157.473 30.322 156.398 30.5114 155.129 30.5114ZM155.641 27.5C156.966 27.5 158.084 27.2396 158.993 26.7188C159.911 26.1979 160.603 25.5256 161.067 24.7017C161.54 23.8778 161.777 23.0114 161.777 22.1023V19.0341C161.635 19.2045 161.322 19.3608 160.839 19.5028C160.366 19.6354 159.817 19.7538 159.192 19.858C158.576 19.9527 157.975 20.0379 157.388 20.1136C156.81 20.1799 156.341 20.2367 155.982 20.2841C155.11 20.3977 154.296 20.5824 153.538 20.8381C152.79 21.0843 152.184 21.4583 151.72 21.9602C151.266 22.4527 151.038 23.125 151.038 23.9773C151.038 25.142 151.469 26.0227 152.331 26.6193C153.202 27.2064 154.305 27.5 155.641 27.5ZM174.6 16.875V30H171.248V8.18182H174.487V11.5909H174.771C175.282 10.483 176.058 9.5928 177.1 8.92045C178.142 8.23864 179.487 7.89773 181.134 7.89773C182.612 7.89773 183.904 8.20076 185.012 8.80682C186.12 9.40341 186.982 10.3125 187.597 11.5341C188.213 12.7462 188.521 14.2803 188.521 16.1364V30H185.168V16.3636C185.168 14.6496 184.723 13.3144 183.833 12.358C182.943 11.392 181.721 10.9091 180.168 10.9091C179.098 10.9091 178.142 11.1411 177.299 11.6051C176.466 12.0691 175.808 12.7462 175.325 13.6364C174.842 14.5265 174.6 15.6061 174.6 16.875ZM315.619 8.18182V11.0227H304.312V8.18182H315.619ZM307.608 2.95455H310.96V23.75C310.96 24.697 311.098 25.4072 311.372 25.8807C311.656 26.3447 312.016 26.6572 312.452 26.8182C312.897 26.9697 313.366 27.0455 313.858 27.0455C314.227 27.0455 314.53 27.0265 314.767 26.9886C315.004 26.9413 315.193 26.9034 315.335 26.875L316.017 29.8864C315.79 29.9716 315.473 30.0568 315.065 30.142C314.658 30.2367 314.142 30.2841 313.517 30.2841C312.57 30.2841 311.642 30.0805 310.733 29.6733C309.833 29.2661 309.085 28.6458 308.489 27.8125C307.902 26.9792 307.608 25.928 307.608 24.6591V2.95455ZM329.291 30.4545C327.321 30.4545 325.593 29.9858 324.107 29.0483C322.629 28.1108 321.474 26.7992 320.641 25.1136C319.817 23.428 319.405 21.4583 319.405 19.2045C319.405 16.9318 319.817 14.9479 320.641 13.2528C321.474 11.5578 322.629 10.2415 324.107 9.30398C325.593 8.36648 327.321 7.89773 329.291 7.89773C331.261 7.89773 332.984 8.36648 334.462 9.30398C335.948 10.2415 337.104 11.5578 337.928 13.2528C338.761 14.9479 339.178 16.9318 339.178 19.2045C339.178 21.4583 338.761 23.428 337.928 25.1136C337.104 26.7992 335.948 28.1108 334.462 29.0483C332.984 29.9858 331.261 30.4545 329.291 30.4545ZM329.291 27.4432C330.787 27.4432 332.018 27.0597 332.984 26.2926C333.95 25.5256 334.665 24.517 335.129 23.267C335.593 22.017 335.825 20.6629 335.825 19.2045C335.825 17.7462 335.593 16.3873 335.129 15.1278C334.665 13.8684 333.95 12.8504 332.984 12.0739C332.018 11.2973 330.787 10.9091 329.291 10.9091C327.795 10.9091 326.564 11.2973 325.598 12.0739C324.632 12.8504 323.917 13.8684 323.453 15.1278C322.989 16.3873 322.757 17.7462 322.757 19.2045C322.757 20.6629 322.989 22.017 323.453 23.267C323.917 24.517 324.632 25.5256 325.598 26.2926C326.564 27.0597 327.795 27.4432 329.291 27.4432ZM369.295 21.0795V8.18182H372.647V30H369.295V26.3068H369.067C368.556 27.4148 367.761 28.357 366.681 29.1335C365.602 29.9006 364.238 30.2841 362.59 30.2841C361.227 30.2841 360.014 29.9858 358.954 29.3892C357.893 28.7831 357.06 27.8741 356.454 26.6619C355.848 25.4403 355.545 23.9015 355.545 22.0455V8.18182H358.897V21.8182C358.897 23.4091 359.342 24.678 360.232 25.625C361.132 26.572 362.278 27.0455 363.67 27.0455C364.503 27.0455 365.351 26.8324 366.212 26.4062C367.084 25.9801 367.813 25.3267 368.4 24.446C368.996 23.5653 369.295 22.4432 369.295 21.0795ZM394.241 13.0682L391.23 13.9205C391.041 13.4186 390.761 12.9309 390.392 12.4574C390.032 11.9744 389.54 11.5767 388.915 11.2642C388.29 10.9517 387.49 10.7955 386.514 10.7955C385.179 10.7955 384.066 11.1032 383.176 11.7188C382.295 12.3248 381.855 13.0966 381.855 14.0341C381.855 14.8674 382.158 15.5256 382.764 16.0085C383.37 16.4915 384.317 16.8939 385.605 17.2159L388.844 18.0114C390.795 18.4848 392.248 19.2093 393.205 20.1847C394.161 21.1506 394.639 22.3958 394.639 23.9205C394.639 25.1705 394.279 26.2879 393.56 27.2727C392.849 28.2576 391.855 29.0341 390.577 29.6023C389.298 30.1705 387.812 30.4545 386.116 30.4545C383.891 30.4545 382.049 29.9716 380.591 29.0057C379.133 28.0398 378.209 26.6288 377.821 24.7727L381.003 23.9773C381.306 25.1515 381.879 26.0322 382.722 26.6193C383.574 27.2064 384.687 27.5 386.06 27.5C387.622 27.5 388.863 27.1686 389.781 26.5057C390.709 25.8333 391.173 25.0284 391.173 24.0909C391.173 23.3333 390.908 22.6989 390.378 22.1875C389.848 21.6667 389.033 21.2784 387.935 21.0227L384.298 20.1705C382.3 19.697 380.832 18.9631 379.895 17.9688C378.967 16.965 378.503 15.7102 378.503 14.2045C378.503 12.9735 378.848 11.8845 379.54 10.9375C380.241 9.99053 381.192 9.24716 382.395 8.70739C383.607 8.16761 384.98 7.89773 386.514 7.89773C388.673 7.89773 390.368 8.37121 391.599 9.31818C392.84 10.2652 393.721 11.5152 394.241 13.0682ZM408.833 30.4545C406.731 30.4545 404.917 29.9905 403.393 29.0625C401.878 28.125 400.708 26.8182 399.884 25.142C399.07 23.4564 398.663 21.4962 398.663 19.2614C398.663 17.0265 399.07 15.0568 399.884 13.3523C400.708 11.6383 401.854 10.303 403.322 9.34659C404.799 8.38068 406.522 7.89773 408.492 7.89773C409.629 7.89773 410.751 8.08712 411.859 8.46591C412.967 8.8447 413.975 9.46023 414.884 10.3125C415.793 11.1553 416.518 12.2727 417.058 13.6648C417.597 15.0568 417.867 16.7708 417.867 18.8068V20.2273H401.049V17.3295H414.458C414.458 16.0985 414.212 15 413.719 14.0341C413.237 13.0682 412.545 12.3059 411.646 11.7472C410.755 11.1884 409.704 10.9091 408.492 10.9091C407.157 10.9091 406.002 11.2405 405.026 11.9034C404.06 12.5568 403.317 13.4091 402.796 14.4602C402.275 15.5114 402.015 16.6383 402.015 17.8409V19.7727C402.015 21.4205 402.299 22.8172 402.867 23.9631C403.445 25.0994 404.245 25.9659 405.268 26.5625C406.29 27.1496 407.479 27.4432 408.833 27.4432C409.714 27.4432 410.509 27.3201 411.219 27.0739C411.939 26.8182 412.559 26.4394 413.08 25.9375C413.601 25.4261 414.004 24.7917 414.288 24.0341L417.526 24.9432C417.185 26.0417 416.612 27.0076 415.808 27.8409C415.003 28.6648 414.008 29.3087 412.825 29.7727C411.641 30.2273 410.31 30.4545 408.833 30.4545ZM440.637 30.5114C439.254 30.5114 438 30.2509 436.873 29.7301C435.746 29.1998 434.851 28.4375 434.188 27.4432C433.525 26.4394 433.194 25.2273 433.194 23.8068C433.194 22.5568 433.44 21.5436 433.933 20.767C434.425 19.9811 435.083 19.3655 435.907 18.9205C436.731 18.4754 437.64 18.1439 438.634 17.9261C439.638 17.6989 440.647 17.5189 441.66 17.3864C442.986 17.2159 444.06 17.0881 444.884 17.0028C445.718 16.9081 446.324 16.7519 446.702 16.5341C447.091 16.3163 447.285 15.9375 447.285 15.3977V15.2841C447.285 13.8826 446.901 12.7936 446.134 12.017C445.377 11.2405 444.226 10.8523 442.683 10.8523C441.082 10.8523 439.827 11.2027 438.918 11.9034C438.009 12.6042 437.37 13.3523 437.001 14.1477L433.819 13.0114C434.387 11.6856 435.145 10.6534 436.092 9.91477C437.048 9.16667 438.09 8.64583 439.217 8.35227C440.353 8.04924 441.47 7.89773 442.569 7.89773C443.27 7.89773 444.075 7.98295 444.984 8.15341C445.902 8.31439 446.788 8.65057 447.64 9.16193C448.502 9.6733 449.217 10.4451 449.785 11.4773C450.353 12.5095 450.637 13.892 450.637 15.625V30H447.285V27.0455H447.114C446.887 27.5189 446.508 28.0256 445.978 28.5653C445.448 29.1051 444.742 29.5644 443.862 29.9432C442.981 30.322 441.906 30.5114 440.637 30.5114ZM441.148 27.5C442.474 27.5 443.592 27.2396 444.501 26.7188C445.419 26.1979 446.111 25.5256 446.575 24.7017C447.048 23.8778 447.285 23.0114 447.285 22.1023V19.0341C447.143 19.2045 446.83 19.3608 446.347 19.5028C445.874 19.6354 445.325 19.7538 444.7 19.858C444.084 19.9527 443.483 20.0379 442.896 20.1136C442.318 20.1799 441.849 20.2367 441.489 20.2841C440.618 20.3977 439.804 20.5824 439.046 20.8381C438.298 21.0843 437.692 21.4583 437.228 21.9602C436.773 22.4527 436.546 23.125 436.546 23.9773C436.546 25.142 436.977 26.0227 437.839 26.6193C438.71 27.2064 439.813 27.5 441.148 27.5ZM460.108 16.875V30H456.756V8.18182H459.994V11.5909H460.278C460.79 10.483 461.566 9.5928 462.608 8.92045C463.65 8.23864 464.994 7.89773 466.642 7.89773C468.119 7.89773 469.412 8.20076 470.52 8.80682C471.628 9.40341 472.49 10.3125 473.105 11.5341C473.721 12.7462 474.028 14.2803 474.028 16.1364V30H470.676V16.3636C470.676 14.6496 470.231 13.3144 469.341 12.358C468.451 11.392 467.229 10.9091 465.676 10.9091C464.606 10.9091 463.65 11.1411 462.807 11.6051C461.973 12.0691 461.315 12.7462 460.832 13.6364C460.349 14.5265 460.108 15.6061 460.108 16.875ZM488.393 30.4545C486.575 30.4545 484.969 29.9953 483.577 29.0767C482.185 28.1487 481.096 26.8419 480.31 25.1562C479.524 23.4612 479.131 21.4583 479.131 19.1477C479.131 16.8561 479.524 14.8674 480.31 13.1818C481.096 11.4962 482.19 10.1941 483.592 9.27557C484.993 8.35701 486.612 7.89773 488.45 7.89773C489.87 7.89773 490.992 8.13447 491.816 8.60795C492.649 9.07197 493.284 9.60227 493.719 10.1989C494.165 10.786 494.51 11.2689 494.756 11.6477H495.04V0.90909H498.393V30H495.154V26.6477H494.756C494.51 27.0455 494.16 27.5473 493.705 28.1534C493.251 28.75 492.602 29.285 491.759 29.7585C490.916 30.2225 489.794 30.4545 488.393 30.4545ZM488.847 27.4432C490.192 27.4432 491.328 27.0928 492.256 26.392C493.184 25.6818 493.89 24.7017 494.373 23.4517C494.856 22.1922 495.097 20.7386 495.097 19.0909C495.097 17.4621 494.861 16.0369 494.387 14.8153C493.914 13.5843 493.213 12.6278 492.285 11.946C491.357 11.2547 490.211 10.9091 488.847 10.9091C487.427 10.9091 486.243 11.2737 485.296 12.0028C484.359 12.7225 483.653 13.7027 483.18 14.9432C482.716 16.1742 482.484 17.5568 482.484 19.0909C482.484 20.6439 482.72 22.0549 483.194 23.3239C483.677 24.5833 484.387 25.5871 485.325 26.3352C486.272 27.0739 487.446 27.4432 488.847 27.4432ZM2.06818 78V56.1818H5.42045V78H2.06818ZM3.77273 52.5455C3.11932 52.5455 2.55587 52.3229 2.08239 51.8778C1.61837 51.4328 1.38636 50.8977 1.38636 50.2727C1.38636 49.6477 1.61837 49.1127 2.08239 48.6676C2.55587 48.2225 3.11932 48 3.77273 48C4.42614 48 4.98485 48.2225 5.44886 48.6676C5.92235 49.1127 6.15909 49.6477 6.15909 50.2727C6.15909 50.8977 5.92235 51.4328 5.44886 51.8778C4.98485 52.3229 4.42614 52.5455 3.77273 52.5455ZM14.9126 64.875V78H11.5604V56.1818H14.799V59.5909H15.0831C15.5945 58.483 16.371 57.5928 17.4126 56.9205C18.4543 56.2386 19.799 55.8977 21.4467 55.8977C22.924 55.8977 24.2166 56.2008 25.3246 56.8068C26.4325 57.4034 27.2943 58.3125 27.9098 59.5341C28.5253 60.7462 28.8331 62.2803 28.8331 64.1364V78H25.4808V64.3636C25.4808 62.6496 25.0357 61.3144 24.1456 60.358C23.2554 59.392 22.0339 58.9091 20.4808 58.9091C19.4107 58.9091 18.4543 59.1411 17.6115 59.6051C16.7782 60.0691 16.12 60.7462 15.6371 61.6364C15.1541 62.5265 14.9126 63.6061 14.9126 64.875ZM44.4474 56.1818V59.0227H33.1406V56.1818H44.4474ZM36.4361 50.9545H39.7884V71.75C39.7884 72.697 39.9257 73.4072 40.2003 73.8807C40.4844 74.3447 40.8442 74.6572 41.2798 74.8182C41.7249 74.9697 42.1937 75.0455 42.6861 75.0455C43.0554 75.0455 43.3584 75.0265 43.5952 74.9886C43.8319 74.9413 44.0213 74.9034 44.1634 74.875L44.8452 77.8864C44.6179 77.9716 44.3007 78.0568 43.8935 78.142C43.4863 78.2367 42.9702 78.2841 42.3452 78.2841C41.3982 78.2841 40.4702 78.0805 39.5611 77.6733C38.6615 77.2661 37.9134 76.6458 37.3168 75.8125C36.7296 74.9792 36.4361 73.928 36.4361 72.6591V50.9545ZM63.2401 69.0795V56.1818H66.5923V78H63.2401V74.3068H63.0128C62.5014 75.4148 61.706 76.357 60.6264 77.1335C59.5469 77.9006 58.1832 78.2841 56.5355 78.2841C55.1719 78.2841 53.9598 77.9858 52.8991 77.3892C51.8385 76.7831 51.0052 75.8741 50.3991 74.6619C49.7931 73.4403 49.4901 71.9015 49.4901 70.0455V56.1818H52.8423V69.8182C52.8423 71.4091 53.2874 72.678 54.1776 73.625C55.0772 74.572 56.223 75.0455 57.6151 75.0455C58.4484 75.0455 59.2959 74.8324 60.1577 74.4062C61.0289 73.9801 61.758 73.3267 62.3452 72.446C62.9418 71.5653 63.2401 70.4432 63.2401 69.0795ZM72.7322 78V56.1818H76.0845V78H72.7322ZM74.4368 52.5455C73.7834 52.5455 73.2199 52.3229 72.7464 51.8778C72.2824 51.4328 72.0504 50.8977 72.0504 50.2727C72.0504 49.6477 72.2824 49.1127 72.7464 48.6676C73.2199 48.2225 73.7834 48 74.4368 48C75.0902 48 75.6489 48.2225 76.1129 48.6676C76.5864 49.1127 76.8232 49.6477 76.8232 50.2727C76.8232 50.8977 76.5864 51.4328 76.1129 51.8778C75.6489 52.3229 75.0902 52.5455 74.4368 52.5455ZM91.7131 56.1818V59.0227H80.4062V56.1818H91.7131ZM83.7017 50.9545H87.054V71.75C87.054 72.697 87.1913 73.4072 87.4659 73.8807C87.75 74.3447 88.1098 74.6572 88.5455 74.8182C88.9905 74.9697 89.4593 75.0455 89.9517 75.0455C90.321 75.0455 90.6241 75.0265 90.8608 74.9886C91.0975 74.9413 91.2869 74.9034 91.429 74.875L92.1108 77.8864C91.8835 77.9716 91.5663 78.0568 91.1591 78.142C90.7519 78.2367 90.2358 78.2841 89.6108 78.2841C88.6638 78.2841 87.7358 78.0805 86.8267 77.6733C85.9271 77.2661 85.179 76.6458 84.5824 75.8125C83.9953 74.9792 83.7017 73.928 83.7017 72.6591V50.9545ZM96.7557 78V56.1818H100.108V78H96.7557ZM98.4602 52.5455C97.8068 52.5455 97.2434 52.3229 96.7699 51.8778C96.3059 51.4328 96.0739 50.8977 96.0739 50.2727C96.0739 49.6477 96.3059 49.1127 96.7699 48.6676C97.2434 48.2225 97.8068 48 98.4602 48C99.1136 48 99.6723 48.2225 100.136 48.6676C100.61 49.1127 100.847 49.6477 100.847 50.2727C100.847 50.8977 100.61 51.4328 100.136 51.8778C99.6723 52.3229 99.1136 52.5455 98.4602 52.5455ZM124.089 56.1818L116.021 78H112.612L104.543 56.1818H108.18L114.202 73.5682H114.43L120.452 56.1818H124.089ZM136.88 78.4545C134.778 78.4545 132.964 77.9905 131.44 77.0625C129.924 76.125 128.755 74.8182 127.931 73.142C127.117 71.4564 126.71 69.4962 126.71 67.2614C126.71 65.0265 127.117 63.0568 127.931 61.3523C128.755 59.6383 129.901 58.303 131.369 57.3466C132.846 56.3807 134.569 55.8977 136.539 55.8977C137.675 55.8977 138.798 56.0871 139.906 56.4659C141.013 56.8447 142.022 57.4602 142.931 58.3125C143.84 59.1553 144.565 60.2727 145.104 61.6648C145.644 63.0568 145.914 64.7708 145.914 66.8068V68.2273H129.096V65.3295H142.505C142.505 64.0985 142.259 63 141.766 62.0341C141.283 61.0682 140.592 60.3059 139.692 59.7472C138.802 59.1884 137.751 58.9091 136.539 58.9091C135.204 58.9091 134.049 59.2405 133.073 59.9034C132.107 60.5568 131.364 61.4091 130.843 62.4602C130.322 63.5114 130.062 64.6383 130.062 65.8409V67.7727C130.062 69.4205 130.346 70.8172 130.914 71.9631C131.492 73.0994 132.292 73.9659 133.315 74.5625C134.337 75.1496 135.526 75.4432 136.88 75.4432C137.761 75.4432 138.556 75.3201 139.266 75.0739C139.986 74.8182 140.606 74.4394 141.127 73.9375C141.648 73.4261 142.05 72.7917 142.335 72.0341L145.573 72.9432C145.232 74.0417 144.659 75.0076 143.854 75.8409C143.049 76.6648 142.055 77.3087 140.871 77.7727C139.688 78.2273 138.357 78.4545 136.88 78.4545ZM180.104 56.1818L172.036 78H168.627L160.559 56.1818H164.195L170.218 73.5682H170.445L176.468 56.1818H180.104ZM184.529 78V56.1818H187.881V78H184.529ZM186.234 52.5455C185.58 52.5455 185.017 52.3229 184.543 51.8778C184.079 51.4328 183.847 50.8977 183.847 50.2727C183.847 49.6477 184.079 49.1127 184.543 48.6676C185.017 48.2225 185.58 48 186.234 48C186.887 48 187.446 48.2225 187.91 48.6676C188.383 49.1127 188.62 49.6477 188.62 50.2727C188.62 50.8977 188.383 51.4328 187.91 51.8778C187.446 52.3229 186.887 52.5455 186.234 52.5455ZM202.26 78.4545C200.442 78.4545 198.837 77.9953 197.445 77.0767C196.053 76.1487 194.964 74.8419 194.178 73.1562C193.392 71.4612 192.999 69.4583 192.999 67.1477C192.999 64.8561 193.392 62.8674 194.178 61.1818C194.964 59.4962 196.057 58.1941 197.459 57.2756C198.86 56.357 200.48 55.8977 202.317 55.8977C203.737 55.8977 204.859 56.1345 205.683 56.608C206.517 57.072 207.151 57.6023 207.587 58.1989C208.032 58.786 208.377 59.2689 208.624 59.6477H208.908V48.9091H212.26V78H209.021V74.6477H208.624C208.377 75.0455 208.027 75.5473 207.572 76.1534C207.118 76.75 206.469 77.285 205.626 77.7585C204.784 78.2225 203.661 78.4545 202.26 78.4545ZM202.714 75.4432C204.059 75.4432 205.196 75.0928 206.124 74.392C207.052 73.6818 207.757 72.7017 208.24 71.4517C208.723 70.1922 208.964 68.7386 208.964 67.0909C208.964 65.4621 208.728 64.0369 208.254 62.8153C207.781 61.5843 207.08 60.6278 206.152 59.946C205.224 59.2547 204.078 58.9091 202.714 58.9091C201.294 58.9091 200.11 59.2737 199.163 60.0028C198.226 60.7225 197.52 61.7027 197.047 62.9432C196.583 64.1742 196.351 65.5568 196.351 67.0909C196.351 68.6439 196.588 70.0549 197.061 71.3239C197.544 72.5833 198.254 73.5871 199.192 74.3352C200.139 75.0739 201.313 75.4432 202.714 75.4432ZM228.013 78.4545C225.911 78.4545 224.097 77.9905 222.572 77.0625C221.057 76.125 219.888 74.8182 219.064 73.142C218.25 71.4564 217.842 69.4962 217.842 67.2614C217.842 65.0265 218.25 63.0568 219.064 61.3523C219.888 59.6383 221.034 58.303 222.501 57.3466C223.979 56.3807 225.702 55.8977 227.672 55.8977C228.808 55.8977 229.93 56.0871 231.038 56.4659C232.146 56.8447 233.155 57.4602 234.064 58.3125C234.973 59.1553 235.697 60.2727 236.237 61.6648C236.777 63.0568 237.047 64.7708 237.047 66.8068V68.2273H220.229V65.3295H233.638C233.638 64.0985 233.392 63 232.899 62.0341C232.416 61.0682 231.725 60.3059 230.825 59.7472C229.935 59.1884 228.884 58.9091 227.672 58.9091C226.337 58.9091 225.181 59.2405 224.206 59.9034C223.24 60.5568 222.497 61.4091 221.976 62.4602C221.455 63.5114 221.195 64.6383 221.195 65.8409V67.7727C221.195 69.4205 221.479 70.8172 222.047 71.9631C222.625 73.0994 223.425 73.9659 224.447 74.5625C225.47 75.1496 226.659 75.4432 228.013 75.4432C228.893 75.4432 229.689 75.3201 230.399 75.0739C231.119 74.8182 231.739 74.4394 232.26 73.9375C232.781 73.4261 233.183 72.7917 233.467 72.0341L236.706 72.9432C236.365 74.0417 235.792 75.0076 234.987 75.8409C234.182 76.6648 233.188 77.3087 232.004 77.7727C230.821 78.2273 229.49 78.4545 228.013 78.4545ZM251.01 78.4545C249.04 78.4545 247.312 77.9858 245.825 77.0483C244.348 76.1108 243.193 74.7992 242.359 73.1136C241.536 71.428 241.124 69.4583 241.124 67.2045C241.124 64.9318 241.536 62.9479 242.359 61.2528C243.193 59.5578 244.348 58.2415 245.825 57.304C247.312 56.3665 249.04 55.8977 251.01 55.8977C252.98 55.8977 254.703 56.3665 256.18 57.304C257.667 58.2415 258.822 59.5578 259.646 61.2528C260.48 62.9479 260.896 64.9318 260.896 67.2045C260.896 69.4583 260.48 71.428 259.646 73.1136C258.822 74.7992 257.667 76.1108 256.18 77.0483C254.703 77.9858 252.98 78.4545 251.01 78.4545ZM251.01 75.4432C252.506 75.4432 253.737 75.0597 254.703 74.2926C255.669 73.5256 256.384 72.517 256.848 71.267C257.312 70.017 257.544 68.6629 257.544 67.2045C257.544 65.7462 257.312 64.3873 256.848 63.1278C256.384 61.8684 255.669 60.8504 254.703 60.0739C253.737 59.2973 252.506 58.9091 251.01 58.9091C249.514 58.9091 248.283 59.2973 247.317 60.0739C246.351 60.8504 245.636 61.8684 245.172 63.1278C244.708 64.3873 244.476 65.7462 244.476 67.2045C244.476 68.6629 244.708 70.017 245.172 71.267C245.636 72.517 246.351 73.5256 247.317 74.2926C248.283 75.0597 249.514 75.4432 251.01 75.4432ZM286.127 78.4545C284.082 78.4545 282.32 77.9716 280.843 77.0057C279.366 76.0398 278.229 74.7093 277.434 73.0142C276.638 71.3191 276.241 69.3826 276.241 67.2045C276.241 64.9886 276.648 63.0331 277.462 61.3381C278.286 59.6335 279.432 58.303 280.9 57.3466C282.377 56.3807 284.101 55.8977 286.07 55.8977C287.604 55.8977 288.987 56.1818 290.218 56.75C291.449 57.3182 292.458 58.1136 293.244 59.1364C294.03 60.1591 294.517 61.3523 294.707 62.7159H291.354C291.099 61.7216 290.531 60.8409 289.65 60.0739C288.779 59.2973 287.604 58.9091 286.127 58.9091C284.82 58.9091 283.674 59.25 282.69 59.9318C281.714 60.6042 280.952 61.5559 280.403 62.7869C279.863 64.0085 279.593 65.4432 279.593 67.0909C279.593 68.7765 279.858 70.2443 280.388 71.4943C280.928 72.7443 281.686 73.715 282.661 74.4062C283.646 75.0975 284.801 75.4432 286.127 75.4432C286.998 75.4432 287.789 75.2917 288.499 74.9886C289.21 74.6856 289.811 74.25 290.303 73.6818C290.796 73.1136 291.146 72.4318 291.354 71.6364H294.707C294.517 72.9242 294.049 74.0843 293.3 75.1165C292.562 76.1392 291.582 76.9536 290.36 77.5597C289.148 78.1562 287.737 78.4545 286.127 78.4545ZM308.471 78.4545C306.501 78.4545 304.773 77.9858 303.286 77.0483C301.809 76.1108 300.654 74.7992 299.82 73.1136C298.996 71.428 298.585 69.4583 298.585 67.2045C298.585 64.9318 298.996 62.9479 299.82 61.2528C300.654 59.5578 301.809 58.2415 303.286 57.304C304.773 56.3665 306.501 55.8977 308.471 55.8977C310.441 55.8977 312.164 56.3665 313.641 57.304C315.128 58.2415 316.283 59.5578 317.107 61.2528C317.941 62.9479 318.357 64.9318 318.357 67.2045C318.357 69.4583 317.941 71.428 317.107 73.1136C316.283 74.7992 315.128 76.1108 313.641 77.0483C312.164 77.9858 310.441 78.4545 308.471 78.4545ZM308.471 75.4432C309.967 75.4432 311.198 75.0597 312.164 74.2926C313.13 73.5256 313.845 72.517 314.309 71.267C314.773 70.017 315.005 68.6629 315.005 67.2045C315.005 65.7462 314.773 64.3873 314.309 63.1278C313.845 61.8684 313.13 60.8504 312.164 60.0739C311.198 59.2973 309.967 58.9091 308.471 58.9091C306.975 58.9091 305.744 59.2973 304.778 60.0739C303.812 60.8504 303.097 61.8684 302.633 63.1278C302.169 64.3873 301.937 65.7462 301.937 67.2045C301.937 68.6629 302.169 70.017 302.633 71.267C303.097 72.517 303.812 73.5256 304.778 74.2926C305.744 75.0597 306.975 75.4432 308.471 75.4432ZM326.827 64.875V78H323.474V56.1818H326.713V59.5909H326.997C327.509 58.483 328.285 57.5928 329.327 56.9205C330.368 56.2386 331.713 55.8977 333.361 55.8977C334.838 55.8977 336.131 56.2008 337.239 56.8068C338.347 57.4034 339.208 58.3125 339.824 59.5341C340.439 60.7462 340.747 62.2803 340.747 64.1364V78H337.395V64.3636C337.395 62.6496 336.95 61.3144 336.06 60.358C335.17 59.392 333.948 58.9091 332.395 58.9091C331.325 58.9091 330.368 59.1411 329.526 59.6051C328.692 60.0691 328.034 60.7462 327.551 61.6364C327.068 62.5265 326.827 63.6061 326.827 64.875ZM356.589 56.1818V59.0227H344.827V56.1818H356.589ZM348.35 78V53.1705C348.35 51.9205 348.644 50.8788 349.231 50.0455C349.818 49.2121 350.58 48.5871 351.518 48.1705C352.455 47.7538 353.445 47.5455 354.487 47.5455C355.31 47.5455 355.983 47.6117 356.504 47.7443C357.024 47.8769 357.413 48 357.668 48.1136L356.702 51.0114C356.532 50.9545 356.295 50.8835 355.992 50.7983C355.699 50.7131 355.31 50.6705 354.827 50.6705C353.719 50.6705 352.919 50.9498 352.427 51.5085C351.944 52.0672 351.702 52.8864 351.702 53.9659V78H348.35ZM369.536 78.4545C367.434 78.4545 365.621 77.9905 364.096 77.0625C362.581 76.125 361.411 74.8182 360.587 73.142C359.773 71.4564 359.366 69.4962 359.366 67.2614C359.366 65.0265 359.773 63.0568 360.587 61.3523C361.411 59.6383 362.557 58.303 364.025 57.3466C365.502 56.3807 367.226 55.8977 369.195 55.8977C370.332 55.8977 371.454 56.0871 372.562 56.4659C373.67 56.8447 374.678 57.4602 375.587 58.3125C376.496 59.1553 377.221 60.2727 377.761 61.6648C378.3 63.0568 378.57 64.7708 378.57 66.8068V68.2273H361.752V65.3295H375.161C375.161 64.0985 374.915 63 374.423 62.0341C373.94 61.0682 373.248 60.3059 372.349 59.7472C371.459 59.1884 370.407 58.9091 369.195 58.9091C367.86 58.9091 366.705 59.2405 365.729 59.9034C364.763 60.5568 364.02 61.4091 363.499 62.4602C362.978 63.5114 362.718 64.6383 362.718 65.8409V67.7727C362.718 69.4205 363.002 70.8172 363.57 71.9631C364.148 73.0994 364.948 73.9659 365.971 74.5625C366.994 75.1496 368.182 75.4432 369.536 75.4432C370.417 75.4432 371.212 75.3201 371.923 75.0739C372.642 74.8182 373.263 74.4394 373.783 73.9375C374.304 73.4261 374.707 72.7917 374.991 72.0341L378.229 72.9432C377.888 74.0417 377.316 75.0076 376.511 75.8409C375.706 76.6648 374.711 77.3087 373.528 77.7727C372.344 78.2273 371.013 78.4545 369.536 78.4545ZM383.67 78V56.1818H386.908V59.4773H387.136C387.533 58.3977 388.253 57.5218 389.295 56.8494C390.336 56.1771 391.511 55.8409 392.817 55.8409C393.064 55.8409 393.371 55.8456 393.741 55.8551C394.11 55.8646 394.389 55.8788 394.579 55.8977V59.3068C394.465 59.2784 394.205 59.2358 393.798 59.179C393.4 59.1127 392.978 59.0795 392.533 59.0795C391.473 59.0795 390.526 59.3021 389.692 59.7472C388.869 60.1828 388.215 60.7888 387.732 61.5653C387.259 62.3324 387.022 63.2083 387.022 64.1932V78H383.67ZM407.036 78.4545C404.934 78.4545 403.121 77.9905 401.596 77.0625C400.081 76.125 398.911 74.8182 398.087 73.142C397.273 71.4564 396.866 69.4962 396.866 67.2614C396.866 65.0265 397.273 63.0568 398.087 61.3523C398.911 59.6383 400.057 58.303 401.525 57.3466C403.002 56.3807 404.726 55.8977 406.695 55.8977C407.832 55.8977 408.954 56.0871 410.062 56.4659C411.17 56.8447 412.178 57.4602 413.087 58.3125C413.996 59.1553 414.721 60.2727 415.261 61.6648C415.8 63.0568 416.07 64.7708 416.07 66.8068V68.2273H399.252V65.3295H412.661C412.661 64.0985 412.415 63 411.923 62.0341C411.44 61.0682 410.748 60.3059 409.849 59.7472C408.959 59.1884 407.907 58.9091 406.695 58.9091C405.36 58.9091 404.205 59.2405 403.229 59.9034C402.263 60.5568 401.52 61.4091 400.999 62.4602C400.478 63.5114 400.218 64.6383 400.218 65.8409V67.7727C400.218 69.4205 400.502 70.8172 401.07 71.9631C401.648 73.0994 402.448 73.9659 403.471 74.5625C404.494 75.1496 405.682 75.4432 407.036 75.4432C407.917 75.4432 408.712 75.3201 409.423 75.0739C410.142 74.8182 410.763 74.4394 411.283 73.9375C411.804 73.4261 412.207 72.7917 412.491 72.0341L415.729 72.9432C415.388 74.0417 414.816 75.0076 414.011 75.8409C413.206 76.6648 412.211 77.3087 411.028 77.7727C409.844 78.2273 408.513 78.4545 407.036 78.4545ZM424.522 64.875V78H421.17V56.1818H424.408V59.5909H424.692C425.204 58.483 425.98 57.5928 427.022 56.9205C428.064 56.2386 429.408 55.8977 431.056 55.8977C432.533 55.8977 433.826 56.2008 434.934 56.8068C436.042 57.4034 436.904 58.3125 437.519 59.5341C438.135 60.7462 438.442 62.2803 438.442 64.1364V78H435.09V64.3636C435.09 62.6496 434.645 61.3144 433.755 60.358C432.865 59.392 431.643 58.9091 430.09 58.9091C429.02 58.9091 428.064 59.1411 427.221 59.6051C426.388 60.0691 425.729 60.7462 425.246 61.6364C424.763 62.5265 424.522 63.6061 424.522 64.875ZM453.432 78.4545C451.386 78.4545 449.625 77.9716 448.148 77.0057C446.67 76.0398 445.534 74.7093 444.739 73.0142C443.943 71.3191 443.545 69.3826 443.545 67.2045C443.545 64.9886 443.953 63.0331 444.767 61.3381C445.591 59.6335 446.737 58.303 448.205 57.3466C449.682 56.3807 451.405 55.8977 453.375 55.8977C454.909 55.8977 456.292 56.1818 457.523 56.75C458.754 57.3182 459.762 58.1136 460.548 59.1364C461.334 60.1591 461.822 61.3523 462.011 62.7159H458.659C458.403 61.7216 457.835 60.8409 456.955 60.0739C456.083 59.2973 454.909 58.9091 453.432 58.9091C452.125 58.9091 450.979 59.25 449.994 59.9318C449.019 60.6042 448.257 61.5559 447.707 62.7869C447.168 64.0085 446.898 65.4432 446.898 67.0909C446.898 68.7765 447.163 70.2443 447.693 71.4943C448.233 72.7443 448.991 73.715 449.966 74.4062C450.951 75.0975 452.106 75.4432 453.432 75.4432C454.303 75.4432 455.094 75.2917 455.804 74.9886C456.514 74.6856 457.116 74.25 457.608 73.6818C458.1 73.1136 458.451 72.4318 458.659 71.6364H462.011C461.822 72.9242 461.353 74.0843 460.605 75.1165C459.866 76.1392 458.886 76.9536 457.665 77.5597C456.453 78.1562 455.042 78.4545 453.432 78.4545ZM466.912 78V56.1818H470.264V78H466.912ZM468.616 52.5455C467.963 52.5455 467.4 52.3229 466.926 51.8778C466.462 51.4328 466.23 50.8977 466.23 50.2727C466.23 49.6477 466.462 49.1127 466.926 48.6676C467.4 48.2225 467.963 48 468.616 48C469.27 48 469.829 48.2225 470.293 48.6676C470.766 49.1127 471.003 49.6477 471.003 50.2727C471.003 50.8977 470.766 51.4328 470.293 51.8778C469.829 52.3229 469.27 52.5455 468.616 52.5455ZM479.756 64.875V78H476.404V56.1818H479.643V59.5909H479.927C480.438 58.483 481.215 57.5928 482.256 56.9205C483.298 56.2386 484.643 55.8977 486.29 55.8977C487.768 55.8977 489.06 56.2008 490.168 56.8068C491.276 57.4034 492.138 58.3125 492.754 59.5341C493.369 60.7462 493.677 62.2803 493.677 64.1364V78H490.325V64.3636C490.325 62.6496 489.879 61.3144 488.989 60.358C488.099 59.392 486.878 58.9091 485.325 58.9091C484.254 58.9091 483.298 59.1411 482.455 59.6051C481.622 60.0691 480.964 60.7462 480.481 61.6364C479.998 62.5265 479.756 63.6061 479.756 64.875ZM508.609 86.6364C506.99 86.6364 505.598 86.428 504.433 86.0114C503.268 85.6042 502.298 85.0644 501.521 84.392C500.754 83.7292 500.143 83.0189 499.689 82.2614L502.359 80.3864C502.662 80.7841 503.046 81.2386 503.51 81.75C503.974 82.2708 504.608 82.7206 505.413 83.0994C506.228 83.4877 507.293 83.6818 508.609 83.6818C510.371 83.6818 511.824 83.2557 512.97 82.4034C514.116 81.5511 514.689 80.2159 514.689 78.3977V73.9659H514.405C514.159 74.3636 513.808 74.8561 513.354 75.4432C512.909 76.0208 512.265 76.5369 511.422 76.9915C510.589 77.4366 509.462 77.6591 508.041 77.6591C506.28 77.6591 504.698 77.2424 503.297 76.4091C501.905 75.5758 500.802 74.3636 499.987 72.7727C499.182 71.1818 498.78 69.25 498.78 66.9773C498.78 64.7424 499.173 62.7964 499.959 61.1392C500.745 59.4725 501.839 58.1847 503.24 57.2756C504.642 56.357 506.261 55.8977 508.098 55.8977C509.518 55.8977 510.645 56.1345 511.479 56.608C512.321 57.072 512.965 57.6023 513.411 58.1989C513.865 58.786 514.215 59.2689 514.462 59.6477H514.803V56.1818H518.041V78.625C518.041 80.5 517.615 82.0246 516.763 83.1989C515.92 84.3826 514.784 85.2491 513.354 85.7983C511.933 86.357 510.352 86.6364 508.609 86.6364ZM508.496 74.6477C509.84 74.6477 510.977 74.34 511.905 73.7244C512.833 73.1089 513.538 72.2235 514.021 71.0682C514.504 69.9129 514.746 68.5303 514.746 66.9205C514.746 65.3485 514.509 63.9612 514.036 62.7585C513.562 61.5559 512.861 60.6136 511.933 59.9318C511.005 59.25 509.859 58.9091 508.496 58.9091C507.075 58.9091 505.892 59.2689 504.945 59.9886C504.007 60.7083 503.302 61.6742 502.828 62.8864C502.364 64.0985 502.132 65.4432 502.132 66.9205C502.132 68.4356 502.369 69.7756 502.842 70.9403C503.325 72.0956 504.036 73.0047 504.973 73.6676C505.92 74.321 507.094 74.6477 508.496 74.6477ZM17.5227 109.068L14.5114 109.92C14.322 109.419 14.0426 108.931 13.6733 108.457C13.3134 107.974 12.821 107.577 12.196 107.264C11.571 106.952 10.7708 106.795 9.79545 106.795C8.46023 106.795 7.34754 107.103 6.45739 107.719C5.5767 108.325 5.13636 109.097 5.13636 110.034C5.13636 110.867 5.43939 111.526 6.04545 112.009C6.65152 112.491 7.59848 112.894 8.88636 113.216L12.125 114.011C14.0758 114.485 15.5294 115.209 16.4858 116.185C17.4422 117.151 17.9205 118.396 17.9205 119.92C17.9205 121.17 17.5606 122.288 16.8409 123.273C16.1307 124.258 15.1364 125.034 13.858 125.602C12.5795 126.17 11.0928 126.455 9.39773 126.455C7.17235 126.455 5.33049 125.972 3.87216 125.006C2.41383 124.04 1.49053 122.629 1.10227 120.773L4.28409 119.977C4.58712 121.152 5.16004 122.032 6.00284 122.619C6.85511 123.206 7.9678 123.5 9.34091 123.5C10.9034 123.5 12.1439 123.169 13.0625 122.506C13.9905 121.833 14.4545 121.028 14.4545 120.091C14.4545 119.333 14.1894 118.699 13.6591 118.188C13.1288 117.667 12.3144 117.278 11.2159 117.023L7.57955 116.17C5.58144 115.697 4.11364 114.963 3.17614 113.969C2.24811 112.965 1.78409 111.71 1.78409 110.205C1.78409 108.973 2.12973 107.884 2.82102 106.938C3.52178 105.991 4.47349 105.247 5.67614 104.707C6.88826 104.168 8.26136 103.898 9.79545 103.898C11.9545 103.898 13.6496 104.371 14.8807 105.318C16.1212 106.265 17.0019 107.515 17.5227 109.068ZM25.1257 134.182C24.5575 134.182 24.0509 134.134 23.6058 134.04C23.1607 133.955 22.853 133.869 22.6825 133.784L23.5348 130.83C24.3492 131.038 25.0689 131.114 25.6939 131.057C26.3189 131 26.8729 130.721 27.3558 130.219C27.8482 129.726 28.2981 128.926 28.7053 127.818L29.3303 126.114L21.2621 104.182H24.8984L30.9212 121.568H31.1484L37.1712 104.182H40.8075L31.5462 129.182C31.1295 130.309 30.6134 131.241 29.9979 131.98C29.3823 132.728 28.6674 133.282 27.853 133.642C27.0481 134.002 26.139 134.182 25.1257 134.182ZM60.6868 109.068L57.6754 109.92C57.486 109.419 57.2067 108.931 56.8374 108.457C56.4775 107.974 55.9851 107.577 55.3601 107.264C54.7351 106.952 53.9349 106.795 52.9595 106.795C51.6243 106.795 50.5116 107.103 49.6214 107.719C48.7408 108.325 48.3004 109.097 48.3004 110.034C48.3004 110.867 48.6035 111.526 49.2095 112.009C49.8156 112.491 50.7625 112.894 52.0504 113.216L55.2891 114.011C57.2398 114.485 58.6934 115.209 59.6499 116.185C60.6063 117.151 61.0845 118.396 61.0845 119.92C61.0845 121.17 60.7247 122.288 60.005 123.273C59.2947 124.258 58.3004 125.034 57.022 125.602C55.7436 126.17 54.2569 126.455 52.5618 126.455C50.3364 126.455 48.4946 125.972 47.0362 125.006C45.5779 124.04 44.6546 122.629 44.2663 120.773L47.4482 119.977C47.7512 121.152 48.3241 122.032 49.1669 122.619C50.0192 123.206 51.1319 123.5 52.505 123.5C54.0675 123.5 55.308 123.169 56.2266 122.506C57.1546 121.833 57.6186 121.028 57.6186 120.091C57.6186 119.333 57.3535 118.699 56.8232 118.188C56.2929 117.667 55.4785 117.278 54.38 117.023L50.7436 116.17C48.7455 115.697 47.2777 114.963 46.3402 113.969C45.4122 112.965 44.9482 111.71 44.9482 110.205C44.9482 108.973 45.2938 107.884 45.9851 106.938C46.6858 105.991 47.6375 105.247 48.8402 104.707C50.0523 104.168 51.4254 103.898 52.9595 103.898C55.1186 103.898 56.8137 104.371 58.0447 105.318C59.2853 106.265 60.166 107.515 60.6868 109.068ZM75.6193 104.182V107.023H64.3125V104.182H75.6193ZM67.608 98.9545H70.9602V119.75C70.9602 120.697 71.0975 121.407 71.3722 121.881C71.6563 122.345 72.0161 122.657 72.4517 122.818C72.8968 122.97 73.3655 123.045 73.858 123.045C74.2273 123.045 74.5303 123.027 74.767 122.989C75.0038 122.941 75.1932 122.903 75.3352 122.875L76.017 125.886C75.7898 125.972 75.4725 126.057 75.0653 126.142C74.6581 126.237 74.142 126.284 73.517 126.284C72.5701 126.284 71.642 126.08 70.733 125.673C69.8333 125.266 69.0852 124.646 68.4886 123.812C67.9015 122.979 67.608 121.928 67.608 120.659V98.9545ZM89.5753 126.455C87.473 126.455 85.6596 125.991 84.1349 125.062C82.6198 124.125 81.4503 122.818 80.6264 121.142C79.812 119.456 79.4048 117.496 79.4048 115.261C79.4048 113.027 79.812 111.057 80.6264 109.352C81.4503 107.638 82.5961 106.303 84.0639 105.347C85.5412 104.381 87.2647 103.898 89.2344 103.898C90.3707 103.898 91.4929 104.087 92.6009 104.466C93.7088 104.845 94.7173 105.46 95.6264 106.312C96.5355 107.155 97.2599 108.273 97.7997 109.665C98.3395 111.057 98.6094 112.771 98.6094 114.807V116.227H81.7912V113.33H95.2003C95.2003 112.098 94.9541 111 94.4616 110.034C93.9787 109.068 93.2874 108.306 92.3878 107.747C91.4976 107.188 90.4465 106.909 89.2344 106.909C87.8991 106.909 86.7438 107.241 85.7685 107.903C84.8026 108.557 84.0592 109.409 83.5384 110.46C83.0175 111.511 82.7571 112.638 82.7571 113.841V115.773C82.7571 117.42 83.0412 118.817 83.6094 119.963C84.187 121.099 84.9872 121.966 86.0099 122.562C87.0327 123.15 88.2211 123.443 89.5753 123.443C90.456 123.443 91.2514 123.32 91.9616 123.074C92.6813 122.818 93.3016 122.439 93.8224 121.938C94.3433 121.426 94.7457 120.792 95.0298 120.034L98.2685 120.943C97.9276 122.042 97.3546 123.008 96.5497 123.841C95.7448 124.665 94.7505 125.309 93.5668 125.773C92.383 126.227 91.0526 126.455 89.5753 126.455ZM103.709 126V104.182H106.947V107.591H107.232C107.686 106.426 108.42 105.522 109.433 104.878C110.446 104.224 111.663 103.898 113.084 103.898C114.523 103.898 115.721 104.224 116.678 104.878C117.643 105.522 118.396 106.426 118.936 107.591H119.163C119.722 106.464 120.56 105.569 121.678 104.906C122.795 104.234 124.135 103.898 125.697 103.898C127.648 103.898 129.244 104.509 130.484 105.73C131.725 106.942 132.345 108.831 132.345 111.398V126H128.993V111.398C128.993 109.788 128.553 108.637 127.672 107.946C126.791 107.255 125.754 106.909 124.561 106.909C123.027 106.909 121.839 107.373 120.996 108.301C120.153 109.22 119.732 110.384 119.732 111.795V126H116.322V111.057C116.322 109.816 115.92 108.817 115.115 108.06C114.31 107.293 113.273 106.909 112.004 106.909C111.133 106.909 110.319 107.141 109.561 107.605C108.813 108.069 108.207 108.713 107.743 109.537C107.288 110.351 107.061 111.294 107.061 112.364V126H103.709ZM141.429 96.9091V99.4659C141.429 100.242 141.287 101.071 141.003 101.952C140.728 102.823 140.321 103.67 139.781 104.494C139.251 105.309 138.607 106.019 137.849 106.625L136.031 105.148C136.628 104.295 137.144 103.41 137.58 102.491C138.025 101.563 138.247 100.574 138.247 99.5227V96.9091H141.429ZM148.702 96.9091V99.4659C148.702 100.242 148.56 101.071 148.276 101.952C148.001 102.823 147.594 103.67 147.054 104.494C146.524 105.309 145.88 106.019 145.122 106.625L143.304 105.148C143.901 104.295 144.417 103.41 144.852 102.491C145.297 101.563 145.52 100.574 145.52 99.5227V96.9091H148.702Z" fill="black"/>
<path d="M215.044 30.4545C212.942 30.4545 211.128 29.9905 209.604 29.0625C208.089 28.125 206.919 26.8182 206.095 25.142C205.281 23.4564 204.874 21.4962 204.874 19.2614C204.874 17.0265 205.281 15.0568 206.095 13.3523C206.919 11.6383 208.065 10.303 209.533 9.34659C211.01 8.38068 212.733 7.89773 214.703 7.89773C215.839 7.89773 216.962 8.08712 218.07 8.46591C219.178 8.8447 220.186 9.46023 221.095 10.3125C222.004 11.1553 222.729 12.2727 223.268 13.6648C223.808 15.0568 224.078 16.7708 224.078 18.8068V20.2273H207.26V17.3295H220.669C220.669 16.0985 220.423 15 219.93 14.0341C219.447 13.0682 218.756 12.3059 217.857 11.7472C216.966 11.1884 215.915 10.9091 214.703 10.9091C213.368 10.9091 212.213 11.2405 211.237 11.9034C210.271 12.5568 209.528 13.4091 209.007 14.4602C208.486 15.5114 208.226 16.6383 208.226 17.8409V19.7727C208.226 21.4205 208.51 22.8172 209.078 23.9631C209.656 25.0994 210.456 25.9659 211.479 26.5625C212.501 27.1496 213.69 27.4432 215.044 27.4432C215.925 27.4432 216.72 27.3201 217.43 27.0739C218.15 26.8182 218.77 26.4394 219.291 25.9375C219.812 25.4261 220.214 24.7917 220.499 24.0341L223.737 24.9432C223.396 26.0417 222.823 27.0076 222.018 27.8409C221.214 28.6648 220.219 29.3087 219.036 29.7727C217.852 30.2273 216.521 30.4545 215.044 30.4545ZM235.598 30.5114C234.215 30.5114 232.961 30.2509 231.834 29.7301C230.707 29.1998 229.812 28.4375 229.149 27.4432C228.486 26.4394 228.155 25.2273 228.155 23.8068C228.155 22.5568 228.401 21.5436 228.893 20.767C229.386 19.9811 230.044 19.3655 230.868 18.9205C231.692 18.4754 232.601 18.1439 233.595 17.9261C234.599 17.6989 235.607 17.5189 236.621 17.3864C237.946 17.2159 239.021 17.0881 239.845 17.0028C240.679 16.9081 241.285 16.7519 241.663 16.5341C242.052 16.3163 242.246 15.9375 242.246 15.3977V15.2841C242.246 13.8826 241.862 12.7936 241.095 12.017C240.338 11.2405 239.187 10.8523 237.643 10.8523C236.043 10.8523 234.788 11.2027 233.879 11.9034C232.97 12.6042 232.331 13.3523 231.962 14.1477L228.78 13.0114C229.348 11.6856 230.106 10.6534 231.053 9.91477C232.009 9.16667 233.051 8.64583 234.178 8.35227C235.314 8.04924 236.431 7.89773 237.53 7.89773C238.231 7.89773 239.036 7.98295 239.945 8.15341C240.863 8.31439 241.749 8.65057 242.601 9.16193C243.463 9.6733 244.178 10.4451 244.746 11.4773C245.314 12.5095 245.598 13.892 245.598 15.625V30H242.246V27.0455H242.075C241.848 27.5189 241.469 28.0256 240.939 28.5653C240.409 29.1051 239.703 29.5644 238.822 29.9432C237.942 30.322 236.867 30.5114 235.598 30.5114ZM236.109 27.5C237.435 27.5 238.553 27.2396 239.462 26.7188C240.38 26.1979 241.071 25.5256 241.536 24.7017C242.009 23.8778 242.246 23.0114 242.246 22.1023V19.0341C242.104 19.2045 241.791 19.3608 241.308 19.5028C240.835 19.6354 240.286 19.7538 239.661 19.858C239.045 19.9527 238.444 20.0379 237.857 20.1136C237.279 20.1799 236.81 20.2367 236.45 20.2841C235.579 20.3977 234.765 20.5824 234.007 20.8381C233.259 21.0843 232.653 21.4583 232.189 21.9602C231.734 22.4527 231.507 23.125 231.507 23.9773C231.507 25.142 231.938 26.0227 232.8 26.6193C233.671 27.2064 234.774 27.5 236.109 27.5ZM267.171 13.0682L264.16 13.9205C263.97 13.4186 263.691 12.9309 263.322 12.4574C262.962 11.9744 262.469 11.5767 261.844 11.2642C261.219 10.9517 260.419 10.7955 259.444 10.7955C258.109 10.7955 256.996 11.1032 256.106 11.7188C255.225 12.3248 254.785 13.0966 254.785 14.0341C254.785 14.8674 255.088 15.5256 255.694 16.0085C256.3 16.4915 257.247 16.8939 258.535 17.2159L261.773 18.0114C263.724 18.4848 265.178 19.2093 266.134 20.1847C267.091 21.1506 267.569 22.3958 267.569 23.9205C267.569 25.1705 267.209 26.2879 266.489 27.2727C265.779 28.2576 264.785 29.0341 263.506 29.6023C262.228 30.1705 260.741 30.4545 259.046 30.4545C256.821 30.4545 254.979 29.9716 253.521 29.0057C252.062 28.0398 251.139 26.6288 250.751 24.7727L253.933 23.9773C254.236 25.1515 254.808 26.0322 255.651 26.6193C256.504 27.2064 257.616 27.5 258.989 27.5C260.552 27.5 261.792 27.1686 262.711 26.5057C263.639 25.8333 264.103 25.0284 264.103 24.0909C264.103 23.3333 263.838 22.6989 263.308 22.1875C262.777 21.6667 261.963 21.2784 260.864 21.0227L257.228 20.1705C255.23 19.697 253.762 18.9631 252.825 17.9688C251.897 16.965 251.433 15.7102 251.433 14.2045C251.433 12.9735 251.778 11.8845 252.469 10.9375C253.17 9.99053 254.122 9.24716 255.325 8.70739C256.537 8.16761 257.91 7.89773 259.444 7.89773C261.603 7.89773 263.298 8.37121 264.529 9.31818C265.77 10.2652 266.65 11.5152 267.171 13.0682ZM274.774 38.1818C274.206 38.1818 273.699 38.1345 273.254 38.0398C272.809 37.9545 272.501 37.8693 272.331 37.7841L273.183 34.8295C273.998 35.0379 274.717 35.1136 275.342 35.0568C275.967 35 276.521 34.7206 277.004 34.2188C277.497 33.7263 277.946 32.9261 278.354 31.8182L278.979 30.1136L270.911 8.18182H274.547L280.57 25.5682H280.797L286.82 8.18182H290.456L281.195 33.1818C280.778 34.3087 280.262 35.2415 279.646 35.9801C279.031 36.7282 278.316 37.2822 277.501 37.642C276.696 38.0019 275.787 38.1818 274.774 38.1818Z" fill="#FFC6E5"/>
</svg>
