<svg width="221" height="163" viewBox="0 0 221 163" fill="none" xmlns="http://www.w3.org/2000/svg">
<path d="M32 105C32 109.418 28.4183 113 24 113H10.5801C5.27283 113 1.43669 107.927 2.88277 102.82L16.3027 55.4311C18.8334 46.4947 32 48.3231 32 57.6109V105Z" fill="#B98DEE"/>
<path d="M189 58C189 53.5817 192.582 50 197 50H210.42C215.727 50 219.563 55.0733 218.117 60.1798L204.697 107.569C202.167 116.505 189 114.677 189 105.389V58Z" fill="#F9AAD0"/>
<rect x="25.0138" y="49.6675" width="171.523" height="63.365" fill="url(#paint0_linear_6_2)"/>
<path d="M38 102C38 106.418 34.4183 110 30 110H18.474C13.199 110 9.36795 104.984 10.7559 99.8951L22.2819 57.6331C24.7377 48.6285 38 50.4046 38 59.738V102Z" fill="#FFC6E5"/>
<path d="M183 60C183 55.5817 186.582 52 191 52H202.526C207.801 52 211.632 57.0158 210.244 62.1049L198.718 104.367C196.262 113.372 183 111.595 183 102.262V60Z" fill="#FFC6E5"/>
<rect x="32" y="52" width="157" height="58" fill="#FFC6E5"/>
<path d="M55.0312 71.7447C54.8797 70.4 54.2547 69.3583 53.1562 68.6197C52.0578 67.8716 50.6752 67.4975 49.0085 67.4975C47.8153 67.4975 46.7831 67.6869 45.9119 68.0657C45.0407 68.435 44.3636 68.9464 43.8807 69.5998C43.4072 70.2437 43.1705 70.9776 43.1705 71.8015C43.1705 72.4928 43.3314 73.0894 43.6534 73.5913C43.9848 74.0932 44.4157 74.5146 44.946 74.8555C45.4858 75.1869 46.0634 75.4663 46.679 75.6935C47.2945 75.9113 47.8864 76.0913 48.4545 76.2333L51.2955 76.972C52.2235 77.1992 53.1752 77.507 54.1506 77.8952C55.1259 78.2835 56.0303 78.7949 56.8636 79.4293C57.697 80.0638 58.3693 80.8498 58.8807 81.7873C59.4015 82.7248 59.6619 83.847 59.6619 85.1538C59.6619 86.8015 59.2358 88.2646 58.3835 89.543C57.5407 90.8214 56.3144 91.8299 54.7045 92.5685C53.1042 93.3072 51.1676 93.6765 48.8949 93.6765C46.7169 93.6765 44.8324 93.3309 43.2415 92.6396C41.6506 91.9483 40.4053 90.9682 39.5057 89.6992C38.6061 88.4208 38.1089 86.9057 38.0142 85.1538H42.4176C42.5028 86.2049 42.8438 87.0809 43.4403 87.7816C44.0464 88.4729 44.8182 88.989 45.7557 89.3299C46.7027 89.6613 47.7396 89.8271 48.8665 89.8271C50.107 89.8271 51.2102 89.6329 52.1761 89.2447C53.1515 88.847 53.9186 88.2977 54.4773 87.597C55.036 86.8867 55.3153 86.0581 55.3153 85.1112C55.3153 84.2494 55.0691 83.5439 54.5767 82.9947C54.0938 82.4454 53.4356 81.9909 52.6023 81.631C51.7784 81.2712 50.8456 80.954 49.804 80.6793L46.3665 79.7418C44.0369 79.1074 42.1903 78.1746 40.8267 76.9435C39.4725 75.7125 38.7955 74.0837 38.7955 72.0572C38.7955 70.381 39.25 68.918 40.1591 67.668C41.0682 66.418 42.2992 65.4473 43.8523 64.756C45.4053 64.0553 47.1572 63.7049 49.108 63.7049C51.0777 63.7049 52.8153 64.0505 54.321 64.7418C55.8362 65.4331 57.0294 66.3848 57.9006 67.597C58.7718 68.7996 59.2263 70.1822 59.2642 71.7447H55.0312ZM64.5661 93.1935V71.3754H68.8132V93.1935H64.5661ZM66.7109 68.0089C65.9723 68.0089 65.3378 67.7627 64.8075 67.2702C64.2867 66.7684 64.0263 66.1718 64.0263 65.4805C64.0263 64.7797 64.2867 64.1831 64.8075 63.6907C65.3378 63.1888 65.9723 62.9379 66.7109 62.9379C67.4496 62.9379 68.0793 63.1888 68.6001 63.6907C69.1304 64.1831 69.3956 64.7797 69.3956 65.4805C69.3956 66.1718 69.1304 66.7684 68.6001 67.2702C68.0793 67.7627 67.4496 68.0089 66.7109 68.0089ZM83.6747 101.83C81.9418 101.83 80.4503 101.603 79.2003 101.148C77.9598 100.694 76.9465 100.092 76.1605 99.3441C75.3745 98.596 74.7874 97.7769 74.3991 96.8867L78.0497 95.381C78.3054 95.7977 78.6463 96.2381 79.0724 96.7021C79.508 97.1756 80.0952 97.578 80.8338 97.9095C81.5819 98.2409 82.5431 98.4066 83.7173 98.4066C85.3272 98.4066 86.6577 98.0136 87.7088 97.2276C88.7599 96.4511 89.2855 95.2106 89.2855 93.506V89.2163H89.0156C88.7599 89.6803 88.3906 90.1964 87.9077 90.7646C87.4342 91.3327 86.7808 91.8252 85.9474 92.2418C85.1141 92.6585 84.0298 92.8668 82.6946 92.8668C80.9711 92.8668 79.4181 92.4644 78.0355 91.6595C76.6624 90.8451 75.5734 89.6471 74.7685 88.0657C73.973 86.4748 73.5753 84.5193 73.5753 82.1992C73.5753 79.8791 73.9683 77.8905 74.7543 76.2333C75.5497 74.5761 76.6387 73.3072 78.0213 72.4265C79.4039 71.5363 80.9711 71.0913 82.723 71.0913C84.0772 71.0913 85.1709 71.3185 86.0043 71.7731C86.8376 72.2182 87.4863 72.739 87.9503 73.3356C88.4238 73.9322 88.7884 74.4577 89.044 74.9123H89.3565V71.3754H93.5185V93.6765C93.5185 95.5515 93.0829 97.0903 92.2116 98.293C91.3404 99.4956 90.1615 100.386 88.6747 100.963C87.1974 101.541 85.5308 101.83 83.6747 101.83ZM83.6321 89.3441C84.8537 89.3441 85.8859 89.06 86.7287 88.4918C87.581 87.9142 88.2249 87.0903 88.6605 86.0202C89.1056 84.9407 89.3281 83.6481 89.3281 82.1424C89.3281 80.6746 89.1103 79.382 88.6747 78.2646C88.2391 77.1471 87.5999 76.2759 86.7571 75.6509C85.9143 75.0165 84.8726 74.6992 83.6321 74.6992C82.3537 74.6992 81.2884 75.0307 80.4361 75.6935C79.5838 76.347 78.9399 77.2371 78.5043 78.364C78.0781 79.4909 77.8651 80.7504 77.8651 82.1424C77.8651 83.5723 78.0829 84.8271 78.5185 85.9066C78.9541 86.9862 79.598 87.829 80.4503 88.435C81.312 89.0411 82.3726 89.3441 83.6321 89.3441ZM103.462 80.239V93.1935H99.2145V71.3754H103.291V74.9265H103.561C104.063 73.7712 104.849 72.8432 105.919 72.1424C106.999 71.4416 108.357 71.0913 109.996 71.0913C111.482 71.0913 112.785 71.4038 113.902 72.0288C115.019 72.6443 115.886 73.5629 116.501 74.7845C117.117 76.006 117.425 77.5165 117.425 79.3157V93.1935H113.178V79.8271C113.178 78.2456 112.766 77.0098 111.942 76.1197C111.118 75.2201 109.986 74.7702 108.547 74.7702C107.562 74.7702 106.686 74.9833 105.919 75.4095C105.161 75.8356 104.56 76.4606 104.115 77.2845C103.679 78.0988 103.462 79.0837 103.462 80.239ZM152.755 64.1026H157.158V83.2362C157.158 85.2721 156.68 87.0761 155.724 88.6481C154.767 90.2106 153.423 91.4416 151.69 92.3413C149.957 93.2314 147.925 93.6765 145.596 93.6765C143.276 93.6765 141.249 93.2314 139.516 92.3413C137.783 91.4416 136.439 90.2106 135.482 88.6481C134.526 87.0761 134.048 85.2721 134.048 83.2362V64.1026H138.437V82.881C138.437 84.1973 138.726 85.3668 139.303 86.3896C139.89 87.4123 140.719 88.2172 141.789 88.8043C142.859 89.382 144.128 89.6708 145.596 89.6708C147.073 89.6708 148.347 89.382 149.417 88.8043C150.496 88.2172 151.32 87.4123 151.888 86.3896C152.466 85.3668 152.755 84.1973 152.755 82.881V64.1026ZM163.199 101.375V71.3754H167.347V74.9123H167.702C167.948 74.4577 168.303 73.9322 168.767 73.3356C169.231 72.739 169.875 72.2182 170.699 71.7731C171.523 71.3185 172.612 71.0913 173.966 71.0913C175.727 71.0913 177.299 71.5363 178.682 72.4265C180.064 73.3166 181.149 74.5998 181.935 76.2759C182.73 77.9521 183.128 79.9691 183.128 82.3271C183.128 84.685 182.735 86.7068 181.949 88.3924C181.163 90.0685 180.083 91.3612 178.71 92.2702C177.337 93.1699 175.77 93.6197 174.009 93.6197C172.683 93.6197 171.598 93.3971 170.756 92.9521C169.922 92.507 169.269 91.9862 168.795 91.3896C168.322 90.793 167.957 90.2627 167.702 89.7987H167.446V101.375H163.199ZM167.361 82.2845C167.361 83.8185 167.583 85.1632 168.028 86.3185C168.473 87.4738 169.117 88.3782 169.96 89.0316C170.803 89.6755 171.835 89.9975 173.057 89.9975C174.326 89.9975 175.386 89.6613 176.239 88.989C177.091 88.3072 177.735 87.3839 178.17 86.2191C178.616 85.0543 178.838 83.7428 178.838 82.2845C178.838 80.8451 178.62 79.5524 178.185 78.4066C177.759 77.2608 177.115 76.3564 176.253 75.6935C175.401 75.0307 174.335 74.6992 173.057 74.6992C171.826 74.6992 170.784 75.0165 169.932 75.6509C169.089 76.2854 168.45 77.1708 168.014 78.3072C167.579 79.4435 167.361 80.7693 167.361 82.2845Z" fill="#61596A"/>
<defs>
<linearGradient id="paint0_linear_6_2" x1="196.536" y1="81.35" x2="25.0138" y2="81.35" gradientUnits="userSpaceOnUse">
<stop stop-color="#F9AAD0"/>
<stop offset="1" stop-color="#B98DEE"/>
</linearGradient>
</defs>
</svg>
