<svg width="180" height="70" viewBox="0 0 180 70" fill="none" xmlns="http://www.w3.org/2000/svg">
<rect x="1.81854" y="1.5" width="176.532" height="66.365" rx="33.1825" fill="#5C506A" stroke="url(#paint0_linear_6_2)" stroke-width="3"/>
<path d="M45.4276 27.125C45.3215 26.1326 44.8745 25.3598 44.0866 24.8068C43.3063 24.2538 42.2912 23.9773 41.0412 23.9773C40.1624 23.9773 39.4086 24.1098 38.7798 24.375C38.151 24.6402 37.67 25 37.3366 25.4545C37.0033 25.9091 36.8329 26.428 36.8253 27.0114C36.8253 27.4962 36.9351 27.9167 37.1548 28.2727C37.3821 28.6288 37.6889 28.9318 38.0753 29.1818C38.4616 29.4242 38.8897 29.6288 39.3594 29.7955C39.8291 29.9621 40.3026 30.1023 40.7798 30.2159L42.9616 30.7614C43.8404 30.9659 44.6851 31.2424 45.4957 31.5909C46.3139 31.9394 47.045 32.3788 47.6889 32.9091C48.3404 33.4394 48.8556 34.0795 49.2344 34.8295C49.6132 35.5795 49.8026 36.4583 49.8026 37.4659C49.8026 38.8295 49.4541 40.0303 48.7571 41.0682C48.0601 42.0985 47.0526 42.9053 45.7344 43.4886C44.4238 44.0644 42.8366 44.3523 40.973 44.3523C39.1624 44.3523 37.5904 44.072 36.2571 43.5114C34.9313 42.9508 33.8935 42.1326 33.1435 41.0568C32.401 39.9811 31.9995 38.6705 31.9389 37.125H36.0866C36.1473 37.9356 36.3973 38.6098 36.8366 39.1477C37.276 39.6856 37.848 40.0871 38.5526 40.3523C39.2647 40.6174 40.0601 40.75 40.9389 40.75C41.8556 40.75 42.6586 40.6136 43.348 40.3409C44.045 40.0606 44.5904 39.6742 44.9844 39.1818C45.3783 38.6818 45.5791 38.0985 45.5866 37.4318C45.5791 36.8258 45.401 36.3258 45.0526 35.9318C44.7041 35.5303 44.2154 35.197 43.5866 34.9318C42.9654 34.6591 42.2382 34.4167 41.4048 34.2045L38.7571 33.5227C36.8404 33.0303 35.3253 32.2841 34.2116 31.2841C33.1056 30.2765 32.5526 28.9394 32.5526 27.2727C32.5526 25.9015 32.9238 24.7008 33.6662 23.6705C34.4162 22.6402 35.4351 21.8409 36.723 21.2727C38.0109 20.697 39.4692 20.4091 41.098 20.4091C42.7495 20.4091 44.1965 20.697 45.4389 21.2727C46.6889 21.8409 47.67 22.6326 48.3821 23.6477C49.0942 24.6553 49.4616 25.8144 49.4844 27.125H45.4276ZM53.3793 44V26.5455H57.4929V44H53.3793ZM55.4474 24.0682C54.7959 24.0682 54.2353 23.8523 53.7656 23.4205C53.2959 22.9811 53.0611 22.4545 53.0611 21.8409C53.0611 21.2197 53.2959 20.6932 53.7656 20.2614C54.2353 19.822 54.7959 19.6023 55.4474 19.6023C56.1065 19.6023 56.6671 19.822 57.1293 20.2614C57.599 20.6932 57.8338 21.2197 57.8338 21.8409C57.8338 22.4545 57.599 22.9811 57.1293 23.4205C56.6671 23.8523 56.1065 24.0682 55.4474 24.0682ZM69.3139 50.9091C67.8366 50.9091 66.5677 50.7083 65.5071 50.3068C64.4465 49.9129 63.5942 49.3826 62.9503 48.7159C62.3063 48.0492 61.8594 47.3106 61.6094 46.5L65.3139 45.6023C65.4806 45.9432 65.723 46.2803 66.0412 46.6136C66.3594 46.9545 66.7874 47.2348 67.3253 47.4545C67.8707 47.6818 68.5563 47.7955 69.3821 47.7955C70.5488 47.7955 71.5147 47.5114 72.2798 46.9432C73.045 46.3826 73.4276 45.4583 73.4276 44.1705V40.8636H73.223C73.0109 41.2879 72.7003 41.7235 72.2912 42.1705C71.8897 42.6174 71.3556 42.9924 70.6889 43.2955C70.0298 43.5985 69.2003 43.75 68.2003 43.75C66.8594 43.75 65.6435 43.4356 64.5526 42.8068C63.4692 42.1705 62.6056 41.2235 61.9616 39.9659C61.3253 38.7008 61.0071 37.1174 61.0071 35.2159C61.0071 33.2992 61.3253 31.6818 61.9616 30.3636C62.6056 29.0379 63.473 28.0341 64.5639 27.3523C65.6548 26.6629 66.8707 26.3182 68.2116 26.3182C69.2344 26.3182 70.0753 26.4924 70.7344 26.8409C71.401 27.1818 71.9313 27.5947 72.3253 28.0795C72.7192 28.5568 73.0185 29.0076 73.223 29.4318H73.4503V26.5455H77.5071V44.2841C77.5071 45.7765 77.151 47.0114 76.4389 47.9886C75.7268 48.9659 74.7533 49.697 73.5185 50.1818C72.2836 50.6667 70.8821 50.9091 69.3139 50.9091ZM69.348 40.5227C70.2192 40.5227 70.9616 40.3106 71.5753 39.8864C72.1889 39.4621 72.6548 38.8523 72.973 38.0568C73.2912 37.2614 73.4503 36.3068 73.4503 35.1932C73.4503 34.0947 73.2912 33.1326 72.973 32.3068C72.6624 31.4811 72.2003 30.8409 71.5866 30.3864C70.9806 29.9242 70.2344 29.6932 69.348 29.6932C68.4313 29.6932 67.6662 29.9318 67.0526 30.4091C66.4389 30.8864 65.9768 31.5417 65.6662 32.375C65.3556 33.2008 65.2003 34.1402 65.2003 35.1932C65.2003 36.2614 65.3556 37.197 65.6662 38C65.9844 38.7955 66.4503 39.4167 67.0639 39.8636C67.6851 40.303 68.4465 40.5227 69.348 40.5227ZM85.8366 33.7727V44H81.723V26.5455H85.6548V29.5114H85.8594C86.2609 28.5341 86.901 27.7576 87.7798 27.1818C88.6662 26.6061 89.7609 26.3182 91.0639 26.3182C92.2685 26.3182 93.3177 26.5758 94.2116 27.0909C95.1132 27.6061 95.8101 28.3523 96.3026 29.3295C96.8026 30.3068 97.0488 31.4924 97.0412 32.8864V44H92.9276V33.5227C92.9276 32.3561 92.6245 31.4432 92.0185 30.7841C91.42 30.125 90.5904 29.7955 89.5298 29.7955C88.8101 29.7955 88.17 29.9545 87.6094 30.2727C87.0563 30.5833 86.6207 31.0341 86.3026 31.625C85.992 32.2159 85.8366 32.9318 85.8366 33.7727ZM124.013 20.7273H128.229V35.9318C128.229 37.5985 127.835 39.0644 127.047 40.3295C126.267 41.5947 125.168 42.5833 123.751 43.2955C122.335 44 120.679 44.3523 118.786 44.3523C116.884 44.3523 115.225 44 113.808 43.2955C112.392 42.5833 111.293 41.5947 110.513 40.3295C109.732 39.0644 109.342 37.5985 109.342 35.9318V20.7273H113.558V35.5795C113.558 36.5492 113.77 37.4129 114.195 38.1705C114.626 38.928 115.232 39.5227 116.013 39.9545C116.793 40.3788 117.717 40.5909 118.786 40.5909C119.854 40.5909 120.778 40.3788 121.558 39.9545C122.346 39.5227 122.952 38.928 123.376 38.1705C123.801 37.4129 124.013 36.5492 124.013 35.5795V20.7273ZM132.629 50.5455V26.5455H136.675V29.4318H136.913C137.125 29.0076 137.425 28.5568 137.811 28.0795C138.197 27.5947 138.72 27.1818 139.379 26.8409C140.038 26.4924 140.879 26.3182 141.902 26.3182C143.25 26.3182 144.466 26.6629 145.55 27.3523C146.641 28.0341 147.504 29.0455 148.141 30.3864C148.785 31.7197 149.107 33.3561 149.107 35.2955C149.107 37.2121 148.792 38.8409 148.163 40.1818C147.535 41.5227 146.679 42.5455 145.595 43.25C144.512 43.9545 143.285 44.3068 141.913 44.3068C140.913 44.3068 140.084 44.1402 139.425 43.8068C138.766 43.4735 138.235 43.072 137.834 42.6023C137.44 42.125 137.133 41.6742 136.913 41.25H136.743V50.5455H132.629ZM136.663 35.2727C136.663 36.4015 136.822 37.3902 137.141 38.2386C137.466 39.0871 137.932 39.75 138.538 40.2273C139.152 40.697 139.894 40.9318 140.766 40.9318C141.675 40.9318 142.436 40.6894 143.05 40.2045C143.663 39.7121 144.125 39.0417 144.436 38.1932C144.754 37.3371 144.913 36.3636 144.913 35.2727C144.913 34.1894 144.758 33.2273 144.447 32.3864C144.137 31.5455 143.675 30.8864 143.061 30.4091C142.447 29.9318 141.682 29.6932 140.766 29.6932C139.887 29.6932 139.141 29.9242 138.527 30.3864C137.913 30.8485 137.447 31.4962 137.129 32.3295C136.819 33.1629 136.663 34.1439 136.663 35.2727Z" fill="#FFFFFC"/>
<defs>
<linearGradient id="paint0_linear_6_2" x1="90.0843" y1="3" x2="90.0843" y2="66.365" gradientUnits="userSpaceOnUse">
<stop stop-color="#C49DF2"/>
<stop offset="1" stop-color="#F9AAD0"/>
</linearGradient>
</defs>
</svg>
