<svg width="152" height="39" viewBox="0 0 152 39" fill="none" xmlns="http://www.w3.org/2000/svg">
<path d="M17.7969 8.55114C17.6454 7.20644 17.0204 6.16477 15.9219 5.42614C14.8234 4.67803 13.4408 4.30398 11.7741 4.30398C10.581 4.30398 9.54877 4.49337 8.67756 4.87216C7.80634 5.24148 7.12926 5.75284 6.64631 6.40625C6.17282 7.05019 5.93608 7.78409 5.93608 8.60795C5.93608 9.29924 6.09706 9.89583 6.41903 10.3977C6.75047 10.8996 7.18135 11.321 7.71165 11.6619C8.25142 11.9934 8.82907 12.2727 9.4446 12.5C10.0601 12.7178 10.652 12.8977 11.2202 13.0398L14.0611 13.7784C14.9891 14.0057 15.9408 14.3134 16.9162 14.7017C17.8916 15.09 18.7959 15.6013 19.6293 16.2358C20.4626 16.8703 21.1349 17.6562 21.6463 18.5938C22.1671 19.5312 22.4276 20.6534 22.4276 21.9602C22.4276 23.608 22.0014 25.071 21.1491 26.3494C20.3063 27.6278 19.08 28.6364 17.4702 29.375C15.8698 30.1136 13.9332 30.483 11.6605 30.483C9.48248 30.483 7.59801 30.1373 6.0071 29.446C4.41619 28.7547 3.17093 27.7746 2.27131 26.5057C1.37169 25.2273 0.874527 23.7121 0.77983 21.9602H5.18324C5.26847 23.0114 5.60938 23.8873 6.20597 24.5881C6.81203 25.2794 7.58381 25.7955 8.52131 26.1364C9.46828 26.4678 10.5052 26.6335 11.6321 26.6335C12.8726 26.6335 13.9759 26.4394 14.9418 26.0511C15.9171 25.6534 16.6842 25.1042 17.2429 24.4034C17.8016 23.6932 18.081 22.8646 18.081 21.9176C18.081 21.0559 17.8348 20.3504 17.3423 19.8011C16.8594 19.2519 16.2012 18.7973 15.3679 18.4375C14.544 18.0777 13.6113 17.7604 12.5696 17.4858L9.1321 16.5483C6.80256 15.9138 4.95597 14.9811 3.59233 13.75C2.23816 12.5189 1.56108 10.8902 1.56108 8.86364C1.56108 7.1875 2.01563 5.72443 2.92472 4.47443C3.83381 3.22443 5.06487 2.25379 6.6179 1.5625C8.17093 0.861742 9.92282 0.511363 11.8736 0.511363C13.8433 0.511363 15.581 0.857007 17.0866 1.5483C18.6018 2.23958 19.795 3.19129 20.6662 4.40341C21.5374 5.60606 21.992 6.98864 22.0298 8.55114H17.7969ZM41.1527 20.9517V8.18182H45.4141V30H41.2379V26.2216H41.0107C40.5088 27.3864 39.7038 28.357 38.5959 29.1335C37.4974 29.9006 36.129 30.2841 34.4908 30.2841C33.0893 30.2841 31.8487 29.9763 30.7692 29.3608C29.6991 28.7358 28.8563 27.8125 28.2408 26.5909C27.6347 25.3693 27.3317 23.8589 27.3317 22.0597V8.18182H31.5788V21.5483C31.5788 23.035 31.9908 24.2187 32.8146 25.0994C33.6385 25.9801 34.7086 26.4205 36.0249 26.4205C36.8203 26.4205 37.611 26.2216 38.397 25.8239C39.1925 25.4261 39.8506 24.8248 40.3714 24.0199C40.9018 23.215 41.1622 22.1922 41.1527 20.9517ZM51.1207 38.1818V8.18182H55.2685V11.7188H55.6236C55.8698 11.2642 56.2249 10.7386 56.6889 10.142C57.1529 9.54545 57.7969 9.02462 58.6207 8.57955C59.4446 8.125 60.5336 7.89773 61.8878 7.89773C63.6491 7.89773 65.2211 8.3428 66.6037 9.23295C67.9863 10.1231 69.0705 11.4062 69.8565 13.0824C70.652 14.7585 71.0497 16.7756 71.0497 19.1335C71.0497 21.4915 70.6567 23.5133 69.8707 25.1989C69.0848 26.875 68.0052 28.1676 66.6321 29.0767C65.259 29.9763 63.6918 30.4261 61.9304 30.4261C60.6046 30.4261 59.5204 30.2036 58.6776 29.7585C57.8442 29.3134 57.1908 28.7926 56.7173 28.196C56.2438 27.5994 55.8793 27.0691 55.6236 26.6051H55.3679V38.1818H51.1207ZM55.2827 19.0909C55.2827 20.625 55.5052 21.9697 55.9503 23.125C56.3954 24.2803 57.0393 25.1847 57.8821 25.8381C58.7249 26.482 59.7571 26.804 60.9787 26.804C62.2476 26.804 63.3082 26.4678 64.1605 25.7955C65.0128 25.1136 65.6567 24.1903 66.0923 23.0256C66.5374 21.8608 66.7599 20.5492 66.7599 19.0909C66.7599 17.6515 66.5421 16.3589 66.1065 15.2131C65.6804 14.0672 65.0365 13.1629 64.1747 12.5C63.3224 11.8371 62.2571 11.5057 60.9787 11.5057C59.7476 11.5057 58.706 11.8229 57.8537 12.4574C57.0109 13.0919 56.3717 13.9773 55.9361 15.1136C55.5005 16.25 55.2827 17.5758 55.2827 19.0909ZM75.8082 38.1818V8.18182H79.956V11.7188H80.3111C80.5573 11.2642 80.9124 10.7386 81.3764 10.142C81.8404 9.54545 82.4844 9.02462 83.3082 8.57955C84.1321 8.125 85.2211 7.89773 86.5753 7.89773C88.3366 7.89773 89.9086 8.3428 91.2912 9.23295C92.6738 10.1231 93.758 11.4062 94.544 13.0824C95.3395 14.7585 95.7372 16.7756 95.7372 19.1335C95.7372 21.4915 95.3442 23.5133 94.5582 25.1989C93.7723 26.875 92.6927 28.1676 91.3196 29.0767C89.9465 29.9763 88.3793 30.4261 86.6179 30.4261C85.2921 30.4261 84.2079 30.2036 83.3651 29.7585C82.5317 29.3134 81.8783 28.7926 81.4048 28.196C80.9313 27.5994 80.5668 27.0691 80.3111 26.6051H80.0554V38.1818H75.8082ZM79.9702 19.0909C79.9702 20.625 80.1927 21.9697 80.6378 23.125C81.0829 24.2803 81.7268 25.1847 82.5696 25.8381C83.4124 26.482 84.4446 26.804 85.6662 26.804C86.9351 26.804 87.9957 26.4678 88.848 25.7955C89.7003 25.1136 90.3442 24.1903 90.7798 23.0256C91.2249 21.8608 91.4474 20.5492 91.4474 19.0909C91.4474 17.6515 91.2296 16.3589 90.794 15.2131C90.3679 14.0672 89.724 13.1629 88.8622 12.5C88.0099 11.8371 86.9446 11.5057 85.6662 11.5057C84.4351 11.5057 83.3935 11.8229 82.5412 12.4574C81.6984 13.0919 81.0592 13.9773 80.6236 15.1136C80.188 16.25 79.9702 17.5758 79.9702 19.0909ZM109.686 30.4403C107.641 30.4403 105.856 29.9716 104.331 29.0341C102.806 28.0966 101.623 26.785 100.78 25.0994C99.937 23.4138 99.5156 21.4441 99.5156 19.1903C99.5156 16.9271 99.937 14.9479 100.78 13.2528C101.623 11.5578 102.806 10.2415 104.331 9.30398C105.856 8.36648 107.641 7.89773 109.686 7.89773C111.732 7.89773 113.517 8.36648 115.041 9.30398C116.566 10.2415 117.75 11.5578 118.592 13.2528C119.435 14.9479 119.857 16.9271 119.857 19.1903C119.857 21.4441 119.435 23.4138 118.592 25.0994C117.75 26.785 116.566 28.0966 115.041 29.0341C113.517 29.9716 111.732 30.4403 109.686 30.4403ZM109.7 26.875C111.026 26.875 112.125 26.5246 112.996 25.8239C113.867 25.1231 114.511 24.1903 114.928 23.0256C115.354 21.8608 115.567 20.5777 115.567 19.1761C115.567 17.7841 115.354 16.5057 114.928 15.3409C114.511 14.1667 113.867 13.2244 112.996 12.5142C112.125 11.804 111.026 11.4489 109.7 11.4489C108.365 11.4489 107.257 11.804 106.376 12.5142C105.505 13.2244 104.857 14.1667 104.43 15.3409C104.014 16.5057 103.805 17.7841 103.805 19.1761C103.805 20.5777 104.014 21.8608 104.43 23.0256C104.857 24.1903 105.505 25.1231 106.376 25.8239C107.257 26.5246 108.365 26.875 109.7 26.875ZM124.597 30V8.18182H128.702V11.6477H128.93C129.327 10.4735 130.028 9.55019 131.032 8.87784C132.045 8.19602 133.191 7.85511 134.469 7.85511C134.735 7.85511 135.047 7.86458 135.407 7.88352C135.776 7.90246 136.065 7.92614 136.273 7.95455V12.017C136.103 11.9697 135.8 11.9176 135.364 11.8608C134.929 11.7945 134.493 11.7614 134.058 11.7614C133.054 11.7614 132.159 11.9744 131.373 12.4006C130.596 12.8172 129.981 13.3996 129.526 14.1477C129.072 14.8864 128.844 15.7292 128.844 16.6761V30H124.597ZM151.423 8.18182V11.5909H139.505V8.18182H151.423ZM142.701 2.95455H146.948V23.5938C146.948 24.4176 147.071 25.0379 147.317 25.4545C147.564 25.8617 147.881 26.1411 148.269 26.2926C148.667 26.4347 149.098 26.5057 149.562 26.5057C149.903 26.5057 150.201 26.482 150.457 26.4347C150.712 26.3873 150.911 26.3494 151.053 26.321L151.82 29.8295C151.574 29.9242 151.224 30.0189 150.769 30.1136C150.315 30.2178 149.746 30.2746 149.065 30.2841C147.947 30.303 146.906 30.1042 145.94 29.6875C144.974 29.2708 144.192 28.6269 143.596 27.7557C142.999 26.8845 142.701 25.7907 142.701 24.4744V2.95455Z" fill="#B98DEE"/>
</svg>
