<svg width="947" height="166" viewBox="0 0 947 166" fill="none" xmlns="http://www.w3.org/2000/svg">
<path d="M55.9443 60.1818L72.8193 113.227H73.4671L90.3762 60.1818H106.74L82.6716 130H63.6489L39.5466 60.1818H55.9443ZM114.97 130V77.6364H129.493V130H114.97ZM122.266 70.8864C120.107 70.8864 118.255 70.1705 116.709 68.7386C115.186 67.2841 114.425 65.5455 114.425 63.5227C114.425 61.5227 115.186 59.8068 116.709 58.375C118.255 56.9205 120.107 56.1932 122.266 56.1932C124.425 56.1932 126.266 56.9205 127.789 58.375C129.334 59.8068 130.107 61.5227 130.107 63.5227C130.107 65.5455 129.334 67.2841 127.789 68.7386C126.266 70.1705 124.425 70.8864 122.266 70.8864ZM160.522 130.852C156.545 130.852 152.943 129.83 149.715 127.784C146.511 125.716 143.965 122.682 142.079 118.682C140.215 114.659 139.284 109.727 139.284 103.886C139.284 97.8864 140.249 92.8977 142.181 88.9205C144.113 84.9205 146.681 81.9318 149.886 79.9545C153.113 77.9545 156.647 76.9545 160.488 76.9545C163.42 76.9545 165.863 77.4545 167.818 78.4545C169.795 79.4318 171.386 80.6591 172.59 82.1364C173.818 83.5909 174.749 85.0227 175.386 86.4318H175.829V60.1818H190.318V130H175.999V121.614H175.386C174.704 123.068 173.738 124.511 172.488 125.943C171.261 127.352 169.659 128.523 167.681 129.455C165.727 130.386 163.34 130.852 160.522 130.852ZM165.124 119.295C167.465 119.295 169.443 118.659 171.056 117.386C172.693 116.091 173.943 114.284 174.806 111.966C175.693 109.648 176.136 106.932 176.136 103.818C176.136 100.705 175.704 98 174.84 95.7045C173.977 93.4091 172.727 91.6364 171.09 90.3864C169.454 89.1364 167.465 88.5114 165.124 88.5114C162.738 88.5114 160.727 89.1591 159.09 90.4545C157.454 91.75 156.215 93.5455 155.374 95.8409C154.534 98.1364 154.113 100.795 154.113 103.818C154.113 106.864 154.534 109.557 155.374 111.898C156.238 114.216 157.477 116.034 159.09 117.352C160.727 118.648 162.738 119.295 165.124 119.295ZM226.222 131.023C220.835 131.023 216.199 129.932 212.313 127.75C208.449 125.545 205.472 122.432 203.381 118.409C201.29 114.364 200.244 109.58 200.244 104.057C200.244 98.6705 201.29 93.9432 203.381 89.875C205.472 85.8068 208.415 82.6364 212.21 80.3636C216.028 78.0909 220.506 76.9545 225.642 76.9545C229.097 76.9545 232.313 77.5114 235.29 78.625C238.29 79.7159 240.903 81.3636 243.131 83.5682C245.381 85.7727 247.131 88.5455 248.381 91.8864C249.631 95.2045 250.256 99.0909 250.256 103.545V107.534H206.04V98.5341H236.585C236.585 96.4432 236.131 94.5909 235.222 92.9773C234.313 91.3636 233.051 90.1023 231.438 89.1932C229.847 88.2614 227.994 87.7955 225.881 87.7955C223.676 87.7955 221.722 88.3068 220.017 89.3295C218.335 90.3295 217.017 91.6818 216.063 93.3864C215.108 95.0682 214.619 96.9432 214.597 99.0114V107.568C214.597 110.159 215.074 112.398 216.028 114.284C217.006 116.17 218.381 117.625 220.153 118.648C221.926 119.67 224.028 120.182 226.46 120.182C228.074 120.182 229.551 119.955 230.892 119.5C232.233 119.045 233.381 118.364 234.335 117.455C235.29 116.545 236.017 115.432 236.517 114.114L249.949 115C249.267 118.227 247.869 121.045 245.756 123.455C243.665 125.841 240.96 127.705 237.642 129.045C234.347 130.364 230.54 131.023 226.222 131.023ZM283.492 131.023C278.197 131.023 273.617 129.898 269.753 127.648C265.913 125.375 262.947 122.216 260.856 118.17C258.765 114.102 257.719 109.386 257.719 104.023C257.719 98.6136 258.765 93.8864 260.856 89.8409C262.947 85.7727 265.913 82.6136 269.753 80.3636C273.617 78.0909 278.197 76.9545 283.492 76.9545C288.788 76.9545 293.356 78.0909 297.197 80.3636C301.06 82.6136 304.038 85.7727 306.128 89.8409C308.219 93.8864 309.265 98.6136 309.265 104.023C309.265 109.386 308.219 114.102 306.128 118.17C304.038 122.216 301.06 125.375 297.197 127.648C293.356 129.898 288.788 131.023 283.492 131.023ZM283.56 119.773C285.969 119.773 287.981 119.091 289.594 117.727C291.208 116.341 292.424 114.455 293.242 112.068C294.083 109.682 294.503 106.966 294.503 103.92C294.503 100.875 294.083 98.1591 293.242 95.7727C292.424 93.3864 291.208 91.5 289.594 90.1136C287.981 88.7273 285.969 88.0341 283.56 88.0341C281.128 88.0341 279.083 88.7273 277.424 90.1136C275.788 91.5 274.549 93.3864 273.708 95.7727C272.89 98.1591 272.481 100.875 272.481 103.92C272.481 106.966 272.89 109.682 273.708 112.068C274.549 114.455 275.788 116.341 277.424 117.727C279.083 119.091 281.128 119.773 283.56 119.773ZM364.786 131.023C359.422 131.023 354.809 129.886 350.945 127.614C347.104 125.318 344.149 122.136 342.081 118.068C340.036 114 339.013 109.318 339.013 104.023C339.013 98.6591 340.047 93.9545 342.115 89.9091C344.206 85.8409 347.172 82.6705 351.013 80.3977C354.854 78.1023 359.422 76.9545 364.718 76.9545C369.286 76.9545 373.286 77.7841 376.718 79.4432C380.149 81.1023 382.865 83.4318 384.865 86.4318C386.865 89.4318 387.968 92.9545 388.172 97H374.468C374.081 94.3864 373.059 92.2841 371.399 90.6932C369.763 89.0795 367.615 88.2727 364.956 88.2727C362.706 88.2727 360.74 88.8864 359.059 90.1136C357.399 91.3182 356.104 93.0795 355.172 95.3977C354.24 97.7159 353.774 100.523 353.774 103.818C353.774 107.159 354.229 110 355.138 112.341C356.07 114.682 357.377 116.466 359.059 117.693C360.74 118.92 362.706 119.534 364.956 119.534C366.615 119.534 368.104 119.193 369.422 118.511C370.763 117.83 371.865 116.841 372.729 115.545C373.615 114.227 374.195 112.648 374.468 110.807H388.172C387.945 114.807 386.854 118.33 384.899 121.375C382.968 124.398 380.297 126.761 376.888 128.466C373.479 130.17 369.445 131.023 364.786 131.023ZM421.23 131.023C415.934 131.023 411.355 129.898 407.491 127.648C403.65 125.375 400.684 122.216 398.593 118.17C396.502 114.102 395.457 109.386 395.457 104.023C395.457 98.6136 396.502 93.8864 398.593 89.8409C400.684 85.7727 403.65 82.6136 407.491 80.3636C411.355 78.0909 415.934 76.9545 421.23 76.9545C426.525 76.9545 431.093 78.0909 434.934 80.3636C438.798 82.6136 441.775 85.7727 443.866 89.8409C445.957 93.8864 447.002 98.6136 447.002 104.023C447.002 109.386 445.957 114.102 443.866 118.17C441.775 122.216 438.798 125.375 434.934 127.648C431.093 129.898 426.525 131.023 421.23 131.023ZM421.298 119.773C423.707 119.773 425.718 119.091 427.332 117.727C428.945 116.341 430.161 114.455 430.98 112.068C431.82 109.682 432.241 106.966 432.241 103.92C432.241 100.875 431.82 98.1591 430.98 95.7727C430.161 93.3864 428.945 91.5 427.332 90.1136C425.718 88.7273 423.707 88.0341 421.298 88.0341C418.866 88.0341 416.82 88.7273 415.161 90.1136C413.525 91.5 412.286 93.3864 411.445 95.7727C410.627 98.1591 410.218 100.875 410.218 103.92C410.218 106.966 410.627 109.682 411.445 112.068C412.286 114.455 413.525 116.341 415.161 117.727C416.82 119.091 418.866 119.773 421.298 119.773ZM471.068 99.7273V130H456.545V77.6364H470.386V86.875H471C472.159 83.8295 474.102 81.4205 476.83 79.6477C479.557 77.8523 482.864 76.9545 486.75 76.9545C490.386 76.9545 493.557 77.75 496.261 79.3409C498.966 80.9318 501.068 83.2045 502.568 86.1591C504.068 89.0909 504.818 92.5909 504.818 96.6591V130H490.295V99.25C490.318 96.0455 489.5 93.5455 487.841 91.75C486.182 89.9318 483.898 89.0227 480.989 89.0227C479.034 89.0227 477.307 89.4432 475.807 90.2841C474.33 91.125 473.17 92.3523 472.33 93.9659C471.511 95.5568 471.091 97.4773 471.068 99.7273ZM544.523 77.6364V88.5455H512.205V77.6364H544.523ZM519.603 130V73.8523C519.603 70.0568 520.341 66.9091 521.819 64.4091C523.319 61.9091 525.364 60.0341 527.955 58.7841C530.546 57.5341 533.489 56.9091 536.785 56.9091C539.012 56.9091 541.046 57.0795 542.887 57.4205C544.751 57.7614 546.137 58.0682 547.046 58.3409L544.455 69.25C543.887 69.0682 543.182 68.8977 542.341 68.7386C541.523 68.5795 540.682 68.5 539.819 68.5C537.682 68.5 536.194 69 535.353 70C534.512 70.9773 534.091 72.3523 534.091 74.125V130H519.603ZM575.484 131.023C570.098 131.023 565.461 129.932 561.575 127.75C557.711 125.545 554.734 122.432 552.643 118.409C550.552 114.364 549.507 109.58 549.507 104.057C549.507 98.6705 550.552 93.9432 552.643 89.875C554.734 85.8068 557.677 82.6364 561.473 80.3636C565.291 78.0909 569.768 76.9545 574.905 76.9545C578.359 76.9545 581.575 77.5114 584.552 78.625C587.552 79.7159 590.166 81.3636 592.393 83.5682C594.643 85.7727 596.393 88.5455 597.643 91.8864C598.893 95.2045 599.518 99.0909 599.518 103.545V107.534H555.302V98.5341H585.848C585.848 96.4432 585.393 94.5909 584.484 92.9773C583.575 91.3636 582.314 90.1023 580.7 89.1932C579.109 88.2614 577.257 87.7955 575.143 87.7955C572.939 87.7955 570.984 88.3068 569.28 89.3295C567.598 90.3295 566.28 91.6818 565.325 93.3864C564.37 95.0682 563.882 96.9432 563.859 99.0114V107.568C563.859 110.159 564.336 112.398 565.291 114.284C566.268 116.17 567.643 117.625 569.416 118.648C571.189 119.67 573.291 120.182 575.723 120.182C577.336 120.182 578.814 119.955 580.155 119.5C581.495 119.045 582.643 118.364 583.598 117.455C584.552 116.545 585.28 115.432 585.78 114.114L599.211 115C598.53 118.227 597.132 121.045 595.018 123.455C592.927 125.841 590.223 127.705 586.905 129.045C583.609 130.364 579.802 131.023 575.484 131.023ZM609.095 130V77.6364H623.175V86.7727H623.72C624.675 83.5227 626.277 81.0682 628.527 79.4091C630.777 77.7273 633.368 76.8864 636.3 76.8864C637.027 76.8864 637.811 76.9318 638.652 77.0227C639.493 77.1136 640.232 77.2386 640.868 77.3977V90.2841C640.186 90.0795 639.243 89.8977 638.039 89.7386C636.834 89.5795 635.732 89.5 634.732 89.5C632.595 89.5 630.686 89.9659 629.005 90.8977C627.345 91.8068 626.027 93.0795 625.05 94.7159C624.095 96.3523 623.618 98.2386 623.618 100.375V130H609.095ZM669.903 131.023C664.517 131.023 659.88 129.932 655.994 127.75C652.13 125.545 649.153 122.432 647.062 118.409C644.971 114.364 643.926 109.58 643.926 104.057C643.926 98.6705 644.971 93.9432 647.062 89.875C649.153 85.8068 652.096 82.6364 655.892 80.3636C659.71 78.0909 664.187 76.9545 669.323 76.9545C672.778 76.9545 675.994 77.5114 678.971 78.625C681.971 79.7159 684.585 81.3636 686.812 83.5682C689.062 85.7727 690.812 88.5455 692.062 91.8864C693.312 95.2045 693.937 99.0909 693.937 103.545V107.534H649.721V98.5341H680.267C680.267 96.4432 679.812 94.5909 678.903 92.9773C677.994 91.3636 676.732 90.1023 675.119 89.1932C673.528 88.2614 671.676 87.7955 669.562 87.7955C667.357 87.7955 665.403 88.3068 663.698 89.3295C662.017 90.3295 660.698 91.6818 659.744 93.3864C658.789 95.0682 658.301 96.9432 658.278 99.0114V107.568C658.278 110.159 658.755 112.398 659.71 114.284C660.687 116.17 662.062 117.625 663.835 118.648C665.607 119.67 667.71 120.182 670.142 120.182C671.755 120.182 673.232 119.955 674.573 119.5C675.914 119.045 677.062 118.364 678.017 117.455C678.971 116.545 679.698 115.432 680.198 114.114L693.63 115C692.948 118.227 691.551 121.045 689.437 123.455C687.346 125.841 684.642 127.705 681.323 129.045C678.028 130.364 674.221 131.023 669.903 131.023ZM718.037 99.7273V130H703.514V77.6364H717.355V86.875H717.969C719.128 83.8295 721.071 81.4205 723.798 79.6477C726.526 77.8523 729.832 76.9545 733.719 76.9545C737.355 76.9545 740.526 77.75 743.23 79.3409C745.935 80.9318 748.037 83.2045 749.537 86.1591C751.037 89.0909 751.787 92.5909 751.787 96.6591V130H737.264V99.25C737.287 96.0455 736.469 93.5455 734.81 91.75C733.151 89.9318 730.866 89.0227 727.957 89.0227C726.003 89.0227 724.276 89.4432 722.776 90.2841C721.298 91.125 720.139 92.3523 719.298 93.9659C718.48 95.5568 718.06 97.4773 718.037 99.7273ZM786.992 131.023C781.628 131.023 777.015 129.886 773.151 127.614C769.31 125.318 766.356 122.136 764.288 118.068C762.242 114 761.219 109.318 761.219 104.023C761.219 98.6591 762.253 93.9545 764.322 89.9091C766.413 85.8409 769.378 82.6705 773.219 80.3977C777.06 78.1023 781.628 76.9545 786.924 76.9545C791.492 76.9545 795.492 77.7841 798.924 79.4432C802.356 81.1023 805.072 83.4318 807.072 86.4318C809.072 89.4318 810.174 92.9545 810.378 97H796.674C796.288 94.3864 795.265 92.2841 793.606 90.6932C791.969 89.0795 789.822 88.2727 787.163 88.2727C784.913 88.2727 782.947 88.8864 781.265 90.1136C779.606 91.3182 778.31 93.0795 777.378 95.3977C776.447 97.7159 775.981 100.523 775.981 103.818C775.981 107.159 776.435 110 777.344 112.341C778.276 114.682 779.583 116.466 781.265 117.693C782.947 118.92 784.913 119.534 787.163 119.534C788.822 119.534 790.31 119.193 791.628 118.511C792.969 117.83 794.072 116.841 794.935 115.545C795.822 114.227 796.401 112.648 796.674 110.807H810.378C810.151 114.807 809.06 118.33 807.106 121.375C805.174 124.398 802.503 126.761 799.094 128.466C795.685 130.17 791.651 131.023 786.992 131.023ZM843.64 131.023C838.254 131.023 833.618 129.932 829.731 127.75C825.868 125.545 822.89 122.432 820.799 118.409C818.709 114.364 817.663 109.58 817.663 104.057C817.663 98.6705 818.709 93.9432 820.799 89.875C822.89 85.8068 825.834 82.6364 829.629 80.3636C833.447 78.0909 837.924 76.9545 843.061 76.9545C846.515 76.9545 849.731 77.5114 852.709 78.625C855.709 79.7159 858.322 81.3636 860.549 83.5682C862.799 85.7727 864.549 88.5455 865.799 91.8864C867.049 95.2045 867.674 99.0909 867.674 103.545V107.534H823.459V98.5341H854.004C854.004 96.4432 853.549 94.5909 852.64 92.9773C851.731 91.3636 850.47 90.1023 848.856 89.1932C847.265 88.2614 845.413 87.7955 843.299 87.7955C841.095 87.7955 839.14 88.3068 837.436 89.3295C835.754 90.3295 834.436 91.6818 833.481 93.3864C832.527 95.0682 832.038 96.9432 832.015 99.0114V107.568C832.015 110.159 832.493 112.398 833.447 114.284C834.424 116.17 835.799 117.625 837.572 118.648C839.345 119.67 841.447 120.182 843.879 120.182C845.493 120.182 846.97 119.955 848.311 119.5C849.652 119.045 850.799 118.364 851.754 117.455C852.709 116.545 853.436 115.432 853.936 114.114L867.368 115C866.686 118.227 865.288 121.045 863.174 123.455C861.084 125.841 858.379 127.705 855.061 129.045C851.765 130.364 847.959 131.023 843.64 131.023ZM877.252 130V77.6364H891.331V86.7727H891.877C892.831 83.5227 894.434 81.0682 896.684 79.4091C898.934 77.7273 901.524 76.8864 904.456 76.8864C905.184 76.8864 905.968 76.9318 906.809 77.0227C907.649 77.1136 908.388 77.2386 909.024 77.3977V90.2841C908.343 90.0795 907.399 89.8977 906.195 89.7386C904.99 89.5795 903.888 89.5 902.888 89.5C900.752 89.5 898.843 89.9659 897.161 90.8977C895.502 91.8068 894.184 93.0795 893.206 94.7159C892.252 96.3523 891.774 98.2386 891.774 100.375V130H877.252Z" fill="url(#paint0_linear_40_18)"/>
<path d="M348.46 35L338.778 0.0909081H344.317L351.119 27.125H351.442L358.516 0.0909081H364.005L371.079 27.142H371.403L378.187 0.0909081H383.744L374.045 35H368.744L361.397 8.85227H361.124L353.778 35H348.46ZM396.943 35.5284C394.363 35.5284 392.142 34.9773 390.278 33.875C388.426 32.7614 386.994 31.1989 385.983 29.1875C384.983 27.1648 384.483 24.7955 384.483 22.0795C384.483 19.3977 384.983 17.0341 385.983 14.9886C386.994 12.9432 388.403 11.3466 390.21 10.1989C392.028 9.05114 394.153 8.47727 396.585 8.47727C398.062 8.47727 399.494 8.72159 400.881 9.21023C402.267 9.69886 403.511 10.4659 404.613 11.5114C405.716 12.5568 406.585 13.9148 407.221 15.5852C407.858 17.2443 408.176 19.2614 408.176 21.6364V23.4432H387.363V19.625H403.182C403.182 18.2841 402.909 17.0966 402.363 16.0625C401.818 15.017 401.051 14.1932 400.062 13.5909C399.085 12.9886 397.937 12.6875 396.619 12.6875C395.187 12.6875 393.937 13.0398 392.869 13.7443C391.812 14.4375 390.994 15.3466 390.415 16.4716C389.846 17.5852 389.562 18.7955 389.562 20.1023V23.0852C389.562 24.8352 389.869 26.3239 390.483 27.5511C391.108 28.7784 391.977 29.7159 393.091 30.3636C394.204 31 395.506 31.3182 396.994 31.3182C397.96 31.3182 398.841 31.1818 399.636 30.9091C400.432 30.625 401.119 30.2045 401.699 29.6477C402.278 29.0909 402.721 28.4034 403.028 27.5852L407.852 28.4545C407.466 29.875 406.773 31.1193 405.773 32.1875C404.784 33.2443 403.54 34.0682 402.04 34.6591C400.551 35.2386 398.852 35.5284 396.943 35.5284ZM419.027 0.0909081V35H413.931V0.0909081H419.027ZM437.012 35.5284C434.478 35.5284 432.296 34.9545 430.467 33.8068C428.649 32.6477 427.251 31.0511 426.274 29.017C425.296 26.983 424.808 24.6534 424.808 22.0284C424.808 19.3693 425.308 17.0227 426.308 14.9886C427.308 12.9432 428.717 11.3466 430.535 10.1989C432.353 9.05114 434.495 8.47727 436.961 8.47727C438.95 8.47727 440.723 8.84659 442.279 9.58523C443.836 10.3125 445.092 11.3352 446.046 12.6534C447.012 13.9716 447.586 15.5114 447.768 17.2727H442.808C442.535 16.0455 441.91 14.9886 440.933 14.1023C439.967 13.2159 438.671 12.7727 437.046 12.7727C435.626 12.7727 434.382 13.1477 433.313 13.8977C432.257 14.6364 431.433 15.6932 430.842 17.0682C430.251 18.4318 429.956 20.0455 429.956 21.9091C429.956 23.8182 430.245 25.4659 430.825 26.8523C431.404 28.2386 432.223 29.3125 433.279 30.0739C434.348 30.8352 435.603 31.2159 437.046 31.2159C438.012 31.2159 438.887 31.0398 439.671 30.6875C440.467 30.3239 441.132 29.8068 441.666 29.1364C442.211 28.4659 442.592 27.6591 442.808 26.7159H447.768C447.586 28.4091 447.035 29.9205 446.115 31.25C445.194 32.5795 443.961 33.625 442.416 34.3864C440.882 35.1477 439.081 35.5284 437.012 35.5284ZM464.347 35.5284C461.892 35.5284 459.75 34.9659 457.921 33.8409C456.091 32.7159 454.671 31.142 453.659 29.1193C452.648 27.0966 452.142 24.733 452.142 22.0284C452.142 19.3125 452.648 16.9375 453.659 14.9034C454.671 12.8693 456.091 11.2898 457.921 10.1648C459.75 9.03977 461.892 8.47727 464.347 8.47727C466.801 8.47727 468.943 9.03977 470.773 10.1648C472.602 11.2898 474.023 12.8693 475.034 14.9034C476.046 16.9375 476.551 19.3125 476.551 22.0284C476.551 24.733 476.046 27.0966 475.034 29.1193C474.023 31.142 472.602 32.7159 470.773 33.8409C468.943 34.9659 466.801 35.5284 464.347 35.5284ZM464.364 31.25C465.955 31.25 467.273 30.8295 468.318 29.9886C469.364 29.1477 470.137 28.0284 470.637 26.6307C471.148 25.233 471.404 23.6932 471.404 22.0114C471.404 20.3409 471.148 18.8068 470.637 17.4091C470.137 16 469.364 14.8693 468.318 14.017C467.273 13.1648 465.955 12.7386 464.364 12.7386C462.762 12.7386 461.432 13.1648 460.375 14.017C459.33 14.8693 458.551 16 458.04 17.4091C457.54 18.8068 457.29 20.3409 457.29 22.0114C457.29 23.6932 457.54 25.233 458.04 26.6307C458.551 28.0284 459.33 29.1477 460.375 29.9886C461.432 30.8295 462.762 31.25 464.364 31.25ZM482.34 35V8.81818H487.232V13.0795H487.556C488.102 11.6364 488.994 10.5114 490.232 9.70455C491.471 8.88636 492.954 8.47727 494.681 8.47727C496.431 8.47727 497.897 8.88636 499.079 9.70455C500.272 10.5227 501.153 11.6477 501.721 13.0795H501.994C502.619 11.6818 503.613 10.5682 504.977 9.73864C506.34 8.89773 507.965 8.47727 509.852 8.47727C512.227 8.47727 514.164 9.22159 515.664 10.7102C517.175 12.1989 517.931 14.4432 517.931 17.4432V35H512.835V17.9205C512.835 16.1477 512.352 14.8636 511.386 14.0682C510.42 13.2727 509.266 12.875 507.925 12.875C506.266 12.875 504.977 13.3864 504.056 14.4091C503.136 15.4205 502.675 16.7216 502.675 18.3125V35H497.596V17.5966C497.596 16.1761 497.153 15.0341 496.266 14.1705C495.38 13.3068 494.227 12.875 492.806 12.875C491.84 12.875 490.948 13.1307 490.13 13.642C489.323 14.142 488.67 14.8409 488.17 15.7386C487.681 16.6364 487.437 17.6761 487.437 18.858V35H482.34ZM536.146 35.5284C533.567 35.5284 531.345 34.9773 529.481 33.875C527.629 32.7614 526.197 31.1989 525.186 29.1875C524.186 27.1648 523.686 24.7955 523.686 22.0795C523.686 19.3977 524.186 17.0341 525.186 14.9886C526.197 12.9432 527.606 11.3466 529.413 10.1989C531.231 9.05114 533.356 8.47727 535.788 8.47727C537.265 8.47727 538.697 8.72159 540.084 9.21023C541.47 9.69886 542.714 10.4659 543.817 11.5114C544.919 12.5568 545.788 13.9148 546.425 15.5852C547.061 17.2443 547.379 19.2614 547.379 21.6364V23.4432H526.567V19.625H542.385C542.385 18.2841 542.112 17.0966 541.567 16.0625C541.021 15.017 540.254 14.1932 539.265 13.5909C538.288 12.9886 537.14 12.6875 535.822 12.6875C534.39 12.6875 533.14 13.0398 532.072 13.7443C531.015 14.4375 530.197 15.3466 529.618 16.4716C529.05 17.5852 528.765 18.7955 528.765 20.1023V23.0852C528.765 24.8352 529.072 26.3239 529.686 27.5511C530.311 28.7784 531.18 29.7159 532.294 30.3636C533.408 31 534.709 31.3182 536.197 31.3182C537.163 31.3182 538.044 31.1818 538.839 30.9091C539.635 30.625 540.322 30.2045 540.902 29.6477C541.481 29.0909 541.925 28.4034 542.231 27.5852L547.055 28.4545C546.669 29.875 545.976 31.1193 544.976 32.1875C543.987 33.2443 542.743 34.0682 541.243 34.6591C539.754 35.2386 538.055 35.5284 536.146 35.5284ZM578.159 8.81818V12.9091H563.858V8.81818H578.159ZM567.693 2.54545H572.789V27.3125C572.789 28.3011 572.937 29.0455 573.233 29.5455C573.528 30.0341 573.909 30.3693 574.375 30.5511C574.852 30.7216 575.369 30.8068 575.926 30.8068C576.335 30.8068 576.693 30.7784 577 30.7216C577.306 30.6648 577.545 30.6193 577.715 30.5852L578.636 34.7955C578.34 34.9091 577.92 35.0227 577.375 35.1364C576.829 35.2614 576.147 35.3295 575.329 35.3409C573.988 35.3636 572.738 35.125 571.579 34.625C570.42 34.125 569.483 33.3523 568.767 32.3068C568.051 31.2614 567.693 29.9489 567.693 28.3693V2.54545ZM594.644 35.5284C592.189 35.5284 590.047 34.9659 588.217 33.8409C586.388 32.7159 584.967 31.142 583.956 29.1193C582.945 27.0966 582.439 24.733 582.439 22.0284C582.439 19.3125 582.945 16.9375 583.956 14.9034C584.967 12.8693 586.388 11.2898 588.217 10.1648C590.047 9.03977 592.189 8.47727 594.644 8.47727C597.098 8.47727 599.24 9.03977 601.07 10.1648C602.899 11.2898 604.32 12.8693 605.331 14.9034C606.342 16.9375 606.848 19.3125 606.848 22.0284C606.848 24.733 606.342 27.0966 605.331 29.1193C604.32 31.142 602.899 32.7159 601.07 33.8409C599.24 34.9659 597.098 35.5284 594.644 35.5284ZM594.661 31.25C596.252 31.25 597.57 30.8295 598.615 29.9886C599.661 29.1477 600.433 28.0284 600.933 26.6307C601.445 25.233 601.7 23.6932 601.7 22.0114C601.7 20.3409 601.445 18.8068 600.933 17.4091C600.433 16 599.661 14.8693 598.615 14.017C597.57 13.1648 596.252 12.7386 594.661 12.7386C593.058 12.7386 591.729 13.1648 590.672 14.017C589.627 14.8693 588.848 16 588.337 17.4091C587.837 18.8068 587.587 20.3409 587.587 22.0114C587.587 23.6932 587.837 25.233 588.337 26.6307C588.848 28.0284 589.627 29.1477 590.672 29.9886C591.729 30.8295 593.058 31.25 594.661 31.25Z" fill="#AA9494"/>
<rect y="161" width="947" height="5" fill="#574F4F"/>
<defs>
<linearGradient id="paint0_linear_40_18" x1="911" y1="97.5" x2="37" y2="97.5" gradientUnits="userSpaceOnUse">
<stop stop-color="#B98DEE"/>
<stop offset="1" stop-color="#FFC6E5"/>
</linearGradient>
</defs>
</svg>
